<svg width="227" height="315" xmlns="http://www.w3.org/2000/svg">
    <g transform="matrix(1,0,0,1,12,25)" stroke="none" stroke-width="1" fill="none" fill-rule="evenodd">
        <path d="M7.8,46.3C5.7,42.7,3.4,39.3,0.6,36.3C3.4,33.4,5.7,29.9,7.8,26.4c2.2,3.5,4.5,7,7.3,9.9c-2.8,3-5.1,6.4-7.3,10z" fill="#D40000" />
        <path d="M195,237.6c-2.2-3.6-4.5-7.1-7.3-10c2.8-3,5.1-6.4,7.3-10c2.1,3.6,4.4,7,7.2,10c-2.8,2.9-5.1,6.4-7.2,10z" fill="#D40000" />
        <path d="M50.1,57C44.9,48.5,39.5,40.2,32.7,33.1C39.5,26,44.9,17.7,50.1,9.1c5.2,8.6,10.6,16.9,17.4,24C60.7,40.2,55.3,48.5,50.1,57z" fill="#D40000" />
        <path d="M152.7,254.8C147.5,246.3,142.1,238,135.3,230.9c6.8-7.1,12.2-15.4,17.4-24c5.2,8.6,10.6,16.9,17.4,24c-6.8,7.1-12.2,15.4-17.4,23.9z" fill="#D40000" />
        <path d="M20.1,263.1V0.8H182.7V263.1H20.1zM78.6,44.4C72.8,42.8,73,48.6,77.2,48.8C82,49.2,84,41.1,81.8,37.9c0,0-2,6.1-3.2,6.5zM40.9,77.1L34,80.2,33.9,85.5c2.9-2.4,5.2-5.2,7-8.4zM88.6,234c-1.4-0.7-3.1-2.2-2.8-2.5c0.1-0.1,0.9,0.1,1.5,0.5c5.5,2.3,9.7,2.1,16.2-0.3c0.5-0.1,1.3,0.8,1,1.3c-2.9,4.3-12.2,2.8-15.9,1zm-2.9-6.4c-1.3-1.9,0.4-0.5,1,0.1c4,3.7,9.5,5,14.2,1.5c0.2-0.3,0.2-0.5,0.1-0.7c-0.1-0.3-0.1,0-2.1,0.7c-4.5,1.7-8.3,0.3-12-2.5c-1.5-1.2-2.2-1.8-2.2-2.1c0-0.2,0.2-0.4,0.8-0.3c0.3,0,1.2,0.2,1.8,0.3c1.1,0,1.1,0,2.2-0.5c2.5-1.2,4.8-1.6,7.3-1.1c0.6,0.1,1.4,0.3,1.5,0.2C98.9,223,98,222.3,95.8,220.5c-0.4-0.3-0.9-0.6-1.1-0.9c-0.3-0.4,0-0.6,0.3-0.6c0.9,0.1,5,3.4,6.3,5.4c0.5,0.7,0.8,0.7,0.8,1.4c-0.1,0.6-0.2,1.2,0.5,2.2c0.5,0.6,1,1.7,1,1.7c0,0.1-0.1,0.4-0.6,0.1c-0.2,0-0.3-0.2-0.7-0.2c-0.3,0.1-0.9,0.3-1.5,0.6c-5.6,3.7-10.9,1.9-15.1-2.6zm12.4-0.3c0.1,0-0.4-2.1-1-2.7c-1.1-1.2-2.8-1.4-3.8-0.2c-0.6,0.7-1.3,2.7-1.3,2.7s0.9,0.3,1.2,0.3c0-0.5,0-1.7,0.9-2.4c0.5-0.4,1.4-0.4,1.8-0.1c0.7,0.4,1.1,1.9,1.1,2.4c0.4,0.2,1.3,0,1.1,0zm-6.8-3c-0.8,0.4-1.9,0.6-2.1,1.1c-0.3,0.7,0.8,1,1.4,1.2c0.7,0.4,0.8,0.2,1-0.4c0.2-0.4,0.4-0.9,0.6-1.3c0.6-1.2,0-1-0.9-0.6zm8.6,2c0.4-0.4,0.5-0.7,0.1-1.3c-0.2-0.2-0.7-0.4-1.3-0.6c-0.7-0.3-1-0.6-0.6,0.4l0.7,1.4c0.3,0.7,0.6,0.5,1.1,0.1zM24.4,177.4c0.3,0,3-1,4-1.4s1.1-0.4,0.7-0.9C29,174.9,28.9,174.3,29,173.7v-0.9c-1.7-0.4-4.3,0.6-5.1,1.8c-0.7,0.8-0.6,2.5,0.5,2.8zM24,181.6c0.6,0.6,0.7,0.6,2.3,0c0.5-0.4,1.7-0.8,2.5-0.9c1.8-0.5,1.8-0.3,1.3-1.5c-0.2-0.5-0.3-1-0.2-1.5C30,177.1,30,177,29.7,176.9c-0.9-0.3-5.1,1.3-5.9,2.5c-0.5,0.9-0.4,1.6,0.2,2.2zm97.6,41.5c0.1,1,0.1,2.5,0.1,3.3c0,1.5,0.6,1.9,1.3,1c0.6-2,0.9-5.2,2.5-6.9c1.2-0.3,2.6,0.3,3.4-0.5c2-1.9,0.4-4-1.3-4.2c-3.6,0-6.2,4.4-6,7.3zm8.8-5c0.1,2-1.8,3.3-3.9,2.8c-0.8-0.2-1,0-1.6,1.2c-1.2,3.2-1.6,6.4-1.9,8.5c-0.2,1.9-0.9,6.8-0.4,8.4c5.8,7.1,11.8,14.5,18.4,21.8h39.5V214.4L169.2,203.5V186.4C157,192.2,144.8,198,132.6,203.8c2.6,8.6-6.4,10.4-8.4,4.7c-1.7,1.5-3.1,10-2.5,10.4c0,0,0.3,0.3,0.7-0.3c0.6-1.1,1.4-2,2.3-2.5c2.5-1.6,5.5-0.8,5.7,2zM99.1,217.2c-1.9-1.5-0.9-3.9,0.7-4.6c0.8-0.4,2.2-0.3,3.7,0.2c1.3,0.6,2.1,0.5,3.5,0.4c0.9-0.1,0.7,1.8-0.2,2.2c-0.7,0.4-2.2,0.2-4.1-0.8c-3.1-1.8-4.5,0.5-2.6,2.6c1.1,1.2-0.7,0.3-1,0zM33.7,189.1c1.7-1.1,0.9-3.1-0.6-3.4c-2.2,0.1-2.7,2.5-1.2,3.4c0,0.3-0.7,0-1.1-0.3c-0.7-0.5-0.1-2.3-0.7-2.4c-0.4,0-4.8,1.6-5.3,1.9c-2,1.1-0.1,3.6,1,3.4c2.4-0.7,5.6-1.2,7.9-2.6zm-9.9-3.7c0.1,1.2,0.4,1.7,1.1,1.7c1.6-0.3,3-1,4.5-1.5c1.1-0.4,1.5-0.8,0.7-1.5c-0.3-0.3-0.5-0.7-0.4-1.5c0.3-1,0.1-1-0.3-1.1c-0.4,0-1.3,0.4-3.6,1.3c-1.2,0.4-1.5,0.6-1.8,1.3c-0.1,0.5-0.2,0.8-0.2,1.3zM36.7,200c0.2-0.3,0.8-2.2,0.8-2.7c-0.1-0.8-0.7-1-1.2-0.5c-0.7,0.6-0.5,1.5-0.9,2.1c-0.1,0.3-0.3,0.6-0.2,0.7c0.2,0.7,1,0.9,1.5,0.4zm5-10.7C61.4,168.3,73.6,139.1,52.3,99c-1.3-1.3-3.2,2.8-3.4,3l-2.7,2.4c14.4,25,11.9,53.7-5.8,74.2l0.1,1.3c0,2.9,0.8,2.7,2,1.4c1.3-1.3,0.4-0.3-0.1,0.3c-0.4,0.5-1.1,1.4-1.3,1.7c0.2,1.7,1.3,4.9,0.6,6zM40.4,183c-0.2-0.6-0.4-1.9-0.5-2.9c-0.1-0.6-0.1-1.2-0.2-1.9C39.5,177,39,174,38.6,173.4c-0.5-0.7-1.6-1.2-2.8-1.3c-1,0-1.1,0-1.4,0.3c-0.3,0.6-0.1,3.6,0.3,4.7c0.5,1.3,0.2,2-0.2,3.2c-0.1,0.5-0.1,0.5,0.1,0.5c1,0,1.3-1.2,1.7-0.9c0.1,0.2-0.2,1.1-0.7,2.2c-0.5,1-0.6,2.5,0,4.3c0.3,1,0.2,1.3,0,1.9c-0.2,0.4-0.4,1.6-0.4,2.9c0.5,1.5,0.2,2.2,0,2.7c-0.6,1.3-1.1,3.1-0.8,4.1c0.2,0.4,0.5,0.1,0.8-0.7c0.4-1.5,0.9-1.8,2.1-1.8c0.9,0,1,0.3,1.3-0.1c0.6-0.9,2.3-4.1,2.3-5c0.6-2.2,0.6-4.2-0.5-7.4zm9.4,14.9c0.6-0.2,1.4-1.4,1.4-1.7c0-0.5-3.3-3.7-4.7-4.6c-0.6-0.4-0.9-0.1-2,1.4c-1,1.3-1.1,1.3-0.9,1.6s3.5,2.5,4.7,3.1c0.3,0.2,1,0.4,1.5,0.2zM56,192.1c-0.5-0.3-4.4-4.7-5.6-4.9c-0.5-0.1-1.9,1.5-1.9,1.9c0,0.2,2.5,2.8,4.2,4.3c0.5,0.4,1.1,0.8,1.3,0.8c0.5-0.3,2-1.5,2-2.1zM60.2,188c0-0.3-0.4-0.8-1.5-1.8C56,183.5,54.5,182.3,54,182.3c-0.5,0.1-1.4,1.7-1.5,2.3c0.2,0.3,4.7,4.4,5.3,4.8c0.7,0.7,2.3-0.9,2.4-1.4zm4.3-4.3c0.1-0.4-0.1-0.7-0.7-1.2c-0.4-0.4-1.9-1.8-3.2-3.2c-2.9-2.8-2.9-2.8-3.8-1.5c-0.9,1.4-0.9,1.4,1.8,4.1c3,2.9,3.7,3.5,4.2,3.5c0.7-0.3,1.4-0.9,1.7-1.7zM32.7,181.2c-0.5-0.2-1-0.1-1.4,0.2c-2.1,1.8,0.9,4.1,2.1,2.7c0.8-0.8,0.8-2.5-0.7-2.9zm36.2-1.9c0-0.3-0.7-1-2.8-3c-5.2-5-5-4.8-5.6-4.5c-0.3,0.2-1,1.5-1,2c0,0.4,0.5,0.9,4.4,4.6c2.2,2.1,2.9,2.7,3.3,2.7c0.6-0.4,1.6-1,1.7-1.8zm-36.1,0.2c1-0.4,1.2-1.6,0.6-2.4c-1.1-1-2.6-0.2-2.7,1.1c0.2,1.2,1.2,1.7,2.1,1.3zm40.4-4.4c0-0.6-9-9-9.7-9c-0.4,0-0.7,0.3-1.1,1.3c-0.4,0.8-0.3,1.3,0.1,1.7c0.7,0.7,2.4,2.3,4,3.8c1,0.8,2.1,1.9,2.5,2.3c1,1,2,1.7,2.4,1.7c0.5-0.3,1.3-0.8,1.8-1.8zM32.3,174c0-0.3-0.1-0.7-0.3-0.9c-0.6-0.7-1.8-0.3-2,0.5c-0.3,2.1,2.2,2.2,2.3,0.4zM39,108.5l1.7-5.4,5.4-0.2,0.8-5.3,5.5-0.8,0.1-5.6,5.3-0.7-0.4-5.9,4.9-1.2-0.2-5.4,4.5-1.4-0.2-4.8,0.7-0.6-1.9-2-1.6,0.6-0.1,4.9-4.4,1.4,0.4,5.5-4.4,1-0.1,5.9-5.2,0.6-0.3,5.2-5.1,1-0.7,5.1-4.9,0.3-1.5,4.5H34v3l5,0.3zm58.4,96.3c-0.1-0.4,0.3-0.3,1.1,0.2s1.9,0.9,2.8,0.9c0.3,0,1.6-0.2,2.7-0.5c1.4-0.5,2.7-0.5,4.1-0.2c1.1,0.1,2.2,0.2,2.4,0.2c0.7,0.1,2-0.7,2.3-1.3c0.9-1.5,0.7,1.2,0.7,1.5c0,1.5,0.2,3.1-0.8,2.3c-0.6-0.3-1.7-0.6-2.5,0c-0.9,0.6-1.6,0.7-2.5,0.1c-0.8-0.3-1.3-0.4-1.9,0.2s-2.3,0.4-3.2,0.1c-1.5-0.3-2.3-0.5-3.3,0.3c-0.5,0.3-0.7,0.1-1.1-1.1S97.5,205,97.4,204.8zm3.9-1c-0.1-0.1,0.7-0.9,1.2-1.2c1.6-0.8,4.8-0.8,7.1,0.1c1.1,0.4,1.3,1.1,0.2,1c-2.4-0.5-5.4-0.9-7.7,0.2c-0.2,0.1-0.8,0-0.8-0.1zm2-3.7c-1.7-0.6-2.5-1.3-2.5-1.5s0.4-0.2,1.7,0.2c1.7,0.6,3.8,1,5.5,0.4c1.3-0.5,1.9-0.8,1.9-0.5s-0.5,1.1-1.4,1.5c-1.7,0.7-3.9,0.4-5.2-0.1zm35.6-4.6l1.2-0.1-0.4-5.1,4.4-1.4-0.3-5,4.8-1.7-0.3-5.7,5-0.9,0.6-5,4.7-0.4,1-5.4,5-0.2,1-4.5H169v-2.5h-5.2l-1.1,4.9-5,0.1-1,5.4-5.2-0.1-0.6,5.8-4.9,0.8v6.2l-4.7,1.2,0.4,5.4-4.7,1.7,0.5,5,1.4,1.5zM170.1,76.2c-0.6,0.5-0.9,1.4-0.7,2.2c0.7,1.7,3,1.2,3.3-0.1c0.1-0.5-0.3-1.4-0.9-1.5c-0.1-0.1-0.5,0-0.7-0.2c-0.1-0.2,0.8-0.7,1.3-0.5c0.7,0.2,1.3,1.1,1.3,1.9c0,0.3-0.1,0.8,0,0.9c1.1,0,2.4-0.6,3.6-1c2-0.5,2.8-1.7,2.3-3.1c-0.4-1.1-1.5-1.6-3.1-1c-2.1,0.8-4.5,1.2-6.4,2.4zM83.3,201c6.9-4.8,11-7.6,19.8-8.1c-3.1-1.3-3.7-3-4.5-4.6c-11,1-16.8,4.5-22,7.8c2.1,1,4.4,2.2,6.7,4.9zm38.4-6.7c-3.3-2.3-7.3-3.8-11.4-4.9l-3.2,3.3c-0.2-0.1,9.2,0.1,14.6,1.6zm32.1-31.1c-21.6-33.1-7.1-62.3,7.9-80.9c0.4-0.6,0.6-0.6,0.5-1.1c-0.2-0.7-0.4-3.9-0.3-5.7c-27.6,27.4-28.3,63.2-11,91.7c1.3-1.2,3.8-2.6,2.9-4zm3.2-2.8c-3.5-5.9-22.4-37.9,6.4-73.5c0,0-0.1-1.8-0.3-2.5c-0.4-1.2-1-1.7-1-1.7c-12.1,18.2-29.6,40.9-7.7,80.4l2.6-2.7zM140.5,100.3c0.5-0.4,1.1-1.7,1.1-2.2S141.2,97.3,138,94c-4.3-4.4-5.1-5.1-5.6-5.1s-1.9,1.3-1.9,1.8c0,0.2,1.3,1.6,4.3,4.6c5.5,5.6,5.3,5.3,5.7,5zm4-8.1c0-0.3-0.4-0.8-1.3-1.8c-2.5-2.6-6.1-5.8-6.4-5.8c-0.4,0-1.5,0.8-1.8,1.4c-0.2,0.4-0.2,0.5,0,0.9c0.5,0.6,6.1,5.9,7.7,7.3c0.9,0.9,1.8-1.4,1.8-2zm2.2-3.3c0.4-0.2,1.2-1.8,1.1-2.2c0-0.2-1.4-1.7-3.1-3.4c-3.3-3.3-3.5-3.4-4.3-2.7s-1.3,1.3-1.2,1.6s5.1,5.4,6.1,6.2c0.8,0.7,0.9,0.7,1.4,0.5zm25.4-0.3c1.5-1.5-0.2-3.1-1.5-2.3c-0.6,0.3-0.9,1-0.7,1.5c0.2,0.8,1.3,1.3,2.2,0.8zm3.1-0.3c2.6-0.7,3.9-1.2,4.4-2c0.4-0.6,0.5-1,0-1.9c-0.4-0.8-0.8-1.1-2.5-0.2c-1.1,0.6-3.7,0.9-4.6,1.4c-0.3,0.4-0.1,0.4,0.1,0.5c0.7,0.4,1,0.7,0.9,1.3c-0.1,1.1,0,1.3,1.7,0.9zm-2.8-4.2c1.2-0.7,1-2.2-0.5-2.9c-1.9-0.5-3.1,1.8-1.5,2.9c0.4,0.3,1.4,0.3,2,0zm4.2-0.6c1.9-0.7,2.6-1.2,3.1-2.2c0.5-0.8,0.3-1.2,0.2-2c-0.1-1.2-0.7-1-2.4-0.4c-0.8,0.3-4.9,1.5-4.9,1.9c1.9,1.1,1.4,1.7,1.4,3.1c0.1,0.3,1,0.1,2.6-0.4zM151.3,81.6c0-0.6-5.2-5.7-5.8-5.7c-0.8,0-2,1.4-1.9,2.1c0.1,0.3,5,5.2,5.6,5.6c0.9,0.5,2-1.2,2.1-2zm3-3.2c0.2-0.2,0.6-0.7,0.9-1c0.5-0.9,0.5-1.3-0.2-1.7c-0.2-0.2-1.3-1.2-2.4-2.2c-1.1-1.1-2.1-2-2.3-2.1c-0.9-0.1-2.5,1.4-2.3,2.1c0.1,0.4,4,4.3,4.9,4.9c0.6,0.4,0.9,0.4,1.4,0zm7-7.6c0-0.2-0.9-0.7-2.3-1.5c-4.5-2.4-4.5-2.5-5.9-1.3c-0.5,0.4-0.9,0.8-0.9,1c0,0.1,1,1.1,2.2,2.3c2.5,2.4,3.2,2.9,3.5,2.9c0.7-0.5,3.3-2.7,3.4-3.4zm6.2-2.3c0.5-0.6,1.2-2.9,0.9-3.4c-0.3-0.2-1-0.2-1.3,0.1c-0.4,0.3-1.2,3.2-1.1,3.5c0.2,0.4,1,0.2,1.5-0.2zm-48.3,96.6c0.4,0,1.2-0.5,2.4-1.5c1.3-1.1,5.3-3.6,5.8-4.6c0.2-0.5,0-1.3-0.4-1.4c-0.3,0-0.4,0.2-3.1,2.2c-1.8,1.3-5,3.6-5.4,4.1c-0.2,0.5,0.2,1.2,0.7,1.2zm-0.4,15.7c2.8-2,5-3.9,8.6-6.2c0.3-0.3,0.3-0.9,0.2-1.3c-0.2-0.6-0.5-0.4-1.6,0.4c-2.7,1.8-5.4,3.9-7.7,5.5c-0.7,0.5-1.3,0.7-1.2,1c0.2,0.4,1.4,0.5,1.7,0.6zm2.7,1.1c1.8-1.4,4-2.9,5.9-4.3c0.3-0.3,0.4-1.2,0.1-1.6c-0.2-0.3,0-0.2-0.6,0.1c-0.8,0.4-5.5,3.6-6.3,4.4c-0.5,0.4-1,0.6-0.8,0.8c0.5,0.3,1.2,0.6,1.7,0.6zm2.3,1.2c0.4-0.3,3.6-2.3,3.8-2.6c0.3-0.3,0.3-1.7,0-1.8c-0.8,0.6-5.2,3.2-5.2,3.7c0.5,0.4,1.1,0.7,1.4,0.7zm3.4,0.3c0.5-0.5,0.6-0.5,0.6-1.1c0.1-0.9-0.2-0.8-1.5,0.1c-0.9,0.6-1.5,1-1.3,1.4c0.7,1,1.6,0.2,2.2-0.4zm0.4,1.9c0.3-0.1,0.3-0.3,0.2-0.6c0-0.3-0.1-0.3-0.5-0.3c-1,0-0.1,1,0.3,0.9zM115,180.1c0.5-1.6,1.2-2.8,2.2-4c4.4-3.8,3.1-8.6,0.3-12.5c3.6-4.9,7.1-10.2,10.2-15v-7.9h0.4c-0.2,17.2,0.6,45.3,0.6,45.3l3.5,2.7-0.4,0.2c0.5-0.1-10.3-6.9-16.8-8.8zm3.2-2c3-2.2,5.9-4,8.9-6.4c0.3-0.3,0.5-0.3,0.5-0.9c0-1.1-0.2-1.1-1.3-0.4c-0.5,0.4-2.3,1.7-4,2.8c-1.8,1.2-3.5,2.3-3.8,2.7c-1.7,1.9-2.3,2.9-2.1,3.1c0.2,0.3,0.5,0,1.8-0.9zm3.3-5.5c1.5-1,5.2-3.6,5.6-3.9c0.5-0.5,0.6-1.4,0.1-1.5c-0.2,0-3.1,1.9-5.5,3.7c-1.2,0.9-1.5,1.1-1.5,1.9c0,0.5,0.4,0.4,1.3-0.2zm1.5-4c4.8-3.3,4.6-3.1,4.5-4.3c0-0.4-0.1-0.6-0.3-0.7c-0.1,0-1,0.6-1.9,1.3c-0.9,0.6-2.1,1.5-2.6,1.9c-1.7,1.2-2.2,1.5-2.2,2.1c0,0.7,0.1,1.1,0.4,1.1c0.1,0,1.1-0.6,2.1-1.4zM122.3,166c2.2-1.5,4.6-3.3,5-3.7c0.4-0.5,0.3-1.6-0.2-1.6c-2.2,1.5-4.8,3.4-6.7,4.9c-0.2,0.3-0.5,0.5-0.6,0.7c-0.1,0.4,0.4,0.9,0.6,0.9c0.3,0,0.9-0.4,1.9-1.2zm-1.4-5.2c1.7-1.1,3.2-2.5,4.9-3.6c1.2-0.9,1.6-1.1,1.5-2.2c-0.1-0.6-0.6-0.3-2.7,1.1c-1.6,1.1-2.3,1.5-2.8,2.2c-0.4,0.9-1.7,1.7-1.7,2.7c0,0.4,0.2,0.2,0.8-0.2zM126,154c1.3-0.8,1.4-0.9,1.3-2c-0.2-1.4-0.3-1.3-1.5,0.6c-0.8,1.2-1.1,1.5-1,1.8c0.2,0.4,0.4,0.1,1.2-0.4zm-4.6-10.4c-0.2-0.6-0.3-0.5-1,0.1c-1.2,1-1.4,1.8-0.6,2.2c0.4,0.2,0.7,0.2,0.9-0.3c0.5-1.1,0.6-1.5,0.7-2zm-6.7,9.9c-0.1-0.6-0.8-1.4-1.3-1.6c-0.6-0.3-0.9-0.3-1.4,0.4c-0.5,0.6-0.2,0.9,0.5,1.8c0.5,0.7,0.7,0.9,1.1,0.9c0.5-0.2,1.3-0.9,1.1-1.5zM89.1,178.2C88.7,177.6,88,176.9,87.7,177c-0.4,0.1-0.7,0.6-0.7,0.9c0.1,0.7,0.7,1.1,1.1,1.1c0.8-0.1,1.3-0.2,1-0.8zm3.1-1c-0.7-0.7-2-2.3-2.2-2.3c-0.4,0-1.2,0.9-1.2,1.2c0,0.5,1.2,2.2,1.6,2.3c1.1-0.1,2.9,0,1.8-1.2zm3.9,0.2C96,177.1,92.2,173,91.9,173c-0.4,0-1.1,0.8-1.1,1.2c0,0.3,1.3,1.9,2.4,3.1c0.6,0.6,0.6,0.7,1.3,0.6c0.8-0.2,1.7,0,1.6-0.5zm6.7-0.9c0-0.8-0.4-1.2-2.2-3.1C100,172.7,99,171.5,98.3,170.8C97,169.3,96.5,168.9,96,168.9c-0.4,0-1.1,0.6-1.1,1c0,0.3,3.2,3.9,6.1,7c0.6,0.7,0.9,0.9,1.5,0.6c0.3-0.3,0.3-0.7,0.3-1zm-5-9.7c-0.6,0.5-0.8,0.7-0.8,1.1c0,0.5,5.4,6.5,5.9,6.5c0.3,0,0.2,0,0.4-0.7c0.3-1.9-0.2-2.5-1.6-3.8c-0.9-0.8-2.9-3.8-3.9-3.1zm9.7-4c-1.6-1.9-2.4-2.7-2.7-2.7c-0.2,0-0.5,0.2-0.9,0.6c-0.5,0.5-0.5,0.5-0.1,1.1c0.2,0.4,0.7,1,1.1,1.5c0.9,0.9,1.3,1.2,1.7,0.7c0.4-0.3,1.2-0.8,0.9-1.2zm-0.8-4.6c-0.4,0-1,0.7-1,1c0,0.4,1.2,1.9,2.1,2.7c0.7,0.6,1,0.8,1.5,0.4c0.4-0.6,0.3-1.1,0-1.5c-0.6-0.7-1.9-2.6-2.6-2.6zm4.3,0.5c-0.1-0.6-1.6-2.6-2.1-2.8c-0.4,0-1.3,0.9-1.3,1.4c0,0.2,0.3,0.8,0.9,1.4c1.1,1.3,1.4,1.6,1.7,1.4c0.4-0.3,0.8-0.9,0.8-1.4zm1.7-2.3c0.1-0.5-0.2-0.9-0.8-1.7c-0.8-1-1.1-1.1-1.9-0.3c-0.2,0.3-0.4,0.5-0.4,0.7c0,0.3,1.7,2.4,2,2.4c0.7-0.1,0.9-0.6,1.1-1.1zm-2.9,5.1c-0.1,0.7-0.4,1.1-1,1.4c-5,3.6-4.9,9.5-5.9,14.9c-8.1-0.1-20.9,3.3-20.8,3.4L125,137.9c0,0,0.6,0.1,0.2,0.5c-3.4,2.5-3.2,7.3-5.5,9.8c-3.8,4.6-7.4,8.6-9.9,13.3zM86.5,179.2c0.1-0.4-0.3-0.6-0.7-0.2s-0.3,0.7,0.3,0.6c0.3,0,0.4-0.1,0.4-0.4zm13.3-1.8c0.1-0.4-0.2-0.8-2.5-3.3c-2.4-2.6-2.9-3.2-3.3-3.2c-0.3,0-1.2,0.8-1.2,1.2c0,0.1,0.4,0.6,0.8,1.1c0.5,0.5,1.3,1.5,1.9,2.1c1,1.2,1.5,1.8,1.9,2c0.4,0.3,0.7,0.3,1.3,0.3c0.8,0,1,0,1.1-0.2zm4-8.1c0.1-0.5,0.3-1,0.3-1.2c0-0.3-2.9-3.3-3.4-3.7c-0.6-0.3-1.7,0.9-1.4,1.7c0,0.2,0.9,1.2,1.9,2.2c1.3,1.4,1.9,2,2.1,2s0.2-0.4,0.5-1zm1.2-3.2c0.2-0.3,0.4-0.7,0.4-0.9s-0.5-0.8-1.2-1.6c-1.3-1.5-1.7-1.7-2.4-1s-0.5,1,0.8,2.5c1.6,1.7,1.7,2,2.4,1zM116.2,152c0.5-0.6,0.5-0.9,0.1-1.4c-0.2-0.2-0.5-0.5-0.6-0.7c-0.4-0.5-1-0.4-1.5,0.2c-0.3,0.3-0.5,0.6-0.5,0.7s0.3,0.5,0.7,0.9c0.7,0.9,1.2,1,1.8,0.3zm1.7-2.2c0.4-0.5,0.2-1.1-0.4-1.6c-0.6-0.6-0.9-0.6-1.3-0.1c-0.5,0.6-0.5,0.8,0.1,1.4c0.7,0.8,1.3,0.9,1.6,0.3zm1.4-1.9c0.5-0.4,0.5-0.8,0.1-1.3s-0.8-0.7-1.2-0.4c-0.7,0.3-0.7,1,0,1.7c0.5,0.5,0.7,0.5,1.1,0zM86.5,240.5c8.8,1,18.2,1.7,34.9-0.9l0.1-5.7c-5.2,4.1-12.1,1.3-12.5-3.4c0-4.1,1.1-8.9,2-12.4c0.7-2.5,0.9-3.5,0.3-4c-1.4-0.8-4-0.9-4.6-2.6c-0.4-0.9-0.4-1.8,0.1-1.2c0.2,0.3,1.8,1.1,3.1,1.4c2.3,0.5,2.6,0.7,2.9,1.6c0.2,0.6-0.2,2.6-0.8,4.4c-0.4,1.3-0.9,3.4-0.9,3.9c0,0.4,0.3,0.5,0.7,0.3c0.2,0,1-0.8,1.5-1.3c2.1-1.9,2.8-1.8,0.9,0.1c-0.7,0.7-1.7,1.8-1.7,1.8c0,0.4,0.3,0.4,1.2,0.1c1.3-0.5,4.3-0.4,5.6,0.3c1.7,0.8,1.7,0.8,1.7-1.8c-0.3-4.7-1.1-10.3-2.6-14.7c-2.4-6.7-7.3-12.8-14.5-12.6c-8.7,0.5-14,4-20,8.2c3.6,8-1.6,14.2-3.5,15c-0.2,0,2.3,8.1,3.4,12.2c1,3.8,2.7,11.3,2.7,11.3zM123.9,47c-0.2-0.6-5.1-16.5-6.5-23.2C104.2,23,94.4,21.9,82.8,25.3c0,0-0.2,4.4-0.1,4.7c0.1,0.5,0.5,0.5,0.8,0.3C88.9,27.4,94.7,28.7,95.1,36c0.2,2.8-0.8,4.7-0.9,7.4c-0.2,2.3-2,5.4-0.9,7.1c0.2,0.2,0.9,0.7,2,1.1c2,0.9,2.7,1.6,2.9,2.9c0.2,0.9-0.4,1.5-0.5,0.6C97.6,54.5,97.5,54,95,53.2C92.7,52.4,92,51.4,91.8,50.9c-0.3-0.7-0.3-1.1,0-2.2c0.7-2.4,1.3-4.7,1.3-5.9C93,42.4,92.6,42.6,92,43.1c-0.7,0.6-3.8,2.7-3.9,2.6c0,0,0.5-0.9,1.4-1.7c1-1,2.4-2.2,2.4-2.5s-0.2-0.1-1.2,0.2c-1.8,0.5-3.8,0.5-5.2-0.2C84.3,41,83.5,40.7,83.3,41c-0.4,7.1,0.6,14.4,3.6,20.2c2.7,5.1,8.2,11.6,16.6,10.2c8.6-1.5,16.9-8.5,16.6-8.5c-3.2-7.3,0.5-12.7,3.8-15.9zM55.6,241c-3.8-3.9-13.4-8-20-9.9c-0.5-0.2-1-0.4-1,0.2l-0.1,13.2-11.9,11v5.3H47.9L64.6,236.4c0,0,0.8-0.1,0.9-0.3c-3.1-13-7.7-23.3-10.6-28.5c0,0-4.2,3.4-7.9-0.8c-2.1-2.3-0.9-6.5,1.1-8c-1.6-1.2-5.1-3.5-7.4-4.1c-0.5-0.1-1.2,0.8-1.4,1.7c-0.4,1.4-1.1,2.7-1.6,4.1c-0.5,1.2-1,1.4-1.8,1c-1.1-0.3-1.5-0.4-1.5-0.4l0.1,15.4c9.1,3.2,18.5,11.3,21.1,24.5zM93.5,75.9L96.2,73C92,72.5,87.5,71.7,82.2,70.1c3.7,2.7,7.5,4.4,11.3,5.8zM78.7,67.7C83.5,69.3,89.5,73,97,71.6C90.1,68.9,84.9,62.5,82.7,49.5c-0.5,2.5-1.5,7.8-3,8.3C77.4,49.2,68.5,54.2,72.1,61.3C63,67.5,52.2,71,42.3,75.8c0,0-1.5,4.6-8.9,10.8C32,79.3,33.7,68.4,32.8,61L21.3,50.1c0.1,2.1,0,3.4,0,5.8c0.3,0.4,0.7,0.7,1.2,0.9c0.7,42.3-0.3,84-0.3,122.4c-0.1,23.5,0.5,48,0.2,70.2l-0.5,0.8,0.1,5.3,11.8-11.3c0,0-0.6-8,0-14.1c7.5,1.5,14.5,5,20.7,8.9c0.8,0.2-3.8-15.4-20.6-22.3c0,0,0-4.9,0-15.5c0-10.2-0.2-11.3-0.4-11.5c-0.7,0.8-9.3,3.7-9.7,3.2C24,193,21.4,174.8,23.7,172.1l8.2,0.1c2.3,1.9,1.4-0.4,2.7-0.8c0.9-0.2,4.7,1.3,4.7,1.3c15.6-18.5,14.1-49,2.8-66.1c-2.9,2.3-5.9,5.5-8.8,6.9c0-0.1-0.1-9.5-0.1-9.5C48.2,94.4,64.5,66.5,63.4,66.4c0,0,4.7,4.5,6.5,7.1L55.1,94.9c3.4,6.9,6.8,13,9,19.1c0.3,0.8,1.3,0.7,1.5,1.6c0.2,0.7-0.7,1.7-0.6,2.5c3.1,12,3.8,24.7,0.8,36.1c-0.7,2.6,0.5,4.7,2.1,6.7c0.1,0.1-1.5-1.4-1.6-1.5c-0.6-0.3-1.5,0.8-1.7,2.3c0.1,0.9,0.6,1.1,1.3,1.8c1.1,0.9,5.6,5.4,7.6,7.4c1.8,1.9,2.3,1.9,3.5,0.7c0.3-0.4,0.6-0.8,1-1.1c0,0.1,0.5-0.3,0.6-0.5l26.7-26.1c3.1-3-26.6,27.4-26.6,27.4S64.2,185.5,60.7,189c-3.6,3.6-4.1,4.4-4.3,4.7c-0.2,0.4,1.2,0.4,1.8,0.3c0.1,0-0.5,0.2-1.1,0.2c-3.8-0.5-5,3.3-7.4,4.1c-6.3,4.5-2.1,11.6,3.9,9.3l1.5-0.7c3.6,6.7,8.8,19,11.3,29.7l-1,0.5-15.8,23.7h89.5c-6.4-6.4-11.9-14.3-17.5-20.2c-8.9,2.7-35.9,2.1-35.4,1c0,0-4.1-16.6-6.4-24.7c7.3-6.3,6.5-16.3-4.1-20.7C83.5,190,91.3,188,98.9,187.5c2.4,6.3,8.2,6.6,11,0.9c0-0.1,10.3,3.2,14.1,6.6c-5.7-0.5-11.2-1.7-16.8-1.9c4.9,1.9,10,7,11.6,12.9c0.8,2.1,2,9,2.3,9c0,0,1.9-8,3.3-7.5c3.7,7.7,10.1,1.9,7.4-4.3c9.5-4.5,20.1-9.5,28.8-13.7c2.5-3.9,8.7-11.1,9.1-11.2c0,0,11.5-65.7,11.5-87.7C180.8,64.1,181.6,34.7,180.5,10V2.9H156.4L139.1,28.3c0,0-0.1,0.4-0.1,0.6c2.3,10.3,5.3,19,10.1,28.5c6.5-4.9,12.1,3.2,7.1,8c-0.9,0.9-0.6,1.1,0.3,1.7s7.1,3.7,7.4,3.7c1.1-1.6,1.5-4.1,2.2-6c0.2-0.7,0.8-0.8,1.8-0.7c1.4,0.2,1.4,0.8,1.4-8.1l-0.1-7.6c-8.4-3.9-19.5-13.8-20-24c4.9,3.5,16,8.7,19,9.1c1.3,0.4,1.1-1.9,1.1-2.8c0.4,0.2,0.5,3.8,0.5,3.8C164.9,33,162.3,33.3,150,26.1c2.1,10.1,12.2,18.1,19.5,21.7c0,0,0.3,4.8,0.3,10.1c-0.1,16.4,0.1,17.1,0.1,17.1s4-1,5.1-1.6c2-1.6,5.2-0.3,5.7,0.8c0.6,6.2,0,11.9-0.1,17.8c-3.4,0.3-5.3,1-7,1.1c-1.1-0.2-1.7-0.2-2.3-0.8c-1.6-3.5-1.5-1.3-1.7,1.4c-0.2,0.7-4.2-0.6-4.6-0.9c-17.6,20.3-16.1,43.7-4.2,65.3c2-1.3,5.4-3.9,8.8-5.6c0.1,2.8,0.1,8.5,0.1,8.5c-13.8,10.1-30.2,36.9-29.7,37l-5.6-6.7c0,0,3.5-5.6,4.8-7.1c0.1-0.2,0.2-1.9,0.2-1.9L148,169.9c-3.7-8.3-8.7-14.6-10-22.7c-5.7-25.8,0.5-38.7,0.1-39.6c0,0-0.1-0.5-0.2-0.6c-0.2-0.2,0-0.3,0.2-0.7c0.4-0.7,1.1-2.2,0.8-2.6c-0.1-0.4-4.7-5-8.7-8.8c-2.1-2-2-2.2-3.1-1.1c-0.4,0.4-1.4,1.5-1.4,1.5c-14.3,13.3-25.7,25.4-40,39.5L85,134.2c20.9-20.8,42-41.4,62.7-62.5l-3.6,0.1c0.1-0.3,0.2-0.5,0.4-0.6c2,0,4-0.6,5.4-1.4c3-2.2,7.2-5.1,7.6-8c-0.3-5.6-5-6.4-8.3-3.7C144.4,49.6,140.7,39.4,138.7,29.9c-0.1-0.5-0.8-1.3-0.8-1.9c1-3.1,17-25,17-25h-90L82.1,23.4c0-0.8,24.4-3.7,35.5-0.3l6.8,24.3c-6.2,5.9-8,15.8,3.4,20.9c0.2,0.5-1.1,1.3-1.1,1.3c0.2-0.3,0.5-0.6,0.4-0.9C124,67.4,120.7,64,120.7,64c-6.8,5.3-13.2,8.3-19.5,8.6c0,0,3.3,2.2,4,4.7c0,0-0.3-0.1-0.4-0.2c-0.7-0.8-2.2-3.5-3.6-4.3C99,72.3,97.7,72.7,95.9,73.9l-2.3,2.3C88.1,74.5,82,71.8,78.7,67.7zm-0.9,59.2l2.5-2.4c0.3-1.9,0.8-4.2,2.9-6.7c2.3-2.8,4.9-5.5,6.8-8c2.3-3,3.5-5.7,2.9-7c3.4-0.6,6.5-3.6,6.6-9c0.1-2.9,1.5-7.1,1.6-7c0,0,23.7-0.9,40.1-16.5c0,0,1.1,0.3,0.9,0.5C135.9,77,129.3,81.6,121.5,84.5l-43,43-0.7-0.6zM82.5,122c0.7-0.6,0.8-0.9,0.5-1.2c-0.6-0.4-1.7,0.5-1.7,1.5c0,0.6,0.5,0.4,1.2-0.3zm2.3-2.2c0.5-0.5,0.4-0.8,0-1.3c-0.6-0.5-1.4-0.2-1.7,0.8c-0.3,0.9,0.9,1.3,1.7,0.5zm1.9-2c0.3-0.3,0.5-0.6,0.5-0.7c0-0.3-0.8-1-1.2-1s-1.3,0.7-1.3,1.2c0,0.3,0.9,1.1,1.3,1.1c0.1,0,0.5-0.3,0.7-0.6zm1.9-3.7c-0.6-0.5-1-0.5-1.5,0c-0.6,0.6-0.5,1.2,0.2,1.8c0.5,0.5,0.7,0.5,1.4,0c0.6-0.5,0.7-1.1-0.1-1.8zm2.1-0.3c0.7-0.5,0.6-1-0.1-1.7s-1.3-0.7-1.8,0.1c-0.2,0.3-0.3,0.6-0.3,0.6c0,0.3,1.2,1.4,1.6,1.4c0.1,0,0.4-0.2,0.6-0.4zm2.1-2.1c0.5-0.5,0.5-0.9-0.3-1.7c-0.6-0.7-1.1-0.7-1.7-0.2s-0.4,1.1,0.2,1.8c0.7,0.7,1.2,0.8,1.8,0.1zm2.4-2.3c0.4-0.5,0.3-0.4,0-0.9c-0.5-0.7-1.7-1.8-2.1-1.8s-0.8,0.7-0.8,1.4s0.3,1,1.2,1.7c0.6,0.5,0.4,0.5,0.9,0.2c0.3-0.1,0.6-0.4,0.8-0.6zM97,107.6c0.9-0.9,0.7-1.1-1.3-3.3c-0.7-0.7-0.9-0.8-1.3-0.7c-0.5,0-0.5,0.1-0.8,0.6c-0.4,0.9-0.1,1.4,1.2,2.8s1.5,1.5,2.2,0.6zm2.1-2.2c0.4-0.3,0.6-0.6,0.6-0.8c0-0.4-1.7-2.3-2.3-2.6C97,101.8,96.6,101.9,96,102.4c-0.3,0.3-0.3,0.3-0.2,0.6c0.1,0.5,2.2,2.8,2.6,2.8c0.1,0,0.4-0.1,0.7-0.4zm2.1-2c0.4-0.4,0.6-0.8,0.6-1c0-0.4-1.7-2.5-2.3-2.8C99,99.4,98.8,99.5,98.3,100.1c-0.5,0.8-0.3,1.1,0.7,2.4c1,1.1,1.4,1.5,1.5,1.5s0.4-0.3,0.7-0.6zm2-2.1c0.4-0.3,1-0.9,0.8-1.4c-0.3-0.4-3.4-3.7-3.7-3.9c-0.7-0.4-0.7,0.1-0.7,1.8v0.8l1.5,1.4c2,2.1,1.6,1.6,2.1,1.3zm2.5-2.4c0.2-0.2,0.5-0.6,0.5-0.8c-1.3-1.6-5.1-6.6-5.8-6.4c0,0-0.1,0.1-0.1,0.2c-0.2,0.5-0.2,1.5-0.1,2.4c1.2,1.1,4,4.8,4.6,5.1c0.4,0.1,0.5-0.1,0.9-0.5zm2-2.1c0.3-0.2,0.4-0.5,0.4-0.7c0-0.1-0.4-0.7-0.8-1.2c-0.5-0.5-1.3-1.6-2-2.3c-3.5-4.5-3.8-4.8-4.3-4.3c-0.3,0.2-0.4,1.3-0.3,1.7c0.4,0.7,4.2,5.3,5.5,6.5c0.8,0.8,0.9,0.9,1.5,0.3zm2.1-1.9c0.3-0.3,0.5-0.7,0.5-0.9s-0.6-0.9-1.2-1.6s-1.6-1.9-2.2-2.7c-1.6-1.9-1.6-2-2.8-2.1c-1.8-0.2-1.5,0.2,0.5,2.6c0.5,0.6,1.4,1.7,2.1,2.5c1.5,1.9,2.2,2.6,2.5,2.6c0.1,0,0.3-0.2,0.6-0.4zm2-2.1c1-0.8,0.8-1-2.2-4.1c-1-1-1.1-1.2-1.8-1.2c-0.8,0-1.1,0.2-1.1,0.5s3.9,4.9,4.2,5c0.4,0.2,0.5,0.2,0.9-0.2zM114,90.6c0.3-0.3,0.5-0.6,0.5-0.8c0-0.3-0.9-1.4-1.7-2.1C112.5,87.4,112,87,111.7,87c-0.5,0-1.4,0.3-1.6,0.6c-0.1,0.1,1.1,1.6,2.2,2.8c0.8,0.8,1.1,0.8,1.7,0.2zm1.9-1.9c0.5-0.5,0.5-1,0-1.6c-0.3-0.5-0.4-0.5-1.2-0.5c-1.4,0-1.4,0.3-0.3,1.5c0.8,0.8,1,1.1,1.5,0.6zM118,86.6c0.5-0.7,0.1-1-0.8-0.6c-0.2,0.1-0.3,0.3-0.4,0.4c-0.3,0.8,0.7,0.9,1.2,0.2zM83.7,92.5c-2,1.2-5.3,3.6-7.6,5.2c0,0.3-0.1,1.2,0,1.9c1.3-0.9,5.4-3.5,7.3-5C83.5,94,83.6,93,83.7,92.5zm3.6-5.8c0-0.3-0.2-0.1-0.8,0.4c-0.8,0.6-7.3,5.5-9.1,6.7c-0.6,0.5-1.2,0.9-1.3,1C76,95,76,96.3,76.2,96.6c1.4-1.1,8.1-5.6,8.2-5.7c0.7-1.1,2.3-3.1,2.9-4.2zm-0.7,14.6c0,0-8,9.6-10.6,14.4c0,0,0,5.5-0.1,8.7l-0.4,0.1c0,0,0-8.5-0.1-17.7C75.1,83.9,74.9,78.3,74.9,78.3L72.3,76.4,72.2,75.5c0,0,11.5,8.1,17.1,9.4c-4.1,6.4-7.9,8.9-2.7,16.4zm-9.5,11.5c0.2-0.4,0.1-0.3-0.3-0.3c-0.2,0-0.4,0.2-0.4,0.4c0,0.3,0,0.4,0.3,0.4c0.1-0.1,0.3-0.3,0.4-0.5zM79,110c1.2-1.5,2.1-2.4,2.3-3.4c-0.7,0.1-5,3.1-5,3.4c0,1.6-0.4,1.8,0.9,1.1c0.6-0.3,1.1-0.7,1.8-1.1zm0.4-3.6c1.2-1,5.7-3.4,6.3-4.6c0.2-0.6-0.5-1.1-0.6-1c0.1,0-6.4,4-8.8,6c-0.2,0.3-0.2,0.8-0.1,1.1c0.3,0.7,0.8,0.2,3.2-1.5zm-1.5-1.8c1.3-0.9,4.5-3.1,5.3-3.7C84.6,100,84.8,99.7,84.3,99C84.1,98.7,83.9,98.5,83.4,98.7c-3.9,2.7-4.2,3.2-7.2,5.1c-0.2,0.5-0.1,1.3,0.2,1.6c0.2,0,0.6-0.3,1.5-0.8zm0-3c3.5-2.5,5.4-3.8,5.6-4.1c0.1-0.3,0.1-1.6-0.1-1.7c-1.3,1-4.8,3.2-7.3,5.1c0,0.4-0.1,1.3,0.1,1.5c0.5,0.2,0.6,0,1.7-0.8zM77.5,92.3C80,90.4,82.4,88.8,85.1,87c2.3-1.6,2.7-1.9,1.8-2.4C86.6,84.5,86,84.2,85.6,84.4c-3,2.4-6.4,4.8-9.6,7.1c-0.1,0.4,0,1.1,0,1.4c-0.1,0.5,0.6,0.1,1.5-0.6zM77.1,89.6c0.2-0.2,1.6-1.1,3-2.1c3.9-2.8,4.3-3.1,4.3-3.4c0-0.8-1.1-1-2.1-0.2C80.4,85.5,76,88.2,76,88.6c0,0.6-0.1,1.2,0,1.4c0.2,0.3,0.6,0.1,1.1-0.4zm1.1-3.8C82.1,83.1,82,83.2,82,82.7c0-0.4-0.4-0.2-1-0.3c-0.6,0-0.6,0.1-1.7,0.9c-2.2,1.8-3.1,2.3-3.3,2.8c-0.1,0.1-0.2,0.8,0,0.9c0.3,0.3,0.6-0.1,2.2-1.2zm0.3-2.7c0.7-0.7,1.4-1.1,1.4-1.3C80,81.5,79.4,81,79,81c-0.5,0-0.8,0.3-2,1.3c-1.1,0.9-1.3,0.7-1.2,1.2c0.1,0.3,0.1,0.9,0.2,1c0.2,0.3,0.8,0,2.5-1.4zM76.9,81.3c0.8-0.7,1-0.8,0.4-1.5C76.7,79.3,76.1,79.2,75.8,79.5c-0.2,0.2,0,1.7-0.1,2c0,0.5,0.6,0.3,1.2-0.2zM94.7,66.2c0-0.3,1.4-1.4,2.5-1.6c1.4-0.3,3.1-0.2,4.3,0.4c1.1,0.6,2.2,1.8,0.5,1.1c-1.5-0.7-4.8-0.7-6-0.2c-0.9,0.5-1.3,0.6-1.3,0.3zM93.6,60.9c0.1-0.1,1.6,0.2,2.4,0.4c2.1,0.6,3.8,0.3,6.1-0.4c0.5-0.1,0.8,0.2,0.4,0.5c-1.1,0.8-2.6,1.3-3.8,1.4C95.9,63,92.9,61.6,93.6,60.9zM79.9,56.7C81.1,56.2,82.5,48,82.1,46.5c-1.5,2.3-3.1,3.3-5.5,2.9c-3.8-0.6-3.9-5.3-1-5.8c1.2-0.2,2.7,0.6,2.9,0.4c1.2-0.6,2.2-4.8,2.5-6.2s0.6-5.1,0.6-6.3c0.2-2.5,0.1-6.2,0.1-6.2L63.1,2.9H22.6c0,0-0.1,31.1,0,47.1L33.8,61.1,34,79C46.9,73.4,59.3,67.5,71.6,61.1c-1.5-1.7-1.4-6,1.2-7.6c3.8-2.4,6.9,0.8,7.1,3.2zm10.2,3.8c0.1-1,0.8-1.8,0.9-2.8c0-0.3,0.2-0.5,0.8-0.2c0.8,0.4,1,0.1,1.9-0.3c1.6-0.7,2-0.7,3.3-0.2c0.8,0.4,1,0.4,1.7,0c1-0.6,2.1-0.9,3-0.6c1.3,0.5,1.8,0.8,2.6,0.4c0.3-0.2,0.8-0.9,0.9-0.8c0.6,0.8,0.4,2.1,0.8,2.8c0.6,1.2,0.4,2.1-0.4,1.5C104.1,59,102.9,59,100.7,59.5c-1.3,0.3-1.9,0.6-3.3,0.4C93,59.4,92.7,59.5,91.8,60.1s-1.6,0.7-1.7,0.4zm11.8-8c-1.2-0.3-2.7-1.4-3.8-1.1c-1.3,0.1-2-1.5-1.3-2.3c1.1-1.1,2.9,0,3.6,0.5c1.5,1.2,1.7,1.2,2.3,1.2c2.5,0,2-2.3,0.8-3.2c-0.7-0.7-0.8-1.2-0.6-1.4c0.2-0.3,0.9,0,1.7,0.8c1.5,1.4,1.5,4.2-0.3,5c-0.9,0.5-1.5,0.8-2.4,0.5zm5.2-8c-1.2-0.8-3.2-2.7-3.7-3.4c-1-1.1-1.3-1.8-1.2-2.7c0.1-0.8,0.2-1.2-0.3-1.4c-0.4-0.3-0.9-1.3-0.8-1.9c0-0.1,0.6,0,0.9,0.4c0.4,0,0.3-0.2,0.8-0.5c4.7-3.2,8.5-2.6,12.9-0.4c1.3,0.6,4.7,3.2,2.9,2.4c-0.1-0.1-1.3-0.6-2.5-1.2c-3.9-1.9-8.2-3-11.7-0.6c-0.6,0.4-1,0.8-0.5,0.8c2-0.4,3.9-1.3,6-1.1c3,0,4.8,1.5,7.1,2.5c2.4,1.1,2.9,1.5,2,2.4c-0.2,0.3-0.4,0.3-1.6,0.2c-1.3-0.1-1.4,0-2.1,0.4c-1.9,1.2-4.4,1.9-6.5,1.7c-2.6-0.2-2.9-0.4-2.9-0.1c-0.1,0.3,0.5,0.7,1.2,1.4c0.6,0.5,1.4,1.3,1.5,1.4c0.2,0.4-0.8,0.2-1.5-0.3zm-0.7-4.1c0-0.3-0.6-1.6-0.9-2c-0.4-0.3-0.6-0.2-1.3,0.3c-0.5,0.4-0.6,0.7-0.1,1.1c1,0.9,2.3,1.1,2.3,0.6zm3.8,0.2c1.1-0.5,2.1-2.3,1.6-2.9c-0.2-0.3-0.5,0-1,1c-0.3,0.4-0.7,1-0.9,1.1c-0.9,0.6-2,0.1-2.5-1.2c-0.2-0.8-0.5-1.3-0.9-1c-0.6,0.5,0.1,2.5,1.3,3c0.7,0.3,1.7,0.3,2.4,0zm3.3-0.3c1-0.3,1.5-0.8,1.4-1.3c-0.1-0.4-0.8-0.8-1.3-0.8c-0.3,0-0.7,0-0.9,0.2c-0.3,0.5-0.9,1.9-0.9,2.1c0.1,0.3,0.5,0.1,1.7-0.2zm3.6-7.9c-5.2-2-9.4-2.8-14.4-0.6c-1.6,0.6-2.5,0.7-2.5,0.2c-0.1-0.5,1-1.9,2.3-2.6c3.4-1.6,7.6-1.7,11.1-0.1c1.3,0.7,5,3.3,5,3.5c0,0.3-0.3,0.1-1.5-0.4zm61.3,58.8c1.2-0.6,1.8-1.9,1-2.7c-0.2-0.2-0.5-0.2-0.8-0.2c-0.4,0-3.7,0.9-4.3,1.2c-0.4,0.2-0.3,0.6,0.1,1c0.2,0.1,0.3,0.5,0.4,0.9c0,0.5-0.1,0.9,0.2,0.8c0.7-0.1,1.7-0.3,3.4-1zm-4.7,1.2c0.4-0.6,0.2-1.5-0.7-2.1c-0.5-0.2-0.9-0.1-1.3,0.5c-0.9,1.7,1.4,2.4,2,1.6zM169,93.2c0.2-2.2,0.1-8.6,0.1-8.6s-1.1,1-1.9,1.1c0.3-1,0.6-1.3,1-2.2c0.3-1,0.4-2.7,0.3-3.7c0-1.1-0.8-1.1,0-3c0.4-1,0.4-2.1-0.1-3.3c-0.2-0.6-0.3-0.9,0.3-1.7c0.6-0.7,0.3-1.1,0.3-2.6c0-2,0-2.3-0.6-0.7c-0.9,1.4-1.3,1.1-2.8,1c-1.3,3-2.9,6.2-3,8.9c0,1.6,0,1.9,1,5.4c0.4,1.3,0.5,1.7,0.5,3.3c0,1.5,0.2,2,0.4,2.8c0.4,1.5,2,4,4.5,3.3zm-47.5,138v-3.1c0,0-4.9,1.6-7.4,0.6c-2.6-0.7-2.6-0.8-2.5-0.5c0.1,0.5,2,1.5,3.7,1.9c1.3,0.3,3.8,0,5-0.4c0.7-0.2,0.8,0,0.5,0.2c-3,2.4-6.9,1.3-9.3-0.7c-1.3-1.2-2.1-1.2-1.4,0.5c3.3,6.7,11.5,2.7,11.4,1.5zm-3.3-4.6l1.1,0.1c0,0-0.3-2-0.9-2.6c-1.2-1.1-2.9-1-4,0.2c-0.4,0.5-0.8,2.4-0.8,2.4h0.9c0.3-0.9,1.7-4.9,3.7-0.1zm-4.5-2.9c-0.6-0.2-2,0.4-2.7,0.9c-0.3,0.3-0.3,0.3,0,0.7c0.7,0.9,1.7,1.3,1.7,0.9c0.3-0.4,1.1-2.4,1-2.5zm7.4,2.1c0.1-0.6-0.4-1.6-1.3-1.9c-0.4-0.1-0.8-0.2-0.7,0.2c0.2,0.5,0.4,1.3,0.7,1.8c0.2,0.4,0.3,0.6,0.7,0.4c0.2-0.1,0.5-0.2,0.6-0.5zm48.1-40.9v-5.2c-2.7,2.7-6.1,7.2-7.1,8.9l7.1-3.7zM88.7,40.9c1.1-0.4,2-1.9,1.7-2.6c-0.2-0.5-0.7-0.1-1.1,0.5c-0.8,1.1-1,1.3-1.6,1.3c-0.8,0-1-0.2-1.5-1.2C85.9,38,85.6,37.9,85.3,38.3c-0.1,0.2-0.1,0.4,0.1,1.1c0.5,1.7,1.7,2.2,3.3,1.5zm3.1-0.5c1.2-0.4,1.4-0.6,1.4-1C93.1,39,92.1,38.4,91.6,38.5c-0.4,0.3-1.5,1.9-1.4,2.2c0.1,0.2,0.6,0,1.6-0.3zM84.6,39.7c0-0.4-0.1-0.8-0.2-0.9C84,38.3,83.2,38.6,83.2,39.3c0,0.4,0.6,0.9,1.2,0.9c0.3,0,0.3,0.1,0.2-0.5zm7-3.1c1.8,0.6,2.7,0.7,1.7-0.2C92,34.9,86,33.3,82.7,35.6c-0.2,0.4-0.2,1.6,0.1,1.6c2.6-1.8,6-1.7,8.8-0.6zm-6-5.1c-1.5,0.5-2.9,1.3-3.1,2c-0.2,1.2,0.3,1.2,2.2,0.6c2.5-0.9,5.3-0.5,7.4,0.7c1.6,1.2,2.1,0.8,1.8-0.2C93,31.4,88,30.8,85.6,31.5z"
        fill="#131F67" />
        <path d="M180.5,10.5l-10.8,10.8,0.1,12.8c1.1,2-16.8-5.7-19.6-8.1c0.3,8.6,12,18.3,19.5,21.9l0.2,27.3c3.2-1.6,7-2.6,9.8-2.8c1.4-18.6,2.7-42.8,0.8-61.9zM120,23.9c-1,0-1.7,0.3-1.6,1c-0.4-0.1,4,15.9,5.9,22.6c-3.8,3.9-7.8,10.7-2.1,16.9c1.3,1.4,3.5,2.5,5.6,3.8c1,0.9-11.6,9.1-22.9,9.1C101.3,69.4,96.3,73.7,93.5,76.5C91.3,76.3,83.2,71.5,79.1,68.7c-0.1,0,0-1.2,0-1.4c0.3,1.9,16.2,6,16.9,4.1c-0.4,0-7.1-4.5-9-9c-2.5-5.1-4.5-12-4.5-12c-0.8,2.6-0.5,6.1-3,7.4C78.8,49.5,66.9,53.7,72.8,61.9c-3.3,0.9-6.2,2.7-9.4,4.1c6.8,9.2,16.1,15.3,25.9,18.9c-1.3,2.8-9,9-2.7,16.3c0.3,0.3-6,7.1-9.1,12.5c-2.3,4-1.6,7.1-1.3,7.2c8.5-9.7,13.2-18,13.2-18c0,1.1,10.1,0.5,10-8.7c0.2-2.4,0.7-5.1,1.6-7.4c15.5,0.7,28.9-4.8,40.1-16.5c0,0,2.3,0.7,3.8,0.9c4-0.1,6.3-2.1,8.1-3.9c1.7-1.4,3.4-2.7,4-4.1c2.2-9.6-7.6-5.9-8-5.3C143.4,50.3,138.7,28.7,137.9,28.5C134.8,27.9,124.2,23.8,120,23.9zM81.8,38.5c-0.4,0.1-1.9,6.7-3.2,6.7C73,41.6,72.8,49.1,77.7,48.7c4-0.3,6.3-6.8,4.1-10.1c0-0.1,0-0.1,0-0.1zM21.9,51.2c0.2,40.6,0.9,81.2,1.9,121.7c3.6-0.9,6.3-1.6,9.9,0C34,161.4,33,132.3,33.3,104.1C46.9,93.4,56.5,81.7,63.3,66.3L42.4,76.1c0,0-6.8,9.8-9,10.5C33.1,85.2,32.7,68.6,33,61.4L21.9,51.2zM68.3,76.3l-4.1,6c0,0,0.1,20.4,0.4,30.3c0.1,1.9,1.9,3.7,0.5,5.5c0.8,0,4.6,26.5,1,37.2c-0.6,1.9,0,3.3,1,3.7c5.2,5.8,8,11.2,14.8,8c7.4-6.8,17.9-18.7,17.9-18.7L72,122C69.6,115.6,68.3,76.3,68.3,76.3zm101.3,85.2c-12.6,11.3-24.1,22.9-28.9,37c6.8-2.7,13.2-6,19.8-9.1c3.2-3.8,5.6-7.5,9.3-11.1c0,0,0.3,16.6,0,24.9c3.3,2.5,11.1,10.1,11.1,10.1S183.1,95.2,178.4,92.2c-4.5,0.9-6.8,2.5-8.4-2.7c-1.2,24-0.4,72-0.4,72zM125.9,95.1c-4.8,3.9-21.5,20.3-21.5,20.5c4.4,7.5,21.9,22.4,30.3,30.7l1.2,42.4c1.2-1.6,2.1-3.2,3.5-4.9c0,0-0.2-21.5-0.8-31.5c-0.1-3-0.8-5.4-0.6-5.6c-2.3-12.3-3.3-25.8,0-38.9C130.1,101,127.6,96.5,125.9,95.1zm1.3,48.4c0,0,0,0,0,0.1c-4.1,5.8-11.9,18.5-12.5,18.5c-0.2-0.4-8.1-0.1-9.6,4.9c-1.3,3.8-1.4,7.2-2.3,11C86.9,177.5,75.3,182.6,63,193.9c-6-0.1-10.5,1.3-12.6,3.9c-3.1,2.2-3.9,4.2-3.8,6.5c0.3,4.3,7.8,4.9,8.2,1.9c0.4,0,7.4,16,8.1,18.8c1.7,4.4,3.4,12.6,3.6,12.6c2.8,0.2,18.7,4.7,18.7,3.1C86.7,240,79.7,217.1,79.7,217.1C92,206.8,78.5,195.8,75.3,196.2c7-4.9,15-8.3,23.8-8.7c1.3,4.9,7.7,7.4,10.8,0.9c0,0,13.7,4.9,13.7,6.5c-5.7-0.8-10.3-1.3-15.9-1.8c10.8,5.9,11.1,13.6,13.3,21.3c0.3-1.3,3.2-7.3,3.2-7.3c3.6,8.2,10.6,2.5,7.7-4.1l8.7-4c1-0.5-13-16.3-25.7-18.5c0.7-1.2,0.9-2.3,1.6-3.2c3.2-3.2,5.6-7.8,0.8-13.3c3.2-4.5,10.6-15.3,10.2-15.5c0,0,0.1-5.1-0.3-5zM22.7,193.6c-0.1,0-0.3,37.7-0.1,56.4c-0.3,0.8-0.5,5-0.5,5L33.7,244.1,34,230c3-0.7,21.9,8.8,20.4,8.8C55.8,238.2,45.7,219,33.9,216.9C33.6,206,33.5,193.7,33.2,190.4c-4.1,0.8-10.5,3.3-10.5,3.2zm102.8,22.7c-3.3,1-4.6,7.8-3.6,11.1c0.2,0.6,0.1,0.8,0.6,0.2c1.3-1.9,0.9-5.6,3.1-7.5c5.9,1.7,5.3-5.9-0.1-3.8z" fill="#E2CF00" />
        <path d="M50.5,260.8L65.8,237.6c18.3,6.1,37,6.2,55.9,3.2l16.8,20h-6.9L121,245.6c-3.8,0.9-7.8,1.3-11.8,1.8l4.9,13.4h-5.4l-3.9-13.2c-9.1,0.3-15.4-0.5-21.7-1.2l-2.3,14.4H75.3L79,245.9c-4.3-0.8-8.7-1.5-12.3-2.7L55.4,260.8H50.5zM68,247.1l6.4,1.8-3.1,11.9H59.6L68,247.1zm16.5,13.7l1.8-10.6c4.2,0.9,9.8,1.1,15.7,1l2.7,9.6H84.5zM114.6,251l5-1.3,7.5,11.1H118L114.6,251zM41.4,184c24.4-28.5,21.2-58.5,7.7-82.6l2.8-3c15.7,25.7,19,62.4-9.8,90.7C41.8,187.4,41.4,184,41.4,184zM139,152c3.5,6,5.6,12.1,9.4,18.1L139.5,182,139,152zM33.7,170.9c-0.3-18.8,0-57,0-57L42,107.6c9.9,12,15.3,43.7-2.5,64.8c-1.3-1-4.8-0.6-5.8-1.5zm117.2-3.8c-22.6-38.3-11-66.3,10.8-91c0.1,1.9,0.1,3.8,0.3,5.7c-18.7,21.5-26.2,53.3-7.9,82.1l-3.2,3.2zm-41-5.6l10.3-14.1c0,0,2-5.6,3.6-7.2l1.9-1.7c0.6,0.6,1.9,1.9,1.9,1.9l-1.1,4.3c-3.8,5.9-7.8,11.8-12.1,17.7c0,0-3.6-0.6-4.5-0.9zM164.8,93.2c0.3-0.4,4.4,1.3,4.4,1.3l0.3,57.9-8.2,5.3c-2.4,1.2-21-36.8,3.5-64.5zM78.4,117.5c3.7-5,7.7-9.5,11.3-14.1c0.9,0.3,3.4,0.3,3.4,0.3c0.2,0.2-0.8,3.9-3.5,6.5c-7.4,8.8-9,10.4-9.3,14.1c-0.1,1.1-2.7,2.5-2.7,2.5l-1.8-2c0.5-2.9,1.4-5.1,2.6-7.3zM55.1,95.3l8.5-11,0.6,28.7-9.1-17.7zM82,23.4L65.8,3h7.8L83.3,17.4,94.9,16.1,90.8,3h4.8L99,15.9c7.1,0.2,14.1,0.7,20.9,1.4L123.3,3h4.9L123.8,18,136.9,21.4,148.6,3h5.8L137.8,26.8C116.2,20.2,98.8,21,82,23.4zm46.9-8.5L132.6,3h11.1l-8.5,13.6-6.3-1.7zM102.1,12L99.7,3h19.6l-2.5,10c-5.2-0.8-9.9-1-14.7-1zM78.7,3h7.8L89.5,12.3,85,12.8,78.7,3z" fill="#D40000" />
        <path d="M63.2,1.7L82,24.3c4-1.4,23.7-3.7,35.6-1c2.1,8.1,4.3,16.3,6.6,23.7c0,0-0.8,0.9-1.3,1.4c-7.6,8.8-2.2,17.2,4.7,20C126.4,71,113.1,77.5,105,76.7c0-0.1-2.5-5.9-7.6-4c-1.7,0.7-2.4,2-3.7,3.3C88.8,74.5,82.4,71.4,79.1,67.9c6.2,3,12.3,4.7,18.5,3.9c0,0-0.8-0.6-1.6-1c-0.6-0.3-1.8-1-2.8-1.7C90.3,67.2,88.4,64.8,86.5,60.9C84.2,56.8,83.9,52.5,82.6,48.7c-0.6,2-0.9,7.1-2.6,8.2C79.5,57.2,79.5,57.1,79.1,56c-1.3-4-6-3.5-7.6-0.6c-0.8,2.4-0.7,3.5,0.3,5.7l-2.9,1.6v0.5l-1.7,0.9-0.4-0.3C58.5,67.8,50.4,72,42,75.8c0,0-4.5,7.4-8.6,10.4L33.3,60.9,21.2,49.9,21.1,56c0,0,0.6,0.6,0.9,0.9c0.1,42.3,0,83.9,0,122.3l0.1,35.3-0.8,0.1v4.1l0.8,0.2-0.1,5.8H21.6l-0.1,3.7,0.7,0.1v20.8l-0.7,0.9v5.9L34.2,244,34.5,230.3c10,1.9,20.4,9.1,20.4,9.1C53.1,227.9,41,218.5,34,216.6V189.4c0,0-5.1,2.1-7.7,2.5c-1.3,0.1-1.8,0-2.4-1c-0.4-0.6-0.4-1.2,0-2.6c0.2-0.7,0.2-0.8-0.1-1.5c-0.3-0.9-0.3-1.3,0-2.9c0.3-1,0.2-1.5-0.2-2.4c-0.3-0.9-0.4-1.1-0.2-1.6c0.4-1.4,0.4-1.7,0.2-2.3c-0.4-1.3-0.4-2.2,0-3c1.8-3.1,6-2.3,8.3-2.2c1.2,1.3,1.8,2,1.9,0.1c0.9-2.2,4,0.1,5.4,1c12.5-16.7,18.6-39.2,3-67.5l-8.7,6.9,0.1-8.7C45.1,96.8,58,80,63.6,66.7c1.9,2.2,4,4.4,6,6.6l-1.3,2.2-0.4-0.2C64.3,82.1,54.7,95,54.5,94.8c3.6,6.7,6.8,13.4,9.5,20.2l0.7-0.3,0.6,2.1-1.2,0.3c4.2,14,4.4,26.9,1.2,38.8l0.7,3.2c0,0,4.5,4.3,5.7,5.6c3.2,3.1,6.7,6.5,6.7,6.5l4.1-4-0.2-0.4,35.9-35.7,2.2,2.1c-22,22.2-60.2,60.6-60.2,60.6L58.9,194c-0.8,0.1-1.9,0.1-2.6,0.1C55.1,194,55,194,54.1,194.5c-1.1,0.5-2,1.2-3.1,2.6c-0.6,0.7-0.9,0.9-1.5,1.1c-7.5,4.5-0.7,13.5,5.6,8.8c4.7,8.9,8.7,19.3,10.8,29.6c0,0.1-0.8,0.4-0.8,0.4L48.3,261.9h6.5l0.6-1.1H50.6L66,238.4c19.7,5.4,37.7,6.2,56,3l15.9,19.4h-6.3l0.9,1.1,8.2,0.2-18.7-22.2c-6.7,1.8-24.4,3.3-35.5,1.4C84.8,233,82,224,79.9,216.9C90.5,208.6,82.6,197.6,76,196.1c-0.3-0.6,13.3-8.8,23-8.3c2.7,6.7,8.8,5.7,11,0.7c4,1.5,9.2,3,13.3,6.3c-5.5-1.2-11.9-1.9-17.1-2c9.9,3.9,12.8,12.1,14,19.8c0.2,1.3,0.9,2.9,0.9,2.9c0.8-2.8,1.5-5.6,3.2-8c0.8,2.7,3.6,4.8,6.5,3.2c1.6-1.2,2.2-3.3,1.7-6.1c-0.2-0.8-0.2-1.2-0.2-1.2l2.2-1.2,0.3,0.2c0,0,2.4-1,3.6-1.6c0.2-0.1-0.2-0.5-0.2-0.5l22.4-10.6c-0.1,0,5.7-7.9,9-10.9c0.1,9.4,0,13.2,0,24.4l1.3,1.3c1.1,1.1,3.6,3.3,9.1,8.4c1.2,1.2,2.1,1.7,2.1,1.7L181.9,50.1h-0.1V46.9H182V38.7l-0.2-0.2V35.9l0.3-0.2V13.5l-0.3-0.1-0.1-5.3-12.5,13.2,0.1,12.5c-5.6-0.7-12.5-4.3-17.2-7.2c-1.6-0.9-2.4-1.1-2.4-0.6c0.7,7.4,11.5,18.8,19.7,21.8v28c0,0,2-1,3.2-1.5l0.2,0.5,2.6-1.1,0.2-0.6,2.3-0.3c0.1,0.5,0.1,0.4,0.1,0.4c2.1,0.6,3,2,2.2,3.6c-0.3,0.5-0.4,1.3-0.1,1.5c0.9,1.4,1.1,2.6,0,4c-0.4,0.6-0.4,1,0,1.7c1.2,2.3,0.5,2.1-0.3,3.5c-0.2,1,0.9,1.7,0.5,2.6c-0.1,0.6-0.8,1.4-1.2,1.7c-0.6,0.4-1-0.3-1-0.3s-1.7,0.7-2.9,0.9c-1.1,0.4-3.2,1.1-3.9-0.5c-0.4-0.9-0.1-1.7-0.1-2.8l-1.7-0.1-0.1,4.6c-1,0.5-4.9-1.5-4.9-1.5c-16.9,21.9-16.4,46.2-3.9,66.6c0.1,0.3,8.8-6,8.8-6s0,5.2,0.1,7.9c-11.1,9.2-21.7,21.5-29.4,36.7l-4.7-5.6c0.8-0.7,0.8-1.9,0.8-2.7l3.5-5.1v-1.4L148.6,170c0.2,0.8-9.2-16.7-10.4-22.4l0.6-0.2c-4.2-15.9-3.4-27.1-0.3-40l-0.9-0.9-11.8-11.8c-0.9,0.9-1.9,1.8-2.8,2.7c-0.2,0.1-0.9,0.1-1,0.2c-6.2,5.8-12.2,11.7-18.1,17.7c-0.1,0.2,0.1,0.8,0,1c-5.9,6.1-12.1,11.9-18,18l-2.2-2.1c21.1-21.2,61-60.6,61-60.6s0.2-0.3,0.5-0.3c1.1-0.1,2.1-0.3,3.2-0.6c1.3-0.4,1.5-0.4,2-1c0.4-0.4,0.9-0.9,1.3-1.1c0.6-0.4,1.9-1.5,3.9-3.3c1.3-1.1,2.1-2.8,2.1-4.2c-0.1-2.5-1.8-4.7-3.9-5c-0.9-0.1-2.7,0.3-3.6,0.9c-0.7,0.5-1,0.7-1.3,0.5C144.6,48.7,140.4,37.7,138.6,28.6C138.5,28,138.5,27.8,139,27.1c0.3-0.5,0.9-1.4,1.4-2.2C145.8,16.5,151.3,9.4,156,1.7h-6.6L148.6,3H154L137.7,26.5C107.7,16.7,83,22.9,82.4,23.1L66.2,3h7.4L72.7,1.7H63.2zm14.6,0L78.7,3h7.8L86,1.7H77.8zM90.8,3h4.8L95.4,1.7h-5L90.8,3zM99.4,1.7L99.7,3h19.6l0.3-1.3H99.4zM123.3,3h4.9l0.4-1.3h-4.9L123.3,3zM133,1.7L132.6,3h11.1l0.8-1.3H133zm47.5,9.1l0.2,3.6-8,8.5V34.7l-2.4-0.6-0.1-12.2,10.3-11.1zm-2.3,7.8c0.1,3.6-0.5,7,0.5,10.7c0.4,1.8,1.4,4,1.5,6.1l-2.6-0.1c-0.4-1-0.5-2.2-0.9-3.6c-1-3.3-1.7-6.7-1-10.2l2.5-2.9zm-57.6,5.8c0.1,0.2,0.4,1.8,0.7,3.2c1.4,7.7,3.3,13.5,5.2,19.4c2.4,7.4,5.9,16.7,9.4,21c0.5,0.5,0.7,1.2,0.5,1.4c-0.3,0.5-1.7-0.2-2.6-1.2c-0.4-0.4-1.2-1.5-1.7-2.5c-1.2-2.3-2.8-5.6-3-6.1c-0.1-0.3-0.7-1.9-1.4-3.7c-1.3-3.1-2-5.2-3.1-8.7c-0.8-2.7-1.6-5.6-2.5-8.5c-1.5-4.8-2.4-8.5-3.2-12.9c-0.1-0.6-0.4-1.4-0.3-1.5c0.5-0.4,1.8-0.2,2,0.1zm0.9,0.3c-0.2-0.1,1.4-0.1,1.8,0.3c0.2,0.1,0.4,1.1,0.7,2.2c1.3,7.2,3.4,14.6,5.8,21.6c2,5.6,4.1,11,6.7,15.3c0.8,1.5,1.9,3,3.4,4.7c0.7,0.9,0.8,1.1,0.6,1.3c-0.3,0.4-0.7,0.3-1.6-0.1c-0.8-0.4-1.7-1.3-2.6-2.5c-0.3-0.4-0.7-1-0.9-1.4c-3.9-6.7-6.3-13-8.4-19.5C124.8,40,122.9,33.2,121.5,25.5c0-0.2,0-0.5,0-0.8zm4.8,1c0.4,0.4,0.6,1.1,0.9,2.4c1.6,6.7,2.9,12.6,4.8,18c1,3,1.9,5.9,3,8.6c1.8,4.5,3.9,8.5,6.6,11.8c0.8,1.1,2.4,2.5,3.7,3.3c0.9,0.5,1.1,0.6,1,1c-0.1,0.2-1,0.4-1.2,0.3c-1.5-0.2-3.6-1.3-4.3-2.2c-4.4-4.8-7.6-12.6-9.9-19.1C127,38.7,123.7,24.8,124.4,25.3c-0.1-0.4,1.5,0,1.9,0.4zm1.9,0.4c0.2,0.1,0.4,0.1,0.5,0.1c0.9,0.3,1,0.4,1.2,1.3c1.4,6.3,2.9,11.9,4.6,17.2c1.7,5.5,3.4,10.6,6.2,15.9c2,3.9,4.5,6.6,7.2,8c0.8,0.4,1.5,0.8,1.6,0.8c0.1,0.1,0,0.3,0,0.5c-0.2,0.2-0.4,0.3-1,0.3c-1.3,0-2.1-0.4-3.5-1.3c-3.5-2.4-6.5-7.9-7.8-11c-1.7-3.7-3.2-7.7-4.6-12c-2.4-7.6-3.9-12.7-5-19.2c0-0.4,0.2-0.6,0.6-0.6zm52.3,10.4v2.3c-8.8,0.5-17.8-3.2-25-6.5c5.4,7.2,11.2,13.7,25,15v2.3C162.6,49.3,150,31.2,150.6,26.6c7.4,4.8,20.7,10.3,29.9,9.9zM131.1,27c0.4,0,1,0.2,1.2,0.4c1.5,5.5,2.5,11.6,5,17.7c2.9,7.5,4.6,14.1,10.1,20.3c1.7,1.7,5.1,1.7,5.1,1.7s-0.4,0.9-1,1.1c-1.2,0.2-2.1,0.2-2.9-0.1c-3.2-1.3-5.6-4.7-6.9-7c-1.2-1.8-4.1-8.9-6.4-16.2c-2.6-8-4.8-16.2-4.5-17.9c0.1,0,0.1,0,0.3,0zm2.9,0.9c0.2,0,0.5,0.1,0.9,0.3c0.3,0.1,0.5,0.2,0.7,0.9c0.1,0.5,0.1,1.1,0.3,2.2c1.2,5.8,2.9,10.4,4.6,14.9c1.7,4.3,3.4,8.5,5.5,12.4c1.1,1.9,2.2,3.7,2.9,4.3c1.8,1.9,5,2,5.9,0.2c0.5-1.1,0.4-2.7-0.6-3.6c-0.8-0.7-2.6-0.4-2.6,0.5c0,0.2,0.4,0.1,1,0c1.8-0.2,2.4,3,0.1,3.5c-2.9,0.7-4.9-3.2-2.4-5.7c4.4-2.9,7.7,1.1,6.7,5c-1,2.3-2.7,3.5-4.9,3.6c-2.8,0.1-4-0.8-6.9-5.1C141.8,56,140.4,50.7,138,44.8c-2.2-5.5-3.7-11.5-4.4-16.6c0.1-0.2,0.2-0.3,0.4-0.3zm2.8,0.9c0.3,0,0.8,0.2,1,0.3s0.4,0.3,0.4,0.3c3.9,14.3,7.2,22.9,10.5,29c0,0,0,1.1-0.3,1.4c-0.4,0.6-0.6,0.5-1.1-0.4c-2.1-4.1-4.1-8.6-5.9-13.2c-2.2-5.5-4.2-11.1-5-16.4c0.1-0.7-0.1-0.9,0.4-1zM163.3,37c0.5,0,1,0.5,1,1c0,0.6-0.5,1-1,1c-0.6,0-1.1-0.4-1.1-1c0-0.5,0.5-1,1.1-1zM81.8,36.8c-1.2,1.6-2.1,7.3-3.4,7.4c-1.3,0-2.9-0.8-3.9,0.4c-1.3,1.5-0.5,3.1,1,4c0.7,0.3,2.3,0.4,3.2,0.2c3.8-1.3,5.3-7.5,3.1-12zm85.3,1.5c0.8,0,1.4,0.7,1.4,1.5s-0.6,1.4-1.4,1.4s-1.5-0.6-1.5-1.4s0.7-1.5,1.5-1.5zM81.8,39c1.3,3.3-0.1,7.2-1.7,8.5c-1.4,1.3-3.7,1.4-5,0.2c-1.1-1-0.6-3.5,1.4-3.3c0.7,0,1.5,0.7,1.9,1.3c1.4,0.2,2.9-6.6,3.4-6.7zm90.3,0.8c0.9,0,1.6,0.8,1.6,1.7s-0.7,1.6-1.6,1.6s-1.6-0.7-1.6-1.6s0.7-1.7,1.6-1.7zm5.8,1.2c0.9,0,1.7,0.7,1.7,1.7c0,0.9-0.8,1.6-1.7,1.6s-1.7-0.7-1.7-1.6c0-1,0.8-1.7,1.7-1.7zM124,48.6c0.2,0,0.4,0.2,0.5,0.7c0.4,1,0.4,1.1-0.2,1.8c-5.1,7.1-0.4,14.4,7,15.2c0.7,0.1,1,0.8,1.3,1.6c0,0.4,0,0.4-1.7,0.4c-1.1,0-2,0-2.6-0.2c-2.6-0.7-5.8-3.1-7.1-5.2c-1.5-2.6-1.7-5.2-0.8-8.7c0.6-2.2,1.3-3.7,2.5-4.9c0.5-0.5,0.8-0.7,1.1-0.7zm48.7,0.8l0.1,24.4-2.6,1,0.1-26,2.4,0.6zm4.9,0.9c3.2,8.1,3.4,15.5,0.5,22.2l-3,0.4c4.1-9.4,2.3-16.2,0-22.8l2.5,0.2zM22.2,51.7l10.6,9.9,0.3,110.8-1.7-0.6-0.6-109-8.6-7.8V51.7zM124.9,52c0.1,0,0.1,0,0.1,0c0.3,0,0.5,0.4,0.8,1.1c0.2,0.8,0.2,0.8-0.1,1.6c-1.4,3.5-0.2,6.9,3.3,7.9c0.9,0.3,1,0.4,1.5,1.5c0.3,0.7,0.5,0.9,0.4,1.1c-0.2,0.1-0.7,0.2-2-0.1c-5.3-1.8-7.3-7.6-4.8-12.2c0.3-0.6,0.5-0.9,0.8-0.9c0,0,0,0,0,0zM82.7,51.6c0,0,1.1,3.9,1,4.8c-0.3,1.7-2.7,4.4-4.8,5.4c-2,0.8-5,0.4-6.2-0.9c-4.6-5.3,3.9-10.7,6-5.1c1.3,3.6-3.9,4.5-4.1,1.7c0-0.8,0.2-1,0.9-1.4c0.6-0.5,0.5-0.8,0-0.8c-2,0.7-2,2.5-1.1,3.6c1.7,1.9,3.9,0.8,5.4-0.5c2.1-1.9,2.5-4.5,2.9-6.8zm43.9,4c0.1,0,2.2,5,2.5,5.7c-0.1,0.5-0.6,0.5-1.6-0.2c-0.9-0.7-1.2-1.1-1.6-2.7c-0.1-0.5-0.3-2.5,0.7-2.8zM84.4,57.7c0.5,0,0.9,1.7,0.7,2.5c-0.3,1.5-4.3,4.1-7,4.6C77.5,64.9,77,65,76.8,65c-0.6,0.1-1.2-0.2-1.9-0.9C74.4,63.6,74.2,63.1,74.3,63s1.3,0.1,2.4,0.1c3,0,5.3-2.1,7.1-4.7C84,58,84.3,57.7,84.4,57.7zM25,58.9c0,0,2,1.9,3.1,2.9c-0.2,4.9-2,10.2-2,14.6c0.1,3.8,2.5,6.9,2.8,10.2C29,88.8,28.4,92,27.4,94.4c-1,2.2-1.5,4.6-1.5,6.9c0.1,5.4,4,11.3,2.6,16.7c-1.3,5-2.7,7.9-2.3,10.5c0.7,5.2,3.4,9.7,2.7,14c-0.7,4-2.5,7.9-2.3,11.5c0.2,4.2,1.8,7.6,2.2,11.4c0.3,2.5-0.4,6.3-0.4,6.3L25.6,172c1.5-5.9-0.8-11.1-1.7-16.7c-0.7-4.8,1.4-8.6,2-12.6c0.4-2.6,0-5-1.3-8.2c-2.4-5.9-1.5-9.8,0.2-15C27,114,24,109.7,23.3,104.4C22.9,99.8,23.2,96.6,24.9,92.6c1.2-3.9,1.6-6.2-0.3-9.9C23.4,80.4,23.1,79,23.1,75.9c0.6-6.2,2.3-9.7,1.9-17zm60.8,2.5c0.4,0,0.6,0.3,0.6,0.9c0,1.2-1.7,2.7-4.7,4.1c-1.6,0.7-2.5,0.8-3.4,0.4s-0.8-0.8,0.1-1c2.4-0.7,4.1-1.7,6-3.4c0.6-0.5,1.2-1,1.4-1zM72.1,62.2c7.8,8.4,15.4,12.7,21.3,14.7l-0.9,2.2C84.8,76.1,76.9,71.9,70.3,63l1.8-0.8zm15,1.4c0.2,0,1,1,1,1.2S87.8,65.5,87.5,66c-0.5,0.6-1,1-2.3,1.7c-1.7,0.9-2.8,1.2-3.6,0.8C80.9,68.1,81.1,67.7,83,66.6c1-0.5,2.3-1.5,2.9-2c0.6-0.6,1.2-1,1.2-1zM66.4,64.8c6.4,8.8,14.7,14.6,24.3,17.7l-1.5,2.1C80.4,81.5,71.7,76,63.8,66.3l2.6-1.5zm22.4,1.1c0.3,0,1,0.8,1,1.2c0,0.1-0.1,0.5-0.3,0.7c-0.3,0.4-2.1,1.8-2.9,2.2c-0.6,0.3-1,0.3-1.7-0.1c-0.8-0.3-0.6-0.7,0.6-1.5c0.6-0.4,1.6-1.1,2.1-1.6s1-0.9,1.2-0.9zM63,66.5C62.9,66.8,53.6,87.9,34.1,103L34,99.5C44.8,90.8,52.7,79.1,58.6,68.8L63,66.5zM90.6,68c0.3,0,0.5,0.2,0.7,0.6c0.3,0.5,0,0.9-1.1,1.8C89.5,70.9,89.3,71,88.7,71c-1.4-0.1-1.4-0.4,0.2-1.8c0.8-0.8,1.3-1.1,1.7-1.2zm37.8,1.1l4.1,0.3c1.1,0.8-16,11.9-27.8,10.9L105,77.7c10.4,0.3,23.7-8.1,23.4-8.6zm-35,1c1,0.6,2.1,1.2,1.8,1.4C94.8,71.8,92,71.6,91.4,71.2C90.9,71,90.9,70.9,91.6,70.1c0.8-0.9,1-0.4,1.8,0zM57.1,69.5C50.6,80.9,42.9,91.3,34,98.1l-0.1-6C42.4,85.5,48.8,73.6,48.8,73.5l8.3-4zM138,70.2l2,1.2C127.7,82.8,114.4,87.7,101.6,86.5l1-2.3c20.8,1.6,34.5-13.8,35.4-14zm3,0.4c0,0,0.7-0.1,0.6,0.1c-4.1,4-9.7,8.3-13.4,10.7c-17.4,17.9-32.3,32-47.5,48l-2.4-2.5,2.2-2.4c0-4.6,5.6-9.7,8.9-13.7c1.4-1.6,4-5.6,3.7-7.3C93,103.1,93,103,93,103c5.3-1.1,6.6-5.4,6.7-9.2c0.2-2.5,0.6-4.8,1.4-6.9C125,88.8,140.4,71.2,141,70.6zM99.4,73.3c2.7-0.1,4.8,2.1,4.8,5.1c-0.1,1.3-0.5,2.3-2.2,5.6c-1.7,2.9-1.9,4.7-2.6,8l-1.7-1.5-3.1,2.8,0.1-4.1c0,0,1.1-1.4,2.8-3.3c2.2-2.4,4.1-5.6,4-7.3c0-1.8-1.9-3.2-3.8-2c-1.6,1.1-2.4,3.2-3.3,9.4c-0.2,1.1-0.4,2.4-0.5,2.7c-0.2,0.8-2.6,3-2.6,3c-0.2,0-1.1-4.5-1.1-4.5l-2.4,0.4C90.6,84.5,92.7,80.9,94.1,77c1.3-2.3,3-3.7,5.3-3.7zM47.1,74.2c0,0-4.8,10-13.2,16.5V86.8C38.8,83,42.5,76.4,42.5,76.4l4.6-2.2zm115.2,0.3C145.7,91.7,124,123.4,150.9,168l3.6-4.1c-21.7-40.3-6.3-61.2,7.9-82.2l-0.1-7.2zM72.5,75.9c4.8,3.5,9.9,6.9,16.5,9.1c-0.4,1.2-9.4,8.8-2.9,15.8c0.3,0.4-0.4,1.3-1.5,2.5c-3.1,4.3-6.2,7.3-8.8,12.1L75.7,124.3,73.2,122,72.5,75.9zm89.2,0.8l0.1,5.1c-24.7,30.1-21.9,57.1-8,82.1l-2.6,2.7C128.3,127.2,142.5,97.4,161.7,76.7zm-60.9,3c-1.1,2.9-5.9,7.9-5.9,7.9S95.6,82.8,96,81.2c0.3-1.1,0.9-2.7,1.6-3.4c1.9-2.2,3.9,0.3,3.2,1.9zM68,77L68.5,117.3,65,113.8,64.5,83,68,77zm-4.7,7.9L64,112.3C60.6,104.1,55.7,95.1,55.6,95.2c0,0,4-5.3,7.7-10.3zm27.4,8.6c0,0,0.6-0.5,1.4-1.4c1.8-1.8,2-1.9,1.8,0.6c-0.1,0.9,0,2.2,0,2.2c1-0.7,3.5-3.6,4.2-3.1c0.6,0.5,1,1.6,1,3.3c0,3.2-1.9,6.2-4.8,7.1C86.3,104.7,81,95.5,86.5,89.6C87.1,89,88.6,88,89.4,88.2c0.9,1.7,0.9,3.6,1.3,5.3zm79.4-2.9c0.5,1.2,1.1,2.5,2.7,3.1c-0.3,39.1-0.1,108.4-0.1,108.4l7.9,7.4-0.1,3.3-10.4-9.6c0,0-0.6-81.7,0-112.6zm7.8,1.8c0.3,3.8-0.4,7.8,0.3,11.7c0.6,2.6,1.6,5.1,1.7,7.7c0,2.4-0.1,3.8-1.1,7.2c-0.8,2.4-0.8,2.7-1,5.1c-0.4,3.3,0.7,6.2,1.5,8.9c1.1,3.4,0.8,7.6-1,13.2c-0.6,2-0.7,2.8-0.6,4.6c0.2,3.8,1.6,7.4,2.3,11.1c0.3,2.1,0,4.9-1.4,9.7c-0.4,1.7-1,4.8-1,5.9c0,1.3,0.4,3.6,0.8,4.6c1.8,4.8,1.9,5.7,2,8.6c0,2.1-0.6,4.3-1.4,6.2c-1.2,3-0.4,6.2,0,9.6l-3.1-2.7c-0.9-2.9-0.6-5.7,0.3-7.8c1.2-3.5,1.5-3.8,1.5-5.7c0-2.6-1.5-5.7-2.2-7.5c-1-3.3-1-6.5,0-9.9c0.6-1.7,1.3-5,1.5-6.4c0.4-2.5,0.1-4.6-1.2-9.8c-0.6-2.5-0.8-3.5-0.8-6c0-2.3,0.3-4.7,1-7.5c1.1-4.5,1.1-7.2-0.3-11.3c-1.1-3.5-1.4-5.8-1.2-8.5c0.2-1.6,0.6-3.1,1.4-4.6c1.3-3.3,1.5-6.5,0.5-9.7c-1.7-6.6-1.7-9.9-1.5-15.8l3-0.9zm-8.8,2.1c-0.3,26.9,0,57.6,0,57.6s-7.9,5.5-7.9,5.3C151,140.5,147.1,115.6,164.9,93.2c0,0,2.9,1.2,4.2,1.3zM48.4,100.9c14.5,27.1,16.4,54.4-7.5,82.5c0.7,2.5,0.6,4.8,0.2,7c4.7-3.6,42.1-41,10.6-93.1l-3.3,3.6zm73.8-2.2l7.1,0.4,0.4,6.2-2.2,2.2c0,0-0.1-1.2-0.1-2.3c-0.1-1.4-0.3-2.6-0.4-2.6s-0.2,1.7-0.3,3.4l-0.1,2.6-0.8,0.8c-1.1,1.1-1.3,1-1.3-0.5c-0.1-3.2-0.1-3.4-0.4-3.2c-0.1,0.1-0.2,1.2-0.2,2.9c0,1.3-0.1,2.6-0.2,2.9c-0.2,0.4-1.5,1.6-1.9,1.6c-0.3,0-0.3-0.4-0.3-2.5c0-1.7-0.2-2.6-0.5-2c0,0.2-0.1,1.9-0.2,3.2c0,1.4-0.1,2.7-0.2,2.8c-0.2,0.6-1.6,1.8-1.9,1.7c-0.3-0.2-0.4-1.2-0.4-2.9c0-0.8,0.1-1.5-0.2-1.7s-0.4,0.7-0.3,3.1v2.7l-0.9,1c-1.4,1.4-1.5,1.4-1.5-1.2c0-2,0-2.8-0.4-2.7c-0.4,0.2-0.3,1.2-0.2,3.1c0.1,1.8,0.1,2.6,0,2.9c-0.1,0.1-0.6,0.7-1.1,1.1c-0.4,0.5-1,1.1-1.1,1.1c-0.1-2.1-0.3-6.7-0.3-6.7l-7.4-0.3c0,0,1.6-1.8,2.2-2.1c0.3-0.2,0.9-0.2,2.7-0.2c1.3,0.1,3,0,3.1-0.1c0.6-0.2-0.6-0.4-2.2-0.5c-1.1-0.1-1.4,0-2.6-0.2l1.1-1.1,0.8-0.8h2.4c1.4,0.1,2.5,0.1,2.6,0c1.4-0.3,0.1-0.6-1.5-0.6c-1.5,0-2.4,0-2.4-0.4c0-0.3,1.7-1.9,2.2-2c0.3,0,1.5-0.1,2.8-0.1c2.3,0,3.1-0.1,2.9-0.4c-0.1-0.4-1.6-0.3-2.5-0.3c-2.8,0-2.9-0.1-1-1.8l0.9-0.8,1.7,0.1c2.5,0.1,3.8,0,3.8-0.3c0-0.2-1.7-0.4-3.1-0.4c-0.9,0-1.5,0-1.5,0c0.6-0.8,1.3-1.5,2-2.2l2.3-0.1c1.7,0,2.7,0.1,2.8-0.2c0-0.3-0.7-0.3-1.4-0.3c-1.1,0-2.3-0.1-2.5-0.3c-0.1-0.1,0.2-0.6,0.9-1.3l0.8-0.7zM51.8,98.8c19.9,32.5,12.7,67.7-9.4,89.6l-0.7-4.3c20.9-25.5,24.6-51.8,7.7-82.8l2.4-2.5zm37,4.4c-3.6,5.3-9,10.7-11.1,15c-0.4,0.5-0.6,1.7-1.2,1.9c-0.3,0-0.5-0.6-0.4-2.1c0.1-1.1,0.2-1.4,0.7-2.5c2.8-5.1,6.1-8.8,9.7-13.7l2.3,1.4zm0.8,0.5l3.3,0.2c-0.7,2.3-1.7,4-2.9,5.5c-1.5,2-3.3,3.9-5.4,6.3c-3,3.5-4.5,7-4.4,8.6c-0.7,0.8-1.3,1.3-2.2,2.2l-2-1.8c1.5-7.4,8.4-14.1,13.6-21zm40.4,3h1c3.7,0.2,6,0.5,6.1,0.6s0.2,0.7,0.3,1.3c0,0.9,0,1.5-0.5,3.6c-0.3,1.4-0.7,2.6-0.8,2.8c-0.4,0.4-0.6,0-0.8-2c-0.1-1.2-0.1-2.1-0.3-2c-0.1,0-0.2,1.3-0.2,2.3c0.1,2.5,0.1,3.1-0.7,3.9c-1.3,1.3-1.4,1.1-1.5-1.2c0-1-0.3-2.4-0.3-2.5c-0.3-0.3-0.4,1.1-0.4,3.4v2.4l-0.7,0.7c-0.8,0.9-1.1,1.1-1.4,0.8c-0.2-0.2-0.1-0.7-0.1-2c0-1.7-0.3-2.6-0.6-2.3c-0.1,0.1-0.1,1.6-0.1,3s0,2.6,0,2.7c-0.1,0.3-1.6,1.9-1.9,1.9s-0.6-1.8-0.6-3.3c0-0.9-0.2-1.1-0.4-0.6c0,0.2-0.1,1.5-0.1,2.8v2.2l-0.9,0.9c-1.2,1.3-1.4,1.2-1.4-0.5c0-1.5-0.1-2.3-0.4-2.3c-0.2,0-0.2,0.7-0.2,2.4c0,1.1-0.1,2.3-0.2,2.5s-0.5,0.8-0.9,1.2c-0.3,0.4-0.8,0.7-0.9,0.7s-0.4-1.4-0.3-2c0-0.1,0-1,0-2c0-2.2,0.1-2.1-3.5-2.3c-4.2-0.1-4.3-0.1-3-1.4c1.2-1.1,1-1.1,3.8-0.9c2.3,0.2,2.6,0.1,2.8-0.1c0.1-0.1,0.2-0.3,0.2-0.3C121,121,120.2,121,119.2,120.9c-2.8-0.2-3.1-0.4-1.9-1.5l0.7-0.7h2.8c2,0,3.3-0.1,3.4-0.2c0.1-0.3-0.6-0.4-2.5-0.5c-1-0.1-1.9-0.1-2-0.2c-0.5-0.1-0.3-0.6,0.5-1.3l0.7-0.7h2.5c2.4,0,3.5-0.2,3.5-0.5c0-0.2-0.4-0.3-1.6-0.3c-1.7-0.1-2.9-0.2-2.9-0.5c0.4-0.8,0.9-1.2,1.6-1.9l2.6,0.1c2.6,0.1,3.4,0,3.4-0.4c0-0.3-1.1-0.5-2.6-0.4c-0.9,0.1-2-0.1-2-0.5c0-0.1,0.4-0.6,0.8-1l0.9-0.9,2.5,0.1c1.4,0.1,2.9,0.1,3,0c0.4-0.3-0.6-0.5-2.1-0.6c-2.5-0.1-2.6-0.3-1.3-1.5l0.8-0.8zM42.2,108c13,23.4,11.1,45.5-2.8,64.3c-1.6-1-3.3-1.5-5.2-1.7L33.9,114.1,42.2,108zm93.3,9.2c0.2-0.1,0.2,0.4,0.2,1.3c-0.1,0.7-0.2,1.5-0.3,1.7c-0.1,0.4-0.3,0.4-1.5,0.2c-1.5-0.2-1.4-0.5,0.1-2c0.8-0.8,1.2-1.2,1.5-1.2zm-70.1,1c0,0,1.8,0,2.6,0c0,0,0.1,4.4,0.5,6.9l5.6,0.3-2.2,2.3-4.2-0.2c0,0-1.3-6.2-2.3-9.3zm66.7,2.7c0.8,0,2.8,0.3,3.1,0.6c0.2,0.1,0.2,0.6,0,3.4c-0.1,1.1-0.1,3.2-0.1,4.9c-0.1,3-0.1,3-0.4,3.1c-0.5,0-0.5-0.1-0.6-2.1c-0.1-1.1-0.3-2.1-0.4-2.1c-0.1-0.1-0.1,0.9-0.1,2.9v2.6c-0.5,0.4-0.9,0.9-1.4,1.2c-0.3,0-0.5-0.5-0.6-1.9c-0.2-1.4-0.3-2.3-0.5-2c-0.1,0,0,1.5,0,2.7l0.2,2.3-1,1c-1,1-1.1,1.1-1.3,0.8c-0.3-1,0.2-5.6-0.7-6.2c-0.2-0.1-1.4-0.1-2.8-0.2c-2.3-0.1-3.7-0.1-4-0.4c-0.2-0.2,0.9-1.5,1.5-1.7c0.4-0.2,0.9-0.2,2.8-0.1c2.3,0.1,3.4,0.1,3.1-0.2c-0.1,0-1.2-0.2-2.1-0.3c-1.8-0.2-2.5-0.4-2.5-0.7c0.4-0.7,1-1.2,1.6-1.8l0.9,0.1c0.4,0,1.6,0.1,2.5,0.2s2.7,0.2,2,0.1c0.2-0.2-0.7-0.5-2-0.7c-2.5-0.3-2.7-0.5-1.4-1.8l0.7-0.7c1.3,0.1,2.6,0.1,3.9,0.3c0.9,0.2,1.4,0.1,1.4-0.2c0-0.2-0.4-0.2-1.6-0.4c-0.4-0.1-2.5-0.1-2.5-0.7c0.5-0.7,1.4-2,2.3-2zm-57.3,5.3c0.3,0,0.4,0.9,0.4,3.3c0,2.6,0.1,3.1,0.3,3.3s0.8,0.3,3.1,0.4c3.6,0.2,3.6,0.3,2.4,1.5c-0.9,0.8-0.9,0.7-1.6,0.6c-1.9-0.2-4.7-0.1-4.8,0c-0.2,0.3,0,0.4,1.8,0.5c2.1,0.2,2.6,0.3,2.6,0.6c0,0.2-0.3,0.6-0.8,1l-0.8,0.8-2.2-0.1C72.9,138,71.7,138,71.7,138.3c0,0.2,1.4,0.4,3.5,0.6c0.5,0,1.1,0.1,1.1,0.1c0.1,0.3-1,1.6-1.6,2.1c-0.6,0.4-0.8,0.2-3.1,0.1c-2.4-0.1-2.6,0-2.1,0.5c0.1,0.1,0.5,0.1,1.4,0.2c1.4,0.1,2.1,0.3,2.1,0.6c0,0.4-1.3,1.7-1.9,2c-0.5,0.3-0.8,0.3-2,0.1C68.2,144.5,68,144.3,68,143.4c0-0.4,0.1-3,0.2-5.7c0.1-5.4,0.2-5.7,0.9-5.6c0.3,0.1,0.3,0.5,0.4,2.3c0.1,1.9,0.2,2.3,0.5,2.3c0.1,0,0.1-0.8,0.1-2.7C70,131.2,70,130.7,70.8,129.9c0.4-0.4,0.7-0.7,0.9-0.4c0.4,1.1,0.3,2.4,0.4,3.5c0,1.2,0.4,1.4,0.5,0.3c0-1.7,0-3.3,0-5.1l1-1.1c0.6-0.6,0.9-0.9,1.2-0.9zm-7,2.1c0.5,0,2.8,0,3.2,0.1c-0.6,0.9-1.9,2.2-2.8,2.7c-0.2,0-0.4-2.3-0.4-2.8zm67.4,5.3l0.5,3.6-3.8-0.3,3.3-3.3zm-52.3,0.6c0,0,0,0,0,0c0.3,0.1,0.4,0.8,0.5,4.1c0.1,1.5,0.2,2.8,0.3,2.9s0.6,0.2,1.5,0.2c0.7,0,2.1,0,3,0.1c2.1,0.1,2.2,0.2,0.9,1.4l-0.8,0.8-2.6-0.1c-2.7-0.1-3.1,0-3.1,0.3s0.4,0.4,1.3,0.4c0.3,0,1.2,0,1.9,0.1c1.5,0.1,1.6,0.3,0.4,1.5l-0.8,0.9-0.9-0.1c-1.3-0.2-4.7-0.1-4.9,0.1c-0.3,0.3,0.1,0.4,1.7,0.5c2.4,0.2,2.8,0.2,2.8,0.5c0,0.1-0.3,0.6-0.8,1l-0.7,0.8-3.1-0.2c-2.1,0-2.9,0-2.9,0.2c-0.1,0.2,0.2,0.3,2.5,0.5c2.1,0.2,2.4,0.5,1.6,1.5c-0.9,1.1-1.2,1.2-2.9,1c-1.9-0.1-3.8-0.1-4,0c-0.5,0.3,0,0.5,1.3,0.6c2,0.1,3.2,0.3,3.2,0.6c0,0.4-0.7,1.2-1.3,1.7l-0.6,0.4-2.2-0.2c-2.3-0.3-3.5-0.2-3.2,0.2c0.1,0.1,1,0.2,1.9,0.3c1.7,0.1,2.6,0.3,2.6,0.7c0,0.1-0.5,0.6-1,1.1c-0.5,0.6-1.1,0.9-1.1,0.9l-7-0.6c0,0-0.4-1.3,0.3-4.7c0.6-3.1,0.9-3.7,1.2-3.2c0.1,0.2,0.2,0.9,0.2,1.4c0.2,1.3,0.5,2,0.6,2c0.3,0,0.3-0.7,0-2.4c-0.4-2.4-0.4-2.5,0.5-3.5c0.8-0.8,1.2-1,1.5-0.6c0,0.1,0.1,1.2,0.2,2.1c0.2,1.6,0.3,2,0.5,1.8c0.1-0.2,0.2-0.6,0.1-3l-0.2-2.3,1-1.1c0.9-0.9,1-1,1.2-0.8s0.3,1.2,0.4,2.4c0.1,1.7,0.2,2.3,0.5,2.1c0.1-0.2,0-4.1-0.1-5.1c-0.1-0.6,0-0.6,0.7-1.5c0.9-1,1.4-1.4,1.7-1.4c0.3-0.1,0.5,0.9,0.5,2.3s0.1,2,0.2,2.1c0.3,0.5,0.4-1.1,0.3-2.7l-0.1-2.9,0.9-0.9c0.9-0.9,1-0.9,1.2-0.7c0.3,0.2,0.2,0.7,0.3,2.2c0.1,2,0.5,3,0.7,1.6c0-0.4,0-1-0.1-1.4c0-0.4-0.1-1.4-0.1-2.2c0-1.2,0.1-1.5,0.4-2c0.4-0.6,1.6-1.7,2-1.7zm40.5,2.2c0,0,1.5,1.3,1.5,1.7c0,0.2-0.6,0.9-1.4,1.7c-1.6,1.5-1.7,1.8-1.9,3.4c-0.1,0.6-0.4,1.4-1.1,2.9c-0.5,1.1-1.3,2.4-1.3,2.4c-2.5,2.9-4.8,5.6-9.1,11.9c-0.3,0.6-0.3,1.1-0.6,1.6c-0.2,0.4-0.6,0.7-0.8,0.7c-0.3,0.2-0.8,0.5-1.3,0.8c-1.6,1.3-2.6,2.9-3.1,4.9c-0.2,1.1-0.4,2.1-0.8,5.5c-0.2,1.4-0.8,3.8-0.8,3.8c-9.3-0.1-18,1.5-25.8,5.9l46.5-47.2zm12.4,1.4l2.1,9.4h-2.2l-0.2-6.9-6.6-0.6,2.4-2.3,4.5,0.4zm-10.1,0.9c0.6,0.5,1.3,1.2,1.8,1.8c-1.8,6-7.4,13.7-13,21.4l-4.1-0.5c-0.1-0.1,5.7-8.2,8.4-11.2c1.1-1.3,1.8-2.5,2.7-4.4c0.4-0.7,1-2.4,1.4-4.3c1-1.1,2.8-2.8,2.8-2.8zm2.2,2l3.1,3.2,0.8,44.6C127,184.7,121.4,182,115.4,179.8l1-2.4,1.2-1.2c4-4.4,3.1-9.2,0-12.6c3.8-5.5,7.2-9.6,10.1-15v-3.7c0-3.5,0.2-4.2,0.2-4.2zm-37.1,1.9c0.3,0,0.4,0.8,0.5,3.1c0,2.2,0.1,3.3,0.3,3.5c0.2,0.3,0.4,0.3,2.9,0.4c2.8,0.1,3.3,0.2,3.3,0.5c0,0-0.3,0.5-0.8,0.9l-0.7,0.8-2.4-0.1c-1.3,0.1-2.9,0-2.9,0.1c-0.2,0.2,0.6,0.4,1.8,0.4c0.7,0,1.9,0.2,2,0.2c0.5,0.2,0.2,0.7-0.8,1.6l-0.9,1-2.2-0.1c-1.3,0-2.7,0.1-2.9,0.1c-0.7,0.2-0.4,0.4,0.8,0.4c1.8,0.1,3.1,0.2,3.1,0.5c0.1,0.2-0.3,0.7-0.7,1.2l-0.9,0.8-3.2-0.1c-3.1,0-3.5,0.3-0.9,0.5c1,0.1,2.5,0.3,2.6,0.4c0,0,0.1,0.1,0.1,0.2c0.2,0.3-1.1,1.7-1.7,2c-0.4,0.2-0.6,0.2-1.2,0.1c-0.7-0.2-3.7-0.2-4,0c-0.2,0.2,0.3,0.4,1.2,0.4c1.2,0,2.7,0.4,2.7,0.7c0,0.2-0.6,1-1.3,1.6c-0.3,0.3-1.1,0-3.1,0.1c-1.4,0-2.3,0.2-2.3,0.3c0,0,0.7,0.3,1.5,0.4c0.9,0,2.1,0.3,2.2,0.3c0.2,0.2-1.3,2.1-1.3,2.1l-6.8-0.1-0.6-7.1,0.6-0.7c1.3-1.5,1.6-1.3,1.8,1.4c0.2,2,0.3,2.6,0.6,2.3c0.1-0.1,0.1-1.2,0-2.9C77.1,158.5,77,157.2,77,157.1c0-0.4,1.6-2,1.9-1.9c0.2,0,0.4,0.7,0.6,2.5c0.1,1.5,0.2,1.9,0.5,1.6c0.1-0.1,0.1-0.9,0-2.8l-0.2-2.5,0.6-0.8c1.4-1.5,1.6-1.3,1.8,1.2c0.1,1.7,0.2,2.6,0.6,2.6c0.1,0,0.1-1.3,0-3.2l-0.1-2.9,0.8-0.8c0.5-0.5,0.9-0.8,1-0.8c0.3,0,0.5,0.7,0.7,2.4c0.2,1.9,0.3,2.2,0.5,2c0.1,0,0.1-1.2,0-2.7l-0.3-2.8,1-1c0.6-0.6,1.1-1,1.2-1c0.3,0.1,0.5,0.9,0.6,2.1c0,1.2,0.2,2.2,0.4,2.4c0.1,0.1,0.2-0.6,0.2-2.6C88.7,145,88.6,144.7,90,143.3c0.4-0.4,0.7-0.7,0.8-0.7zm36.3,1.3l0.1,4.3c-1.8,3.8-5.8,9.3-9.9,15.2l-2.1-1.2c5.1-6.7,9.4-13,11.9-18.3zm-58.4,1.4c0.1,0,0.3,0,0.4,0c1.1,0,1.1,0.4,0.1,1.4c-0.5,0.4-0.9,0.7-1.1,0.7c-0.3,0-0.4,0-0.3-0.9c0.2-1,0.3-1.2,0.9-1.2zm66.7,3.1l3,3,0.8,31.9-3.2,5.2-0.6-40.1zm3.8,4.2c2.7,6.4,5.5,12.4,8.6,17.3l-8,11.4-0.6-28.7zm-27.1,10c3.7-0.1,7.1,2.9,7.5,5.8c0.8,3.5-0.9,7.2-3.8,8.3c-1,0.4-1.6,0.4-1.6,0.4C113.8,175,114,173,113.5,170.9c0,0-1.7,2.3-2.7,3.1c-0.5,0.3-0.7,0.4-0.7-0.3c0.1-1.1,0.1-3.7,0.1-3.7l-4.2,4.4c0,0-0.4-0.5-0.8-1.6c-1.3-3.6,0.4-7.3,3.2-9.1c1.2-0.8,2.4-1.1,3.7-1.1zM169,162.3l0.1,3.9c-6.7,5.2-16.3,16.2-24.5,30.6l-3.6,1.5c5.5-13.4,17.3-26.9,28-36zm0.1,5.1l0.1,5.9c-6,5.7-11.1,11.6-15.6,19.2c-2.6,1.2-7.5,3.6-7.5,3.6c-0.6-0.1,13.2-21.7,23-28.7zm-59.8,5c0.3,0,0.2,0.5,0.2,1.3c-0.2,1.7-0.4,2.3-1.1,3.2c-2.1,2.6-5.6,6-6.1,9.3c-0.2,1.7,1.2,3.4,2.5,3.2c4.1-0.5,4.6-7.9,4.9-11.5c0.2-0.9,0.2-1.7,0.4-1.9c0.8-1.2,1.8-2.2,3-3.1l0.5,5.6,2.3-0.8c-6.6,9-4.7,9.5-8.2,13.2c-3.2,3.4-9.4-0.5-7.8-5.7c1.4-3.4,3.5-6.9,4.1-10.7c0.2-1.1,0.3-1.8,0.3-1.8l1.4,3.1c0.8-0.8,3-3.2,3.6-3.4zm60,1.9v4.1c-3,3.4-5.7,6.1-8.8,10.8l-5,2.3c3.3-6.2,8.6-12,13.8-17.2zm-60.6,3.6c0,0,0.3,1.9-0.4,5.3c-0.3,1.6-1.9,6.3-4.3,5.2c-2.1-1.9,0.4-5.3,1.7-6.9c1-1.2,2.1-2.4,3-3.6zm-6.5,0.5l-1.4,2.9c-12.1,0-23.9,4.4-34.4,13.3l-2.7-0.9C74.8,183.1,88.6,178,102.2,178.4zm12.8,2.2c13.7,4.6,20,11.3,25.2,18.3L138,200c-5.4-7-12.1-13.4-24.6-17.2l1.6-2.2zm-15.7,4.3l-0.6,2.5c-7.7,0.2-15.8,3-23.7,8.5l-2.8-0.5c7.9-6.2,17-9.8,27.1-10.5zm35,16.8l-2.4,1.2c-7.3-9.5-13.8-12.2-21.3-14.6l0.8-2.1c10,2.7,17.4,7.8,22.9,15.5zM33.1,190.6l0.2,25.2-1.8-0.4-0.2-24.3,1.8-0.5zM29,192c-3.3,12.5-0.7,15.7,0.5,23l-2.8-0.4c-2.7-7.4-3-14.1-0.7-22L29,192zm84,1.9c0.2,0.2-0.2,0.8-0.7,1.1s-0.4,0.2-1.2,0c-0.8-0.3-1.7-1.1-1.7-1.3c0.5,0,3.1-0.1,3.6,0.2zm2.3,0.2c0.5,0,1.8,0,1.9,0.4c0,0.2-0.5,0.7-1.5,1.4c-1.7,1.1-2.2,1.3-2.7,0.8c-0.4-0.5-0.3-1,0.5-1.7c0.7-0.7,1.1-0.9,1.8-0.9zm-55,0.2c0.9,0,2.6,1.2,3.6,2.5c1,1.6,2.2,3.2,3.1,4.8c2.1,3.7,3.8,7.4,5.2,11.1c3.6,9,5.7,17.8,7.4,26.4c0,0.8-0.6,0.8-1.1,0.6c-0.3-0.1-0.6-0.3-0.6-0.4c-0.8-2.1-1-4.3-1.6-6.4C74.9,227.5,74.4,224.5,71.6,217c-1.4-4-3.5-9.4-5.7-13.6c-1.5-2.6-3.1-5.1-5.3-7.3C60,195.5,59.3,195,59.3,194.9c0-0.4,0.4-0.6,1-0.6zm58.6,0.3c0.8,0.2,2.9,0.5,2.1,1.2c-2.9,1.1-3.8,2.3-5.4,3.5c-0.2,0-1.1-1.1-1.1-1.4c1.2-1.5,2.8-2.2,4.4-3.3zm-54.4,0c1.2,0,2.4,1.6,3,2.6c3.7,5.5,6.9,13.3,9.5,21c2.9,8.3,4.7,16.2,5.4,21.9c0,0.2-0.4,0.2-0.8,0.2c-0.7,0-0.9-0.2-1-0.8c-2-9.3-4.6-19-7.8-27.1C71.1,208,69.2,203.6,66.5,199.2c-1.9-2.7-2.9-4.1-2.8-4.3c0-0.2,0.3-0.3,0.7-0.3c0,0,0.1,0,0.1,0zm-8.3,0.2c1.6,0,4.3,1.9,6.2,4.4c3.9,5.4,6.1,11.7,8.4,17.7c2.7,7,4.6,14.7,5.7,20.8c0.2,0.9,0.5,1.3-0.3,1.5C75,238.9,75,238.9,74.7,237.4c-0.5-1.6-0.7-3.3-1.1-4.9C70.9,223,68,212.5,63.1,203.9c-5.9-9.4-7.6-6.8-8.5-8.5c0-0.3,0.7-0.6,1.6-0.6zm14.1,2.3c5.1,8.8,7.3,14.2,8.8,19.5c2.4,8.1,5.1,14.5,6.3,23.9c0,0-1.3,0.1-1.8-0.2c-0.3-0.2-0.5-1.1-0.6-1.9c-1.2-6.6-3.2-14.5-5.3-20.7c-2.3-6.9-5-13.4-9-19.8c-1-1.7-1.2-2.4-0.6-2.4c1.2,0.1,1.7,1,2.2,1.6zm52.6-0.9c0.3,0,0.4-0.1,0.8,0.1c0.7,0.2,0.9,0.3,0.9,0.6c0.1,0.4-0.4,0.5-1.6,0.8c-1.1,0.3-3,1.3-4.4,2.5c-0.7,0.5-1.2,1.1-1.4,1.1c-0.3,0-1-0.9-1-1.2c1-1.6,4.4-3.8,6.7-3.9zm-69.6,0.2c4.3,0.1,7.7,5.1,9.4,8.4c0.7,1.3,1.6,2.8,2.2,4.3c3.5,7.7,6.5,17.5,7.9,23.7c0.7,3,1.5,5.2,1.2,5.8c-0.3,0.2-1.1,0.1-1.4-0.2c-0.2-0.2-0.4-0.9-0.8-2.2c-1-3.2-2.6-12.3-6.9-22C64.8,214,62.7,207.9,59.1,202.1c-1.5-2.3-3.8-3.8-6-4.3c-1.1-0.2-1.4,0-1.3-0.6c0-0.4,0.1-0.5,0.7-0.7c0.3-0.1,0.5-0.1,0.8-0.1zm26.8,19.9c-0.3,0-0.6-0.6-0.8-1.5c-0.1-0.5-0.2-0.8,0.6-1.3c5.3-5.7,0.8-14-5.9-14.7c-0.6-0.1-1.4-0.1-1.6-0.2c-0.4-0.2-1-1.4-1.3-1.9c9.2-2.2,19,11,9,19.6zM126,197.8c0.5,0.1,1.7,1.2,1.5,1.5c-0.1,0.3-1.2,0.3-2.7,0.5c-3.1,0.6-4.5,2.7-6,4.2c-0.3,0.1-0.6-0.1-0.9-0.6c-0.2-0.4-0.4-0.8-0.4-1c1.7-2.4,6.1-4.8,8.5-4.6zm-74.8,0.7c2.7,0,5.4,1.3,6.9,3.4c5.5,8.3,11.7,26.8,13.2,35.9c-0.2,0.2-0.6,0.3-1.3,0.1c-0.4-0.2-0.4-0.3-0.7-1.1c-1.7-6.7-3.6-13.1-5.8-19c-1.2-3-2.6-6-3.8-8.7c-0.8-1.7-2.5-4.7-3.1-5.6c-1.4-2.7-4.4-3.5-6.2-2.6c-1.9,1-2.2,3.5-0.7,4.6c1.2,0.8,3.1,0.7,3.8-0.6c0.2-0.5,0.2-1.1,0-1.2c-0.1-0.2-0.4-0.1-0.5,0c0.1,1.6-1.9,1.8-2.8,1.1c-1.5-1.1-0.5-4.4,3.4-3.1c1.5,0.8,2,2.3,1.3,3.9S53,208,51.3,208c-2.1-0.1-4.5-1.6-4.6-4.2c0.1-2,1-3.7,2.7-4.8c0.7-0.4,0.9-0.5,1.8-0.5zM74,199.7c6.5,0.3,9.5,8.1,6.1,12.7c-0.9,1.1-1.5,0.9-1.8-0.5c-0.2-0.6-0.4-0.7,0.1-1.2c3.1-2.9,0.6-8.6-4.5-8.8c0,0-0.9-1.4-1-2.1c0.3-0.2,0.8-0.1,1.1-0.1zm54.5,0.6c0.5,0.1,1.5,1.1,1.5,1.5s-0.2,0.3-1.3,0.1c-2.8-0.5-5.5,1.1-7.8,4.6c-1.2,2.1-1.3,1.9-1.9,0.1c-0.3-1-0.3-0.9,0.9-2.6c2.2-2.8,5.4-4.1,8.6-3.7zm2.5,3.5c2.3,2.1,1.3,6.7-1.8,7.2c-2.8,0.3-5.2-2.7-3.5-4.7c1.1-1.2,2.5-1.3,3.4-0.3c0.9,1.1,0.5,2.6-0.8,2.7c-0.1,0.1-0.2,0.2-0.2,0.3c0,0.3,1.1,0.2,1.5-0.1c0.8-0.9,0.8-2.2,0.1-3.1c-0.6-0.8-1.9-1.5-3-1.1c-1.8,0.7-3.7,3.2-4.8,6.3c-0.3,0.9-0.5,1.8-0.6,2c-0.2,0.4-0.2,0.4-0.5,0.2c-0.2-0.1-0.6-2.1-0.6-2.8c0-0.6,0.5-2,1.1-3.3c2-3.7,6.5-6.2,9.7-3.3zM75,202.9c2.7,0.1,4.8,3.9,3.6,6.6c-0.3,0.5-0.9,0.8-1.1,0.5c-0.1-0.1-0.5-1.4-1.1-2.7c-0.5-1.3-1.1-2.6-1.2-2.9c-0.4-0.9-0.8-1.5-0.2-1.5zm-18.2,2.2c3.1,5.4,5.6,11.6,7.7,17.7c1.7,4.7,3,9.3,3.8,13.4c0.1,0.4,0.2,0.6,0,0.8c-0.3,0.3-1.8-0.4-1.8-0.4C64,227.8,61.9,218.9,55.9,207.7c0,0-0.3-0.4-0.4-0.7c-0.1-0.7,0.2-1.6,0.6-2.1c0.1-0.2,0.4-0.2,0.7,0.2zM22.6,215.3c14.4,1,25.6,7.1,31.5,23.1C52,237.2,41.3,229,22.8,227.9l-0.1-2.2c13.3-0.1,26.2,6.8,26,6.7C43.7,222.2,31.3,218,22.6,217.8v-2.5zm100,3.3c-0.9,1.4-0.8,1.3-1.3,2.6c0.1,0.4,0.1,2.8,0.2,4.3c0.1,1.9,0.1,2.7,0.3,2.8c0.2,0.3,0.7,0.4,1,0.1c0-0.1,0.2-0.5,0.3-0.9c1.2-4.5,1.7-6.2,2.2-6.7c0.3-0.4,0.4-0.4,1.7-0.2c3,0.2,4-3.3,2.1-4.7c-2.6-1.4-5.3,1-6.5,2.7zm3.1,0.9c-2.1,1.7-2.1,4.2-2.8,6.5c-0.3,1.6-0.8,2.4-1,0.1c-0.3-3.3,0.1-5.7,1.5-7.6c0.9-1.4,2.3-2.3,3.6-2.4c2.7-0.2,3,2,2.2,3.2c-0.5,0.8-2.1,1.2-3.5,0.2zm-99.3,1c1,0,1.9,0.9,1.9,1.9c0,1.1-0.9,1.9-1.9,1.9s-1.9-0.8-1.9-1.9c0-1,0.9-1.9,1.9-1.9zm6,1.3c0.9,0,1.7,0.8,1.7,1.7s-0.8,1.7-1.7,1.7s-1.7-0.8-1.7-1.7s0.8-1.7,1.7-1.7zm5.4,1.9c0.8,0,1.4,0.6,1.4,1.4c0,0.7-0.6,1.3-1.4,1.3c-0.7,0-1.3-0.6-1.3-1.3c0-0.8,0.6-1.4,1.3-1.4zm3.9,2.4c0.6,0,1.1,0.5,1.1,1.1s-0.5,1.1-1.1,1.1s-1-0.5-1-1.1s0.4-1.1,1-1.1zm-13.5,3.4c-0.4,2.1-0.1,4.2,0.3,5.6c1.1,3.1,0.6,8.7,0.6,8.7L26,246.9c0.2-2.9,0.6-6,0.4-8.4c-0.1-1.7-0.8-3.2-1-4.8c-0.2-1.5,0.1-4.6,0.1-4.6l2.7,0.4zm5,1l0.1,13.3-10.7,10.4v-2.8l9.1-9.1-0.1-12.3,1.6,0.5zm26.4,30.3l-0.7,1.1H71l0.3-1.1H59.6zm15.7,0L75,261.9h5.6l0.2-1.1c0,0-3,0-5.5,0zm9.2,0l-0.2,1.1h20.8l-0.4-1.1H84.5zm24.2,0l0.4,1.1h5.5l-0.5-1.1h-5.4zm9.3,0l0.4,1.1h9.5l-0.8-1.1H118z"
        fill="#000" />
    </g>
</svg>