<svg width="227" height="315" xmlns="http://www.w3.org/2000/svg">
    <g transform="matrix(1,0,0,1,12,25)" stroke="none" stroke-width="1" fill="none" fill-rule="evenodd">
        <path d="M130.3,2.8c0,0,25.3,36.6,33.8,43.1c0.7,0.3,11.2-1.7,11.2-1.7c-5.4-13-8.9-26.5-5.4-41.6L130.3,2.8zm14.1,57.9C127,65.6,109.6,70.2,90.7,62.2l-20.6,20C70,82.7,95,93.6,95.4,92.3c-12.3,33.2,6.9,39.2,19.1,2.7c16-2.1,35.1-4.3,50.9-15.3c-13.7-8.3-21.1-19.1-21-19zM39.7,66.6c-6.6-4.1-11.8,4.3-6.9,8.5c-0.6,2.4-0.8,6,1.6,7.6c2.1,1.4,6.2,0,6.7,0c0.1,0,0.1,4.4-0.2,4.4C40.3,87,37.9,85,36.5,84.6C31.6,83.1,24.6,82.4,24.8,82.6c0.2,0.5-1.3,1.5,4.2,4.9c2.1,1.3,8.5-0.1,13.6,1.5c3.1,1,6,2.6,7.6,1.7c4.5-1.2,6.3-7.1,6-7C56,83.5,42.6,87.1,43.9,87.8V82.7c5.2,0.6,10-3.3,4.8-9.8C52.6,69,47.2,59.8,39.7,66.6zm22,23.3C48.7,103,22.2,127.6,22.2,127.6l0.3,18.4,25.9,23.3c2-24.7,16-47.8,29.3-59.3C78.9,106.5,64.5,91.1,61.7,89.9zm92.4,4.5c-2,15.2-3.7,35.9-29.4,58.9c4.4,7.6,10.1,15.4,18.3,19.1c0.5,1.3,23.5-23.9,37.6-35.8V120.5L154.1,94.4zM38.4,97.7c0,0.3-1,4.3-1.2,4.2c0,0.2,2.6-1,2.9-2.1c0.2-0.9,0.8-2.2,0.9-2.4c-0.6-4.1-1.7-1.2-2.6,0.3zm-9.6,10.6c-0.9,2.3-1.8,6.4-1.5,9.1c4.6,2.3,5.9-7.3,4.6-8.2c-0.7-0.3-2.5-0.9-3.1-0.9zm141.9,44c-0.4,2-0.3,2.5,0.5,2.9c1.5,0.6,2.2-0.1,3.4-3.3c0.7-1.8,1.3-4.6,0.8-5.7c-2.9-2-4.3,4.7-4.7,6.1zM90.4,168.5c-18.9,3-37.8,4.8-52.8,16.5c1.7-0.2,19.9,16.9,20.8,19.4C86.2,190.8,113.1,201,113.1,201l20.3-19.6C134.2,181,111.3,171.6,107,170c15.6-42.1-9.1-35.8-16.6-1.5zm74.2-4.9c-1.2,1-1.8,2-2.8,3.2l1,1.6,2.4-2.7-0.6-2.1zm-17.8,17.8c2.6-1.2,11.9-5.7,12.3-4.7l-0.2,4.5c-1.4-0.4-10.6,1.1-5.3,10.6c-3.3,7.5,4.1,11.4,9.4,6.4c10.9,3.8,9.4-7.2,7.2-9c1.7-2.7-0.5-8.6-1.6-8.7c0,0,9.5,2.2,8.6,0.5c-0.4-0.8-1-2.1-3.1-3.5c-2.4-1.7-6.7-1.1-10.2-1.8c-3.7-0.8-6.1-2.1-9.2-2.3c-4.7,0.4-9.1,4.6-7.9,8zM40.6,216.9l-13.1,3.6c0,0,4.3,9.9,5.7,18.7c1.8,10.8,0.4,22.5,0.4,22.5l38.1,0.2-31.1-45z" fill="#E2CF00" />
        <path d="M74.9,261.8C58.1,237.8,42.6,215,22.1,189.9c0,0,0-9.7,0.1-19.3l63.2,90.9-10.5,0.3zm33.8-38.7c-0.5-4.6-1.5-10-2.8-14.7l11.6-10.9c-1.3,9.7-3.2,17.2-8.8,25.6zm55.1-34.4c2.6,3.4-1.7,5.3-3.4,3.8c-3.3-3.1,1.6-6.3,3.4-3.8zM49.5,167c-2,1.2,3.4-30,18.1-46.2c8.9,25.7-6.8,40.1-18.1,46.2zM122,166.9l-9.8-2.7,4.6-13.7c0,0,9.4,2.2,8.6,5c-2.5,9.3-3.4,11.4-3.4,11.4zM76.8,161.6c2.6-4.3,4.6-9.2,6.5-14.1l9.8-0.2-5,13.6-11.3,0.7zm58.8-19.2c-7.5-15.1,1.4-39,17.8-45.6c-0.6,15.3-5.3,30.8-17.8,45.6zM84.8,138.1c0.4-5.4-0.2-11-1-16c10.4,2.4,21.8,4.1,34.4,4.6l1.2,14.5c-11.2-2.1-22.6-3.5-34.6-3.1zm25-22c1.1-4.5,2.5-8.9,4.5-13.1l11.9-0.6c-0.1-0.2-5.1,8-6.3,13.9c-1.9-0.2-10.1-0.2-10.1-0.2zM87.2,112.5C83.7,111.3,79,110.9,77.1,108.2l3.7-11.5,10.7,3.3-4.3,12.5zM117.3,2.8l8.4-0.1c0,0,40.3,51.8,55.4,71.9c-0.5,2.1,0.1,19.5,0.1,19.5C159.8,63.8,117.3,2.8,117.3,2.8zM40,75c-2.3-2.4,1.3-4.6,2.8-2.4C44.1,74.5,41.1,76.3,40,75zM85.2,66.5c0.1-12,8.6-26.2,8.5-25.8c-0.1-0.1,1.2,11.7,2.8,15.4C96.1,56.7,85.6,67.3,85.2,66.5z" fill="#D40000" />
        <path d="M20.4,0.8V263.1H182.9V0.8H20.4zm148.8,2c-1.3,14.5-1.5,25.8,6,40.8c-1.4,1.4-11.6,1.8-14.8,3.5c-0.1,0.4,0.8,1.1,0.8,1.1c3.4-1.5,16.5-3,16.5-3C172.2,35.6,167.7,17,171.1,2.8H181V72.9c0,0,0.1,13.3,0.3,20.9c-5-6.5-11.5-15.5-15.9-22.3C160.1,64,154.2,55.2,148.2,47c-1.8-2.6-4.4-6-6.5-9c-3.2-4.7-5.9-8.3-9.3-13.4C128.8,19.4,125.3,14.7,121,8.6C117.4,3.5,117.2,2.8,117.2,2.8h52zM107,2.8c6.1,10.7,17.1,14.5,19.9,15.2l1.6,2.3C115.5,17.8,108.6,9.4,105.3,4.3C105.1,3.9,105.1,2.8,105.1,2.8H107zm-6.1,0c-1.7,4-4.1,6.5-6.4,8.9L94.6,9.1C94.7,9.3,98,5.5,99.1,2.8h1.8zm3,0c0,0,0,0.8-0.2,1.4c-1.3,4.2-9.4,12.2-9.2,11V13.1c-0.1,0.1,6-5.9,7.6-10.3h1.8zM98,2.8C97.3,4,95,7.7,94.8,6.7L95,2.8h3zm18.4,0c1.1,1.5,2,2.7,3.1,4.2c0.2,0.3,0.3,0.6,0.2,0.8c-0.1,0.4-0.6,0.1-2-1.1c-2.1-2-3.6-3.9-3.6-3.9h2.3zm-8.1,0h2c4.1,6.9,11.4,10.6,14,11.4c0.7,0.8,1.4,2.2,1.7,2.5C119.1,14.8,111.4,8.8,108.3,2.8zm4.8,0c2.2,3.2,5.6,5.5,7.6,7c1,0.8,2.4,2.5,2.2,2.8C118.6,11.3,113.6,6.3,111.3,2.8h1.8zm-8.4,2.1l1.2,1.9C103,11.6,99.3,15.9,94.5,19.3L94.4,16.8c5.5-4,7.9-8,10.3-11.9zm1.9,2.7c3.5,4.7,10.9,11.9,22.9,14.1c0,0,0.6,0.6,1.6,2c1.3,1.7,1.3,1.7,1.5,4.6c0.1,5.1,1.7,12.1,3.4,16.5c-0.2,1.1-0.4,1.6-2.5,4.4C125,60.8,106.8,71.8,97.8,56.8C94.8,52,94.5,42.8,94.3,37.1c0,0,0.1-0.4,0.1-0.5c0.2-1.1,0.5-0.9,2.1-0.5c1.7,0.8,3.4,0.2,5.1-0.3c2-0.8,2.2-0.2,0.3,1.6c-0.7,0.6-1.5,1.6-1.4,1.5c0.1,0,1.2-0.5,1.7-0.8c1.5-1.2,1.8-0.8,1.3,0.5c-2.4,5.5-2.8,5.7,0.5,7.2c0.7,0.3,1.2,0.7,1.6,1c2.3,2.2,1.5,1,0.8,0c-0.9-1.6-0.1-2.4,1.6-1.4c1.1,0.6,2.6,1.1,3.4,0.9c1.6-0.5,2-2.2,1.6-4.1c-0.4-1-2.5-2.9-2-0.9c1.3-0.1,2.4,1.7,1.2,2.9c-0.8,1.2-2.3,0.6-4.6-1c-1.2-0.9-2.8-0.4-2.7,0.8c0,0.7-1.1,0.6-1.8-0.4C102.7,43,103,41.4,103.7,39.9C108.5,30.3,104.5,21,96.3,23.7c-0.9,0.2-1.8,0.5-1.8,0.5V20.5C99.2,17.2,104.2,12,106.6,7.6zm4.8,17.2c-1.2,1.5-0.8,2.8,1.9,1.5c2.2-1.1,2.5-1.2,4.9-1.3c3.5-0.2,6.5,0.9,10.3,3.3c2.6,1.5,2.9,1.6,2.2,0.7c-2-3.9-14-9.9-19.3-4.2zM99.8,25.2c2.3,0.6,4.6,2.2,4.2,2.9c-0.1,0.2-0.3,0.2-0.6,0.1c-1.7-0.9-4.5-2.3-8.5-0.6C94.5,27.8,94.2,27.5,94.2,27c0-1,1.8-1.9,3.6-1.9c0.7,0,1.4,0,2,0.1zm13.8,3.1c-1.5,0.7-1.9,1.1-2.5,0.8c-1.5-0.8-1.2-0.2-0.3,1.4c0.7,1.1,0.6,1.3,0.6,2c-0.2,0.8-0.1,0.8,0.6,1.6c1.3,1.8,2.7,3.5,4.7,4.9c0.6,0.4,1.5,0.9,1.5,0.9c0.2,0,0.2-0.2-0.2-0.5c-2.6-2.6-4.6-4.8-2-3.8c3.1,1,6-0.3,8.4-1.1c1-0.3,2-0.6,2.3-0.6c2.2,0,2.7-0.9,1.3-2.3c-4.8-5.4-8.8-6.7-14.4-3.3zm11.3,1c1,0.9,1.5,1.4,1.4,1.6c-0.1,0.3-0.8-0.1-2.1-0.8c-2.6-1.4-5.5-1.7-9.1-0.7c-2.9,0.9-2-0.4,1.1-1.7c2.5-1.1,6-0.8,8.7,1.6zM98.5,27.4c2.2,0,4.5,0.7,6,2c1,0.9,0.2,1.1-1.5,0.4c-2.5-1.1-4.7-1.2-6.8-0.2c-0.7,0.3-1.5,0.7-1.7,0.6C94.2,30,94,29.3,94.3,28.8c0.9-0.8,2.6-1.3,4.2-1.4zm35.6,0.8c0.2,0,0.4,0.2,0.8,0.7c0.6,0.9,0.6,1.4,0.1,3c-0.7,1.9-0.9,1.6-1.1-1.1c-0.1-1.8-0.1-2.6,0.2-2.6zm2.1,2.9c0.3,0,0.6,0.4,1,1.3c0.4,0.6,0.3,0.8-0.7,3.8c-0.4,1.2-0.8,2.2-0.8,2.2c-0.3,0.2-0.3,0.2-0.4,0c-0.8-0.9-0.7-2.7-0.1-4.8c0.5-1.6,0.7-2.5,1.1-2.5h-0.1zm-19.4,0.2c0.1,0,0.6,0.1,0.6,0.1c-0.1,4.4,3.3,3.5,3.7,0.4c0,0,0.8-0.1,1,0.1c0.4,0.7-0.6,2.5-1.9,3.2c-1,0.4-2.4,0.3-3.2-0.5c-0.3-0.4-1-2-0.8-2.7c0.1-0.4,0.4-0.6,0.6-0.6zm-2,0.5c0,0,0.1,0,0.1,0c0.3,0.1,0.6,0.1,0.7,0.5l0.7,2.3c-0.5,0.6-2.5-0.7-2.5-1.7c0-0.6,0.5-1,1-1.1zm-13.6,0c0.5,0,0.6,0,0.7,0.5c0.2,1.5-1.3,3-3.1,3.1C97,35.6,96,34.2,96.1,32.8c0-1,0.9-1.1,1-0.3c0.2,2.4,2.3,2.5,3.2,1.2c0.3-0.5,0.2-1.8,0.9-1.9zm22,0.5c0.2,0,0.4,0.1,0.7,0.2c1.8,0.6,1.9,0.8,0.3,1.4c-1.9,0.7-2,0.8-1.6-0.5c0.3-0.8,0.3-1.1,0.6-1.1zm-19.6,0.2c1.4,0.1,1.5,1.3,0.3,1.7c-1.8,0.8-2.5,0.7-1.8-0.5c0.4-0.8,0.8-1.2,1.5-1.2zM95,32.9c0.1,0,0.3,0.1,0.5,0.3c0.2,0.6,0.6,1.1,0.9,1.7c-0.3,0.3-1,0.3-1.4-0.1c-0.9-0.6-0.7-1.9,0-1.9zm43.2,1.4c0.6,0,1.1,0.8,1.3,1.5c-1.9,2.4-1.6,6.9-2,8.2c-0.4,1.1-0.5,0.2-1.6-2.7c-0.4-1.1,1.7-6.9,2.2-7c0,0,0.1,0,0.1,0zm1.9,2.5c0.4,0.2,1,0.7,1.1,1.6c0.1,0.5-0.2,1.2-0.3,1.8c-0.4,1.6-0.9,4.5-1.1,7.3c-0.1,1.1-0.1,2.2-0.1,2.3c-0.6,1.1-1.8-1.9-1.7-4.3c0.4-1.9,0.6-8.5,2.1-8.7zm2.7,3.4c0.2,0.3,0.4,0.6,0.5,0.9c0.1,0.6,0,1.2-0.3,2.6c-0.9,3.8-0.8,7.8-0.2,11.9c0.1,0.8-0.5,0.4-1.4-1.1c-0.5-0.8-0.8-1.9-1-3.3c-0.3-2.9,0.3-6.9,0.8-10c0.3-1.4,0.4-2.6,1.6-1zm1.4,2.2l1.5,1.8c0,0-0.7,4.2-0.6,6.4c-0.2,0.9,0.7,9.9,1,10.7c-0.9-1.1-1.4-1.7-2.4-3c-0.1,0-1-8.9-0.4-12.3c0.4-2.1,0.9-3.6,0.9-3.6zm2.3,3.6c0.3,0,0.6,0.3,1,0.9c0.4,0.5,0.6,0.9,0.6,1.5c0,0.5-0.2,0.9-0.2,1.7c-0.1,4.9,0.6,9.6,1.4,14c0.3,1.7-0.3,1-1.2,0c-0.9-0.9-0.9-1.3-1.4-2.6c-0.1-0.3-1-9.4-1-10.1c0.1-2.8,0.1-4.4,0.5-5c0.1-0.3,0.2-0.4,0.3-0.4zm-5.4,9.9c0,0-1.8,0.9-2.2,0.6c-0.7-2-3.4-7.4-3.5-8.4c0.1-0.3,1.1-1.7,1.1-1.7c1.5,3.2,2.8,6.5,4.6,9.5zM108.3,49.4c-0.6,0.7-1.2,0.4-2.5-0.2c-0.6-0.2-0.5,0.1-1.6,0.7c-0.8,0.4-1.1,0.4-1.7,0.4c-0.7,0-1-0.2-1,0.3c0,0.2,0,1.5-0.2,2.2c-0.2,0.9-0.4,1.3-0.3,1.5c0.4,0.3,0.7,0.1,1.5-0.7c1.3-1.2,2.1-0.9,3.6-0.4c1.6,0.5,2,0.7,3.5,0.2c2.1-0.7,3.4-0.7,4.2-0.2c1.5,0.9,1.9,0.9,1.3-1.7c-0.2-0.8-0.2-2.1-0.3-2.3s-0.5,0.5-0.9,0.7c-0.7,0.5-1.1,0.5-2.8,0c-1-0.3-2.1-1.4-2.8-0.5zm26.9,0.4c0.6,1.5,3.2,6.6,3.1,7.2c-0.5,0.5-1.2,0.8-1.6,0.4C135.5,55,135.1,53.7,134,51.1c-0.3-0.6,0.6-2.3,1.2-1.3zM149,49.6c0.2,0,0.6,0.3,0.9,0.7c0.8,1.2,0.9,1.4,0.9,2.6c0.1,4.6,0.7,10.1,2,14.2c0.3,0.9,0.7,1.9,0.7,2C153.1,69.7,151,68,150.4,65.4c-0.8-3.2-1.3-6.7-1.6-8.9c-0.3-3.9-0.3-6.7,0.2-6.9zm-15.4,2.5c0.7,1.5,1.6,3.9,2.3,5.4c0.2,0.7-1.2,1.2-1.6,1c-0.5-0.5-0.8-1.7-1.2-2.4c-1.2-2.7-1.5-2.8-0.8-3.6c0.4-0.6,0.9-1.3,1.3-0.4zm18.3,1.7c0.1,0,0.3,0.1,0.5,0.3c0.7,0.9,1.3,1.6,1.5,2.3c0.1,0.5,0,0.9,0,1.8c0.2,2.3,0.8,5.5,2.5,12.1c0.2,0.6,0.4,1.4,0.4,1.6c-0.2,1.2-1.9-0.8-2.4-2.8c-0.6-2.3-1.7-5.2-2-7.9c-0.7-4.3-1.1-7.4-0.5-7.4zM132,55.5c1.5,3.4,1.6,3.4,0.7,3.7c-1,0.3-1.1,0.2-2.2-2.1c-0.9-1.7-1-2-0.3-2.6c1.1-1.2,1.3,0,1.8,1zM111.6,54.7c-0.1,0-0.6,0.4-1.1,0.6c-1.2,0.4-3.4,0.5-4.7,0.1c-2.3-1-1.6,0.3,0.4,1c1.6,0.5,4.8,0.1,5.2-0.9c0.3-0.3,0.4-0.8,0.2-0.8zm17.7,1.8c1.3,2,1.7,2.8,1.4,3c-0.2,0.2-1.2,0.6-1.6,0.4c-0.6-0.3-1-1.5-1.3-2.5c0.2-0.5,1.1-1.4,1.5-0.9zM96.6,57.3c0.5,0,2.1,2.1,1.7,2.5c0,0.2-0.6,0-1.9-0.4C95.9,59.2,94.9,59.1,95.2,58.5c0.2-0.3,1.1-1.2,1.4-1.2zm31.3,2.9c-0.2,0.3-1.2,0.4-1.6,0.4C126,59.8,125.9,59.5,125.8,59c0.1-0.3,0.8-1.1,1.1-1c0.2,0.2,0.9,1.8,1,2.2zm27.1-2c0.2,0,0.6,0.4,1.1,1.1c1,1.5,0.9,1.4,1.6,4.8c0.8,4,1.8,6.8,2.8,10.8c0,0.7-0.2,0.5-1,0c-1.2-0.7-1.6-1.5-2-3.7c-0.6-3.5-2-6.7-2.5-10.9c-0.3-1.4-0.3-2.1,0-2.1zm-30.3,1.4c0.7,0,0.6,1.1,0.4,1.2c-0.6,0.5-2,0.4-2.2,0.4c-0.6-0.9,1.3-1.6,1.8-1.6zm33.9,3.7c0.2,0.1,0.8,0.9,1.8,2.3c1.1,1.5,0.8,1.2,1.4,3.6c0.9,3.2,2.3,5.5,3.1,8.5c0,0.4-0.4,0.3-0.8,0.2C163.4,77.5,162.7,77,162,76.5c-0.4-0.5-0.4-1.1-1.7-5.6c-0.5-1.7-0.6-2.1-1.2-4.6c-0.5-2.1-0.7-3-0.5-3zM49.1,73c3.5,6.3,2.2,9.2-5.2,10c-0.5,0,0,3.3,0,4.8c3.7-2.2,8.1-2.6,12.3-4c-1.2,3.6-3.1,7.7-9.1,7.1C40.9,86,33.5,89,28.5,87C25.8,86,24.8,83,24.8,82.4c3.2,0.4,6.9,1.1,10,0.8c-3.4-2.6-2.4-6.3-1.9-8c-4-5.1-0.7-10.8,5.2-9.5c0.6,0.2,1.8,0.7,1.8,0.7c5.6-5,12.1-0.3,9.2,6.6zM163.3,69.9c0.2,0,0.7,0.6,1.7,2.1c3.1,4.3,5.8,8.3,5.7,8.5c-0.1,0.7-3.3-0.6-4.1-1.6c-0.9-1.2-3.5-7.5-3.5-8.5c0-0.3,0-0.5,0.2-0.5zM38.4,88.4c1.5,0.2,2,0.3,2,1C40.5,89.9,36.5,90,36,89.6c-0.5-0.3,0.1-1,0.5-1.2c0.6-0.2,1.3-0.1,1.9,0zm110.4,0.5c-22.4,10.7-31.5,38.9-20.2,60.5l-1.6,1.2c-11-22.9-2.8-47.4,15.2-59.8c0.7-0.5,2.3-0.9,3.1-1.4c0,0-7.4,1.6-9.8,2.6c-0.5,0-2,0.5-3.6,2.3c-1.4,1.3-5.8,7.3-5.6,7.5l-11.6,0.5v0.4l11.4-0.3c-11.7,19.3-8.8,37.7-1.6,50.6l0.2,0.1c0.4,0.3,1.5-0.5,3.8-2.7c0.9-0.9,2.1-2,2.6-2.5c1.4-1.3,3.4-3.5,4.8-5.2c-7.8-16-0.1-37.2,18.3-46.8c0-0.5-0.2-2-0.2-2s-0.7-0.6-1.1-0.6c-20.5,9.1-28.7,31.6-20.4,52l-1.3,1.5c-10.5-21.2,0.7-47.6,20.3-55.1c0-0.5-0.4-1.1-0.9-0.7c-21.2,9.8-30.4,35-20,56.4l-1.3,1.2c-11.8-23.5,0.6-49.8,20-58.8c0.6-0.1-0.5-0.9-0.5-0.9zM34.9,89.2c0,0-0.2,1.2,0.3,1.6c0.2,0.9-0.2,0.8-0.9,0.6c-1.9-0.4-0.4,0.7,1.1,1.5c1.5,0.9,1.3,0.8,0,1.7c-0.9,0.5-0.8,0.7-0.7,1.2c0.2,0.6,0.3,0.2,0.7-0.2c0.7-0.7,1.4-0.8,2-0.8c1.1,0,1.2,0.8,1,1.4c-0.4,1.4-1.8,1.3-2.9,1C33.6,96.6,30.6,93.4,30.6,91.5c-0.1-1.7,2.2-2.4,4.3-2.3zm8.3,0.4c0.7,0.2,1.6,0.6,2.6,1c1.4,0.4,2.8,1.2,3.7,1.8c2.7,1.8,2.5,5.4,2.3,5.8L37.7,111.6c0,0-0.8-0.4-1.5-0.8c-2.4-1.2-3-1.8-1.6-2.5c0.6-0.3,0.8-1,0.9-1.7c0.1-0.9,0.1-0.8,0.6-1.2c1-0.7,1-1,1-2.2c0-0.8,0.1-1.2,0.4-1.7c0.2-0.4,0.5-1.2,0.6-2.2c0.1-0.2,0.1-0.5,0.1-0.7c0.2-0.7,0.4-1,0.6-1.1c0.1-0.2,0.4-0.8,0.5-1.3c0.4-1.1,0.4-0.9,1-0.8c0.9,0.2,0.8,0.7,0.7,1.6c-0.1,0.4-0.3,0.7-0.2,0.6s0.6-0.4,0.8-0.4c0.3-0.1,0.6,0,0.6,0.5c0.1,0.2,0,0.7,0,1.1c0,0.9,0,2.1,0.2,2.8c1.1,3.6,0.9,3.1,0.5,0.1C42.8,101,42.7,99.9,42.8,99.1c0.1-0.7,0.3-1.4,0.5-1.9C43.9,96.2,44,96,42.6,95.4C42.1,95.2,41.3,94.9,41.1,94.5s-0.8-1-1.7-1.2c-2-0.4-3.2-2.4-2.9-2.7c0.2-0.2,1,0.1,1.5,0.1c1.9,0,2.3,0,3.1-0.8c0.4-0.3,0.6-0.7,1-0.7c0.3,0,0.8,0.3,1.1,0.4zm95.9,2.1c-18.9,15.4-22.2,40.3-12.8,59.5l-1.6,1.3C112.8,130,120.8,105.7,135.4,92.4l3.7-0.7zM29.8,93.6c0.3-0.1,0.7,0.4,2,1.9c0.9,0.9,1.9,1.8,2.4,2c1.1,0.6,0.8,0.4-0.1,1.2c-1,1.1-0.4,2-1.6,1.5c-2.9-1.4-5-5.5-3.1-6.5c0.2-0.1,0.3-0.1,0.4-0.1zm-1.5,4.3c0.1,0,0.2,0,0.3,0c0.3,0.1,0.8,0.8,1.2,1.3c1.4,1.3,2,1.9,3,2.3c1,0.5,1.1,0.6,0.3,1.4c-0.2,0.3-0.4,0.7-0.4,0.8c-0.1,0.2-0.1,0.5-0.3,0.5c-1.2,0.3-5-2.1-5.1-3.7c0.1-1.5,0.5-2.6,1-2.6zm8.1,0.4c0.7,0,1.1,0.6,1.1,1.6c0,0.6-0.4,0.9-1.2,1.2c-1.6,0.6-2.6-0.6-1.5-1.9c0.5-0.5,1.2-0.9,1.6-0.9zm-1,3.9c1.3,0,1.6,1.1,0.7,2c-0.8,0.8-2.5,0.8-2.5-0.1c0-0.7,1.1-1.9,1.8-1.9zm-7.5,1.3c0.8,0.2,2.8,1.7,3.7,1.8c0,0.5-0.6,0.7,0.3,1.6c0.4,0.4,0.4,0.7,0.1,0.9c-1.1,0.5-4.5-1.2-4.8-3c-0.1-0.8,0.2-1.3,0.7-1.3zm4.5,2.1c1.2,0,2.6,0.1,2.4,0.6c-0.1,0.4-0.5,1.6-1,1.3C33.5,107.4,33.2,107.2,33,107c-0.6-0.6-0.8-1.4-0.6-1.4zm45.5,5c3.5,3.1,16.2,36.4-10.3,60.6L62,172.9C87.4,152.8,83.2,124.4,76.3,112.1c0-0.4-0.1-0.4-0.7,0.2C75,112.8,75,112.9,75.2,113c7.8,12,10.7,45.9-19.9,62.2c-0.5,0.6,0.5,0.5,0.5,0.5c0.1-0.4,13.8-3.8,12.8-3.9c12.8-11.3,23.9-38.4,10.1-62c-0.4-0.2-0.8,0.8-0.8,0.8zm-4.4,3.7l-0.2,0.8c11.1,21.8,0.5,48.6-20.1,58.6c0.3,0.2,0.7,0.4,1.1,0.6C77.7,161.6,84.4,134.8,74.2,114.1l-0.7,0.2zm-1.9,1.6l-0.1,0.8c9.2,18.6,1.9,44.4-20,54.9c-0.3,1.1,0,0.8,1,0.7C77.9,158.7,80.2,132.7,72.3,115.8l-0.7,0.1zM70,118.1c-0.7,1-2,1.5-2.4,2.7c7.3,19.5-2.2,38.4-18.3,46.3c0,1-0.7,3.4,1,3C70.2,161.1,78.9,137,70.2,118c0,0-0.1,0.1-0.2,0.1zm100.1,37.8c0.8,0.1,1.4,0.3,2.1,0.4c2.5,0.3,4.1,2.1,3,3.2c-0.4,0.4-0.9,0.2-2.5-0.6c-0.7-0.4-0.9-0.7-1-1.5c-0.2-1-0.4-1.1-0.6-0.4c-0.3,0.8-0.6,1.3-1.4,1.1c-2.4-0.6-1.5-2.2,0.4-2.2zm-26.4,16.7c-6-3.4-13.3-9.5-17.5-16.5c-2.1,4-4.6,11.1-4.6,11.1l-9.3-2.6-0.1,0.2,9.2,2.7-0.9,3.1c-0.1,0.3-1.5,3.8-1.5,3.8l14.4,6.8c-0.9,1.4-1.9,2.3-3.1,3.6c-0.7,0.7-0.7,1.7-0.7,1.7l19.9-19.2c0,0,2.6,3.9,3.6,4.7c0.9,0.9,1.2,1.1,0.1,1.3c-4.7,0.7-8.3,4.3-7.1,9c0.2,0.6,0.7,0.4,1.6-0.2c3.1-2.8,10.7-5.4,10.9-4.8l0.1,3.1c-8.2,0.1-7.4,6.1-6.8,9.4c0,0.1-2.4,2.1-2.4,2.1c0.9,0.5,1.7,0.9,2.5,1.5c-0.7,4,2.7,9.9,9.4,6.9c0.6,0.6,1.1,1.2,1.8,1.9c0.7-0.8,1.5-2.7,1.5-2.7c3.3,1.6,10.2-1.8,6.7-9.6l1.9-1.9-1.8-1.2c-0.1-2-0.4-3.7-1.6-5.5c0,0,3.2,0.8,5.5,1c1.5,0.1,2.7,0.2,2.6-0.7c-0.1-0.3-0.3-1.5-0.4-2c-0.7-2-4.3-3.5-7.8-3.7c-0.6,0-1.2,0-1.4-0.2s0.2-0.6,0.6-0.6c1.9,0.4,3.8-1.1,4.1-2.9c0.1-0.3,0.5-0.9,1-1.5c1-1.1,1.1-1.1,1.1-2.6c0-1.1,0.2-1.4,0.7-2.1c0.6-1.1,0.9-2.5,0.6-3.9c-0.1-0.4-0.5-1.1-0.2-2.2c0.6-1.8-0.7-3.5-2.4-4.4c-0.1-0.1-0.1,0.1-0.2,0.2c-1.5,0.5-3.4-0.6-3.4-0.6c-0.4-0.2,1.3-10.1,4.8-9.2c0.6,0.3,0.9,2,0.8,2.1c0.2,0,0.3-1,0-1.7c-0.2-0.7-0.7-1.4-1.8-1.2c-0.8,0.2-1.7,1.2-2.2,1.8c-1.6,2.1-1.6,3.4-2.2,5.7c-0.2,1-0.3,1-1.7-0.2c-1.1-0.8-1.6-1.1-1.2-1.5c0.2-0.3,0.8-0.9,0.8-0.9L181,137.7V261.3H108.3L108.9,245c1.3-11.1-1.1-34.5-2.9-36.7c1.4-1.6,5.7-5.3,5.5-5.5l-0.6-0.3-2.3,2.1-5.6-1.7c-2.4-1.7-4.8-3.2-7.4-3.9c-4.1-1.1-12.1,2.3-12.1,2.4c-12.8,0.9-23,6.1-22.8,6.1c-0.6-0.5-1.3-2.2-1.3-2.2C52.8,196.2,46.3,191,37.5,184.7L48.7,178.5,22.2,150.7,21.9,128.2,60.3,91.3c0.3-0.6,12.3,8.6,16.8,16c0.8-3.6,2.4-6.9,3.7-10.5c0.2-0.3,7.7,2.8,9.9,2.9c0.3,0,0.6-0.3,0.6-0.3l-9.9-3.3,2-5.8c0,0,0.7-1.6-0.1-1.8C78.8,87,74.6,84.4,70.3,82.2c0,0,2-2.2,2-2.3c0.1-0.1,0.9-1.3,0.7-1.7C70.8,80.3,52.9,97,52.9,97C52.4,94.1,51.6,93.1,49.8,91.3c1,0,2.5-0.9,3.3-1.6c2.6-1.9,4.1-5.3,3.7-7.3c-2.5,0.8-4.8,1.7-7.9,2.3c-1.8,0.3-3.5,1.1-4.5,2L44.2,83.5c0.1,0,4.3,0.7,6.3-2.1c1.6-2.5,1-5.3,0.6-6.7c0-0.3-0.1-0.3,0.6-1c0.6-0.5,1.4-1.1,1.4-1.1c0.1-0.2-2.2-1-2.5-1.8c0.6-5.9-4.2-8.2-8.1-7.1C41.7,63.9,41.4,64,40.5,63C40.3,62.9,39.3,61.8,39.3,61.8s-0.5,1-0.7,1.5c-0.8,1.6-1,1.1-2.7,1.2c-4.3,0.2-6.2,3.7-5.2,7.9c0.2,1,0.1,0.9-0.5,2.1C29.8,75.2,29.3,76,29.3,76s0.8,0.4,1.3,0.6c0.8,0.4,0.8,0.8,0.8,1.6c0.1,1.7,0.5,2.9,1.5,4.4c-3.4,0-5.9-0.3-9-1.3c0.5,4.7,3.9,6.4,8.1,7.1c0,0-0.4,0.4-0.9,0.6c-0.9,0.3-1.6,1.2-1.5,1.9c-0.2,0.8-0.7,1.5-1.1,1.9c-0.7,0.6-1.2,1.4-0.9,2.9c-0.1,1.2-0.4,1.5-0.7,1.9c-0.7,0.9-0.9,1.7-0.7,2.9c0,0.5,0.2,1.6,0.1,2.8c-0.2,1.9,0.5,2.7,1.4,4c0.6,0.9,0.4,0.9,0.3,1.6c-0.3,1.5-0.6,2.3-1,3.5c-0.7,2.6-0.8,4.6-0.1,5.1c0.9,0.8,2,0.6,2.5,0.4c3.7-1.1,3-4.8,3.2-7.3c0.1-0.6,0.4-0.9,0.6-0.9c1,1.3,2.1,2,3.6,2.8c-5,5-8.2,8.1-14.4,13.6V2.8H93.9c0,0,0.1,1-0.1,5.5c-0.3,9-0.7,18.5-0.1,27.8c0.1,3.2,0,6.3,0.5,9.5c0.4,3.1,0.6,6.4,2.1,9.3c0.5,1.5,0.6,1.4-1.6,3.4c-1.1,1-2,2.1-2,2.3c0,0.1,0,0.3,0.1,0.2s0.9-0.9,1-1c0.6-0.7,1.6,0.2,5,1.1c0.7,0.2,1.6,0.9,2.3,1.4c5.1,4.3,12.3,2.9,17.6,0.6c1.5-0.7,1.9-0.7,4.3-1c9-1.1,18.7-5.1,18.7-5.1l1.1,2c0,0,0.5-0.1,0.8,0.4c5.2,9.8,22.1,21.1,21.8,20.5l-11,6.2c8,10,26.6,26.9,26.6,26.9v24.4c-5,4-9.9,8.6-14.2,13c-1.3,1.2-2.2,2-1.7,2c1.1-0.2,2.1,0.9,3,1.7c0.6,0.6,0.5,0.6-0.2,1.5c-0.5,0.6-0.6,0.8-0.6,1.2c0,0.9,0,1.5-0.8,2.2c-0.5,0.6-0.8,0.9-0.9,1.7c0,0.7,0,1.1-0.5,1.8c-0.9,0.2-0.9,1.4-0.8,1.9c0.9,0.9,0.5,1.8,0.6,1.6c-1.7,1.9-3.5,3.4-2.3,0.9c0.5-1,0.6-1.7,0.6-1.7s-0.8,0.8-1.2,1.2c-0.6,0.6-0.9,0.2-0.9-1.6c-0.1-1.4-0.6-3.4-0.9-3.8c-0.1-0.2-0.1,0.2-0.1,1.5c0.1,1.8,0.3,2.3-0.3,4.1c-0.8,2.4-1.4,2.8-0.1,2.7s2.4-0.1,3,0.7c0.2,0.2,0.4,0.7,0.9,0.9c1.1,0.6,2,1.3,2.5,1.9c2,2.1,1.4,4-2.3,2.7c-1.9-0.7-0.7-1.5,1.4-1.3c1.3,0.1,1.5-0.4,0.4-0.7c-2.1-0.4-2.4-0.6-3.8,1c-5.7-0.6-8.9-3.8-10.5-6.4c-0.6-1.1-0.8-1.3-0.4-1.9c0.2-0.3,0.1-0.2-0.2,0.1c-0.3,0.4-1.1,0.6-1.4,0.9c-2,1.9-3.9,4-5.6,5.6zm25-13.6c0.9,0.2,0.9,1,0,1.8c-0.8,0.6-1.3,0.7-1.8,0.2c-0.8-0.8,0.2-2,1.8-2zm2.8,0.6c0.8,0,1.8,0.4,3,1.4c1.4,1.1,1.7,4,0.4,4.5c-0.5,0.2-0.6,0-1.8-1.1c-0.8-0.7-1.6-1.4-2.5-1.8c-1.7-0.8-1.9-1.2-0.7-1.7c0.2-0.1,0.5-0.4,0.7-0.7c0.3-0.4,0.4-0.6,0.9-0.6zm-1.9,3.8c0.3,0,0.6,0.2,1.1,0.4c2.8,1.6,4.3,4.1,3.3,5.5c-0.7,0.9-1.7,0.6-2.5-0.7c-0.5-0.8-1.6-1.7-3-2.4c-1.5-0.8-1.6-0.9-0.5-1.4c0.5-0.3,0.8-0.6,1.1-1c0.2-0.4,0.3-0.4,0.5-0.4zm1,5.9c2.2,2.2,1.9,3.4,0.5,4.3c-1,0.6-2.5,0.8-3,0.3c-0.9-0.8-0.8-1.6,0.1-1.9c0.8-0.1,0.5-0.5-0.3-0.7c-2.8-0.8-4.6-2.3-1.5-2c0.9,0.1,1.7-0.6,2.2-1.1c0.7-0.8,1.6,0.7,2,1.1zM21.8,170.2l63.5,91.1H34c1.8-14.5-1.9-30.6-6.7-41.1c5.3-0.9,10.2-2.3,15.2-3.7l-1-1.3c-5.9,2.4-11.4,3.3-16.6,3.9c6.9,11.7,9.3,27.8,7.3,42.2H22.4V190.5L21.8,170.2zm11.3,13.5c0.9,0,3.2,1.6,3.5,2.8c0,0.2,0.6,1.7,1.3,3.1c0,0.2,2.2,4.2,1.2,3.9c-1.9-2.7-5.4-7.1-6.2-9.3c0-0.3,0-0.5,0.2-0.5zm6.9,4c0.1,0.7,0.8,2.4,1.3,3.6c1.4,2.9,3.5,7.6,3.1,8.9c-0.3,0.9,0,0.9-0.8-0.2c-0.3-0.6-1.5-2.2-1.8-2.6c-0.7-1-0.2-0.1-0.6-1.6c-1-4.3-2.5-6.6-3.5-9.1c-0.4-1.2,1.9,0.6,2.3,1zm1.3,0.7c0.1,0.1,2.7,1.9,2.9,2.2c0.9,3.2,4.5,13.4,3.6,15.2c-0.4-0.2-1.7-1.9-1.9-2.7c-0.4-4.9-2-8.4-3.6-12.1c-0.5-1.1-0.9-2.2-1-2.6zM46,192c0.8,0.4,1.6,1.3,2.1,2.1c0.3,0.5,0.5,1.2,0.8,2.5c0.9,4.2,2.6,8.4,1.8,12.9c-0.5,0.6-1.5-0.9-1.7-2.4C48.5,202.2,48.1,199.8,46.4,194C46,192.9,45.8,192,46,192zm4.1,3.8c0.1,0,0.5,0.3,1.1,0.9c1.1,1.1,1.3,1.5,1.3,3.2c0,2.6,0.9,5.6,1,8.2c0.1,1.6,0.3,5.5,0.1,5.7c-0.3,0.5-1.8-1.2-1.7-3.7C52.1,207,52,204.7,50.7,199.4c-0.6-2.5-0.9-3.5-0.7-3.6c0,0,0,0,0.1,0zM167.6,180.3c4.6,3,3,8.4,2,9c6.3,8-3.5,12.1-6.6,9.2c-4.6,4.6-12.4,0.8-9.4-6.8c0,0-5.8-11,5.6-10.3c0,0,0.2-4.5-0.1-4.7c-4.1-0.2-9.6,3.7-11.2,4.8c-0.8,0.5-1,0.2-1,0.2c-0.2-2.3-0.2-3.3,0.7-4.6c1.6-2.3,4.3-3,7.9-3.8c4.4,1.3,8.6,3.5,12.7,3.1c2.2,0,4.5,0.4,6.7,1.6c1.4,0.7,2.2,3.3,2.2,3.3c-2.3,1.2-9.5-1-9.5-1zm-2.1-16.4c0-0.8,0.9-1.6,1.8-1.5c1.2,0.1,1.3,1.5,0.2,2c-0.3,0.3-1.3-0.1-1.3,0.2c0.1,0.5-0.4,0.3-0.5,0.1c-0.2-0.2-0.2-0.5-0.2-0.8zm-0.8,3.2c0.5-0.4,0.8-0.4,1.3-0.4c0.7-0.1,1.6,0,1.7,0.7c0.2,0.7-1.1,1.1-2.2,1.1c-0.6,0.1-1.2,0.2-1.4-0.2c-0.1-0.4,0.4-1.1,0.6-1.2zM27,116.7c0.9-3.1,0.3-4.8,1.8-8.6l3.6,1.2c0,0,0.1,3.7-0.6,5.8c-0.7,2-3.1,3.7-4.8,1.6zm26.5,82.8c0.5,0.1,1.5,1.5,2,2.9c0.4,1.2,0.3,2.8,0.6,4.2c0.7,4.6,0.6,9.2,0.4,10.6c-0.1,0.7-0.5,0.4-1.1-0.2c-0.9-1-0.8-1-0.8-3.7c0-2.3-0.5-8-0.7-9.1C53.5,202,53.3,200,53.4,199.6c0-0.1,0.1-0.1,0.1-0.1zm41.7,0.6c4.6,0.7,8.3,3.8,10.4,9c2,5.3,2.5,12.5,2.8,19.1c0,1.5-0.7,1.1-2.4,0.2c-1.8-1-2.2-0.7-4.9-0.1c-1.7,0.4-1.6-0.7,1.2-2.7c1-0.6,2.1-1.4,1.7-1.5c-0.2-0.1-1,0.1-1.6,0.6c-2.8,2.3-3.5,2.8-2.7,0.6c0.2-0.5,0.8-2,1.1-2.7c1-2.7-0.2-3.9-3.5-5.6c-0.9-0.4-1.4-1.2-0.6,0.3c0.7,1.3-0.7,2.3-2.5,0.8c-1.2-1-3.6-0.3-4.4,0.9s-0.4,3.5,1.1,4.2c1.3,0.6,1.8,0.2,0.6-0.7c-1.7-1.2-1.4-3.1,0.5-3.1c0.4,0,1.3,0.5,3.3,1.6c1.5,0.8,2.5,0.5,2.5-0.7c0-0.8,0.5-0.7,1.4-0.3c1.3,0.7,1.2,1.3,0.5,3.1c-0.5,1.2-0.7,2.7-1.1,4c-1.1,4.4-1.2,9.4,0,11c3.2,4.1,6.6,3.7,9.5,0.9l-0.1,4.6c-3,2.4-6.5,4-11.9,13C94.3,254.2,86.2,244.5,73.3,242.3l-2.9-4c0-0.2-2.2-14.8-3.6-19.8c0,0,1.6-2.4,3-4.2c5.8-7.2,15.6-15.4,25.4-14.2zm-16.8,4.1c-0.5,0.2-0.7-0.8-0.4-1c0.6-0.1,0.8-0.1,1.4,0c0.4,0,0.4,0.5-1,1zM56.6,203.5c0.6,0.4,1.4,1.7,2.2,2.8c0.4,0.6,0.1,1.7,0.2,2.7c0.1,1.4,0.3,3.8,0.4,5.3c0.2,2.9-0.1,5.3-0.5,6.1c-0.5,1.1-1.3,0.4-1.5-1.1c-0.1-0.3,0.2-3.8,0.2-5.7c0-3.4-0.9-7.5-1-10.1zm19.5-0.1c0.2,0,0.4,0,0.6,0.2c0.7,0.9,0.9,1.5,0.3,2c-0.8,0.7-1.6,0.5-2.1-0.9c-0.3-0.9,0.4-1.2,1.2-1.3zm-2.6,0.8c0.8,0.5,1.5,1.9,1.6,2.8c-0.1,0.3-0.3,0.5-0.8,0.9c-0.5,0.5-0.6,0.4-1.2-0.4c-0.9-1.4-1.3-2.3-1.1-2.8c0.4-0.4,1-0.6,1.5-0.5zm30.6,0.2c1.2,0.1,2.5,0.7,3.7,1l-1.9,1.8c-0.5-0.9-1.2-1.9-1.8-2.8zm-33.4,0.9c0.7,0.9,1.9,3.3,1.9,4.2c-0.2,0.3-0.5,0.5-0.8,0.7c-0.2,0-0.4-0.4-1.2-1.7c-1.3-2.4-1.7-3.1-1-3.4c0.3,0,0.9,0,1.1,0.2zM68,205.9c0.8,0.7,2.6,4.2,2.6,5.2c0,0.3-0.1,0.6-0.2,0.7c-1.2,1.3-0.9,1.1-2.6-2.4C66.4,206.5,66,206.3,67,205.9c0.2,0,0.7-0.1,1,0zm-2.7,0.9c0.5,0,0.7,0.8,1.6,2.7c1.6,3.6,2.2,4.1,1.9,4.5c-0.5,0.5-0.7,0.9-1.2,0.3c-0.9-1.6-1.9-3.7-2.8-5.4c-0.7-1.4-0.8-1.5-0.3-1.8c0.2-0.2,0.6-0.3,0.8-0.3zm28.8,1c-0.7,0.2-3.1,1-1.6,1.1c0.3,0.1,1.1-0.1,1.6-0.2c1.5-0.1,4.6,0.2,4.5-0.1c-0.3-1.1-3.7-1-4.5-0.8zm-30.9,0.4c0,0,0.4,0.7,0.8,1.4c2.3,4.4,3.6,6.1,3.1,6.8c-0.3,0.4-0.8,0.9-1.1,0.8c-0.5-0.2-1.2-1.7-2.8-4.9c-1.7-3.4-1.9-3.7-1-4.1c0.4-0.2,0.8-0.3,1,0zm-2.3,1.5c1.1,1.8,0.9,1.5,0.9,7.1c0,3.5-0.4,5.7-1,6.6c-0.3,0.4-0.8,0.1-1.1-0.7c-0.1-0.4,0.2-1,0.3-1.7c0.4-4.1,0.1-8.3,0.1-12.3c0.3,0,0.7,0.8,0.8,1zm27.2,1.4c0.4,0.7,0.3,1.3,0.3,2.2c0,1.4,0.1,1.5,1,0.8c0.8-0.6,0.9-0.7,2.4,0.3c0.8,0.6,1.9,0.7,2.6,0c0.5-0.4,0.7-0.2,1.3,0c0.8,0.4,1,0.4,2.5-0.3c1.1-0.5,1.1-0.6,1.7-0.2c1.1,0.9,1.3,0.6,1.1-0.7c0-0.4,0.2-1.3,0.3-1.8c0.5-2.2-0.3-2.3-1.5-0.8c-0.5,0.5-1.5,0.8-2.4,0.3c-1.4-0.6-3.5-0.4-5.1-0.1c-1.8,0.3-2.7-0.2-3.4-0.8c-0.5-0.4-1.4-0.7-1.5-0.4c-0.2,0.2,0.1,0.7,0.7,1.5zm-25,3.2c0.2-0.1,0.6,0.6,1.1,2.1c0.7,1.9-0.5,8.5-1.2,9.5c-0.4,0.6-0.6,0.9-1.4-0.1c-0.3-0.5-0.1-0.6,0.3-1.9c0.4-2,0.8-5.2,0.8-6.6c0-2,0.1-3,0.4-3zm2.4,6.4c0.1,0,0.3,0.3,0.6,1.1c0.4,1,0.2,3-0.3,4.5c-0.3,0.9-0.6,1.9-1.1,2.7c-0.1,0.4-1,0.2-1.2-0.7c-0.2-0.7,0.4-1.4,0.6-2.4c0.3-1,0.5-2.3,0.7-2.9c0.2-1.6,0.4-2.4,0.7-2.3zm18.3,2.9c0,0,0,0,0,0s0,0,0,0c-0.1,0,1.8,2,2.2,2.6c0.3,0.2,2.5,2.9,1.1,2.3c-3.4-1.5-7.5-0.8-10,1.7c-0.3,0.3-0.5-0.1-1.5-0.1c-1.9-0.2-2.6,0.6-1.4,1.6c0.1,0.1,0.5,0.2,0.7,0.4c0.1,0.2,0.1,0.6,0.2,0.7c3.7,5,10.7,6,15,2.7c0.5-0.4,0.9-0.5,1.4-0.4c1,0.3,1.1-0.5,0.2-1.7c-0.4-0.5-0.9-1.1-0.6-1.3c0.5-0.5,0.8-1.3-0.2-1.6c-0.6-0.2-1.4-0.9-1.7-1.9c-0.5-1.2-4.7-4.9-5.4-5zm-16.9,2.2c0.8-0.1,0.8,4.8-0.1,6.2c-0.5,0.6-1.5-0.5-1.4-1.5c0.2-0.8,1-4.4,1.2-4.6c0.1-0.1,0.2-0.1,0.3-0.1zm16.5,3c0.7,0,1.6,0.3,2.4,0.9c0.4,0.4,1.1,2,0.8,2.6c-0.1,0.3-0.9,0.3-1,0.1c-0.5-3.2-3-3.7-3.9-0.7c0,0-0.5,0.4-0.6-0.4c0.2-1.7,1-2.5,2.3-2.5zm20.7,0.2c0.8,0,1.6,0.4,2,1.3c0.3,0.6,0.3,1.1,0.2,1.4c-0.1,0.2-0.3,0.1-0.3,0.1c-1.4-3.6-3.1-1.9-3.8,0.1c0,0-0.6,0.2-0.7,0c-0.1-0.3-0.1-0.7,0.2-1.2c0.5-1.1,1.5-1.6,2.4-1.7zm-17.4,0.3c0.4-0.1,1.2,0.3,1.8,0.9s0.7,1,0.2,1.4c-0.3,0.3-1.3,0.6-1.5,0.1l-0.9-2c-0.1-0.2,0.2-0.4,0.4-0.4zm-6.3,0.1c0.5,0,0.6,0.1-0.2,2c-0.2,0.4-2.3-0.2-1.9-1c0.6-0.6,1.6-1,2.1-1zm20.8,0.1c0.3,0,0.4,0,0.5,0.1c-0.2,0.1-1,2.1-1,2.1c-0.7-0.1-1.6,0-1.8-0.6c-0.1-0.6,0.2-0.9,1.2-1.3c0.3-0.2,0.8-0.3,1.1-0.3zm6.1,0.5c0.8,0.3,1,1,0.9,1.3s-0.4,0.3-0.7,0.1c-0.2-0.3-0.6-0.8-0.6-1.1c0.1-0.4,0.2-0.4,0.4-0.3zm-39.2,1.9c0.2,0.4,0.6,3,0.1,3c-0.5-0.2-0.7-1-0.8-1.7c0-0.1,0.4-1.3,0.7-1.3zm8.6,1.4c0.3-0.1,0.8,0.1,1.7,0.6c2.8,1.4,5.7,1.6,8.8,0.9c1.8-0.5,2.2-0.7,2.5-0.4c0.4,0.5-0.3,1-2.8,1.8c-2.7,1-5.6,0.8-9.3-1.8c-1-0.8-1.2-1.1-0.9-1.1zm31.4,0.7c0.5,0.8-1.1,1.7-1.9,1.9c-1.7,0.5-4.3,0.3-5.8-0.6c-0.1-0.1-0.2-0.2-0.3-0.3c-1.2-0.8-0.7-1.5,0.6-0.8c1.4,0.7,4.3,0.9,5.9,0.1c0.7-0.3,1.3-0.8,1.5-0.3zM73,235.6c-0.2,0,0.1,0.4,0.7,1c3.8,4.4,13.1,6.8,18.2,2.3c1.7-1.6,1.4-2.3-1.1-1c-2.9,0.9-6.9,1-10.4,0.5c-1.7-0.2-4.5-0.9-5.9-1.9c-0.9-0.7-1.4-0.9-1.5-0.9zm26.7,0.1c0.2,0,0.6,0.1,1.5,0.6c1.3,0.7,4.3,0.4,5.3,0.1c2-0.8,2.5,0.2,0.5,1.3c-2.2,1.3-5.1,0.8-6.9-0.9c-0.5-0.5-0.8-1.1-0.6-1.2c0,0,0.1,0.1,0.2,0.1zM74,243.4c7.6,0.7,19.1,8.7,23.6,17.9H95C90.5,254.1,83.6,247.9,75.4,245.7c-0.3-0.2-1.6-1.9-1.4-2.3zm33.8,1.7l-0.3,2.5c-1.3,1.1-6,5-9.4,11.1c-0.8-0.1-1.1-0.9-1-1.5c2.8-5.5,6.1-8.6,10.7-12.1zm-30.8,2c1.8-0.1,13.2,6.4,17,14.2H91.9c-4.3-5.7-9.1-9.8-13.3-11.2c-1.1-1.1-2.2-3-1.6-3zm30.5,1.7v3.4c-2.7,2.7-4.7,5.8-6.3,9.1H99.1c0,0-0.5-1.4-0.3-2c2.4-4.3,4.7-7.5,8.7-10.5zM90.2,261.3h-2c-1.8-2.5-4.3-5.3-6.7-6.7c-0.9-1.2-2-2.7-1.6-2.9c0-0.9,9.1,5.7,10.3,9.6zm17.3-7.4v2c-1.4,1.8-2.6,3.7-3.7,5.4h-1.7c1.6-3.5,5.6-8.3,5.4-7.4zm-23.4,3.8c0.6,0.2,2.9,2.8,2.8,3.6h-1c-0.6-0.8-1.3-2-1.7-2.8c-0.2-0.4-0.4-0.9-0.1-0.8zm23,0.6c0,0,0,0,0,0s0,3,0,3h-1.7c-0.2-0.1,0.8-2.4,1.7-3z"
        fill="#131F67" />
        <path d="M116.6,2.5l65.1,92.7,0.1-20.6-20.9-27.1C165.7,46.1,171.5,45,176,44.6c-5.8-13-8.8-25.3-6.2-42.1C151.6,2.3,133.2,2.3,116.6,2.5zm52.1,0.4c-0.5,5.9-1.1,12.6-0.1,19.9c-3.4-1.2-4.2,0.9-4.7,1.1c-0.7-1.4-3-3.9-5.7-1c-1.4,1.5-0.7,4.4,2.5,5.6c-3.7,0.3-5.6-2.8-6.2-6.1c-2-1.3-4.1-2.6-4.3-7.1l1,0.2c-0.4,3.2,2.9,4.8,4.8,3.3c1.2-1,1.4-2.5,0.9-4.7c1-0.2,3.3-1.2,2.7-4.2C158.7,5.8,154.5,6.3,152.6,9C151,7,148,6.6,146.9,9.7c-0.7,1.7,0.8,3.7,2.5,4.1c-3.8,0.7-5.7-4.5-5.9-8.1L142,3C152.2,2.9,156.6,2.9,168.7,2.9zM117.7,3h7.6L180.5,74.7,180.6,92.5,117.7,3zm19.1,0H138c1,6.3,4.6,10.9,10.8,13.1c0.3,5.2,2.8,12.2,12.2,14.5c-0.3,5.9,3.4,11.4,7.4,14.1c0,0-1.1,0.3-1.9,0.3c-5.4-4.2-6.7-10.5-7.2-13.1c-0.2-0.4-0.7-0.5-1.1-0.6c-4.6-1.6-8.5-5.4-10.1-10l-1-4.5c0-0.6-0.1-0.3-1.4-0.8c-3.6-1.3-6.8-5.2-8.3-9.8C136.6,3.8,136.8,3,136.8,3zM132,3h4.2c0,0,0,0.8,0.1,1.3c0.5,4.5,4.6,10.2,8.7,12c0.6,0.3,1.4,0.7,1.6,0.9c1.2,7.4,4.5,11.8,11.6,14.9c0.1,0.1,0.4,0.2,0.5,0.3c1,4.6,3.1,9.9,7.1,12.8L164,45.4,132,3zm20.7,7.8c0.9,0,1.7,0.8,1.7,1.7c0,1-0.8,1.8-1.7,1.8c-1,0-1.8-0.8-1.8-1.8c0-0.9,0.8-1.7,1.8-1.7zM94.2,20.3C94.3,20.6,70.5,40.8,72.8,78.8l-0.7,0.7,0.2,0.3c-0.8,0.9-1.5,1.6-2.4,2.5c4.9,3.2,13.5,6.6,13.6,6.5l-1.7,3.8,10.3,3.4-1.4,3.6c0,0-7.1-2.4-10.1-3.4c-1.5,3.3-2.3,6.7-3.4,10.1c-0.1,0.3-0.3,0.2-0.7-0.4C71.1,96.8,60.2,90.2,60.6,90.8l-38.9,37.1-0.3,22.9,26.9,27.8c0,0-7.8,3.9-11.5,6.4c2.9,2.3,6.1,4.1,9,6.4c5.9,4.1,9.9,10.3,13.7,14.4c18-8.9,36.1-8.4,51.8-3c-1.8,1.9-3.8,3.6-5.7,5.7c4.5,12,3.1,35.8,2.8,36.5c9.5-9.8,23.6-30.6,21.7-60l4-4c0-0.2-9.9-5.5-14.1-6.7l1.2-3.6-9.9-3.1,1.1-2.9,9.8,2.8c1.9-4.6,3.9-11,3.9-11c3.9,5.9,8.2,11.3,17.2,16.8l38.6-37.2-0.2-23.9-26.3-26.4,10.9-5.7c-1-0.9-2.6-1.7-3.6-2.5c-0.1-0.1,0.2-0.3,0.1-0.3C162.5,77,162.3,76.9,162,76.7c0-0.1-0.2,0.2-0.3,0.2C158,74.3,154.3,71.7,151.4,68.5c-0.1,0,0-0.4-0.1-0.4c-1.5-1.7-3-3.2-4.6-4.8c-0.7-0.7-1.9-2.4-1.9-2.4V60.3l-1.7-2.1c-5.4,3.2-28.2,11.1-50.3,2.3L97,56.3C95.9,53.6,95.2,50.6,94.9,48.1C93.7,38.2,94.2,20.3,94.2,20.3zm69.6,5.6c1,0,1.8,0.8,1.8,1.9c0,1-0.8,1.8-1.8,1.8S162,28.8,162,27.8c0-1.1,0.8-1.9,1.8-1.9zm5.7,2.2c1,4.6,3,11.2,5.1,15.7l-2.5,0.3c-1.9-1.3-4-3.2-4.3-5.9c-5.3,0-6.9-8.4-4.9-7.4c-0.3,2.9,1.8,4,3.8,3.8c1.7-0.3,3.2-2.7,1.2-5.4c0.9-0.3,1.3-0.6,1.6-1.1zM93.6,41.6c0.4,5.9,1.5,10.1,2.6,14.5L85.6,66.2c0.8-9.2,3.5-17.4,8-24.6zm50.8,19.3l1.3,1.9c-15.3,9-41.4,9.7-57.3,2.1l2.1-2.1c14,6.4,36.8,6.8,53.9-1.9zm-99.3,3c-1.6,0-3.4,0.5-5.3,2c-7-3.2-11.6,4.3-7.2,9.2c-0.7,3.6-1.2,4.3,1.5,7.9c-2.8,0.4-6.4-0.4-9.5-0.8c0.5,5.2,8.1,6.5,11.2,5.9c3.4-0.7,6.6,0.9,6.8,1c2,0.5,3.2,1.5,5.2,2c3.2,0.7,8-3.1,8.7-6.7c0-0.5,0.2-0.9-0.1-1c-2.2,0.6-4.6,1.4-6.8,1.8c-2.1,0.6-3.7,1.1-5.3,2.3L44.1,83.2c11,0.5,6.2-10,5.6-10.4c2.1-4.2-0.4-8.9-4.6-8.9zM145,64.2l2.4,5.8-6.4,2.1-1.6-5.6,5.6-2.3zM44.6,64.4c3.7,0,7.1,4,3.5,8.4c6.9,6.1-2,12.7-6.2,8.2C36.2,86.2,30.2,80.7,33.4,75.1c-6-5.4,1.4-12.7,6.5-8c1.2-1.9,3-2.7,4.7-2.7zM88,66.5c0.9,0,1.6,0.7,1.6,1.6S88.9,69.7,88,69.7S86.4,69,86.4,68.1S87.1,66.5,88,66.5zM46.6,66.6c-0.1,0-0.2,0.1-0.3,0.2c-0.2,0-0.6,0.7-1.6,1.8c-1.7,2-1.9,2-1.9,2C41,70,39.7,70.3,38.5,71.1c0,0-1.3-0.3-3.2-1.8C34.4,68.5,33.9,68.4,33.8,68.8c-0.2,0.4,0.2,0.8,1.9,1.9c2.3,1.6,2.1,1.5,2.1,1.5c-0.1,1.3,0.1,2.5,0.6,3.5c0,0-0.4,1-2,3.1c-0.5,0.6-0.8,1.3-0.8,1.5c0,0.8,0.7,0.3,2.4-1.9c0.6-0.8,1.5-2,1.5-2c2,0.7,2.6,0.3,3.9-0.1c0,0,0.4,0.3,1.5,1.1c1.9,1.6,2.3,1.8,2.6,1.6C47.8,78.7,47.7,78.6,47,78.1C44.8,76.5,44,75.5,44,75.5c0.5-1.7,0-3.2-0.5-4.1c0,0,0.1-0.2,1.3-1.6c0.9-1,2.2-2.6,2.1-2.8c0-0.2-0.1-0.4-0.3-0.4zm45,0.4l5.7,1.7-1.2,6-6.1-2,1.6-5.7zM133,68.4l1.6,5.9-5.9,1.5-1-6.1,5.3-1.3zm4.2,0.1c0.9,0,1.6,0.8,1.6,1.7s-0.7,1.6-1.6,1.6s-1.6-0.7-1.6-1.6s0.7-1.7,1.6-1.7zm13.5,0.2l5,4.5-5.5,2.8-2.7-5.8,3.2-1.5zM103.6,70l5.8,0.7-0.3,6.3-6.6-0.9,1.1-6.1zM83.4,70.1l6.5,2.8-2.4,6.6-6.6-2.9,2.5-6.5zm16.7,0.5c2.3,0.4,1.7,3.2,0,3.3c-0.9,0-1.7-0.8-1.7-1.7s0.8-1.6,1.7-1.6zm20.9,0l0.8,6.3-6.1,0.3-0.1-6.3,5.4-0.3zm4.1,0.7c0.9,0,1.6,0.8,1.6,1.6c0,0.9-0.7,1.7-1.6,1.7s-1.6-0.8-1.6-1.7c0-0.8,0.7-1.6,1.6-1.6zm-84,0.6c0.9,0,1.7,0.8,1.7,1.7S42,75.3,41.1,75.3S39.5,74.5,39.5,73.6s0.7-1.7,1.6-1.7zm71.5,0c0.9,0,1.6,0.7,1.6,1.6s-0.7,1.6-1.6,1.6S111,74.4,111,73.5s0.7-1.6,1.6-1.6zM141,72.3l2.3,6.4-6.5,2.1-1.9-6.6,6.1-1.9zm4.6,0.1c0.9,0,1.6,0.8,1.6,1.7c0,0.8-0.7,1.6-1.6,1.6S144,74.9,144,74.1c0-0.9,0.7-1.7,1.6-1.7zM157,74.3l4.3,3-2.1,1.2c-0.6-1.4-1.6-2.9-2.2-4.2zM96.1,74.8l6.3,1.4-0.9,6.6-6.9-1.4,1.5-6.6zM77.4,75.2l3.4,1.6-2.2,5.5-5.5-2.9,4.3-4.2zm14.9,0.4c0.9,0,1.7,0.7,1.7,1.6s-0.8,1.6-1.7,1.6c-0.8,0-1.6-0.7-1.6-1.6s0.8-1.6,1.6-1.6zm36.4,0.3l1.1,6.6-7.1,1-0.4-6.7,6.4-0.9zm26.5,0.2c0.9,0,1.7,0.7,1.7,1.6s-0.8,1.6-1.7,1.6s-1.6-0.7-1.6-1.6s0.7-1.6,1.6-1.6zm-5,0l2.4,5.8-7,2.9-2-5.8,6.6-2.9zm-17.7,0.4c0.9,0,1.6,0.7,1.6,1.6s-0.7,1.7-1.6,1.7S130.9,79,130.9,78.1s0.7-1.6,1.6-1.6zm-23.4,0.7l6.6,0.1-0.1,6.7-7.2-0.2,0.7-6.6zm53.1,0.4l2.6,1.9C137.9,96.8,100.1,99,70.7,81.9c0,0,1.2-1.2,1.9-1.9c26.5,15.9,65.3,13.7,89.6-2.4zm-56.7,0.8c0.9,0,1.6,0.7,1.6,1.6s-0.7,1.7-1.6,1.7S103.8,80.9,103.8,80s0.8-1.6,1.7-1.6zm13.6,0.4c0.9,0,1.6,0.7,1.6,1.6S120,82,119.1,82s-1.6-0.7-1.6-1.6s0.7-1.6,1.6-1.6zM87.5,79.7l6.9,2-1.2,5.5-7.6-2.2,1.9-5.3zm-4.6,0c0.9,0,1.6,0.7,1.6,1.6S83.8,83,82.9,83S81.3,82.2,81.3,81.3S82,79.7,82.9,79.7zm53.9,1.2l1.6,6.1-7.7,1.7-0.9-6.1,7-1.7zm4.4,0.9c0.9,0,1.6,0.7,1.6,1.6S142.1,85,141.2,85s-1.7-0.7-1.7-1.6s0.8-1.6,1.7-1.6zM41,82.7v4.4C39.7,86,38.3,84.9,36.8,83.7c1.5,0.1,2.9-0.3,4.2-1zM25.2,82.8c0.3,0,1.2,0.3,2.1,0.3c3.2,0,9,1,10.7,2.4c0.6,0.5,1.4,0.9,1.9,1.7c0,0.3-0.5,0.3-1.3-0.1c-1.4-0.9-3.8-1.7-7-2.2c-0.6-0.1-0.7,0-0.7,0.2c0,0.4,0.6,0.6,2.3,0.8c2.1,0.4,2.6,0.6,3.1,0.8c1.3,0.3,0.5,0.8-0.9,0.9C30,88.1,25.9,85.8,25,83.1c0-0.2,0-0.3,0.2-0.3zm76.2,0.1l6.9,0.9-0.3,5.8-7.5-0.9,0.9-5.8zM42.9,83.4c1.2,1,0.4,3.9-0.3,4.7c-0.4,0.5-1.4,0.2-1.4-0.4c0.1-0.6-0.1-3.5,0.1-4.4c0.4-0.3,1.1-0.2,1.6,0.1zm79.8,0.3l0.3,6-7.5,0.3,0.1-5.9,7.1-0.4zM97.3,84.1c0.9,0,1.7,0.7,1.7,1.6s-0.8,1.6-1.7,1.6S95.7,86.6,95.7,85.7s0.7-1.6,1.6-1.6zM55.5,84.2c0.2,4.4-6.4,7.3-9,6c-1.1-0.6-0.6-1,1.6-1.4c2.8-0.8,4.7-1.5,4.7-2.1c0-0.3-0.4-0.2-1.6,0.2c-1.8,0.6-3.6,0.8-5.3,1.6c-1.3,0.6-1.8,0.8-2.1,0.5C43.2,88.2,46.1,86.4,49,85.9c2.2-0.4,4.4-1.6,6.5-1.7zm71.3,0.5c0.9,0,1.7,0.7,1.7,1.6S127.7,88,126.8,88s-1.6-0.8-1.6-1.7s0.7-1.6,1.6-1.6zm-15,1.2c0.9,0,1.6,0.7,1.6,1.6s-0.7,1.7-1.6,1.7s-1.6-0.8-1.6-1.7s0.7-1.6,1.6-1.6zm36.1,2.8c10.8,10.3,22.7,22.3,32.5,32.1c0,5.1-0.1,15.4-0.1,15.4l-37.4,35.7c-6.8-4.2-12.5-9.4-17.8-18.6c0.6-0.5,1.1-0.8,1.6-1.4l-2,1.2c-6.9-11.1-9.8-33.2,1.9-50.9l-11.8,0.4,1.9-4,12.9-0.7,5.2-5.6c0,0,1.7-0.3,3.1-0.7c1.3-0.3,4.1-1.1,6.1-1.7c2.1-0.7,3.8-1.2,3.9-1.2zM60.4,91.5c0,0,11.1,6.1,17.3,18.3C57.7,127,50.2,147.1,48.5,168.1C37.6,157.9,32.1,152.2,22.3,142.3l0.3-14.8,37.8-36zm42,2c-2.9,6.2-5.3,12.9-7.6,20.2l-3.1-0.9c0,0,2-0.9,2.9-1.4l-1.6-2.6,3.1-1.3-1.8-2.2,3.1-1.8-1.6-1.9,2.9-1.4-1.8-2.1,3-1.6-1.6-2,4.1-1zm1,0c0,0,0.4,0.1,0.8,0.2c0.2-0.1-0.5,1.6-0.4,1.6c1,0.3,1.1,0.2,1.4,0.3l0.8-1.7,1.4,0.2c-2.7,6.2-5.7,13-7.3,20.3l-1.6-0.3c0,0,0.4-1.6,0.4-1.8c-0.1,0-1-0.4-1.3-0.5c-0.1,0.3-0.7,2-0.7,2H95.7c2-8,5.6-16.9,7.7-20.3zm5.2,0.2l2.8,2.4-3.2,1.2,1.6,2.2-3.4,1.3,2,2.3-3.4,1.2,2,2.8-3.5,1.2,2.2,2.5-3.1,1.5,1.9,1.8c0,0-2,0.7-2.1,0.7c-0.3,0.1-1.7-0.2-1.7-0.2c2-7.2,4.5-14.4,7.9-20.9zM39.7,94.9c-0.7,0.5-0.3,1.6-1.3,2.6c-0.1,0.1-0.2,0.5-0.2,0.9c-0.1,0.2-0.8,3.3-0.8,3.3s0.2-0.2,0.5-1.2c0.2-0.8,0.5-2.4,0.6-2.7c0.7-0.2,0.8-2.6,1.6-2.3c0.4,0.2,0.3,0.6,0.1,1.5c-0.5,1.8-0.7,2.6,0.1,1.4c1.4-1.7,1.5-3.1,0-3.4C40.1,94.9,39.8,94.9,39.7,94.9zm20.2,0.7l-34.9,32.9-0.1,12.3,12.1,12.4,8.7,8.4c3.1-18.8,10.3-36.8,28-52.3C71,104.9,66.4,99.4,59.9,95.6zm94.3,0.3c-20.5,9.7-25.3,29.6-18.9,47.6c9.8-12.6,17.5-24.5,18.9-47.6zm-73.1,1l9.3,3-3.5,12.1-8.4-2.6-0.9-2.1,3.5-10.4zm72.1,0.3c-0.9,16.1-7,31.8-17.5,44.2c-5.3-13.2-2.1-34.2,17.5-44.2zm-50.3,0.1l-0.6,1.5,1.3,0.4,0.6-1.5-1.3-0.4zm-1.3,3.6l-0.5,1.5,1.3,0.4,0.5-1.5-1.3-0.4zm55.1,0.2c-2.9,22.3-14.9,42.6-27.6,53c4,6.6,8.8,10.8,13.6,14.3l35.8-34.3-0.2-11.5-21.6-21.5zm-94.5,6c-0.2,0.8-0.3,1.2-0.3,1.2s0.5-0.4,1.5-1c7.1-3.5,4.8,1.8,1.5,3.8c-0.8,0.4-1.5,0.9-1.5,0.9s0.7,0.1,1.5,0.3c4.2,0.9,3.3,3.4-1.1,3c-0.7-0.1-1.5-0.2-1.5-0.2c0,0.1,0.3,1,0.6,1.8c1.5,3.8-1.3,4.1-3.1,1.7c-0.3-0.4-0.9-1.3-0.9-1.3s-0.1,0.7-0.3,1.4c-1.5,5.9-5.5,5.8-4-0.3c0.2-0.6,0.4-1.7,0.4-1.7s-0.9,0.5-1.8,1c-5.1,2.3-5.9-0.1-1.3-3.5c1.3-1,1.7-1.4,1.7-1.4c-0.8,0-1.5-0.2-2.2-0.3c-3.7-1-4.7-3.2,1.2-3.1c0.9,0.1,1.8,0.1,1.8,0.1s-0.3-1.2-0.6-2.2c-1.4-4.4,1.4-5,3.9-1c0.5,0.9,0.6,0.9,0.6,0.9c-0.1,0,0.2-1.6,0.8-2.9c2.9-5.5,4-0.5,3.1,2.8zm63.2-4.4c-2.4,4.3-4.6,8.6-5.6,13.2l-9.5-0.2c0.6-4,2.3-8.2,4.3-12.6c3.9-0.1,7.4-0.3,10.8-0.4zm-25.2,1.9l-0.5,1.6,1.4,0.4,0.5-1.5-1.4-0.5zm-71.4,3c-1,2.7-1.3,5.6-1.9,8c-0.2,1.4,0,2,0.8,2.3c1.2,0.4,2.9-0.2,3.8-1.5c0.6-0.8,1-2.4,1-5.2l0.1-2.5c-1.4-0.3-2.4-0.6-3.8-1.1zm70.1,0.3l-0.4,1.5,1.3,0.5,0.5-1.5-1.4-0.5zm61.9,0.6c1.6,0,1.9,0.2,3.4,1.1l2.8,2.9c-0.7,0.7-1.2,1.7-1.2,2.8c0,2.2,1.8,3.9,3.9,3.9c1.1,0,2.8-1.1,2.8-1.1l4.5,4.7c-2.7,1.1-5.2-1.5-6.2-2.6c-0.2-0.2-0.3-0.4-0.3-0.4s0.1,0.2,0,0.7c-0.4,2.1-2.5,8.2-4.4,7.9c-2.2-0.4,0-9.2,0-9c-1.5,1.6-8.8,3.3-8.3,1.5c1-3.5,6.5-4.9,7.2-5.5c-2.9-1.8-6.6-6.7-4.2-6.9zM29.2,108.6c0.9,0.1,1.6,0.2,2.2,0.5c0.3,0,0.3,0.3,0.3,0.5c0,1.1,0.3,4.2-0.7,4.2s-2.1,0.2-2.8,0.7c-0.5,0.5-0.7,0.2-0.6-1c0.2-1,0.7-3.3,0.9-4.3c0.1-0.3,0.4-0.6,0.7-0.6zm29.2,0c-2.2,0-4,1.8-4,4c0,2.1,1.8,3.9,4,3.9c2.1,0,3.9-1.8,3.9-3.9c0-2.2-1.8-4-3.9-4zm0,1.4c1.4,0,2.5,1.2,2.5,2.6s-1.1,2.5-2.5,2.5S55.8,114,55.8,112.6S57,110,58.4,110zm20.2,0.1c8.9,15.5,7.9,36.8-2.7,52.4l11.4-0.8-1.5,2.9-12.1,1.2c-1.9,1.7-3.6,3.6-5.4,5.4v0.7c-4.2,1-8.3,2.1-12.6,3.6c-2.2-2.2-6.4-6.6-6.4-6.7l0.3-1.4C78.4,152.6,70,123,68,120.5c3-3.7,6.7-7.2,10.6-10.4zm80,2.8c1.1,0,2.1,0.9,2.1,2.1s-1,2.1-2.1,2.1c-1.2,0-2.2-0.9-2.2-2.1s1-2.1,2.2-2.1zm9.4,0.6l3.5,3.6c-0.5,0.5-1.1,0.8-1.8,0.8c-1.4,0-2.5-1.2-2.5-2.6c0-0.7,0.3-1.4,0.8-1.8zM46.3,113.9c1.2,0,2.1,1,2.1,2.1c0,1.2-0.9,2.2-2.1,2.2s-2.1-1-2.1-2.2c0-1.1,0.9-2.1,2.1-2.1zm-15.7,0.9c0.9,0.3,0.7,1.3-0.6,2.1c-0.8,0.5-1.6,0.6-2.3,0.2c-1.4-0.7,1.5-2.8,2.9-2.3zM46.9,120L34.2,132.4C35,130.3,35,128.3,35,126.2c3.9,0.4,5.5-1.5,4.9-5.6c2.5,0.2,5.1-0.1,7-0.6zm20.4,1.4c5.9,16.9,0.8,34.8-17.7,45.2c0.8-16.2,7.5-31.7,17.7-45.2zm16.8,1.5c10.2,2.7,21.7,3.9,33.7,3.9c0.1,4.6,0.3,9.4,1.2,14.1C108.8,138.2,97.4,137,85,137.2c0.5-4.8-0.3-10.3-0.9-14.3zm75.2,2.5l-10.8,12.7,0.5-6.9c3.6,0.4,4.9-1.5,4.4-5.3c1.9,0.2,3.9-0.1,5.9-0.5zM54.4,126.1l-0.8,5.1c-2.2,0-4.3,0.8-4.3,5.6l-6.4-0.1,11.5-10.6zM173.2,127c1.2,0,2.1,1,2.1,2.2c0,1.1-0.9,2.1-2.1,2.1c-1.1,0-2.1-1-2.1-2.1c0-1.2,1-2.2,2.1-2.2zM44.6,127.7c1.2,0,2.1,0.9,2.1,2.1s-0.9,2.1-2.1,2.1S42.5,131,42.5,129.8s0.9-2.1,2.1-2.1zm123.9,2.2l-1.1,7.6c-3-0.2-5.4,0.2-4.7,5.4c-2.5-0.2-5.9,0.4-8.2,0.6l14-13.6zM158,131.2c1.1,0,2.1,1,2.1,2.2c0,1.1-1,2.1-2.1,2.1c-1.2,0-2.2-1-2.2-2.1c0-1.2,1-2.2,2.2-2.2zM29.1,132.9c1.2,0,2.1,0.9,2.1,2.1s-0.9,2.1-2.1,2.1S27,136.2,27,135s0.9-2.1,2.1-2.1zm7,2.5c2.7,0.6,1.5,6.9,0.9,8.6c-0.1,0.1,7.5-3.9,8-2.2c0.3,3.6-6.3,6.1-6.3,6.1s4.4,3.9,4.5,6.3c0,1.6-1.8,1.3-4.2-0.7c-1.1-1-1.9-1.8-2.6-2.5c0.8-0.7,1.4-1.8,1.4-3c0-2.2-1.8-3.9-3.9-3.9c-1.2,0-2.3,0.5-3,1.4c-0.6-0.6-1.2-1.2-2.1-2c-1.4-1.3-2.3-2.4-2.2-2.8c1.8-1.3,5.5,2.2,5.8,2.5c-0.2-0.7,1.8-7.4,3.7-7.8zm-3.7,7.8c0,0,0.1,0,0.1,0s-0.1,0-0.1,0zm115.2-2.9c1.2,0,1.2,3,0.7,4.5c-0.3,1.1-0.6,2.1-0.6,2.1s1.1-0.9,1.5-1.1c3.5-1.6,4.8,0.2,3.1,2.4c-0.9,1.1-2,1.3-3,2.3c1.4,0,2.9,0.3,4.1,1c0.9,0.6,1.6,1.2,1.6,1.6c0,0.9-2.3,1.4-4.3,1.2c-0.9,0-2.6-0.5-2.6-0.5s0.7,1.2,1,1.9c0.7,2.1,0.5,4.7-0.7,4.7c-1.8-0.5-2.7-2.6-3.5-4.1c-0.6,1.6-1.2,3.4-2.5,4.7c-1.3,1.2-2,0.2-1.9-1.9c0-0.8,0.6-3.3,0.6-3.3c-7.9,2.7-7.3-1-1.2-4.1c-3.7-1.8-6-3.5,0.4-3.8c-0.2-0.2-1.3-3.6-0.1-4.5c1.1-0.7,3.5,1.9,3.6,2c0-0.3,0.6-2.3,1.8-3.7c0.8-1,1.5-1.4,2-1.4zm-7.3,7.6c0,0,0,0,0,0s0,0,0,0zm34.5-2.3c-1.4,0.1-2.3,1.3-2.9,2.4c-0.1,0.2-0.4,0.3-0.4,0.6c-0.6,1.8-1.1,4-1.4,6.7c0.9,0.4,2.8,1,3.7,0.7c0.2-0.1,0.2-0.8,0.2-1c1.4-3.4,2.1-6,2.1-7.6c0-1.3-0.5-1.9-1.3-1.8zM33.9,145.4c1.4,0,2.5,1.2,2.5,2.6c0,0.8-0.4,1.5-1,2c-1.6-1.7-2.4-2.5-3.5-3.6c0.4-0.6,1.2-1,2-1zm141.4,1.2c0.3,0.9-0.8,1.8-2.2,1.8c-0.9,0-1.2,0.1-0.8-0.6c0.5-0.9,2.3-2.8,3-1.2zM156.1,146c1.1,0,2.1,1,2.1,2.2c0,1.1-1,2.1-2.1,2.1c-1.2,0-2.1-1-2.1-2.1c0-1.2,0.9-2.2,2.1-2.2zM44.5,146.2c1.2,0,2.2,0.9,2.2,2.1s-1,2.1-2.2,2.1c-1.1,0-2.1-0.9-2.1-2.1s1-2.1,2.1-2.1zm100.1,0.9c-2.2,0-3.9,1.7-3.9,3.9s1.7,3.9,3.9,3.9c2.1,0,3.9-1.7,3.9-3.9s-1.8-3.9-3.9-3.9zm-52.3,0.5c-1.1,4.5-2.7,8.8-4.7,13.1c-3.7,0.3-7.8,0.4-10.5,0.8c4.5-7.9,4.6-9.7,6.3-13.9h8.9zm6.4,0.6c1.1,0.2,2.3,0.3,3.3,0.5c-1.9,6.8-4.5,13.8-7.7,20.5l-2-0.3-1-1.2,3.2-1.2-2.5-2.5,4.1-1.3-2.5-2.5,4-1-2.1-2.6,3.6-1.4-2.3-3,3.8-1.1-1.9-2.9zm45.9,0.2c1.4,0,2.5,1.2,2.5,2.6s-1.1,2.5-2.5,2.5S142,152.4,142,151s1.2-2.6,2.6-2.6zm-41.9,0.4l1.4,0.2-0.4,1.5,1.5,0.3,0.5-1.5c0,0,1.2,0.1,1.4,0.2c-1.6,6.5-7.3,20.3-7.4,20.2l-1.5-0.2,0.4-1.4-1.3-0.2-0.7,1.5-1.4-0.1c3.5-8.1,5.9-14.3,7.5-20.5zm71.5,0.5c1,0,1,0.6,0.2,2.6c-0.7,2-1,2.7-1.4,3c-0.8,0.6-2.6,0.1-2.5-0.8c0.5-2.9,0.7-4.1,1.4-4.5c0.8-0.1,1.5-0.3,2.3-0.3zm-66.1,0.3l3.5,0.7-2.9,1.7,1.9,2.2-3.6,1.5,2.2,2.3-3.5,1.4,2.1,2.5-3.6,1.6,2.4,2.1-4,1.3,1.5,2.4-1.5,0.8-1.9-0.3c3.1-7.3,5.2-13.3,7.4-20.2zm8.7,1.7l6.8,1.9,1.4,2.5-3.2,10.9-9.2-2.7,4.2-12.6zm-13.7,1.1l-0.7,1.8,1.6,0.3,0.5-1.9-1.4-0.2zm-1.3,4.1l-0.7,1.8,1.4,0.3,0.7-1.8-1.4-0.3zm-1.4,3.6l-0.6,1.8,1.3,0.3,0.7-1.8-1.4-0.3zm64.6,3.3c0,0-0.7,0.5-0.9,0.8c0.2,0.4,0.6,1,0.6,1.4c-0.1,0.3-0.5,0.6-1,1.1c-1.3,1.5-1.7,1.4-1-0.2c0.3-0.6,0.4-1,0.4-1c-0.3,0.4-0.5,0.9-0.7,1.3c-0.5,0.8-0.9,1.6-0.9,1.6c0.9,0.3,1.4,0.9,1.9,1.3c0,0,0.3-0.7,0.5-1.4c0.3-1,0.8-1.4,1.4-1.7c0.4-0.3,0.8-0.6,0.8-0.6c-0.7-0.8-0.8-1.8-1.1-2.6zm-66,0.5l-0.7,1.9,1.4,0.3,0.7-1.9-1.4-0.3zm-77.8,4.7c-0.1,7.6,0.2,12.6-0.1,20.8l20.4,26.5-3.2,1.1c0,0,0,0.4-0.2,0.4c-4.3,1.2-11.4,2.4-11.4,2.4C32,231.9,35.4,247,33,262L85.9,261.9,21.2,168.6zM133,181.5l-1.8,1.8C104.3,168.7,67.3,168.8,40.3,186.4l-2.2-1.6C67.6,165.9,103.8,166,133,181.5zM22.2,171.3l62.2,89.7-7.3,0.1-54.8-72-0.1-17.8zm133.5,1.6c0,0-1.8,0.5-3.3,1c-4.3,1.4-6.3,3.9-5.9,7.3c0.1,1.1,0.4,1.1,2.1-0.1c4.1-2.6,4.4-2.7,9.5-4.2c0.4-0.1,1,0,1,0l-0.2,4c-8.6,0-8.1,6.8-5.6,10.4c-0.9,1.6-2.8,7.4,3.4,9.5c3.1,0.7,6.4-1.9,6.3-2c5.7,2.7,12.3-1.8,7.2-9.7c1.9-3.4,0.5-6-1.3-8.2c0,0,0.3,0,3,0.5c4.1,0.8,5.7,0.7,5.7,0.7c0-3.7-3.1-5.4-9.5-5.9c-4.5,0.6-12.4-3.3-12.4-3.3zm-68.8,0.4c0.3,0,0.6,0,0.9,0l-0.3,6.4-7,0.3-0.4-6.3c2.4-0.2,4.6-0.3,6.8-0.4zm8.3,0.2l7.4,0.9-1.1,5.9-6.8-0.7,0.5-6.1zm60.4,0.1c0.6,0,0.4,0.8-0.4,0.9c-1.4,0.3-4.8,2.3-4.8,2.8c0,0.4,0.2,0.3,1.4-0.4c0.7-0.3,2-0.9,2.9-1.3c1-0.3,2.1-0.8,2.5-0.9c1.2-0.6,1.7-0.2,1.3,0.8c-0.3,0.6-0.4,0.7-3,1.5c-2.5,0.8-2.9,1-4.5,2c-0.5,0.4-1.5,1-2.2,1.3c-1.6,0.8-1.9,0.8-1.9-0.3c-0.1-3.3,3.5-5.7,8.4-6.4c0.1,0,0.3,0,0.3,0zm-64.5,0.7c1,0,1.7,0.8,1.7,1.7c0,1-0.7,1.7-1.7,1.7c-0.9,0-1.7-0.7-1.7-1.7c0-0.9,0.8-1.7,1.7-1.7zm-18.4,0.5l0.6,5.7-6.9,1.8-1.5-5.9c2.6-0.7,5.2-1.1,7.8-1.6zm88,0.4c1.9,0.3,1.7,4.6,0.7,5.4c-1.4,1-2.3-1.2-1.7-4.2c0.2-0.8,0.6-1.2,1-1.2zm-84.1,0.3c0.9,0,1.7,0.7,1.7,1.6c0,1-0.8,1.7-1.7,1.7c-1,0-1.7-0.7-1.7-1.7c0-0.9,0.7-1.6,1.7-1.6zm33.3,0.4l7.8,2.2-1.9,6-7.3-2.1,1.4-6.1zm-4.2,0.2c1,0,1.7,0.7,1.7,1.7c0,0.9-0.7,1.6-1.7,1.6c-0.9,0-1.7-0.7-1.7-1.6c0-1,0.8-1.7,1.7-1.7zm63.2,0.5c3.3,0,7.7,1.7,7.7,4.3c0,0.7-6.9-0.3-10.1-1.6c-1.2-0.4-2.5-1.8-2.5-2.4c0-0.3,0.6-0.3,0.9,0c0.5,0.6,2,1.1,5.7,2.1c2.8,0.7,3.1,0.7,3.1,0.3s-1.7-1-3.5-1.3c-0.9-0.1-1.7-0.4-3.1-0.5c-0.7,0-0.8-0.4-0.3-0.7c0.6-0.2,1.3-0.2,2.1-0.2zm-5.9,1.3c0.9,0.4,1.2,1.2,1.6,1.6c-0.5,0.3-0.8,0.5-1.7,0.6c0-0.6-0.2-1.3,0.1-2.2zM61.9,178.4c0.9,0,1.7,0.7,1.7,1.7c0,0.9-0.8,1.7-1.7,1.7S60.2,181,60.2,180.1c0-1,0.8-1.7,1.7-1.7zm-4.5,0.4l1.8,5.9-6.5,2.9-2.3-5.9c2.2-1.1,4.7-2,7-2.9zm30.1,1c0,0,5.2,0,7,0l-0.4,6.6-6.5,0.1-0.1-6.7zm-6.9,0.4l0.4,6.6-6.3,0.8-1.2-6.6,7.1-0.8zm39.5,0c0.9,0,1.7,0.8,1.7,1.7c0,1-0.8,1.7-1.7,1.7s-1.7-0.7-1.7-1.7c0-0.9,0.8-1.7,1.7-1.7zm45.2,0.2c3.8,0,7.4,4.4,3.7,9c6.1,4.7-0.6,12.7-6,8.1c-7.8,7.7-12.2-2.8-8.9-5.5c-4.8-7.9,1-12.8,7.1-9.4c1.1-1.6,2.6-2.2,4.1-2.2zm-63.7,0.2l6.9,1.5-1.4,6.5-6.7-1.3,1.2-6.7zm22.7,0.1l6.3,3.2-4.9,4.6-3.6-1.8,2.2-6zm-40.2,0.8c1,0,1.7,0.7,1.7,1.7c0,0.9-0.7,1.7-1.7,1.7c-0.9,0-1.7-0.8-1.7-1.7c0-1,0.8-1.7,1.7-1.7zm13.6,0.2c0.9,0,1.7,0.7,1.7,1.7c0,0.9-0.8,1.7-1.7,1.7c-2.5-0.4-1.8-3.4,0-3.4zm-31.2,0.9l1.5,6.6-6.4,2.1-2.2-6.3,7.1-2.4zm4.3,0.5c1,0,1.7,0.8,1.7,1.7s-0.7,1.7-1.7,1.7c-0.9,0-1.7-0.8-1.7-1.7s0.8-1.7,1.7-1.7zm94,3c-0.5,0.6-1.1,1.3-1.1,1.3c-1.6-0.6-3.1-0.4-4.2,0.3c0,0-1-0.9-2-1.7c-1.8-1.4-2.3-1.7-2.3-1.1c0,0.1,0.6,0.7,1.3,1.3c1.9,1.7,2.3,2.3,2.3,2.3c-0.5,1.5-0.5,2.7,0.4,4c0,0,0.1,0.1-0.6,0.9c-1.2,1.3-2.5,3.3-2.2,3.6c0.3,0.4,1.4-0.5,2.7-2.3c0.9-1.2,1.2-1.3,1.2-1.3c1.5,0.5,2.4,0.9,4-0.4c0,0,0.6,0.1,1.8,1.1c1.8,1.6,2.5,1.9,2.7,1.4s-0.1-0.7-1.6-1.9c-1.1-0.8-2.2-1.7-2.2-1.7c0.3-0.6,0.6-2.5-0.6-3.9c0,0,0.1,0.1,1.8-2.1c1.1-1.4,1.3-1.6,0.9-1.9c-0.5-0.7-2.1,1.9-2.3,2.1zm-49-1.9l6.2,2.6-2.2,6.5-6-2.4,2-6.7zm-68,0.5c0.9,0,1.7,0.7,1.7,1.7c0,0.9-0.8,1.7-1.7,1.7s-1.7-0.8-1.7-1.7c0-1,0.8-1.7,1.7-1.7zm63.3,0.1c0.9,0,1.6,0.8,1.6,1.7c0,1-0.7,1.7-1.6,1.7c-1,0-1.7-0.7-1.7-1.7c0-0.9,0.7-1.7,1.7-1.7zm-67.6,0.5l2,5-4.6-3.4,2.6-1.6zm50.7,1.3l6.2,0.7-1,5.9-5.3-0.5,0.1-6.1zm-6.7,0l-0.1,6.1-5.8,0.2-0.5-6,6.4-0.3zm-30.1,1.1c0.9,0,1.7,0.8,1.7,1.7c0,1-0.8,1.7-1.7,1.7s-1.7-0.7-1.7-1.7c0-0.9,0.8-1.7,1.7-1.7zm-4.7,0.1l2.4,6.1-3.7,1.8-4.9-4.7,6.2-3.2zm22,0.1l1,5.8-6.1,1.5-1.5-5.9,6.6-1.4zM162,188c1.3,0,2.4,1.1,2.4,2.4s-1.1,2.4-2.4,2.4c-1.4,0-2.4-1.1-2.4-2.4s1-2.4,2.4-2.4zm-71.4,0.2c0.9,0,1.7,0.7,1.7,1.7c0,0.9-0.8,1.7-1.7,1.7c-1,0-1.7-0.8-1.7-1.7c0-1,0.7-1.7,1.7-1.7zm16.6,0.6l6.5,2.1-2.2,5.2-5.6-1.5,1.3-5.8zM78.4,189c0.9,0,1.6,0.8,1.6,1.7s-0.7,1.7-1.6,1.7c-1,0-1.7-0.8-1.7-1.7S77.4,189,78.4,189zm24.7,0.6c0.9,0,1.7,0.8,1.7,1.7c0,1-0.8,1.7-1.7,1.7s-1.7-0.7-1.7-1.7c0-0.9,0.8-1.7,1.7-1.7zm-41.3,2l2.2,5.2-6.1,2.6-2.7-5.2,6.6-2.6zm4.3,0.3c0.9,0,1.7,0.8,1.7,1.7c0,1-0.8,1.7-1.7,1.7s-1.7-0.7-1.7-1.7c0-0.9,0.8-1.7,1.7-1.7zm22.6,1.6c10,0,19.1,2.1,26.4,5.1l-2.2,2C89.3,192.5,73.8,196.2,58,203.1l-1.6-1.9c11.2-5.5,22.2-7.7,32.3-7.7zm26.7,0.1c0.9,0,1.7,0.7,1.7,1.6c0,1-0.8,1.7-1.7,1.7s-1.7-0.7-1.7-1.7c0-0.9,0.8-1.6,1.7-1.6zm-61.6,3.7c1.4,0,1.5,2.6,0.9,1.9l-1.5-1.8c0.2-0.1,0.4-0.1,0.6-0.1zm63.2,1c-0.1,1.9-1.9,14.8-8,23.7c-0.4-4.5-1.5-9.8-2.7-13.4c0,0,6.6-6.1,10.7-10.3zM38.6,217.9L70.5,261H67.1c-0.7-3.2-1.7-6.4-3.7-8.8c-1.6-2-3.1-3.5-5.9-4.8c-1.8-0.8-2-0.6-2.1-2C54.8,237.9,48.8,233.1,44.1,231.3c-0.5-4.5-2.5-9-7.7-12.8l2.2-0.6zm-3.1,1c2.9,2,6.1,3.8,7.8,11.7c0.1,1.6,0.2,1.5,1.5,1.9c5.1,1.5,9.5,7.7,9.9,13c0,1.7,0.5,1.8,2.5,2.6c2.5,1.1,5,3.2,6.4,5.4c2.2,3.1,2.9,7.7,2.7,7.5H64.6C63.3,253.1,58.4,250,53.1,248.5C53.5,237.3,44.9,233.8,41.9,233.3c0.2-8-5-11.3-8.4-14c0.7-0.3,2-0.4,2-0.4zM30.3,220c2.6,0.9,4.6,4.5,4.4,6.2c3.4,0.4,7,3.8,6.2,7.2c-0.2,0.2-0.6,0.2-1-0.2c0.9-6.7-9.1-3.4-5.1,1.5L33,235.9c-1.4-6.8-3.2-10.6-5.1-15.5c0.7-0.2,2.4-0.4,2.4-0.4zm8.3,14.2c0.9,0,1.6,0.7,1.6,1.6s-0.7,1.6-1.6,1.6S37,236.7,37,235.8s0.7-1.6,1.6-1.6zm8.6,7.2c3.9,1.1,5.1,5,5,6.4H51.3C50,241.6,43,245,45.9,249.9c-3.7,1.4-3.4,4.9-2.3,6.3c1.5,1.8,5.4,1.8,6.5-1.1c3.7,4.7,8.7-0.6,4.3-5c3.6,1.3,4.2,6.2,3.6,7.7c1.7,0.6,3.7,3.3,3.4,3.3H34.2c0,0,1.3-11-0.1-19.3c1.8,0.4,3.1,0.8,5.1-1.6c3.4,2.8,5.8,0.7,5.6-1.7c-0.2-1.7-1.1-2.6-2.5-3.5c2.9-0.7,5.2,4.4,4.9,6.4zm3.1,7.8c0.9,0,1.6,0.7,1.6,1.7c0,0.9-0.7,1.6-1.6,1.6c-1,0-1.7-0.7-1.7-1.6c0-1,0.7-1.7,1.7-1.7z"
        fill="#000" />
        <path d="M8.1,46.3C5.9,42.7,3.7,39.3,0.8,36.3C3.7,33.4,5.9,29.9,8.1,26.4c2.1,3.5,4.4,7,7.2,9.9c-2.8,3-5.1,6.4-7.2,10z" fill="#D40000" />
        <path d="M195.2,237.6c-2.2-3.6-4.4-7.1-7.3-10c2.9-3,5.1-6.4,7.3-10c2.1,3.6,4.4,7,7.2,10c-2.8,2.9-5.1,6.4-7.2,10z" fill="#D40000" />
        <path d="M50.3,57C45.2,48.5,39.7,40.2,32.9,33.1C39.7,26,45.2,17.7,50.3,9.1c5.2,8.6,10.6,16.9,17.4,24C60.9,40.2,55.5,48.5,50.3,57z" fill="#D40000" />
        <path d="M152.9,254.8C147.8,246.3,142.3,238,135.5,230.9c6.8-7.1,12.3-15.4,17.4-24c5.2,8.6,10.6,16.9,17.4,24c-6.8,7.1-12.2,15.4-17.4,23.9z" fill="#D40000" /></g>
</svg>