<svg width="227" height="315" xmlns="http://www.w3.org/2000/svg">
    <g transform="matrix(1,0,0,1,13,25)" stroke="none" stroke-width="1" fill="none" fill-rule="evenodd">
        <path d="M19.6,0.8c0.1,79.1-0.1,176.1,0,262.3H182.1V0.8H19.6zM67.2,2.3c28,0.8,56.2-0.1,84.5,0.2c0,0-10.3,18-13.4,23.6c-0.7,1.3-0.7,2.2-0.4,2.7c0.6,0.8,0.6,2.1-0.1,2.9c-0.3,0.3-0.4,0.6-0.4,0.8s0.2,0.4,0.3,0.7c0.5,1.8-0.8,3-2.2,3.5c-0.9,0.4-2.9,0.6-4.4,0.6C121.7,36.8,103.3,28.8,95.8,28.2C90.5,26.7,83.7,27.2,78.1,27.6c-1,0-0.9-2.4-0.9-2.4C76.4,17,70.6,9.8,67.2,2.3zm86,0.9H180V7.4L168.7,18.9c-1.1,1.1-1.9,2-1.9,2l-0.1,10.3c-7.6-4.1-9.1-9-10.5-14.4c-12.7,9.5-13.3,30.1,0.6,40.8c0.1-4.7,3.6-13.7,9.8-14.4l0.1,36-7.6-7.5-16.6,0.2c2.7-4.5,2.8-8,1-12.2C140.6,52.9,136,37.3,136.3,37.3c0,0,0.1-0.3,0.5-0.4c1.4-0.3,2.3-1.7,1.9-3.3c-0.1-0.5-0.1-0.4,0.3-1c1.3-2.3-0.3-4.9-0.3-4.9L153.2,3.2zm-87.9,0l9.9,18.2c0,0-0.1,0.8,0,1.3c0,0.7,0.3,1.3,0.7,2c0.2,0.4,0.4,1,0.5,1.5c0.1,0.9,0.1,0.9,1.4,2.1c0.3,0.3,0.3,0.4,0.2,0.7c-0.4,1.1-0.2,3.3,0.7,6c1.1,3.4,1.4,3.4-0.6,7.9c-0.5,0.9-1,2.2-1.5,3.4c-2.5,5.1-2.9,6.5,1.4,9.2c1.2,0.8,1.5,1.5,1.2,3c-0.2,1.2-0.3,2,0.3,2.7c0.4,0.4,0.7,0.5,0.6,0.8c0,0.2-0.3,1.2-0.2,2.1c0.2,2.3-2.4,5.6-4.8,6.8c-0.4,0.3-0.6-0.1-0.8-0.6C71.8,66,65.7,67.8,65.2,72.9c-0.1,1.4,0,2-0.4,2.3c-0.1,0.1-0.4,0.3-0.4,0.3s-9.2,6-15.1,9.1c-0.4,0.2-0.7,0.6-1,0.6C48,85.3,47.8,85.2,47.6,85c-2.2-4.1-1-9-0.8-10.7c0-0.6-0.6-0.8-1.3-0.8c-1.4,0-3.3,1.4-3.7,2.6c-0.3,1.1-0.6,1.8-0.9,1.8s-0.5-0.4-1.3-2C38,72.7,37.7,72.3,36.1,70.4C34.9,68.9,33.8,68.7,32.6,69.8c-0.8,0.8-0.8,0.1-1.5-0.3c-1.3-0.8-3.1,0-3.2,1.2c0,1,0,1.7-1,1.8c-1.2,0.1-1.6,1.5-1.3,3.6c0.1,1.1,0.2,1.3-0.2,1.7c-1.1,1.3-1.2,2.2-0.6,4.1c1.7,5.2,4.2,8.7,6.5,13.5c0,0-5.7,3.3-9.2,5.3V3.2H65.3zM180.2,8.4L180.4,93,167.7,80.4c0,0-0.3-16.2-0.3-22.8s0.1-13.2,0.1-14.5c0-1.2,0.1-6.4,0.1-11.8c0.1-11.3-0.9-9.9,1.2-12.1L180.2,8.4zM155.4,18.6l0.7,2c-5.3,3.1-11.8,20.2,0.1,32.7L156,55.9C143.5,44.5,145.8,28.1,155.4,18.6zm0.9,2.4c1.9,3.8,3.9,7.1,6.8,9.2c-1.6,3.7-2.2,7.7,0.4,13.2c-1.8,1-4.4,3.6-7,9.1C147.1,42.9,149.2,29,156.3,21zM86.2,28.2c5.2,0,10.7,0.8,15.7,2.3c3.1,16.1,8.7,26.9,8.6,33.2c0,0-0.4-0.1-1.3-0.8c-2.3-1.6-5.3-0.7-6.9,1.4c-1.5,2,0,4.8-0.8,5.9c-1.4,2.2-5.2,6.2-5.9,6.1C95.2,76.2,95.3,76,96.9,73.5c1.7-2.6,3-5,2.4-5.6c-0.2-0.2-0.4,0.3-1.6,2.5c-3,5.2-5.6,8.4-6.6,8C90.6,78.2,90.9,77.7,93,74.8c2.5-3.3,3.2-5.3,3-6.3C95.8,67.8,95.4,69,94.4,71c-1.1,2.1-3.1,4.5-4.7,6.8c-0.5,0.9-1.2,1.3-2,1.7c-0.6,0.3-1.6,0.7-2.2,0.7c-0.3-0.1-0.1-0.3,0.3-0.7C89,76.3,91.7,72.6,93.2,69.1C93.5,68.6,93.1,68,92.8,68.5c-2.4,4.2-5.7,9.4-9.3,11.7c-0.7,0.5-1.9,0.9-2.9,0.8C78.8,81,79.4,80.6,81,79.5c3.5-2.2,8.3-8.6,9-10.8c0.2-0.5,0-0.8-0.3-0.8c-2.8,4.5-6.6,9.5-10.9,11.6c-2.3,1.2-5.3,1.4-6.7,0.7C71,79.6,71.3,79.5,73.2,79.3C77.7,78.9,83,74.6,85.6,70.1c1.6-2.5,0.5-2-1.3,0.5c-3,4.1-8.9,8.1-12.6,7.7C67.9,78.1,65.8,75.2,66.3,72.7c0.3-1.5,1.3-3,3.4-3.5c3.6-0.7,5.9,5,2.7,6c-1.2,0.4-1.6,0.1-1.2-0.3c2.5-1.1,1.4-4-0.7-4.3c-1.3-0.2-2.8,0.7-2.8,2.7c0,1.5,1.2,2.9,3.7,3c2.9,0,7.4-2.1,10.1-6c1.9-3,0.2-2-1.3,0c-1.2,1.8-5.3,4.2-5.6,4.1l0.1-2c0.1,0.4,6.3-3.9,5.9-7.1c-0.2-2.4,0.1-3.1,2.5-3.1c1.8,0.1,4.1,0.7,4.8,1.5c0.7,0.9,1.4,1.1,1.1-0.3c-0.6-2.2,0.1-2.6-1.2-2.2c-0.9,0.3-1.7-0.4-2.6-1c-1-0.7-2.2-1-3.7-1c-1.1,0.1-1.6,0-1.4-1.1c0.1-0.7,0.3-1.4,0-1.9C79.8,55.4,78.4,54.6,76.8,53.5C75,52.1,75.3,52,79.3,42.8c1.6-3.8,1.6-4.6,0.6-7.4c-1.5-4.5-1.8-6.3,1.2-7c1.6-0.2,3.4-0.3,5.1-0.2zm16.7,2.6l1.5,0.4c0.1,0,4.8,16.4,7.5,24.4c0.9,2.5,1.5,5.8,1.7,8.9c-0.1,4.2-2.5,7.3-5.4,7.6c-2.1,0.3-4.3-0.8-5.3-3.1c-0.9-2.2-0.2-4.8,2.2-5.7c4.4-1.5,7.5,4,3.3,5.7c-2.2,0.9-4.3-0.7-3.3-2.6c0.7-1.3,2.6-1.1,3.1,0.2c0.4,1.5,1,0.8,0.7-0.2c-0.8-3.1-4.7-2.3-5,0.5c0,3.5,3.8,4.3,6.1,2.4c1.7-1.6,1.9-4.5,1.5-6.9C110.9,57.2,108,50.6,106,43c-1.1-3.8-2.6-8.3-3.1-12.2zm60.9,0.1l2.8,1.2v9.5l-2.5,0.9c-3.2-4.9-0.5-11.6-0.3-11.6zm-58.2,0.7l2.1,0.8c1.1,6.7,6.6,19.6,8.5,29.1c0.5,5.8,0.6,7.5-3.3,10.6V72h-2.1c0,0,0-0.1,0.9-0.8c5.1-3.8,2.1-12.2,0.2-18.7c-3.4-10.4-6.4-21-6.3-20.9zM85.9,32.2c-0.3,0-0.5,0-0.8,0.1c-3.2,0.1-3.7,0.3-3.7,1c0,1.3,0.5,1.9,3.4,1.6c2.6-0.3,6.3,0.1,8.9,1.2c2.9,1.3,3.6,1.6,4.6,2.1c2.6,1.4,2.2,0-0.2-1.5C93.2,33.4,89.9,32.2,85.9,32.2zm22.9,0.5l2,0.7c0,0,0.5,1.6,0.7,2.5c1.9,8.6,7.1,18.2,7.7,28.3c0.2,3.3-0.4,6.3-2.8,7.8h-1.8c1.9-1.9,3.2-2.5,2.7-9.2c-0.9-8.6-6.5-19.4-8.5-30.1zm3.5,1.4l1.8,0.7c2.1,11.6,12.5,28.9,5.9,37.2h-1.7c1.5-2.3,2.1-4.3,1.9-7.5C119.6,54,114.2,43.8,112.3,34.1zm3.1,1.1l1.9,0.6c2.7,11.7,12.9,30.9,5.6,36.3L121.5,72C127,61.7,118.6,51,115.4,35.2zm3.4,1c0.6,0.4,1.4,0.5,2.1,0.7c2.1,8.9,5.8,17.7,7.5,25.9c0.6,4.6-0.4,7.9-3.2,9.2h-0.6c2.5-3.8,2.1-8.7,0.7-13.9C123.5,51,119.9,43.2,118.8,36.2zM87.9,36.4C87,36.4,86,36.5,85,36.9c-1,0.3-0.9,1.2,0.1,1c0.3-0.1,0.9-0.2,1.2-0.2c2.4-0.4,5.3,0.4,8.8,2.6c0.9,0.5,1.8,1,2,1.1c0.7,0.5,1.3,0.5,1.1-0.1C98.1,41.1,96.8,40,95.6,39.3C93,37.8,90.6,36.4,87.9,36.4zm34.2,0.8l2,0.3c3.7,17.2,11.8,27.8,4.9,34.2h-1.8c1.9-1.9,2.8-5,2.2-8.6c-0.7-3.8-2.6-9.6-4.2-14.8c-1.8-6-3.3-11.1-3.1-11.1zm2.8,0.5l1.7,0.3c2,7,5.3,15.6,7.3,22.8c1.2,4.5,0.7,9.9-2,10.9l-1.4,0.1c2.3-3.2,2.6-6.4,1.6-10.7c-2.2-8.7-5.5-16.2-7.2-23.4zm10.4,0c1.6,7.2,5.7,18.3,7.2,22.1c1.9,3.9,1.3,9.6-1.6,11.9l-1.4,0.1c1.7-1.6,2.3-4.3,2-7c-0.8-7.7-6.2-18.5-8.2-26.7l2-0.4zM127.9,38l1.7,0.2c1.8,7.5,5.1,14.9,7.3,22.5c0.4,1.7,0.8,3.8,0.6,5.3c-0.3,3.2-1.6,5.8-2.8,5.8h-1.1c2.4-2.9,2.3-6.9,1.2-11.2C133.1,53.6,129,45.1,127.9,38zM83,38c-0.7,0.1-0.7,0.7,0.4,1.7c0.7,0.6,0.7,0.4,0.6,0.8c-0.2,1.7,0.1,3.2,0.8,1.5c0.2-0.4,0.4-1,0.7-0.9c0.5,0.2,0.3,1.1,0.5,1.6c0.4,0.8,0,1-1,0.8c-0.7-0.2-0.8,0.2-1.2,0.7C83,45,83.1,45.6,84.3,45.3c0.2-0.1,0.4,0,0.5,0c0.4,0.1,0.8,0.4,1.7,1.1c1.1,0.8,2.7,2,3.8,2.2c1.7,0.3,1.3-0.5-0.1-1.1C89,47.1,87.6,45.8,87.6,45.5s0.3-0.2,2.5-0.8c0.9-0.2,2.2-0.8,2.8-1c0.9-0.5,0.9-0.5,2.4-0.4c2.4,0.1,2.8,0,1.1-1.3C92.9,39.4,88.3,37.7,85.9,38.8c-0.7,0.3-0.7,0.1-1.3-0.2C83.9,38.2,83.4,38,83,38zm49.3,0.3c2.4,9.2,7,17.5,8.1,26.3c0.3,2.5-0.1,5-2.2,7.1h-1.4c-0.2,0,1.9-3.3,1.8-6.2c0-1.5-0.2-3.2-0.6-4.8c-2.7-7.8-5.4-14.9-7.4-22.3l1.7-0.1zm-43,3c0.6,0.1,0.6,0.4,0.4,0.7c-0.3,0.5-0.8,1.5-0.8,1.5s-0.6,0.1-0.8,0c-0.2-0.4,0.6-1.9,1-2.2c0.1,0,0.2,0,0.2,0zm1.5,0.3c0.1,0,0.2,0.1,0.3,0.1c0.7,0.3,1.7,0.8,1.3,1.2c-0.6,0.4-2.7,0.6-2.6,0.4L90.5,42c0.1-0.3,0.2-0.4,0.3-0.4zm-6.6,8.1c0,0-0.1,0-0.1,0.1c-0.1,0,0.2,0.5,0.6,1.1c1.9,2.6-0.8,3.4-2.6,2S77.6,51.6,78,53.1c0.1,0.5,0,0.7,1,0.7c0.8,0.1,1.1,0.1,1.9,0.7c3,2,6.9-0.8,5-3.8c-0.4-0.5-1.3-1-1.7-1zm7.5,4.1c-1.1,0-1.8,0.8-0.4,1c4.9,0.9,1.6,6.1-1.8,3.4C86.3,55.4,82.1,55.4,82.1,57.4c0,0.5,0,0.5,0.7,0.7c1.8,0.3,4.4,1.1,5.4,1.6c0.6,0.3,1.2,0.6,1.4,0.6c2.1,0.8,4.7-0.2,5.3-2c0.4-1.6,0-4.5-3.2-4.5zM30,70.3c0.6,0,1.3,0.6,1.8,1.4c1.2,2,2.6,5.3,3.5,7.1c0.2,0.5,0.2,0.9,0.2,1.1c0.1,1.1,0.4,1.5,1.1,1C37.2,80.4,38,79.6,37,79.5C36,78.7,35.5,77.6,36.1,76.9C36.6,76.4,36.4,76.1,36,76.1C34.6,76,32.5,71.8,33.5,70.9c1.3-1.3,2.8,0.3,6,6.6c1.4,2.8,1.4,5.8,0.2,4.3c-0.4-0.4-0.3-0.2-0.8,1c-0.3,0.9-0.6,1.4-2,2.7c-1.7,1.6-2.7,2.9-2.7,3.2c-0.1,0.5,0.9,0,1.6-0.9c1.6-1.6,1.6-2,1.6,0.1c0,1.8-0.1,2.2,0.3,2.2c0.5-0.1,0.8-1.5,1-3.3c0.3-1.6,1.1-2.4,2.5-3.3c0.4-0.3,0.4-0.4,0.3-1.1c-0.3-2.3,1-6.5,1.6-5.5c0.1,0.3,0.3,0.8,0.5,1.2c0.1,0.6,0.5,1.3,1,1.3c0.7,0.5,0.7,0.8,1,2.8c0.1,0.6,0.3,1.6,0.5,2.1c0.4,0.9,0.7,1.5,0.5,1.8c-0.1,0.1-0.4,0.4-0.4,0.4L34.7,93.3c0,0-0.9,0.5-1.2,0.7c-1,0.4-1.5,0.1-2-0.6C29.1,89.7,27.4,85.6,25.7,81.8c-1-2.2,0-3.7,1.3-1.9c0.5,0.7,0.3,1.2,0,2.5c0,0.3,0.2,0.2,0.6,0.2c0.7,0,1,0.6,1,1.6c-0.4,1.5,0.2,0.7,0.4,0.6c0.6,0,0.7,0.3,1,0.9c0.2,0.9,0.6,0.7,1.1,0.1c0.5-0.5,0.5-0.5-0.5-1.6c-1.5-1.7-3.7-5.6-4.3-8c-0.2-0.6-0.1-1.1,0-1.5C27,73.1,28,73.1,29.1,75.3c0.2,0.4,0.6,1.1,0.8,1.4c0.4,0.6,0.7,1.2,0.7,2.1c-0.3,0.8-0.4,0.8-0.1,1c0.7,0.2,1.9,1.5,1.9,2.6c0.1,1.1,0.3,1.7,1.2,1.1c1-0.8,0.6-1.1-0.4-2.1C32.1,80.1,32.1,79.1,32.7,78.2c0.1-0.3,0-0.4-0.3-0.4C31.1,77.9,30,76.4,30.8,75.2c0.4-0.7,0.3-0.9-0.2-0.9c-0.3,0-0.8,0-1-0.1C29.2,73.5,28.5,72.6,28.5,71.8c0.4-1.1,0.9-1.5,1.5-1.5zm72.2,0c2,1.3,4,2.6,6.2,3.1C103.2,82.9,94.9,87.9,87.9,89.9c0.2,1.2,0.4,2.4,1.5,3.2c0-0.2-0.5-2.4-0.4-2.8c9.6-2.5,18.1-12,20.3-16.9l42.4-0.5C120.2,103.3,119,146,144.6,181.8l-2.9,1.7C121.9,153.7,122.1,125,128.1,105.8c4.2-13.6,11.7-24,17.4-30c0,0-23-0.3-34.4,0.1c-1.7,2.6-3.2,4.7-5.4,7.1c0,0,5.8-5.7,5.6-6.6c10.6,0,21.6-0.7,32.1,0.1c-12.3,14.9-18.5,30.3-19.5,44.8c0,1.9-0.2,0.8-0.8,1.5l-1.9,3.1-1.6-3.2c-1.1-0.3-3.2,0.2-4.1-0.1c-4.3,19.6,0.1,43.2,5.8,58.6c0,0-1.4,0.8-3.2,0.7c-1.9-0.4-2.4,0.1-4.1,0.5c-1.9,0.3-2.6,0.3-3,0.8c-0.3,0.3-0.7,0.7-1.2,0.9c-4.7,1.8-10.2,8.2-10.2,8.1l-5.2-2.3c4.8-9.5,10.4-12.9,20.2-17.1l-0.9-4.2c-10.5,4-17.1,8.7-22.4,17.8C84.9,186.3,59,186.2,59,186.2c10.6-12,18.9-30.3,19.8-44.5c0.2-2.8-0.2-1.4,1-2.3l2-2.2,1.5,2.2c0,0,1,1.4,1.7,0.2C87,119.8,84.9,97.2,75.4,81.5c1.7-0.1,3.4-0.2,5,0.8c3.7,8.4,5.9,18.9,6.9,26.7c1.2,9.9,1,21.1-0.2,30.6l0.6,0.1c1.8-12.3,1.2-25.5-0.5-36.9C86.4,96.8,83.5,87.4,81.6,83.1C81.1,81.9,80.7,81.6,81.2,81.4c11.5-1,16.8-4.9,21-11.1zm-32,1.1c0.8,0,1.6,0.7,1.6,1.6S71,74.6,70.2,74.6c-0.9,0-1.6-0.7-1.6-1.6s0.7-1.6,1.6-1.6zM157,72.2c-3.4,3.1-6.1,6.3-8.9,9.7c8.4,11.7,17.8,24.4,25.7,34.5c0,0,2.7-1.6,2.7-1.8c0-0.1-0.2-0.7-0.2-0.5c-0.2,0.2-2.2,1.4-2.2,1.4l-25-33c0,0,1.3-1.6,1.7-2.2c2-0.6,7.4-7.3,7.6-7.2c4.3,3.3,17,17.1,22,21.4v38.4c-0.5,1.5-14.1,7.5-23.7,29.6c-4.8,2.7-10.2,4.2-15.2,6.5c0,0,1.3,2,1.9,2.6c-0.8-1.7-0.9-2,0.8-2.7l36-14.8-0.1,3c-3.6,2.8-27.4,20.2-34.8,24.3c-34.4-48.3-12.4-89.6,7.6-109L157,72.2zM44.9,74.8c0.9,0,0.7,2.2,0.4,3c-0.7,0.5-1.4,0-1.4-1c0-0.3-0.1-0.6-0.2-0.7c-0.5-0.3,0.4-1.3,1.2-1.3zm21,1.4c0.8,0.6,1.1,1.4,1.4,2.2c-1.1-0.2-3.9-1-2.6-1.6l1.2-0.6zM60.7,79c24.9,37.9,23.8,78-4,108.5l35.1-0.1c4.5-8.9,11.9-14.3,21.4-17.6l0.8,2.8c-10.9,3.5-16.4,9.4-20.8,17.5H51.4c16-17.4,23.4-32.1,24.5-52C77.1,119.2,72.3,101.9,57.7,81l3-2zm7,0.5l5.9,2.8-0.9,6-6.1-2.8,1.1-6zM57.2,81.2c31.3,47.7,17.9,81.2-7.1,109.2H45.4l-10.7-10,0.2,61c0,0-10.5,10.3-11.7,11.6c-1.2,1.1-2-0.6-2-0.6V171.5l0.4-3.2,0.2-17.4,6.7-3.6,25,33c0,0-1,1.5-1.5,1.8c0.5,1.2,2.3-1.8,2.5-2.3c-9.1-11.3-26-33.5-26-33.5l-7,3.7c0,0,0.2-14.5,0.1-20c0.2-1.3,1.2-1,1.9-1.6c9.1-5.9,16.6-14.5,23.1-29.2c4.8-1.6,9.9-3.8,14.8-5.9l-7-10.6,2.8-1.5zM38,81.8c-0.3,0-1,0.3-1.9,1.1c-1.6,1.6-3.9,4.1-3.9,4.5c0.5,0.2,0.9,0,1.2-0.4c1.4-2.1,3.6-2.9,4.9-4.7c0.2-0.4,0-0.5-0.3-0.5zM53.8,84c0,0,4.8,7.1,6.1,9C47.1,98.1,33.7,104.9,21.8,109.2v-2.8c0,0,22.3-16.9,32-22.4zm19,4.7l4.8,2.5-1.4,5.4-4.8-2.7,1.4-5.2zm4,9.1l3.9,2.8-1.8,4.7-4-2.8,1.9-4.7zm-32.2,3.3c0,0-0.6,2.2-1.6,4.1c-4.9,8.5-9.6,16.1-19.5,22.7c-0.3-0.4-1.4-2.3-1.4-2.3L22,123.1c5.2-4.2,9.7-7.3,16.6-19.7l2-0.8,1.7,0.7,1.2-2.1,1.1-0.1zm20.5,0.1c-4.5,9.7-9,19.6-16.2,27.2l19.8,27.8c6.5-19.6,4.1-38-3.6-55zm-24.9,2.1l-0.9,1.6,1.6,1,1-1.7-1.7-0.9zm-2.7,0.2c-3.5,8-8.9,14.2-16,18.7l-0.2-11.8,16.2-6.9zm1.3,2.4l-0.9,1.6,1.6,1,1-1.7-1.7-0.9zm40.4,0.3l3.6,3.4-2.1,3.8-3.7-3.1,2.2-4.1zm54.7,1.7c0,0,0,0,0,0c-6.3,19.6-4.4,38.3,4.2,54.7c4.2-10.6,7.7-17.7,15.9-28.9c-5.1-6.7-19.6-26-20.1-25.8zm-96.5,0.3l-1,1.6,1.6,1,1-1.6-1.6-1zm27.4,2.3c5.6,13.6,5.1,25.8,2.1,36.5L52.8,129c5.2-6.4,8.6-12.6,12-18.5zm-28.8,0l-1.1,1.6,1.6,1.1,1-1.6-1.5-1.1zm-1.6,2.3l-1.2,1.5,1.5,1.2,1.2-1.5-1.5-1.2zm46.5,1.6l3.2,3.1-2.1,3.9-3.2-3,2.1-4zm-48.4,0.7l-1.2,1.5,1.4,1.2,1.3-1.4-1.5-1.3zm103.1,0.5l14.2,18.5c-4.7,5.7-8.7,12.4-12.2,19.6c-4-12.5-5.8-24.8-2-38.1zM30.5,117.4l-1.3,1.4,1.4,1.3,1.3-1.3-1.4-1.4zm33.3,1.9l-6.5,9.5,7.4,9.6c0.8-5.2,1-11.3-0.9-19.1zm-35.4,0.3l-1.4,1.3,1.3,1.4,1.4-1.3-1.3-1.4zm-2,1.9l-1.5,1.2,1.2,1.4,1.4-1.2-1.1-1.4zM82,122.4l2.7,3.2-2.8,3.2-2.5-2.9,2.6-3.5zm34,0.6l1.8,0.1c-3,29.6,2.9,44.5,8.1,57.5c0,0,0,0.6-0.2,0.7c-0.9,0.3-2.6,0.6-3.9-0.6c-7-18-8.5-40.2-5.8-57.7zm-92,0.4l-1.6,1.1,1.1,1.5,1.6-1.1-1.1-1.5zm113.8,1c-0.4,0-0.8,12.2,0.9,18.1l6.5-8.9-7.4-9.2zm-16.9,2l2.2,3-2.4,3.2-2.3-3,2.5-3.2zm-98.7,0.8c0.1,0,0.3,0.3,0.6,0.6c0.4,0.3,0.3,0.3-0.1,0.6c-0.5,0.5-0.7,0.4-0.7-0.3c0.1-0.6,0.1-0.8,0.2-0.9zm59.9,2.3l2.4,3.5-2.6,3.4-2.3-3.6,2.5-3.3zm38.6,4.4l2.5,3.1-2.2,3.4-2.7-3.2,2.4-3.3zm59,0.7l0.3,3.6-0.9-1.4-1.6,1.3,1.1,1.5,1.4-1.1,0.1,1.4c-9,6.6-12.9,14.1-16.5,19.7l-1.6,0.7-1.9-0.6-0.9,1.6-1.5,0.4c-0.1,0,3.1-6.9,8.6-13.9c4.8-6.3,13.4-13.3,13.4-13.2zm1.1,5.6V153l-16,6.3c4.1-7.2,9.1-13.8,16-19.1zm-4-1.6l-1.5,1.2,1.3,1.5,1.4-1.2-1.2-1.5zm-2.3,2l-1.4,1.2,1.3,1.4,1.4-1.2-1.3-1.4zm-53.6,0.7l3,3.2-2.2,3.9-3.2-3.1,2.4-4zm51.3,1.3l-1.3,1.4,1.5,1.4,1.3-1.4-1.5-1.4zm-2.1,2.2l-1.2,1.4,1.5,1.4,1.3-1.5-1.6-1.3zm-2,2.4l-1.2,1.5,1.6,1.3,1.2-1.5-1.6-1.3zm-46.2,2.3l3.8,2.5-1.9,4.5-3.8-2.9,1.9-4.1zm44.3,0l-1.1,1.6,1.7,1.2,1.1-1.6-1.7-1.2zm-1.7,2.5l-1,1.6,1.7,1.1,1-1.6-1.7-1.1zm-1.5,2.4l-1,1.7,1.8,1,1-1.7-1.8-1zm-1.4,2.5l-1,1.7,2,0.8,0.8-1.5-1.8-1zm-37.7,1l3.9,2.7-1.7,4.7-4.1-2.9,1.9-4.5zm56.1,4.7v98H137.7c0,0-2-3.5-6.2-11.7c-1.8-3.5-3.3-4.9-3.4-7.7c0.1-1.6-0.6-3.4-1.9-4.2c-0.4-0.2-1.2,0.1-0.9-0.6c0.2-0.7-0.6-1.9-0.8-2.2c-0.3-0.4-0.1-0.5-0.1-2.1c-0.1-1.6-0.2-2.3-0.5-3.5c-0.8-3-1-4.5-0.5-6c1.2-4,2.5-7,4.2-10.7c1-2.2,0.9-3-2.2-4.6c-2.2-1.2-2.5-1.2-2.3-2.9c0.2-0.8,0.3-1.3,0.1-1.7c-0.1-0.2-0.4-0.5-0.7-0.7c-0.3-0.3-0.2-0.8,0.1-1.2s0.3-0.9,0-1.8c-0.6-2,0.8-4.5,3.5-6.3c1.1-0.8,1.1-0.6,2.3,0.7c3.6,3.8,8.9,1.4,8.9-3.9c0-1.7-0.5-1.6,1-2.4c5.3-3.4,16.2-9.5,16.1-9.4c0.7,1.5,0.9,2.7,1.4,4.3c0.4,1.3,0.3,1.4,0.2,4c-0.1,2.4-0.2,2.9,0.3,3.1c3.2,0.3,3.9-0.8,4.5-2.8c0.2-0.9,0.7-0.7,1.1-0.3c1.1,2.1,2.7,4.4,3.6,6c1.3,1.9,3.4,2.9,4.5,2c0.2-0.8,0.4-0.8,1.8-0.5c1.6,0.4,2.6-0.5,2.8-1.8c0-0.5-0.3-0.5,0.6-1c2.2-1.6,1.3-3.9,1-5.2c0,0,1-0.6,1-1.9c0.1-6.6-5.6-16.2-5.5-15.9l8.3-5.1zm-53.7,3.8l4.5,2.2-1.1,5.5-4.6-2.1,1.2-5.6zm44.1,2.1c2.6,3,4.5,8.1,5.5,11.4c0.4,1.7,0.5,3.5,0.1,3.8c-0.5,0.3-0.6,0-0.6-1c0.1-0.8,0.1-1.5-0.2-1.4c-1,0.2-1.1-1.3-1-1.7c0.1-0.2,0.2-0.4,0.3-0.5c0.2-0.6-0.4-0.6-1.1-0.6c-0.6,0.1-0.8-0.3-0.7-0.9c0-0.6-0.9-0.5-1.4,0c-0.4,0.4-0.3,0.9,0.3,1.3c0.8,0.5,1.6,1.8,3.6,6.2c1.1,2.6,0.8,4.4-0.6,4.4c-0.9-0.1-2-2.7-2.9-4.6c-0.2-0.5,0.4-1,0.6-1.3c0.5-0.7,0.4-0.9-0.4-0.9c-0.7,0-1,0-1.4-0.9c-0.2-0.3-0.3-0.8-0.3-1.1c0.4-1-0.4-1.3-1.1-0.9c-0.9,0.4-0.9,1.2,0.5,2.6c0.9,1.5,0.7,1.4-0.2,2.5c-0.2,0.3-0.1,0.5,0.3,0.5c1.1-0.3,2.3,1.7,2,2.4c-0.3,0.3-1.3,1.4-0.4,1.2c1.8-0.5,3,2.1,1.9,3c-1.6,0.9-2,0.6-4.5-4.3c-0.7-1.6-1.6-3.2-1.8-3.4c-0.1-0.2-0.1-0.6-0.1-1c0.1-0.9-0.3-1.1-1.1-0.7c-0.5,0.1-1.1,0.6-0.3,1c0.8,1.5,1.1,1.8,0.7,2.1c-1.1,0.9-0.6,0.9,0.6,1.1c0.5,0.2,0.8,0.5,1,0.9c0.6,1.4,1.7,3.3,1.8,3.7c0.4,1.1-0.3,1.5-1.2,1.5s-1.3-0.7-1.8-1.4c-1.7-2.4-2.9-4.7-4.7-7.5l0.3-2.5c0,0,0.4,0.1,0.7,0c0.5-0.3,0.8-1.1,1.1-2.1c0.4-0.9,3.1-3,4.2-4.2c0.2-0.1,0.3-0.3,0.3-0.4c0-0.4-1.2-0.2-1.9,0.7c-1.2,1-1.6,0.7-1.6-0.6c-0.1-1.6-1.1-0.8-1.1,0.8c-0.1,1.2-0.6,2-1.4,2.6c-1.6,1.3-1.4,1-1.3,2.8c0.1,3.2-1.1,5.8-1.9,4c-0.2-0.6-0.6-1.3-1.3-1.3c-0.5,0-0.7-0.5-1-1.7c-0.4-2-1-3.3-1.5-5.1l15-8.5zm-40.2,6.8l5.2,2-1,5.5-5.1-1.9,0.9-5.6zm39.8,0.5c0,0,0,0-0.1,0c-1.5,1.1-2.8,2.4-4.4,3.3c-0.6,0.4-1.3,1.3-1.3,1.6c0,0.2,0.7,0.2,1.4-0.1s4.4-3.9,4.4-4.2c0.3-0.3,0.3-0.7,0-0.6zm-47.9,6.6c1.2,0,0.5,0.4-2.2,2.3c-2.7,1.8-7,7.6-7.5,9.8c-0.2,1,0.4,1.1,1.1-0.3c3.2-6.2,9.2-11.8,14.8-11.6c2.7,0.1,4.1,0.9,1.9,1.2c-6.2,0.8-10.8,4.3-14.8,11.3c0,0.2,0.4,0.2,0.8-0.1c3.7-4.5,7.8-10.5,15.1-10c5.3,0.3,6.8,6.6,2.4,8.7c-3.8,1.9-7.3-2.7-4.1-5.4c1-0.8,1.6-0.5,0.6,0.4c-2.1,2,0.5,5.4,3.1,4.1c1.5-0.7,2.2-2.9,0.8-4.6c-3.1-3.8-9.7-0.9-14.3,5.2c-0.5,0.6-0.9,2-0.5,1.9c0.7-0.3,1.2-0.9,1.6-1.5c1.6-2.3,2.9-3.5,5.1-4.7c1.7-0.9,1.9-0.8,1.2,0.9c-0.3,0.7-0.5,0.9-1.1,1.3c-2.8,2-4.6,4.6-4.7,6.2c0,1.2,0.9,2.8-0.1,3.1c-1.6,0.8-6,0.1-7.2-1.4c-0.8-1.1-1.1-0.4-0.5,1.3c0.4,1.2,0.4,1.9,1,1.8c0.8-0.5,1.4-0.4,3,0.5c0.7,0.4,2,0.8,2.9,1c1.4,0.3,1.8,0.2,1.7,0.8c0,0.2,0.1,0.8,0,1.1c-0.2,2,1.4,2.6,3.6,3.9c1.3,0.8,0.8,1.5-0.7,5.2c-0.8,1.7-1.4,4-2.4,5.7c-0.9,1.9-1,4-0.4,6.3c1.1,4.5,1.9,6.7,0,7.1c-4.9,0.8-15.7,0.7-21.6-1.6C99.1,220.9,91.1,204,92.2,199.6c2,3.2,10.6,2.3,8-6.4c0,0,0.7-1,2.1-2.4c3.6-3.7,4.5-4.3,2.8-1.1c-1.3,2.5-3,5.8-3,6.4c-0.1,0.5,0.3,0.6,0.6,0.2c0.3-0.3,0.5-1,0.8-1.6c2.1-5,5.8-9.6,8.3-10.7c0.6-0.3,0.6,0,0.2,0.6c-3,3.7-5.3,7.2-6.9,11.7c-0.1,0.4,0.6,0.6,0.8,0.2c2.8-5.9,3.6-7.2,7-11.4c1.4-1.6,2.6-2.5,3.7-2.4c0.8,0.1,0.6,0.3-0.2,1.1c-0.7,0.7-1.6,1.6-3,3.4c-2.6,3.3-5.2,8.6-4.2,8.4c0.1,0.4,0.9-1,1.6-2.4c1.9-3.1,3.9-7.4,8.4-10.1c0.9-0.4,2-0.7,2.9-0.7zm-86.7,1.1l8,8,16-0.2c-2.6,4.1-1.2,10.6,0.2,14.3c2.9,7.4,7.1,19.5,6.8,19.7c0,0-2.3,0.6-2.6,2.1c-0.3,2.2,0.7,2-0.7,4c-0.3,0.5-0.1,1.3,0.2,2c0.2,0.5,0.5,1.2,0.1,1.8L49.2,260.6H22.1v-4.9L35.8,242,35.6,231.9c7.4,2.2,9.9,9.8,10.5,15.4c13.3-12.1,12.9-30.5,0.4-42c-2.4,12.2-11.2,14.7-11,14.5L35.4,183.5zm99.8,1.4c0.9,0.1,2,0.2,2.8,0.6c-0.5,0.4-0.9,0.7-1.2,1.1c-0.5-0.7-1.1-1.2-1.6-1.7zm22.3,0.1c0.7,0,1.6,2.1,1.1,2.6c-0.3,0.3-1.3,0.4-1.6,0.2c-0.4-0.3-0.2-2.8,0.5-2.8zm-25.4,3.7c1,0,1.7,0.7,1.7,1.6c0,1-0.7,1.7-1.7,1.7c-0.9,0-1.6-0.7-1.6-1.7c0-0.9,0.7-1.6,1.6-1.6zM61.5,191l1.3,0.1c-2.2,2.9-2.5,5.5-1.8,9.1c0.9,4.2,7.6,19.7,8,24c0,0.2,0,0.7,0,0.7L67.4,225c0,0-0.1-0.4-0.2-0.6c-2.3-7.7-4.5-13.6-6.1-18.2c-1.6-4.8-4-12,0.4-15.2zm8.8,0.1c0.1,0,0.1,0,0.1,0h1.1c0,0-1.7,3.6-1.8,5.8c-0.2,2.5,0.4,5.3,1.3,7.9c1.9,5.9,4.7,12.3,6.3,19.7c0,0,0.2,0.8,0.2,0.8L75.8,225c0,0-0.2-0.7-0.2-0.8C74.4,217.7,71.1,211,69.2,204.7c-1-2.9-1.7-6.5-1.4-9.2c0.3-1.9,2.2-4.4,2.5-4.4zm14,0c-1.2,1.9-2.3,4.3-2.4,6.2c-0.1,3.4,0.9,6.4,1.9,9.5c3.1,9.5,4.6,14.5,6.2,22.1l-1.6-0.7c0,0-0.1-0.5-0.1-0.6c-0.9-4.7-1-4.3-6.2-20.4C80.9,203.4,79.8,200,80,196.8c0-1.8,1.6-5.4,3.3-5.7h1zm2,0h1.5c0,0-0.8,0.9-1.1,1.2c-2.7,3.8-1.9,7.8-0.5,12.6c1.8,6.6,5.2,14,7,24.1c0,0.2,0,1.1,0,1.1l-1.9-0.7c-1.6-9.2-5.7-18.8-7.7-27.1c-1.2-4.9-0.8-8,1.8-10.6c0.7-0.6,0.9-0.6,0.9-0.6zm-18.8,0h1.2c0,0-2,3.2-2,5.1c-0.3,3.3,0.9,7,2.3,10.9c2.1,6,4.9,13.2,5.8,17c0,0.2,0.2,0.8,0.2,0.8l-2-0.1c0,0-0.2-0.9-0.3-1.3C70.4,215.3,68.2,210,65.5,202.6c-0.4-1.1-1.1-5.6-0.3-8.5c0.6-2.3,2.3-3,2.3-3zm-3.1,0l1.3,0.1c0,0-0.2,0.3-0.7,1.1c-2.3,4.2-1.2,7.9,0.2,12.1c1.8,5.6,4.8,12.5,6.6,19c0.1,0.3,0.3,1.4,0.3,1.4H70.3c0,0-0.4-1.3-0.4-1.5c-1-6-6.5-16-7.9-23.6c-0.8-4.1-0.1-6.6,2.4-8.6zm16.7,0c0,0-2,3.5-2.2,5.4c-0.3,3.7,0.8,6.8,2.2,11c2.3,7.3,5.6,15.8,5.9,19.7c0,0.1,0,0.6,0,0.6l-2-0.7c0,0-0.1-0.4-0.1-0.6c-1.8-7-3.8-14-6.6-22c-0.7-2.6-1.6-5.3-1.6-7.6c0.5-3.1,1-3.9,2.8-5.7l1.6-0.1zm8.8,0.1h1.7c0,0-0.5,0.2-1.7,1.5c-6.4,5.9,4,22.5,6.4,37.7c0,0.2,0.1,0.7,0.1,0.7l-1.8-0.6c-0.1-0.8-0.3-1.7-0.5-2.5c-1.9-7.8-4.5-15.7-6.9-23c-1.3-5.2-1.8-9.9,0.6-12.5c0.7-0.9,2.1-1.3,2.1-1.3zm-16.7,0H75c-1.3,1.6-2,4-2.1,6.2c-0.1,2.6,0.6,5.1,1.5,7.8c1.7,5.5,4.2,11.4,5.9,18.8c0.1,0.4,0.2,0.8,0.2,1c0.1,0.3,0.3,0.8,0.3,0.8l-1.9-0.3c0,0-0.1-0.5-0.3-0.7c-0.2-0.4-0.3-0.9-0.5-1.5C77.2,219.5,74,210.8,72,204.6c-1.6-3.8-2-10.5,1.2-13.4zm21.6,0c2.2-0.1,4.2,1.8,4.7,3.6c0.5,1.9-0.1,4-2.2,5.1C94,201.6,90.4,197.1,93,194.6c2-1.9,5-0.5,4.3,1.9c-0.4,1.6-2.8,1.7-3.1,0.1C94,196,93.8,195.5,93.6,195.8c-1.2,2.9,2.9,4.3,4.6,1.6c1-2.2-0.9-5-3.8-4.5c-3.9,0.8-4.3,5.8-2.7,11.6c2.3,9.2,7.7,21.6,7.7,27.3c0,0.1,0,0.3,0,0.3l-1.7-0.5c0,0,0-0.1-0.1-0.2c-1-7.9-6.8-21.1-8.5-31.2c-0.8-4.6,1-8,5-8.9c0.3,0,0.5-0.1,0.7-0.1zm-16.9,0.1c-1.2,1.6-2,4.1-2.1,5.8c0,2.5,0.9,5,1.7,7.7c1.8,6.5,6.3,18.6,6.1,20.9c0.1,0.2,0.2,1,0.2,1l-1.7-0.6c0,0-0.1-0.1-0.2-0.4c-0.6-2.2-3.3-11.8-6.3-20.2c-1.2-3.3-1.8-5.9-1.7-8.1c0.2-3.1,1.1-4.4,2.4-6.1h1.6zm32.5,10.9c-4.4,0.2-4,5.7-1.2,6.6c1,0.2,1.5,0,1.7-0.2c0.2-0.3,0-0.6-0.7-0.7c-1.8-0.6-2.5-2.8-0.8-3.8c0.9-0.5,2.4-0.1,4.1,1.2c3.2,2.3,7.1,2.5,6.6,0.1c-0.1-0.6-0.4-0.7-2.7-1c-1.9-0.2-2.7-0.8-3.6-1.3c-1.3-0.7-2.4-1-3.4-0.9zm-63.5,5c11.5,11.3,9.8,28.9,0,37.8c-0.2-0.7-0.6-2.5-0.7-2.4c7.4-7.7,10.9-20.4,0.2-33.3c0.1,0,0.2-1,0.5-2.1zm71.9,0.3c-0.1,0-0.2,0-0.3,0.1c-3,0.8-3.6,3.7-1.7,4.9c1.2,0.8,2.1,0.3,0.6-0.6c-1.2-0.7-0.6-2.8,0.9-2.8c0.7,0.1,1.1,0.4,2.8,1.6c1.4,1,2.7,1.1,3-0.3c0.2-0.8-0.1-1.2-0.9-1c-0.4,0.1-0.7-0.1-1.2-0.5c-1.2-0.8-2.5-1.4-3.2-1.4zm-73,2.2c10.3,12.1,7,24.7,0,32.1c-1.9-5.7-6.6-9.3-6.6-9.3c1.8-3.9,2.8-8-0.5-13.2c3.1-2.8,5.6-5.9,7.1-9.6zm67.1,4.4c-0.5,0-0.4,0.5,0.8,1.3c2.7,1.9,2.9,2.2,0.3,2.2c-0.7-0.1-1.7,0.4-2.3,0.6c-3.5,1.1-3.6,1.1-5.3,0.7c-0.5-0.2-1.1-0.4-1.3-0.2c-0.4,0.4-0.8,0.6-0.3,1.1c0.3,0.4,0.9,0.7,1.7,1.1c4,2.3,4.4,2.9,9.1,3c0.5,0,0.8-0.3,1.1-0.3c0.8,0,1.2,0.2,2,0.9c1.4,1.3,1.4,0.4,0.6-1.3c-0.4-0.9-0.8-1.2-0.6-1.8c0.5-1.6-0.2-1.9-1.2-0.5c-0.6,1-0.7,1-1.4-0.4c-0.8-1.7-0.4-2.5,0.9-1.4c1,0.9,1.2,0.2,1.6-0.4c0.5-0.9,0.5-1.7-0.5-1.6c-0.5,0-1-0.3-1.4-0.7c-0.8-0.9-2.3-2-3.8-2.3zm1.1,4.7c0.1,0,0.2,0.1,0.2,0.2c0,0.6-0.4,1.7-0.7,2.3c-0.1,0.3-0.3,0.3-0.5,0.4c-0.8,0.1-0.9-0.1-0.7-0.6c0.3-0.8,0.5-1.9,1.6-2.3c0,0,0.1,0,0.1,0zm-2.1,0.4c0.3,0,0.4,0.1,0.2,0.4c-0.2,0.6-0.6,1-1,1.4c-0.6,0.5-1.7-0.8-1.2-1.2c0.7-0.2,1.2-0.5,1.8-0.6c0.1,0,0.2,0,0.2,0zm-74,0.9c0.2,0,0.4,0,0.6,0.1c2.5,3.4,2.3,8.6,0.3,11.4c-0.1,0.2-0.2,0.3-0.5,0.2c-0.8-0.5-1.9-0.7-2.7-1v-9.9c0.8-0.2,1.5-0.8,2.3-0.8zm65.9,0.8c-0.2,0-0.3,0.1,0,0.4c3.6,2.6,8.6,5.7,13.2,4.5c0.5-0.1,0.8-0.3,0.7-0.7c0-0.3-0.5-0.6-1-0.4c-1.1,0.3-3.1,0.3-3.9,0.2c-3.2-0.6-6-2.6-8.5-3.8c-0.2-0.2-0.4-0.2-0.5-0.2zm-1.1,2.5c-0.1,0-0.1,0.2,0,0.5c0.5,1.5,5.6,5.1,9.7,6.3c3.5,1,8.5,0,8.2-1.7c-0.1-0.8-0.7-1-3-0.8c-4.9,1-9.6-1-13.2-3.3c-1-0.6-1.5-1-1.7-1zm-32.2,2.1c2.2,0,4.3,0.2,6.6,0.6c4.5,0.7,9.7,2.1,14.1,4.2c7.4,2.8,16.8,5,24.8,4.7c1.9,0,5.4-0.1,6.1-0.4c1.8-0.4,2.3,0,2.7,2.2c0.1,0.5,0.2,0.7,0.8,1.1c1,0.6,0.8,1.3,0.7,2.7c-0.1,1.2,0.6,1.8,3.5,7.2c3.3,6.1,6.5,13.1,6.5,13.1c-28.7,0-56.1-1.1-85.4-0.2c2.6-6.3,9.8-17.6,14.3-26.7c-1-2.8,0.3-3.3-0.3-4c-0.9-1.5-0.2-3.7,1.7-4.2c1.4-0.2,2.6-0.3,3.9-0.3z"
        fill="#131F67" />
        <path d="M51.2,260.9c0,0,9.4-19.1,13.4-24.8c5.7-7.3,31.4,3.1,44.2,5.8c5.2,1,17.2,0.5,17.2,0.5l10.1,18.3-84.9,0.2zM31.7,239.2l-0.4-59.5,3,1.8,0.6,59.8-12.7,12.3V250l9.5-10.8zm7.7-6.8c3.1-6.1-0.3-13.6-0.3-13.6c1.7,0.4,6.6-8.9,7.1-8.7c7.4,9.3,8.7,23.1-0.4,31.6c-2.3-5.9-6.3-9.3-6.4-9.3zM45,190.3c5.7-5.9,10.2-10.4,14.7-17c0.4-0.5-24-31.7-23.6-32.2c3.8-4.2,8.8-7.3,12.7-12.4c0,0,20,26.4,20.5,26.2c2-8.3,3.5-15.7,3.1-24.4C71.2,108.5,61.8,95,61.7,95.2c-3.1,20.3-34.2,51-40.4,48.8V129.9C21.7,130.6,41,117.3,46.1,99.8c0.4-1.2,15.4-6.1,15.3-6.3C60.7,91.9,54.2,82.6,54.2,82.6s2.6-1.3,2.9-1.3c8.5,10.7,15,24.7,17.1,38.1c2.7,14.4,4.4,41.4-24.3,71L45,190.3zm86-37.2c-4.5-14.1-4.4-28.6-2.3-38.7C131.8,96,143.3,82.9,152.6,72.8h4c0,0-4.8,5-6.5,6.9c-3,3.4-7.4,10.6-7.4,10.6l24,31.5,13.6-2.9c0,0-0.4,14,0,14c-10.6,8.9-18.2,16.9-23.7,29.7c-3.3,1.3-14.4,6.1-14.4,6.1c-5.3-1.3,15.7-34.4,11.7-35C152.2,132.3,134,107.6,133.7,107.6c-8.4,25.9-0.2,53.1,14.5,72.1c-1.6,1.1-3.2,1.9-3,1.7C138.8,172.6,133.3,162,131,153.1zm-43.7-13c0.9,1.5,5.2-31.6-6-58.1c1-0.8,10.3-2.6,10.3-2.6l2.5,8-6.3,2.6,1.1,3.8c4.9-2.4,15.5-6,22-16.8c0,0,31.6-0.3,32.3-0.3c0.7,0.1-6.4,7-13.2,20.8c-3.1,6.4-5.5,14.6-6,24.2c-0.1,1.9-7.3-8.9-7.3-8.9c1.8-9.2,6.6-18.2,11.3-27.2c0,0-7.3-0.5-12.3-0.3C107.8,94,102.8,98.6,90.9,102.7c4.3,14,30.9,20.8,25,19.5c-1.2-0.3-2.7,12.9-1.5,27.7c0.3,11.9,6.6,31.7,6.9,31.5c0,0-4.3,1-4.6,0.3c0.7-0.2-6.3,1.6-6.3,1.6l-2.5-7.4,6.8-3.1-1.1-4.2c-0.1,0-15,4.6-22.3,17.7H58.6C71.2,172.6,76.4,158.9,79.1,140.9c2.7,0.5,8.2-0.8,8.2-0.8zm80.4-119C171.8,17.7,180,8.6,180,8.6l0.1,4.7-9.3,9.8,0.1,60.5-3.2-3V21.1zm-4.4,22.2c-1.6,0.8-5,4.8-6.6,9.3C145.8,42.8,150.3,24.9,156.3,21.1c1.7,3.9,6.7,9.1,6.6,9c-1.2,4.1-2.1,8.3,0.4,13.2zM67.3,2.6L151,2.8c-4.8,9.5-9.2,17.1-14.3,26.4c-2.6,3.2-59.7-10.3-60-9L67.3,2.6z" fill="#E2CF00" />
        <path d="M22.1,248.9l-0.6-79.5,9.5,9.3,0.6,61-9.5,9.2zM65.7,233.5c-2,0.3-0.9-1.5-0.5-3.3c0.2-1-0.7-1.9-0.7-2.2c0-1.7,1.3-2.4,7.1-2.4c13.7,1,20.8,5.4,28.7,7.5c7.5,1.9,15,1.9,23.3,1.7c0.6,0.4,2.8,6.1,2.4,6.7c-18.8,3.8-42.8-10.1-60.3-8zM99.6,192.3c-2-1.4-3.8-1.7-5.7-2c3.2-5.7,7.1-10.9,13.7-14.2l3,7.6c-3.8,2-7.6,4.3-11,8.6zM60,172.7c0,0-2.8,4.6-5.5,6.9C46.6,168.9,28.9,146.2,28.9,146.2L21.4,150c0,0,0-4.4,0.2-4.7C41.8,134.8,55.7,115,61.8,96.4c0,0,3.3,3.3,2.9,4.7c-5.5,14.7-14.9,29.4-28.6,40.4L60,172.7zM85.2,151l25.6,0.1,1.1,8.9c-9.8,3.3-17.9,10.1-25.4,17.9L74.4,177.7C78.3,168.9,83.9,160,85.2,151zm94.6-37.6c0.9,2.5,0,5.2,0.4,5.1c-30.7,15.2-39.4,48.7-39.4,48.7s-2.9-4.6-2.8-5.4c15.9-35.4,26.5-36.5,28.5-40.3l-24.1-31.4,5.5-7.5,25.8,33.9c2.6-1.2,4-2.2,6.1-3.1zm-15.1,45.8c5.2-9.4,10.6-14.8,15.9-18.6l-0.2,12.4-15.7,6.2zM21.6,122.3l0.2-12,15.7-6.8C33.2,113,27.2,118.2,21.6,122.3zM91.9,111.5l-1-8.5c9.6-4.2,18.1-9.8,24.9-17.5c7.3-0.3,12.3,0.2,12.3,0.1c0,0-7,10.3-11.6,26.5L91.9,111.5zM171.2,22.6l8.7-8.9,0.3,79.3-8.8-8.6-0.2-61.8zM94.6,87L91.8,79.2c4.4-1.7,7.7-5.3,10.8-8.8c2,1.9,4.7,2.5,5.6,2.9C109.5,73.6,99.4,85.8,94.6,87zM78.3,27.6c0,0-1.1-0.6-1-1.5c0.4-1.2-1.2-3.8-1.2-3.8c18.6-5.7,45.6,10.3,61.7,6.9c-0.2,1.2,0,2.5-0.4,3.6c0.5,2.2,0.8,2.3-1.4,3.7c-11.2,3.2-23.1-3.7-34.1-6.9c-9-2.9-16.3-2.2-23.6-2z" fill="#D40000" />
        <path d="M66.3,1.5L69.7,8,69.1,8.4c1,1.5,1.7,3.2,2.7,4.8l0.7-0.1c1.1,2.2,1.5,2.9,3,5.5H74.8c0.4,1.1,1.2,1.9,1.3,2.7c0,1-0.3,2,0.3,2.7c0.7,0.8,0.8,1,0.7,1.5c-0.4,1.3,0.7,2.7,1.9,2.5c8.1-1.1,16.3-0.1,24.6,2.4c6,1.9,11.2,4,16.2,5.5c1.6,0.4,4.8,1.2,7.5,1.4c7.6,0.6,11.9-1,10.6-4.2c-0.1-0.2-0.3-0.4-0.3-0.6c-0.1-0.2,0-0.5,0.4-0.8c1.2-1.3,0.5-2.2-0.2-3.6c0,0,9.7-17.6,14.6-26.3L66.3,1.5zm84.5,1.6l-7.1,12.4c-3.8-0.7-4.7,2.5-4.8,3c-4.9-1.3-4.1,5.1-1.7,5.6c0.2,0.9-4,2.1-6.3-0.1c3.5,0.5,4.7-4.1,0.5-5.1c5.5-4.1-4.8-10.3-5-1.8c-4.8-0.8-4.2,5.6-1.1,6.1c-1.6,1.8-6.2,1.8-8.6-1.9c4.1,2.2,6.3-3.4,2-4.9c5.3-4.7-5-9-4.8-1.5c-3.9-2.3-6.6,3.6-1.4,4.6c-0.3,1-7.1,1-8.8-1.7c4.8,1.1,5-4.8,0.8-5.3C108.8,7,97.9,4.2,99.7,11.7C95.5,10,93.9,15.3,98,17c0.2,0.8-6.6,1.5-9-1.5C94.3,14.7,92.4,9.6,89,10c0,0,0.1-0.2,0.2-0.7C90.9,4.2,82.2,3.8,83.4,9.2c0.2,0.5,0.4,1.2,0.4,1.2C81.4,9.9,80,10.9,80.1,13.1c0.6,3,2.2,2.8,4.2,2.2c0.8,0.9-4.8,3.9-8.4,1.2C80.3,15.3,78,10.1,74.4,10.8C74.2,9.1,72.4,6.8,70.1,8L67.7,3.1h83.1zM158,71.9L152.8,72c-3.6,3.7-29.7,27.9-25.3,64.6c1.9,15.6,6.2,29.2,17.8,45.2l3.1-1.8,0.5,0.3,32.2-18.7V156l-37.4,15.8c-0.7-0.8-1.1-1.7-1.8-2.7l15-6.4c0,0,0.4-0.9,0.5-1.3c4.9-12.6,14.9-21.7,23.6-28.7c0-12.3-0.1-38.2-0.1-38.2L158.4,71.9c-2.9,2.7-5.4,5.4-8,8.4L176.3,114.6,174,116.1,148.4,82c3-3.7,6.3-6.9,9.6-10.1zm22.9,22.3c0,0-0.1-58.9-0.3-87.3l-13.4,13.9,0.1,59.6,13.6,13.8zM179.8,12.5l-9.5,9.9,0.1,60.6-2.4-2.4v-59L179.8,9.1v3.4zM87.5,11.1c0.3,0.5,0.2,1.2-0.2,1.7c-2,2.5,4.1,6.7,8.5,5.9c3.3-0.5,6.2-2.5,4.9-4.1c-1-1.2-0.3-2.5,0.9-2.5s2.2,1,1.1,2.4c-2.3,3,1.3,6.5,6.8,6.6c4,0,5.3-0.9,5.1-3.7c-0.1-1.4,0.1-1.7,1-1.9c1.5-0.3,2.2,1.3,1,2.6c-2.6,2.8,0.4,6.9,5.3,7.1c1.8,0.1,2.2,0,4.2-1.1c1.5-0.9,2.1-2.3,1.3-3.3c-1-1.4,0.4-3,1.9-2.3c1.1,0.5,1.7,1.3,0.4,2.8c-1.6,1.8-0.8,3.4,2.3,4.5c2.4,0.8,4.1,0.7,5.2-0.3c0.3-0.4,1.1-1,1.1-0.8c-0.8,1.3-1.4,2.5-1.4,2.5c-5.1,2.3-9-2-8.9-2.1c-5.2,3-9.8,2.4-13.7-2.7c-1,0.6-8.2,1.9-13.4-3.9C95.6,21.2,90.7,20.1,86.3,17.1c-3.2,3-6.6,3.5-10.1,2L75.2,17c0.2-0.1,1.4,2.2,6.9,1.1c1.8-0.3,5-3.5,3.2-5C84.5,11.9,84.5,11.4,85.2,10.7s1.9-0.3,2.3,0.4zM74,13.8c0.3,0.6,0.4,1.6,0,1C73.9,14.5,72.9,13.1,73,13.1c0.4-0.1,0.8,0.4,1,0.7zm105.8,0.5l0.1,78.2-8.1-8-0.4-61.3,8.4-8.9zM86.3,18.1l2.6,1.6H84.3l2-1.6zm14.3,1.4l2.1,2-4.4-0.9,2.3-1.1zm40,1l-1,2c-0.5-0.6-0.7-1.9,1-2zm16.1,32.6c1.6-3.7,3.8-8.4,7.3-9.8C161.4,38,161.7,32.8,163.6,29.9c-2.6-2.4-5.4-5.4-7.1-9.7c-8.3,7.4-9.7,22.7,0.2,32.9zM156.5,21.6l0.6,1.5c-7.5,9.1-5.2,21.2,0.2,27.6l-0.8,1.7c-6.6-7-9.5-21.9,0-30.8zm-44.6,5.2c8.6,2.6,15.6,6.6,25.5,3l0.1,2c-6.4,4.1-19-0.3-27.6-3.4C96.2,23.2,85.5,23.5,77.8,24.1C77.1,24,76.6,22.2,77.7,22.2c14.3-0.1,12-1.9,34.2,4.6zm1.9-3.4l2.9,3C114.6,25.7,112.5,25,110.6,24l3.2-0.6zm43.4,0.7l0.5,0.8c0.3,0.3-1.6,0.5-1.3,0.1l0.8-0.9zm-48.8,5.6c10.3,3.9,21.7,7.8,29.1,4.3c0,0,0.1,1.4-0.8,1.9c0,0-0.8,0.6-3.4,1c-12.1,1-19.9-4.1-29.6-7C100,28.7,94.1,27.4,88,27.1C84.4,27,78.8,27.5,78.8,27.5C77.6,27.4,77.6,26.7,77.6,26c10.5-1.4,20.1-0.4,30.8,3.7zm49.9-3.8c0.1,0,0.2,0,0.4,0l1,1.4-1.2,2c0,0-1.1-1-1.7-2c-0.3-0.7,0.5-1.3,1.5-1.4zm-30.4,0.4l3.3,2.5c-2.5,0.1-5.3,0.2-8-0.9l4.7-1.6zm27.7,1.3c0.2,0,0.5,0.2,0.8,0.8c0.6,1,0.5,1.2-0.7,1.6c-1.5,0.5-1.6,0.4-1.1-1c0.3-1,0.6-1.4,1-1.4zm4.9,0.6l2.2,1.9c-1.2,3.2-2,7.2,0.5,13c-0.3,0.1-1.9,1.6-2.4,1.9c-1.4-0.6-4.5-12.1-0.3-16.8zM158,30.6l-0.6,3.6c0,0.3-2.4-1.7-2.2-2.7c0.5-1.1,1.9-0.9,2.8-0.9zm-4,1.3c0.3,0,0.8,0.7,1.3,1.6c0.5,0.7,0.4,1-0.6,1.9c-1.4,1.4-1.7,1-1.4-1.5c0.2-1.2,0.4-2,0.7-2zm3,3.2c0.2,0,0.3,0,0.5,0.1l0.1,3.5c0,0.3-2.6-0.1-3-1.5c-0.4-0.8,1.3-2.1,2.4-2.1zM153.4,38c0.2,0,0.8,0.4,1.4,0.7c1,0.6,1,0.9,0.2,2c-1,1.3-1.5,1.1-1.7-1.2c0-0.8-0.1-1.5,0.1-1.5zm4,1.3c0.1,0,0.1,0,0.2,0.1c0.5,0.4,1.2,3.9,0.9,4.2c-0.4,0.5-2.7-0.2-3.2-1c-0.5-0.7,1.2-3.3,2.1-3.3zm-2.8,4.1c0.2,0,0.7,0.1,1.4,0.5c0.5,0.2,1.2,0.6,1.3,0.9c0.3,0.6-0.2,1.5-0.8,2.2c-0.3,0.5-0.7,0.1-1.5-1.5c-0.6-1.3-0.9-2.1-0.4-2.1zm4.6,1.5c0,0,0.1,0,0.1,0.1c0.8,0.4,0.7,1.7-0.2,2.6c-1.1,1.2-2.1,0.3-1.3-1.1c0.4-1,1-1.6,1.4-1.6zM94.9,77c-0.7,0-1.8,0.7-2.2,1.3C92.1,79,91.6,78.9,91,78.8c-0.8,0-2,0.2-3.6,0.9c-0.8,0.4-1.3,0.5-2.6,0.6c-0.8,0-1.7,0.2-1.9,0.3S82.1,80.9,81.6,81c-1.2,0.4-0.8,0.7-0.1,2.2c3.3,8.6,5.7,18.7,6.6,26.9c1,9.3,0.7,20.7-0.6,29.4c-3.2,0.1-5.2-0.1-8.6-0.1c-2.3,18.9-8.5,33.8-21,47.2l33.7,0.1c3.8-10.4,21.5-18.3,22-17.7l1,3.8c0,0-12.7,1.8-21.2,18c0.8-0.5,4-0.1,6.1,2c4.2-5.3,11.1-8.8,11.1-8.7l0.2-0.7c0,0,1.3-0.4,2.4-0.6c0.4-0.1,1.1-0.2,1.6-0.4c0.7-0.2,1.1-0.5,2.3-0.4c2.4,0.2,4.8-0.5,4.7-0.5c-7.1-19.9-8.8-37.8-6-58.6c2.6,0,8.4,0.1,8.4,0.1c0.6-5.8,1.3-11.7,3.1-17.2c2.3-7.1,5-13.7,9.5-19.7c2.5-3.8,4.7-6.5,7.3-10.1l-33,0.1C106.8,83.5,98.3,89.7,91.6,92.2C89.3,93.1,89,93,88.6,91.9C87.9,90,87.9,90,89.7,89.5c0.6-0.2,2.6-1.2,5.6-2.6c6.3-3.2,10.7-9.2,13.3-13.2c1-1.6,0.3-1.2-1.4-1.3c-1.6-0.1-2.4-0.6-3.8-1.9c-0.6-0.5-0.8-0.9-1-0.9c-1.9,2.8-5.1,6.3-7.5,7.4zm7.7-6.3c1.5,1.6,3.2,2.6,5.6,2.9C104.5,79.4,99.9,84,94.8,86.8L92.1,79.3c6.5-3.1,8.2-6.1,10.5-8.6zm53.8,2.4c-34.9,32.5-32.9,73.4-8.4,106.6l-2.6,1.6c-22.9-31-27.1-76.7,8-108.3l3,0.1zm-22,4l8.5-0.1-5.8,7.6h-7.8l5.1-7.5zm-1.4,0l-4.7,7.6-12.8,0.1c-7.7,9.6-16,14.2-24.4,17.4L89.5,94c0,0,13.3-3.2,21.9-17L133,77.1zm-13,0.6l-3,3.4,3.1,3.1,2.8-3.2-2.9-3.3zm6.7,0l-3,3.1,2.4,3.2,3.1-3.1-2.5-3.2zm-14.8,0.5l-0.5,5,3.8,1.3,0.6-4.3-3.9-2zm23.5,0.2l-2.8,4.5h4.3l2.9-4.4-4.4-0.1zM91.2,79.6l2.7,7.6-2.4,1.2-2.4-8,2.1-0.8zm-3.3,1.2l2.9,7.9-2.4,0.8-2.6-8.2,2.1-0.5zm3.4,31.3c0.4,11,0.5,17.6-1.3,27.3c-0.1,0.5-2.1,0.1-2.1,0.1c0.3,0,1.1-11,1.1-17.9C88.8,108.4,86.6,95.4,81.5,82.3c1-0.6,3.4-0.9,3.4-0.9c3.2,9.9,6.1,20.5,6.4,30.7zM57.1,81.5c11.3,15.1,19.3,35.5,18,55.6C73.8,160.5,65,174,49.5,190.2l-4,0.1C63.8,172.6,71.9,157.5,72.6,137.5C73.3,114.5,66.3,99.2,54.6,83l2.5-1.5zm-36,20.7v5.5L59.5,91.1,54,82.9,21.1,102.2zM111,84.2l-4.2,0.3,0.1,4.2,4.4-0.1-0.3-4.4zm37.2-0.8l24.8,32.9-6.1,4.6-23.7-30.9,5-6.6zm-19.5,2.3l7.5,0.1-2.9,4.8-7.2-0.1,2.6-4.8zm-1.4,0.1c-3.4,6.4-8.1,13.7-10.7,25.5H92.1c-0.1-2.7-0.4-5.4-0.8-8C101.8,99.4,110,93.5,116,85.9l11.3-0.1zm4.6,0.3l-3.2,1.9,1.9,2.3,3.5-1.4-2.2-2.8zm-29.2,2.4l-1,4.2,3.9,1.5,0.8-4.9-3.7-0.8zm22.9,3.1l7.1,0.1-3,6-7.1-0.1,3-6zm17-0.8l23.5,30.7-2.2,1.8-23-30,1.7-2.5zm-14.3,1.3l-3.3,2.7,2.5,2.8,2.9-2.4c0.1,0-2.1-3.1-2.1-3.1zM97.1,92.3l-1,4.1,4.1,1.1,0.7-4.4-3.8-0.8zM91.3,95l-0.8,4,3.9,1.1,0.8-3.9-3.9-1.2zM59.2,94.6c0.2,0-0.6,4.8-1.9,5.7c-0.5,0.4-0.9,0.3-1.4-0.3c-0.3-0.4-2-3-2-3l1.4-0.7C57,99,57,97.7,57.6,95.4l1.6-0.8zm-6.4,2.8c0.5,0,1.2,0.7,2,2c1,1.9,1,2.1-0.8,2.6c-3.2,0.9-4.4,1.1-3.4-1.1c1.1-2.3,1.5-3.5,2.2-3.5zM62.3,97l2.2,3.8C55.7,123.4,41.6,139.5,22,149.3v-3.7C45,132.4,54.4,116.8,62.3,97zm59.9,1.7l6.9,0.1-1.8,5.3h-7.4l2.3-5.4zM50.7,98.4C45.1,111.9,37.4,123.7,22,133.7l-0.1-3.6C39.2,119.6,46.7,100,46.7,100l4-1.6zm87.6,0c4.1,0.1,8.4,4.6,7.9,8.3c-0.3,2.6,0.2,4.6,0.9,3.5c1.6-2.4,6.2-0.8,6.2,2.1c-0.1,1.5-1.1,1.7-1.6,0.3c-0.9-2-3.3-2-3.6,0.1c-0.4,2,1.3,3.4,5.8,5.1c5.2,1.2,8.3,5.9,6.5,8.6c-0.7,0.7-1.1,0.9-1.2,0.5c0-0.1-0.1-0.6-0.3-1.2c-0.6-2.8-1.9-4-3.6-3.1c-0.8,0.5-0.7,1.2-0.2,2c0.6,1.2,0.2,1.6-0.9,1c-1.8-0.9-2.4-3.1-0.6-4.1c2-0.8,1.3-1-1.3-1.9c-5.7-1.9-8.1-5.5-8.4-12.3c0.1-3.1-0.3-4.2-1.8-4.7c-1.3-0.4-2.8,1.3-1.9,2.2c0.5,0.5,1,1,0.7,1.2c-0.9,0.9-3.1-0.5-3.1-2c0-1,0.4-1.2,1.9-2.3c0.4-0.4,0-1-0.6-1c-2.2,0.8-2-2.2-0.8-2.3zm-12.9,0.8l-3.4,2,1.8,2.5,3.8-1.8-2.2-2.7zm-67.3,2c0.4,0,0.7,0.3,0.7,0.7s-0.3,0.7-0.7,0.7s-0.8-0.3-0.8-0.7s0.4-0.7,0.8-0.7zm7.1,0.3c7.3,16,9,34.4,3.9,52.7L49.4,128.4C57,119.8,62,110,65.2,101.5zm-26.7,1.1l-17.6,7.5-0.1,13.3c9.8-6.8,14-13.7,17.7-20.8zm16.9-0.1c1.7,0,0.9,4.7-1.4,6.3c-0.8,0.6-1.4,0.6-1.6-0.7c-0.2-0.7-0.9-2.1-1.7-3.2c-1.1-1.3-1.1-1.4,0.4-1.4c1.7,0,3-0.8,4.3-1zm-1.7,2c-1.3,0-1.7,0.6-0.9,1.4c0.6,0.7,1.1,0.6,1.6-0.4c0.2-0.6,0-1-0.7-1zM21.9,121.8L22,110.5,37,104.1c-3,6.6-8.6,13.1-15.1,17.7zm133.8,9.1l-2,2-19.5-25.5,1.3-3.2,20.2,26.7zM49.1,105.1c0.7,0,2.2,2.3,2.6,3.9c0.3,1.2,0,1.5-2.3,1.8c-1,0.3-3.5,0-3.3-0.7c0.4-0.9,2.8-5,3-5zm70.5,0.2l7.1,0.1-1.7,5.9-7.4-0.1,2-5.9zm3.1,0.4l-3.3,2.3,2.6,2.6,3.5-2.2-2.8-2.7zm11.1,2.5l19.7,25.7c-5.9,7.5-11.7,16.2-15.6,27.6c-7-16.5-9.5-32.6-4.1-53.3zM54,110.4c0.4,0,0.7,0.3,0.7,0.7s-0.3,0.8-0.7,0.8s-0.8-0.4-0.8-0.8s0.4-0.7,0.8-0.7zm-2.3,1c1.2,0.1,0.1,4-1.8,5.5c-1.4,1.1-2.1,0.6-2.4-1.5c-0.1-0.8-0.9-2-1.6-3c-0.8-1.2-0.4-1.3,1.5-0.9c1.4,0.3,3,0,4.3-0.1zm65.7,1h7.5l-1.2,8.9-6.3-8.9zM45,112.8c1.1,1.1,2.6,4.9,1.9,5.2C46,118.3,42,117.9,41.5,117.4c-0.3-0.3-0.3-0.3,0.4-1.2c0.3-0.5,1-1.5,1.5-2.2c0.4-0.5,0.9-1.8,1.6-1.2zm4.1,0.1c-1.1,0-1.2,0.2-0.7,1.4c0.5,1,0.8,1.1,1.5,0.5c1.1-1,0.6-1.9-0.8-1.9zm130.6,0.8l0.2,4.4c-28.6,14.2-39.3,48-39.4,48l-2.1-3.9c13.1-32.6,30.6-42,41.3-48.5zM44.9,118.9c1.7-0.1,2.2-0.2,2.2,0.4c0,1.8-1.5,4.2-3.5,5.1c-1.3,0.6-1.3,0.6-1.5-0.9c-0.1-1.2-0.5-2.7-1.1-4c-0.2-0.4-0.9-1.5,0-1.2c1,0.3,2.9,0.6,3.9,0.6zm3.8-0.4c0.4,0,0.8,0.3,0.8,0.7s-0.4,0.7-0.8,0.7c-0.3,0-0.7-0.3-0.7-0.7s0.4-0.7,0.7-0.7zm-9.1,1c0.3,0,0.6,0.6,1,1.5c0.8,2.1,1,3.2,0.8,3.7c-0.4,0.7-5.1,0.2-5.9-0.6c-0.1,0.1,3.5-4.2,4.1-4.6zM43,120c-0.7,0-0.3,0.4,0.2,1.6c0.3,0.8,0.8,1,1.3,0.4c0.8-0.8,0.9-1.4,0.4-1.7C44.2,120,43.8,120,43,120zm136.9,4.4v1.5c-1.1-0.4-1.8-0.8-3.1-1.3c-0.8-0.2-1.2-0.4-0.5-1.2c1-1.3,2.2-2.1,3.5-2.9v1.6c-2.1,1-1.9,1.8,0.1,2.3zM97.2,122.9h7.9v5.3h6.2l-0.5,5.9h-5.7v5.3H97.2v-5.3H91.6L92,128.2h5.2v-5.3zm17.9,0c-4,20-0.4,41.2,5.8,58.4l-3.1,0.4C113,167.9,109.1,148.2,113,122.9c0,0,1.4,0,2.1,0zm58.6,0.4c0.4,0,0.7,0.3,0.7,0.7s-0.3,0.8-0.7,0.8S173,124.4,173,124s0.3-0.7,0.7-0.7zM34.7,125c0.3,0,1.1,0.3,1.8,0.5c1.1,0.3,1.9,0.5,2.9,0.5c2,0,2.2,0,1.4,1.6c-0.6,1.2-2,2.7-3,3.2c-1.3,0.7-1.8,0.7-1.8-0.7c0-0.9-0.3-2.5-0.9-3.6C34.7,125.6,34.3,125,34.7,125zm8.3,0.6c0.4,0,0.8,0.4,0.8,0.8s-0.4,0.7-0.8,0.7s-0.7-0.3-0.7-0.7s0.3-0.8,0.7-0.8zm132.9-0.1c0.6,0,1.6,0.4,2.4,0.8c2.3,1.1,2.3,1.4-0.9,3.6c-2.2,1.8-2.8,2-2.9-0.8c0-2.3,0.2-3.5,1.4-3.6zM33.5,126.2c1,0,2,4.8,1.1,5.2c-1.2,0.7-5.2-0.6-5.2-1.7c0-0.3,3.7-3.5,4.1-3.5zM173.2,126c0.5,0,0.6,0.4,0.5,1.9c0,0.9,0.2,2.2,0.2,2.8c0.1,1.3,0,1.4-1,0.8c-0.6-0.4-1.9-1-3.3-1.1c-1.2-0.1-1.3-0.6-0.9-1.4c1-1.7,2.8-2.9,4.5-3zM36.9,126.7c-0.8,0-0.6,0.4-0.1,1.7c0.4,0.8,1,0.9,1.6,0.2c0.9-1.1,0.7-1.6-0.5-1.8c-0.3,0-0.8-0.1-1-0.1zm135.2,1.2c-0.3,0-0.8,0.3-1,0.4c-0.7,0.5-1,0.8,0,1.2c1,0.3,1.5,0.5,1.5-0.4c-0.1-0.5-0.1-1.2-0.5-1.2zM98,128.5v5.2h6.3v-5.2H98zm68.5,0.4c0.4,0,0.7,0.4,0.7,0.8s-0.3,0.7-0.7,0.7s-0.7-0.3-0.7-0.7s0.3-0.8,0.7-0.8zM48.8,129.8l19.8,25.6-1.3,3.3-20.4-27,1.9-1.9zM180,129.6V133c-2.2,1.6-16.4,12-23.8,29.5l-3.9,1.7c5.5-15.1,17.1-28,27.7-34.6zM29.1,131.1c1.3,0.4,2.5,1.3,3.7,1.4c1.4,0.2,1.9,0.1,1.5,0.8c-0.8,1.7-2.4,3.4-4.1,3.9c-1.2,0.4-1.8,0.3-1.6-0.5c0.3-1.4,0.4-2.6,0.3-3.8c0.2-0.7-0.4-1.7,0.2-1.8zm-1.5,0.3c0.8,0.7,0.6,5.1-0.3,6.1c-0.5,0.5-1.9,0.1-4-1.1c-1.3-0.8-1.6-1.3-0.9-1.8c1.1-0.7,4.5-3.4,5.2-3.2zm141.7,0.1c0.4-0.1,0.9,0,1.6,0.2c2.5,0.5,3,1.1,0.9,2.8c-0.8,0.6-1.6,1.4-1.8,1.7c-1.2,1.4-2,0.4-2.2-2.2c-0.2-1.8,0.1-2.8,1.5-2.5zm-3.1,0.2c0.4,0,0.6,0.2,0.6,0.7c0,0.7,0.5,3.4,0.7,4.2c0.5,1.3,0.2,1.6-0.9,1c-0.8-0.4-2.8-0.7-4-0.6s-1.2-0.3-0.8-1.3c0.6-2,3.2-4,4.4-4zM30.3,132.6c-0.5,0-0.5,0.7-0.2,2.2c0.1,0.5,0.5,0.4,1.3-0.1c0.9-0.7,0.9-1.1-0.2-1.7c-0.4-0.2-0.7-0.4-0.9-0.4zm5.6,0.2c0.4,0,0.7,0.3,0.7,0.7s-0.3,0.7-0.7,0.7s-0.7-0.3-0.7-0.7s0.3-0.7,0.7-0.7zm127.9,2.8c0.4,0.3,1.7,0.3,1.9,0.1c0.3-0.3,0.2-1.7-0.1-1.9c-0.7-0.3-2.2,1.3-1.8,1.8zm-119,2.8c0.4,2,3.3,1.9,3-0.2c-0.2-1.3-0.3-1.3,0.4-1.2c2.9,0.1,2.4,4.8-1,4.5c-0.7,0.1-0.8,0.4-0.2,0.6c0.6,0.3,2.9,0.9,3.3,0.9c3.7,0,9.1,5.8,9,10.9c-0.1,3.4,1,5.8,2.2,6.1c0.9,0.2,2.2-0.7,2.1-1.7c-0.1-1.4,1-1,1.7,0c1,1.5-0.3,3.5-2.7,3.3c-1,0.2,0.7,0.9,2,1.3c1.2,0,0.2,1.5,0,1.8c-0.7,0.8-2.9,0.2-4.6-1.2c-2.1-1.8-3-4.1-3.3-8.6c-0.2-3-0.4-3.5-1.2-2.3c-1.5,2.6-5.2,1.3-5.6-1.5c-0.3-1.5,1-2.6,1.5-1.2c1.1,2.8,3.8,2.1,3.4-0.7c-0.3-1.9-2.1-2.9-5.8-3.9c-4.4-1.3-5.7-2.8-6.5-6.4c-0.4-1.6-0.3-2.4,0.5-3.3c0.4-0.4,0.9-0.8,0.9-0.8s0.6,2.4,0.9,3.6zm114.6-2.3c0.4,0,0.7,0.3,0.7,0.7s-0.3,0.7-0.7,0.7s-0.7-0.3-0.7-0.7s0.3-0.7,0.7-0.7zM21.9,136.8c1.3,0.4,2.4,1.1,3.7,1.6c0.9,0.3,0.7,1-0.2,2c-1.1,1.2-2,1.8-3.4,2.5v-2.1c1.7-0.6,2.8-2-0.1-2.4v-1.6zm140.9,1.1c0.5,0,1.2,0,2,0.2c2.1,0.4,2.3,0.6,1.1,2.1c-0.5,0.5-1.2,1.3-1.6,1.8c-1.2,1.7-1.9,1.1-2.4-1.1c-0.7-2.3-0.9-3.2,0.9-3zM28.4,138.7c0.4,0,0.7,0.3,0.7,0.7s-0.3,0.8-0.7,0.8s-0.7-0.4-0.7-0.8s0.3-0.7,0.7-0.7zm132.3,1.6c0.2,0.7,0.5,1.7,0.7,2.3c1.1,2.5,0.4,1.6-1.6,1.3c-1.4-0.1-3.5,0.1-4.1-0.3c-0.2-0.3,0-1.1,0.5-2c0.6-1.2,1.7-2.3,2.5-2.8c2.1-1,1.6,0.2,2,1.5zM39.2,139.4l22.7,30.2-1.8,2.5-23.3-31,2.4-1.7zm142,0.1c-11.8,8.6-16.3,19-17.2,20.4l17.3-6.8-0.1-13.6zm-22.5,1c-0.6,0.2-1.5,1.4-1.1,1.9c0.2,0.2,1.2,0.2,1.6,0.1c0.7-0.3,0.2-2-0.5-2zM59.4,173.1l-4.8,6.2-25.1-32.8,6.3-4.6,23.6,31.2zM180,141.3l0.1,11.2-14.7,6.3c4.9-8.5,9.8-13.7,14.6-17.5zM79,142.2l5.9,7.8-7.2-0.2,1.3-7.6zm74.8,0.7c0.4,0,0.7,0.3,0.7,0.7s-0.3,0.7-0.7,0.7s-0.7-0.3-0.7-0.7s0.3-0.7,0.7-0.7zm4.3,1.8c2.7,0.1,3.6,0.2,2.8,1.5c-1,1.3-1.6,2.6-2.8,3.8c-0.6,0.7-1.5-0.7-2.2-3c-0.5-1.8-0.2-2.2,0.8-2.2c1.1,0,1.3-0.1,1.4-0.1zm-3.1,2.5c0.2,0.7,0.7,1.8,1.1,2.6c0.5,0.7,0.9,1.5,0.9,1.6c-0.1,0.3-0.4,0.4-1.1,0.1c-1.6-0.7-5.2,0-5.3-0.3c-0.5-0.8,0.3-2.9,1.8-4.3c0.8-0.8,1.4-1.2,1.8-1.2s0.5,0.5,0.8,1.5zM28.6,146.6l25.6,33.5-1.8,2.1-25.9-34.1c0,0-4.1,2-5.3,2.7l0.2,17.3H20.7l0.1,87.7,14.3-14.4-0.2-59.5c3,2.9,5.6,6,9.1,8.8l5.9-0.1c15.5-15.8,24-29.4,25.9-53.8C77,120.6,71.7,100.1,57.4,80.2l-3.5,2.2,6.9,10.4-14.5,6.5C40.5,111.6,33.6,123,21,129.5l-0.1,15.9-0.2,0.3,0.2,5,7.7-4.1zm125.1,1.1c-0.7,0.1-1.7,1.6-1.3,2.1c0.6,0.3,1.5,0.2,1.9-0.3c0.2-0.4,0.2-1.5-0.6-1.8zm-76.3,3.5h7.5l-2,6.5-7.3-0.1,1.8-6.4zm71.4,0c0.4,0,0.7,0.3,0.7,0.7s-0.3,0.7-0.7,0.7S148,152.3,148,151.9s0.4-0.7,0.8-0.7zm-38.3,0.2l0.9,8.4c-8.2,3-17,8.1-24.7,17.4c-1.3,0-11.9,0.1-11.9,0.1c0.3,0.1,9.8-18,10.9-25.8l24.8-0.1zm-29.8,0.7l-3.4,2.4,2.6,2.9,3.6-2.4-2.8-2.9zm71.7,0.1c0.8,0,1.7,0.1,2.5,0.2c1.3,0.3,1.5,0.3,1.1,1.3c-0.6,1.4-1.9,4-2.2,4.2c-1.2,0.7-3.8-4.5-2.9-5.4c0.2-0.2,0.7-0.3,1.5-0.3zm-3.3,1.6c0.4,0,0.8,0.6,0.9,1.2c0.2,0.7,1.4,2.4,2.1,3.2c0.9,1,0.9,1.2-0.4,1.3c-1.6,0.1-3.2,0.4-4.1,0.8c-1.3,0.5-1.5,0.3-1.4-1.3c0.3-2.4,1.9-5.1,2.9-5.2zm-1.2,5.1c0.2,0.4,2.3-0.4,2.5-1c-0.1-0.3-0.9-1.7-1.4-1.8c-0.9,0.1-1.2,2.1-1.1,2.8zM75.4,158.5l7.1,0.1-2.3,5.9H73.1l2.3-6zm3.2,0.8l-3.4,2.2,2.6,2.6,3.3-2.3-2.5-2.5zm72.2,1.1c0.6,0,1.3,0,1.4,0.3c0.4,0.6-1.2,4.1-1.2,4.1l-2.5,1c-0.5-1.1-1.4-2.3-1.7-3.5c0-0.5,0.2-0.7,0.8-1.1c0.9-0.4,2.2-0.8,3.2-0.8zm-6.7,0.3c0.4,0,0.7,0.3,0.7,0.7s-0.3,0.7-0.7,0.7s-0.7-0.3-0.7-0.7s0.3-0.7,0.7-0.7zm-32.4,0.1c0,0,1.5,8.7,1.6,7.7c-11.8,4.5-18.7,11.2-22,17.6H69l5-7.7,13.2-0.1c6.3-7.8,14.2-14,24.5-17.5zm-2.8,2l-1.1,3.6,3.3,2.1,1.2-3.8-3.4-1.9zm36.4,0.1c0.3,0,0.5,0.4,1.1,1.5c0.4,0.7,1,1.8,1,1.8l-1,0.4c-0.8-2.8-1.5-1.7-1.6,0.7l-1.4,0.5c0,0,0.2-2.3,0.9-3.7c0.5-0.8,0.7-1.2,1-1.2zm-72.5,2.4l6.9,0.1-2.9,6-7-0.2,3-5.9zm30.1,0.5l-0.6,4.4,3.7,0.8,0.5-4.2-3.6-1zm-27.1,0l-3.4,2.3,2.2,2.9,3.3-2.2-2.1-3zm21.8,3.9l-0.8,4.2,3.5,0.7,0.8-4.1-3.5-0.8zM21.9,170l8.7,8.7,0.5,60.6-8.6,8.8-0.6-78.1zm47.4,2.2c0,0.1,7,0.2,7,0.2l-2.8,5.1-2.4-0.1,3.1-2.2-2-2.6-3.2,2.1,1.8,2.7-4.7-0.1,3.2-5.1zm44.9,1.5l2.4,7.9-2.8,0.5-2.2-7.4c0.9-0.5,1.8-0.7,2.6-1zm-22.3,0.5v4.7l3.8,0.3,0.2-4.4-4-0.6zm18.9,0.8l2.1,7.4-1.8,0.5-2.6-7.1c0.7-0.4,1.5-0.7,2.3-0.8zm-3.3,1.5l2.7,7.3c-3.8,1.6-7.8,4.9-10.8,8.3c-2.2-1.7-3.5-1.8-4.9-2.2c3.8-7.1,8.3-10.8,13-13.4zm-42,1.8l7.3,0.3-5.1,7.6H59.5l6-7.9zm21.8,0.3l-0.5,4.5,3.9,2.3,0.6-4.6-4-2.2zm-4.8,0.6l-2.7,3,2.9,3.4,2.7-3.5-2.9-2.9zm-6.2,0.2l-3.3,3,2.6,3.5,3.1-3.5-2.4-3zm-42.1,2.8L34.6,241.5,22.4,253.3,22.3,250.1,32,240c0-20-0.1-40.1-0.1-60.1l2.3,2.3zm32.3-1.9l-3.3,4.6h4l2.8-4.4-3.5-0.2zM45.9,209c-1.4,4.8-7.4,10-7.6,9.9c3.1,4.3,3,10.5,0.3,13.6c0-0.1,4.8,4,5.5,6.1c0.4,0.8,0.6,1.8,1,2.7c0.2,0.2,0.6,0.7,0.6,0.7c11.8-12,6.2-26.2,0.2-33zm0.1,1.2c11.5,14.4,3.9,27.5-0.1,31.1l-0.7-1.2c8.5-10,4.9-22.2-0.1-28L46,210.2zM44.8,213c0.1,0.3,0.5,0.9,0.2,0.9l-0.6-0.1,0.4-0.8zm-0.1,1.6c0.3,0,0.5,0.1,0.6,0.3c0.2,0.4-1,3.7-1.7,2.9c-0.2-0.4-0.5-0.8-0.7-1.3s-0.1-0.8,0.5-1.3c0.4-0.4,0.9-0.6,1.3-0.6zm1.7,0.9c0.5,0.1,1.4,1.9,1.4,3.2c0.1,0.2-1.9-0.3-2.4-0.9c0-0.5,0.5-1.9,1-2.3zM41.9,217c3.4,7,3.2,12.5,0.2,17.5l-2.4-2.1c1.6-3.8,2.4-7.8-0.3-13L41.9,217zm2.3,1.8c0.2,0,1,0.1,1.6,0.3c2.3,0.7,2.4,2.2,0.2,3.4c-0.9,0.4-1.2,0.2-1.7-2.1c-0.3-1.2-0.5-1.6-0.1-1.6zm4.5,2.7c0.4,0,0.6,0.8,0.7,2.3c0,1.4-0.3,1.5-1.4,0.5c-1.2-1.1-1.4-1.4-0.3-2.2c0.3-0.3,0.8-0.6,1-0.6zm-3.2,2.2c0.2,0,0.9,0.4,1.5,0.9c1.6,1.2,1.2,2.1-0.6,2.6c-1.2,0.5-1.1,0.5-1.1-1.7c0-1-0.1-1.7,0.2-1.8zm20.9,2c-1.9,0.5-2.7,2.2-2.1,3.8c0.3,0.7,0.8,0.7,0.3,1.2c-0.6,0.6-0.9,2.2-0.3,2.7c0.8,0.5,0.9-0.3,0.2,1.2l-14.6,26.9,87.2-0.2-10.4-19.8c0,0,0.8-3.2-0.9-3.6c-0.5-0.1-0.8-0.6-0.9-1.1c0.1-1.4-0.5-2-1-2.7c-8.3,1.2-15.5,0.6-21.5-0.7c-8.6-2-14.7-5.3-18.7-6.4c-5.5-1.5-12.1-2.1-17.3-1.3zm4.7,0.2c6.8,0,14.4,2,19.6,4.4c5.5,2.2,11.4,3.9,17.2,4.8c4.9,0.6,9.7,0.3,14.4-0.1c0.5,0,1,0,1.4,0.4c0.9,1.1,0.3,1.8-2.1,2c-3.9,0.3-8.7,0.2-12.9-0.4c-6.8-0.8-13.9-2.9-20-5.4C81,228.7,73.9,227.7,68.3,228.5c-3,0.5-3.5,0.6-3.5-0.2c0-1.7,1.4-2.4,6.3-2.4zM49,230.6c-0.3,0.7-2.4-1.6-2.4-2.2c0.1-0.3,1.8-1.4,2.4-1.8c0.4-0.3,0.3-0.2,0.3,0.1c0.1,0.9,0,3.1-0.3,3.9zm-3.2-1.7c0.9,0.2,2.5,2.8,1.1,3.2c-1.2,0.4-2.4,0.6-2.5-0.2c0.6-2.1,0.9-2.9,1.2-3c0.1,0,0.1,0,0.2,0zm56.4,9c6.1,1.1,14.3,1.8,19.6,1.3c3-0.3,3.7-0.2,3.6,1.1c0,0.8,0.1,0.8-3.8,0.8c-3.3,0.2-6.2-0.1-9.4-0.3c-6.5-0.3-12.5-1.5-18-3.4c-6-1.6-11.3-4.6-17.3-5.3c-5.5-0.5-10.4,0.5-11.4,1.1c-0.3-0.1-0.5-0.6-0.5-1c0-0.5,0.2-0.9,0.6-1.2c15.6-4,24,4.6,36.6,6.9zM47.8,232.7c0.5,0,0.4,0.8-0.5,2.4c-0.7,1.4-1,1.4-1.4,0c-0.5-1.6-0.4-1.7,0.5-2c0.5-0.1,0.9-0.4,1.4-0.4zm-3.7,0.8c0.7,0,1.5,2.8,1.1,3.3c-0.4,0.4-1.6,0.1-2-0.4c-0.6-0.8,0.2-3,0.9-2.9zm27.4,0.7c2.5,0,4.9,0.2,7.1,0.6c-1.3,0.5-2.5,0.9-3.9,1.7c-0.9-0.8-1.9-1.5-3.2-2.3zm3.2,3.4c8.6-4.8,12.2,1.8,13.5,2.9c7.5-1.7,8.9-0.8,13.1,3.7c7.6-3.7,11.2-0.5,14.3,1.5c3.7-3.5,8.4-3.6,10.8-1.9c0.5,0.8,1.1,1.8,1.2,2.1c0,0.2-0.3-0.1-1.2-0.7c-4.4-3.2-11.7,0.8-9.8,5c0.6,1.1,0.5,1.6-0.3,2.1c-1.1,0.7-2.5-0.5-1.7-1.8c1.3-2.2,0.3-4-2.9-5.7c-4.4-2.3-11.7,0.3-10.2,3.8c0.9,1.1,0,1.9-1.2,1.8c-1.5,0-2-1-1-2c1.1-1.3,0.8-2.7-0.5-4.2c-4-5.8-12.2-3.5-11.1,1.6c0.5,1.2-0.9,1.7-2.2,1.2c-0.9-0.4-0.8-1.8,0.2-2.3c1.1-0.1,1.2-1.7,1.1-2.7c-0.2-1.6-2.4-3.1-4.6-3.8c-1.6-0.6-3.1-0.7-4.3-0.6c-2.4,0.2-3.8,1.9-3.4,4.4c0.2,1.5-0.2,3-1.9,2.2c-1-0.4-0.7-1.5,0.3-2.5c3.4-3.4-3.5-7.5-7.7-4.6c-0.7,0.5-1.2,0.6-1.2,0.6c2.6-6.5,10.8-0.4,10.7-0.1zM86,236.7l5.2,2c-1.2,0.2-2,0.6-2.9,0.9L86,236.7zm-13.5,2.1c-4.8-0.9-5.1,4.5-2,5.4c-4.2,5.9,7,8.2,4.9,0.9c5.7,1,4.7-5.5,0.5-5.4c0.9-2.5,8.8-0.6,8.4,1.2c-5.3,0.6-3.1,5.4-0.9,5.4c-5.5,5.3,5.6,10.1,5.3,2.2c4.4,0.9,4.9-5,0.7-5.4c1.5-2.2,7.1-0.8,8.7,1.7c-4.4,0.6-4.2,4.5-0.7,5.1c-4.4,5.6,6.4,7.7,5.2,1.2c3.9,1.3,6-3.8,1-5.3c5.1-3.1,10.7,1.5,10.1,1.6c-5.9-0.4-4.7,5.5-0.5,5.2c-2.7,6.1,8,6.4,5.3,0.1c4.8,0.1,4.4-5.5-0.2-5.9c2.9-2.1,6.1-2.3,8.2-0.3c-4.4,1.2-2.5,6.3,1.8,4.9c0.4,4.2,3.9,3.3,4,3.2l3.1,5.8-83.7,0.1,7.1-13.2c4.3,0.2,4.1-3.9,3.9-4c2.8,2,5.8-3,1.7-4.4c3.4-3.6,8.4-0.3,8.1-0.1zM45.2,238.5c-0.1,0.1-0.2,0.3-0.5,0c-0.7-0.9,1.3-0.9,0.5,0zm17.3,2.2c0.4,0.3,0.1,1.1-0.2,1.4c-0.7,0.8-1,0.8-0.3-0.6c0.2-0.5,0.4-0.8,0.5-0.8zm36.7,0.4l4.3,1-2,1.2c-0.8-0.8-1.5-1.6-2.3-2.2zm13.6,1.7l4.7,0.3c-0.6,0.5-1.2,0.9-2,1.6c-0.6-0.6-1.7-1.2-2.7-1.9zm15.8,4.9c0.2,0.5,1.3,2.5,1.2,2.5c-1.6,0.3-2-2-1.2-2.5z"
        fill="#100F08" />
        <path d="M49.5,57C44.4,48.5,38.9,40.2,32.2,33.1C38.9,26,44.4,17.7,49.5,9.1c5.2,8.6,10.6,16.9,17.4,24C60.1,40.2,54.7,48.5,49.5,57z" fill="#D40000" />
        <path d="M7.3,46.3C5.1,42.7,2.9,39.3,0,36.3C2.9,33.4,5.1,29.9,7.3,26.4c2.1,3.5,4.4,7,7.2,9.9c-2.8,3-5.1,6.4-7.2,10z" fill="#D40000" />
        <path d="M152.2,206.9c-5.2,8.6-10.6,16.9-17.4,24c6.8,7.1,12.2,15.4,17.4,23.9c5.1-8.5,10.5-16.8,17.3-23.9c-6.8-7.1-12.2-15.4-17.3-24z" fill="#D40000" />
        <path d="M194.4,217.6c-2.1,3.6-4.4,7-7.2,10c2.8,2.9,5.1,6.4,7.2,10c2.2-3.6,4.4-7.1,7.2-10c-2.8-3-5-6.4-7.2-10z" fill="#D40000" /></g>
</svg>