<svg width="227" height="315" xmlns="http://www.w3.org/2000/svg">
    <path d="M119.1,228.1c-3-0.5-5.5-2.9-6.3-5.9c-0.2-0.7-0.2-1-0.2-2.1c0-1.4,0.1-2,0.6-3.1c0.7-1.8,2.1-3.4,3.8-4.2c0.6-0.3,1.8-0.7,2-0.7c0.4,0,0.4,0,0.1-1.5c-1.4-5.1-2.9-9.5-4.4-12.6c-0.9-1.9-1.8-3.3-3.8-6.5c-3.1-5-3.9-5.9-4.9-5.4c-0.1,0.1-0.4,0.3-0.5,0.5c-0.3,0.4-6.2,12.2-7.2,14.4c-2,4.4-2.7,6.5-3.7,11.6c-0.1,0.7-0.3,1.4-0.3,1.5c-0.1,0.1-0.2-0.3-0.6-2.2C93,208,92.3,205.6,90.7,202c-0.6-1.3-6.4-13-7.1-14.3C83,186.6,82.5,186,82.1,186s-0.7,0.2-1.3,0.8c-0.7,0.7-1.4,1.8-3.3,4.8c-3.7,5.9-5,8.6-6.9,14.9C70.2,207.9,69,212,69.1,212c0,0,0.3,0.1,0.7,0.2c1.2,0.4,2.3,1,3.2,1.9c4,3.9,2.9,10.8-2.1,13.2c-3.1,1.5-6.7,0.8-9-1.6c-1-1.1-1.7-2.3-2.1-3.8c-0.2-0.6-0.2-0.8-0.2-2c0-1.1,0.1-1.4,0.2-1.9c0.7-2.6,2.3-4.5,4.7-5.5c1-0.5,1.6-0.6,2.9-0.6c1.2,0,1.2,0,1.2-0.1S68.3,210.7,68,209.6c-1.1-3.8-2.3-8.4-2.8-11.2c-0.6-3.2-0.7-4.8-0.7-7.8c0-2,0-2.6,0.2-3.7c0.3-2.2,0.7-4.4,1.5-7.3c0.2-0.7,0.4-1.4,0.4-1.4c-0.1,0-0.7,0.3-1.4,0.7c-0.8,0.3-2.3,1-3.3,1.5c-5.1,2.4-7.8,3.8-10.7,5.7c-3.1,2-5.1,3.8-6.9,5.9c-0.4,0.5-0.8,0.9-0.9,1c-0.2,0-0.2-0.3-0.1-1c0.2-1.6,0.9-3.9,1.7-5.9c1.3-3.1,3.1-5.9,7.6-12.3c2.5-3.5,3.3-4.8,3.3-4.9c-0.1,0-0.3-0.1-0.6-0.3l-0.6-0.3-1.2,0.4c-3.4,1.5-13.2,6-18.6,8.7l-3,1.5,0.6,0.6c0.7,0.7,1.2,1.3,1.6,2.2c1.1,2.3,1.1,5,0,7.2c-2.3,4.7-8.2,6-12.2,2.7c-1.2-1-2.2-2.6-2.6-4.2c-0.2-0.7-0.2-0.9-0.2-2.1s0-1.4,0.2-2c0.8-3.1,3.1-5.3,6.3-6c0.2,0,0.9-0.1,1.5-0.1c0.8,0,1.1,0.1,1.7,0.2c0.8,0.2,1.9,0.7,2.5,1.1l0.2,0.1,0.2-0.4c0.8-1.8,6-9.8,8.6-13.2c2.2-2.9,5.2-5.9,7.9-7.9c4.1-3,9.1-5.3,13.6-6.1c1.7-0.3,4.4-0.2,5.6,0.1c0.3,0,0.4,0.1,0.4,0c0,0-0.1-0.3-0.3-0.7c-2.1-4.2-4.5-11.8-6.3-20c-1.4-6.2-2.1-11.1-2.4-16.6c-0.2-4.5-0.5-6.6-1.6-10.6C55.3,95.9,51.9,86.9,48.8,81.4C44.9,74.4,40.7,70.5,34.7,68C29.9,66.1,24.8,65.5,20.8,66.4C18.1,67,15.3,68.3,13.4,70s-3.2,3.7-4.8,7.5C8.3,78.1,8,79,7.8,79.3C7.6,79.7,7.6,79.9,7.7,79.9c0,0,0.3,0.1,0.6,0.1c1.2,0.2,2.5,0.9,3.4,1.8c1.8,1.8,2.4,4.5,1.6,6.9C12.7,90.8,10.9,92.5,8.9,93C8,93.3,7.3,93.3,6.5,93.2C4.2,93,2.4,91.7,1.4,89.6C0.8,88.5,0.7,87.9,0.7,86.6c0-0.8,0-1.2,0.1-1.7c0.8-2.8,3.1-4.7,5.9-5H7.3L7.4,79.4c0.1-1,0.4-2.9,0.7-4C9,71.6,10.5,69.3,13.7,66.5c2.2-1.9,4.5-3.5,6.8-4.7c3.4-1.7,6.7-2.7,10.9-3.3c2.2-0.2,3.4-0.3,6-0.3c3.2,0,5.3,0.2,8.6,0.7c4.5,0.8,10.4,2.3,16.1,4.2c0.8,0.3,1.6,0.5,1.7,0.5c0.2,0,0.3,0,0.5-0.4c0.4-0.6,1-1.2,1.7-1.5c0.4-0.2,0.6-0.3,1.4-0.3h1l1.4-1.6c1.1-1.1,1.6-1.6,1.7-1.9c0.3-0.6,0.7-1,1.3-1.2l0.5-0.3-0.1-0.2c0-0.2-0.3-1-0.7-1.9C71.4,51.6,71,50,70.7,47.7c-0.2-1.3-0.1-4.3,0.1-5.8C71.6,35.6,74.2,29,78.2,23.3C82.1,17.6,88.6,11.6,96.8,5.9c5.6-3.8,8.4-5.2,10.9-5.2c1.7,0,3.2,0.5,5,1.8c1.2,0.8,2.2,1.7,4,3.4c3.8,3.9,6.1,7.1,8.1,11.6c2.1,4.9,3.4,10.1,3.8,15.2c0.1,1.5,0.1,7.3,0,10.1c-0.2,5.6-0.2,6.5-0.2,7c0,0.4,0,0.5-0.1,0.7c-0.1,0.1-0.1,0.2,0.4,0.5c1.4,1,2.3,2.7,2.6,4.5c0.3,2.3-0.7,4.7-2.5,6.1c-1.2,1-2.4,1.4-3.9,1.4h-0.8l0.2,0.3c0.1,0.3,0.2,0.3,0.4,0.3c0.1,0,0.9-0.2,1.7-0.5c8-2.6,15-4.3,21.1-4.8c1.4-0.1,5.8-0.1,7.2,0c7,0.6,12,2.3,16.9,5.7c2.3,1.6,5,4,6.2,5.6c1.7,2.3,2.6,4.8,3.2,8.7c0.1,0.7,0.2,1.4,0.2,1.5s0.1,0.1,1,0.1c0.8,0,1,0.1,1.6,0.3c2.4,0.7,4,2.4,4.7,4.9c0.2,0.8,0.1,2.4-0.1,3.2c-0.5,2.1-2.1,3.8-4,4.5c-0.8,0.4-1.4,0.5-2.3,0.4c-2.1,0-4-0.9-5.2-2.6c-1-1.3-1.5-3.2-1.3-4.7c0.1-1,0.3-1.5,0.7-2.3c0.8-1.7,2.4-3,4.1-3.4c0.3-0.1,0.5-0.2,0.5-0.2c0-0.2-1.4-3.5-2-4.7c-1-2.1-1.8-3.3-3-4.5c-2.1-2.3-5.3-3.9-8.7-4.5c-5.3-1-11.9,0.4-17.3,3.7c-5.3,3.2-9.4,8.7-13.4,18.1c-2.6,6-5.1,13.6-6,18.5c-0.5,2.3-0.6,3.7-0.8,6.8c-0.1,2.6-0.2,3-0.3,4.8c-1.1,10.5-5,25.4-8.5,32.4c-0.1,0.3-0.3,0.5-0.3,0.6c0,0,0.2-0.1,0.4-0.1c1.3-0.3,4-0.4,5.7-0.1c3.2,0.6,7.2,2.1,10.4,4c4.1,2.4,8.1,6,11.3,10.2c2.5,3.2,7.3,10.8,8.3,12.8c0.1,0.2,0.2,0.5,0.2,0.5s0.4-0.1,0.8-0.3c1.8-0.9,3.8-1,5.7-0.4c2.6,0.8,4.6,2.9,5.3,5.7c0.2,0.7,0.2,0.9,0.2,2c0,1.2,0,1.4-0.2,2.1c-1,3.9-4.7,6.4-8.4,6c-1.9-0.2-3.4-0.9-4.8-2.3c-1-1-1.7-2.3-2.2-3.8c-0.1-0.6-0.1-0.9-0.1-2s0-1.4,0.2-2c0.4-1.7,1.4-3.3,2.7-4.4c0.3-0.2,0.3-0.2,0.2-0.3c-0.2-0.2-5.1-2.6-8.1-4c-7.8-3.7-14-6.5-14.4-6.5c0,0-0.3,0.2-0.6,0.3c-0.6,0.4-0.6,0.4-0.5,0.6s1.6,2.2,4.2,6c4.2,6,6,9.2,7.3,12.8c0.8,2.2,1.3,4.9,0.9,5c0,0-0.3-0.3-0.6-0.7c-1.5-1.7-2.6-2.8-4.4-4.2c-3.3-2.6-6.9-4.7-12.7-7.3c-1.1-0.5-2.8-1.3-3.7-1.8c-1-0.5-1.8-0.8-1.8-0.8s0.1,0.5,0.3,1c0.7,2.8,1.3,5.5,1.6,7.6c0.3,2.2,0.3,5.9,0,8.5c-0.5,3.9-2.1,10.4-3.9,16.5c0,0.1,0.1,0.1,0.8,0.2c1.7,0.1,3.3,0.6,4.5,1.6c1.2,0.8,2.2,2.2,2.7,3.5c0.4,1.2,0.5,1.7,0.5,3.1c0,1,0,1.3-0.2,2c-0.4,1.4-1.2,2.8-2.2,3.8c-1.8,1.7-4.4,2.5-6.9,2.1zm2.5-2.2c0.7-0.7,0.9-0.9,1.1-0.9s0.1,0.1-0.7,0.9c-0.5,0.5-0.9,0.9-0.9,0.9c0,0.1,0.2,0.1,0.4,0.1h0.4l1-1c0.7-0.7,1.1-1.1,1.3-1.1c0.1-0.1,0,0.1-0.8,0.9c-0.5,0.5-0.9,1-0.9,1s0.3,0,0.6-0.1c0.5-0.2,0.5-0.2,1.7-1.4c0.7-0.7,1.5-1.4,1.8-1.7c0.6-0.5,0.9-1,1.1-2c0.3-1,0.3-2.5,0-3.4c-0.3-1.4-1-2.5-2.1-3.6c-0.7-0.7-1.5-1.1-2.5-1.5c-1.4-0.5-2.8-0.5-4.3,0c-1.2,0.5-1.6,0.8-2.3,1.8c-0.2,0.2-0.7,0.8-1.1,1.2c-0.7,0.7-0.9,1.1-1.1,1.8c-0.1,0.3,0,0.2,0.5-0.3s0.6-0.5,0.5-0.3c0,0.1-0.2,0.4-0.6,0.8c-0.6,0.6-0.6,0.6-0.6,1.1l-0.1,0.5,0.6-0.6c0.5-0.5,0.6-0.5,0.6-0.3c0,0.1-0.2,0.3-0.6,0.7C114,220,114,220,114,220.3c0.1,0.2,0.1,0.4,0.1,0.4s0.3-0.2,0.6-0.5c0.5-0.5,0.5-0.6,0.5-0.4s-0.1,0.4-0.5,0.7c-0.5,0.6-0.5,0.6-0.5,0.9c0,0.2,0.1,0.3,0.1,0.4c0,0,0.3-0.2,0.6-0.5c0.5-0.5,0.6-0.6,0.6-0.5c0.1,0.1-0.1,0.3-0.5,0.8l-0.6,0.6,0.1,0.2c0.1,0.2,0.1,0.3,0.2,0.3c0,0,0.3-0.2,0.6-0.5c0.4-0.5,0.5-0.6,0.6-0.5s0,0.2-0.5,0.7c-0.6,0.6-0.6,0.6-0.5,0.8c0.2,0.4,0.2,0.4,0.9-0.2c0.5-0.6,0.6-0.6,0.6-0.5c0.1,0.1-0.1,0.3-0.5,0.7l-0.6,0.7,0.1,0.2c0.1,0.1,0.2,0.2,0.2,0.2c0.1,0,0.4-0.3,0.8-0.7c0.5-0.5,0.6-0.6,0.7-0.6c0.1,0.1,0,0.3-0.6,0.8c-0.3,0.4-0.6,0.7-0.6,0.8c0,0,0.1,0.1,0.2,0.2l0.2,0.2,0.7-0.7c1-1,1.2-0.9,0.2,0.1l-0.7,0.8,0.2,0.2,0.2,0.2,0.8-0.8c0.7-0.7,0.9-0.8,1-0.8c0.1,0.1,0,0.2-0.7,0.9c-0.5,0.4-0.8,0.8-0.8,0.9c0,0,0.1,0.1,0.3,0.1l0.2,0.2,0.9-0.9c0.4-0.5,0.8-0.8,0.9-0.8s0.1,0,0.1,0s-0.3,0.5-0.8,0.9l-0.9,0.9,0.3,0.1c0.1,0.1,0.2,0.1,0.3,0.1s0.5-0.4,1-0.8c0.8-0.8,1.1-1.1,1.1-0.9c-0.1,0.1-0.4,0.5-0.9,1l-0.8,0.9,0.3,0.1,0.3,0.1,1-1c0.7-0.7,1-0.9,1.1-0.9s-0.1,0.2-0.8,1c-1,0.9-1,1-0.4,1c0.3,0,0.4-0.1,1.2-1zM120.5,224c-2.3-1.4-3.4-2.4-3.8-3.7c-0.5-1.5,0.4-2.9,1.9-2.9c0.7,0,1.2,0.3,1.6,0.9c0.2,0.3,0.3,0.3,0.3,0c0.2-0.8,0.8-1.3,1.4-1.5c0.8-0.3,1.6,0,2.1,0.6c1,1.1,0.7,2.9-0.7,4.9c-0.5,0.6-1.8,2.2-1.9,2.2c0,0-0.4-0.2-0.9-0.5zm-51.9,1.9c0.8-0.8,1-1,1.2-1c0.1,0,0,0.1-0.8,0.9c-0.5,0.5-0.9,1-0.8,1c0,0,0.2,0,0.4,0l0.5-0.1,0.9-1c0.7-0.6,1-1,1.2-1s0.1,0.1-0.7,0.9c-0.5,0.5-0.9,1-0.9,1c0.1,0,0.3-0.1,0.6-0.2c0.5-0.1,0.6-0.2,1.7-1.3c0.7-0.7,1.4-1.4,1.7-1.6c0.5-0.4,0.7-0.6,1-1.4s0.4-2,0.4-2.8c-0.3-3.1-2.3-5.7-5.2-6.5C69.3,212.6,69,212.6,68,212.6c-1.3,0-1.9,0.1-3,0.7c-0.5,0.2-0.7,0.3-1,0.8c-0.3,0.3-0.5,0.6-0.6,0.8c-0.1,0.1-0.6,0.6-1,1.1c-0.7,0.7-0.8,0.8-0.9,1.3c-0.1,0.3-0.2,0.6-0.2,0.6c0,0.1,0.2-0.2,0.6-0.5c0.5-0.5,0.5-0.5,0.5-0.3c0,0.1-0.3,0.4-0.7,0.8l-0.6,0.6V219L61,219.5,61.6,219c0.5-0.5,0.6-0.6,0.6-0.4c0,0.1-0.2,0.3-0.6,0.8c-0.5,0.5-0.5,0.6-0.5,0.8c0,0.6,0.1,0.5,0.6-0.1c0.5-0.5,0.6-0.5,0.6-0.4c0,0.2-0.2,0.4-0.6,0.8c-0.5,0.5-0.5,0.5-0.5,0.8c0.1,0.2,0.1,0.3,0.1,0.4c0.1,0,0.3-0.2,0.6-0.5c0.5-0.5,0.6-0.5,0.7-0.4c0,0.1-0.1,0.3-0.6,0.7l-0.6,0.6,0.2,0.3c0,0.1,0.1,0.3,0.1,0.3c0.1,0,0.3-0.3,0.6-0.6c0.4-0.5,0.6-0.6,0.7-0.5c0,0.1,0,0.2-0.6,0.7l-0.6,0.7,0.2,0.2,0.2,0.3,0.6-0.6c0.5-0.5,0.6-0.6,0.7-0.5c0,0.1-0.1,0.3-0.6,0.8l-0.6,0.6,0.2,0.2,0.2,0.3,0.7-0.7c0.5-0.6,0.7-0.7,0.7-0.6c0.1,0,0,0.2-0.5,0.7c-0.4,0.4-0.7,0.7-0.7,0.8c0,0,0.1,0.1,0.2,0.2l0.2,0.2,0.7-0.7c0.5-0.5,0.8-0.7,0.9-0.7s-0.1,0.3-0.6,0.8l-0.8,0.8,0.2,0.2c0.1,0.1,0.2,0.1,0.2,0.1c0.1,0,0.5-0.3,0.9-0.7c0.6-0.6,0.8-0.8,0.9-0.8c0.1,0.1,0,0.2-0.7,0.9l-0.8,0.9,0.3,0.1,0.3,0.2,0.8-0.9c0.7-0.7,1.1-1,1.1-0.8c0,0.1-0.3,0.4-0.7,0.8c-0.3,0.3-0.7,0.7-0.8,0.8l-0.1,0.2,0.2,0.2,0.3,0.1,0.9-0.9c0.8-0.8,1.1-1,1.1-0.8c0,0-0.4,0.4-0.8,0.9C66.3,226,66,226.4,66,226.5c0,0,0.1,0,0.3,0.1l0.3,0.1,0.9-1c0.8-0.7,1-0.9,1.1-0.9c0.1,0.1,0,0.2-0.7,0.9c-0.5,0.5-0.9,1-0.9,1s0.1,0.1,0.6,0.1c0.1,0,0.5-0.4,1-0.9zm-1.8-1.6c-0.1-0.1-1.7-3-2.3-4.3c-0.2-0.4-0.3-0.6-0.2-0.7c0-0.2,4-3.8,4.2-3.8c0.1,0,0.2,0.1,1.3,2.1c1.3,2.5,1.4,2.8,1.4,3c-0.1,0.2-4,3.8-4.2,3.8c0,0-0.1,0-0.2-0.1zm58.8,0.8c0.5-0.4,1.3-1.4,1.3-1.5s-0.5,0.4-1.1,1s-1.1,1.1-1.1,1.2s0.4-0.2,0.9-0.7zM72.7,224.9c0.6-0.5,1.1-1.2,1.1-1.4c0,0-1.9,1.9-2,2c-0.1,0.3,0.3,0,0.9-0.6zM64,213.9c0-0.1-0.6,0.4-1.1,1c-0.8,0.9-0.7,0.8,0.3-0.1c0.5-0.5,0.8-0.9,0.8-0.9zm52.8,0.2c-0.1-0.1-1.4,1.3-1.4,1.5c0,0,0.3-0.3,0.7-0.7s0.7-0.8,0.7-0.8zM69.7,205.7c0.5-0.3,1-1.4,2-4.2c1.4-3.8,2.5-5.8,5.2-10.3c1.9-3.1,2.9-4.4,4.2-5.8c1.2-1.2,2.3-2,5.4-3.8c1.9-1.1,3.7-2.2,4.8-3.2c1-0.8,1.5-1.4,2-2.6c0.4-0.8,0.7-2,0.4-1.9c0,0,0,0,0.1-0.1c0.1-0.2,0.1-0.3,0-0.6v-0.3L93,173.6c-0.4,0.5-0.8,0.7-0.8,0.7c-0.1,0,0.1-0.3,0.7-0.9c0.8-0.9,0.9-0.9,0.8-1.2c0-0.2-0.1-0.3-0.1-0.4c0,0-0.6,0.6-1.3,1.3c-0.9,1-1.2,1.2-1.4,1.2s0-0.2,1.2-1.4c1.6-1.6,1.7-1.8,1.2-1.8c-0.3,0-0.4,0-1.8,1.6c-1.2,1.2-1.6,1.6-1.8,1.6c-0.1,0,0.1-0.3,1.4-1.6c0.8-0.9,1.5-1.6,1.5-1.6C92.6,171,92.4,171,92.2,171H91.8l-1.5,1.6c-1.1,1-1.6,1.5-1.7,1.5s0.3-0.4,1.4-1.6c1.6-1.6,1.6-1.6,1-1.6c-0.2,0-0.4,0.1-1.7,1.5c-1.2,1.1-1.6,1.5-1.7,1.5c-0.1-0.1,0.2-0.4,1.4-1.6c0.9-0.9,1.4-1.5,1.3-1.5c0-0.1-0.2-0.1-0.3-0.1c-0.3-0.1-0.3-0.1-1.8,1.4c-1.2,1.3-1.5,1.6-1.6,1.5c-0.1,0,0.1-0.3,1.3-1.5c1.5-1.6,1.5-1.5,1-1.7c-0.2,0-0.3,0.1-1.7,1.5c-1,1-1.4,1.4-1.5,1.4s0.2-0.4,1.2-1.5c0.7-0.7,1.4-1.4,1.4-1.4c0-0.1-0.1-0.1-0.3-0.2l-0.3-0.1-1.4,1.4c-1.3,1.3-1.6,1.6-1.6,1.4c0-0.1,0.6-0.7,1.3-1.5c0.8-0.7,1.3-1.3,1.3-1.3C87.3,170,87.2,170,87,169.9l-0.3-0.1-1.3,1.4c-0.9,0.9-1.4,1.4-1.5,1.4s-0.2,0-0.2,0c0-0.1,0.6-0.7,1.4-1.4c0.7-0.8,1.3-1.4,1.3-1.4c0-0.1-0.1-0.1-0.3-0.2l-0.3-0.1-1.5,1.5c-1.1,1.2-1.5,1.6-1.7,1.6c-0.1,0,0-0.2,0.8-1c0.5-0.6,1.2-1.3,1.5-1.6l0.6-0.6-0.3-0.1-0.3-0.2-1.8,1.9c-1.3,1.3-2,1.9-2.1,2c-0.3,0.1,0-0.3,1.4-1.7c0.9-0.9,1.8-1.8,1.9-1.9c0.2-0.2,0.3-0.3,0.3-0.3c0-0.1-0.2-0.1-0.3-0.2l-0.3-0.1-2,2.1c-1.2,1.1-2.5,2.5-3.1,3.1s-1.4,1.3-1.8,1.7s-1.4,1.5-2.3,2.3c-0.8,0.9-3.2,3.5-5.3,5.6l-3.9,4V188c0,0.3,0,0.5,0,0.5s0.8-0.8,1.8-1.8c4.2-4.3,4.4-4.5,4.2-4.1c-0.1,0.2-1.1,1.3-3.1,3.4l-3,3v0.5l-0.1,0.4,2.6-2.6c2.1-2.1,2.6-2.5,2.4-2.3c-0.1,0.3-0.9,1.2-2.5,2.9l-2.5,2.4v0.9l2.2-2.1c1.1-1.2,2.1-2.2,2.1-2.2c0.2,0.1-0.3,0.7-2.2,2.6l-2.1,2.1v0.9l1.9-1.9c1.6-1.6,2.1-2,1.7-1.4c-0.1,0.1-0.9,1-1.8,1.9l-1.7,1.7v0.4c0,0.2,0,0.4,0.1,0.4c0,0,0.7-0.7,1.6-1.6c1.2-1.3,1.6-1.5,1.5-1.4c0,0.2-0.5,0.8-1.6,1.8L65.6,194v0.4c0,0.1,0.1,0.3,0.1,0.3s0.6-0.6,1.4-1.3c1.2-1.2,1.3-1.3,1.3-1.1c-0.1,0.2-0.4,0.6-1.4,1.5c-1.1,1.2-1.2,1.3-1.2,1.6c0,0.6,0,0.6,1.2-0.6c0.6-0.7,1.2-1.2,1.2-1.2s0,0.1,0,0.2c-0.1,0.1-0.6,0.7-1.2,1.4c-1.1,1.1-1.1,1.1-1.1,1.4c0.1,0.1,0.1,0.3,0.1,0.3c0.1,0.1,0.5-0.4,1.1-0.9c0.8-0.9,1-1,1-0.9c0,0.2-0.3,0.5-1,1.2l-1,1v0.4c0.1,0.1,0.1,0.3,0.1,0.3c0,0.1,0.4-0.3,0.9-0.7c0.7-0.8,0.8-0.9,0.8-0.7c0,0.1-0.2,0.4-0.8,1l-0.8,0.8,0.1,0.3c0,0.2,0.1,0.3,0.1,0.4c0,0,0.4-0.3,0.8-0.8c0.6-0.6,0.7-0.7,0.7-0.5c0,0.1-0.1,0.3-0.4,0.6c-0.3,0.2-0.6,0.6-0.8,0.8c-0.3,0.3-0.3,0.3-0.2,0.6l0.1,0.4,0.6-0.7C67.9,199,68,198.9,68,199.1c0,0.1-0.2,0.3-0.6,0.8l-0.6,0.6,0.1,0.3c0,0.2,0,0.3,0.1,0.4c0,0,0.2-0.3,0.6-0.6c0.7-0.7,0.7-0.5,0,0.3l-0.5,0.6v0.4l0.1,0.3,0.6-0.5c0.4-0.5,0.5-0.6,0.5-0.4c0,0.1-0.2,0.4-0.5,0.7l-0.5,0.5,0.1,0.3c0.1,0.1,0.2,0.3,0.2,0.3s0.2-0.2,0.4-0.4c0.4-0.3,0.4-0.4,0.4-0.3s-0.1,0.4-0.3,0.6c-0.4,0.5-0.4,0.5-0.3,0.7c0,0.2,0.1,0.3,0.1,0.3s0.2-0.1,0.4-0.3c0.4-0.4,0.4-0.4,0.4-0.2c0,0.1-0.1,0.3-0.3,0.5c-0.4,0.3-0.4,0.4-0.2,0.7c0.1,0.2,0.2,0.2,0.4-0.1c0.4-0.3,0.5-0.1,0.1,0.3l-0.2,0.3,0.1,0.2c0.2,0.2,0.2,0.3,0.4,0.1s0.2-0.1,0.2,0.1c-0.1,0.3-0.1,0.3,0.2,0.2c0.1,0,0.3-0.1,0.3-0.1zm50-0.2c0.9-0.9,2.1-4.7,2.9-9.1c0.3-1.9,0.4-3.5,0.4-5.4c0-2.3-0.2-4.2-0.7-6.2c-0.9-4-2.4-6.8-5.2-10c-0.4-0.3-1.1-1.1-1.6-1.7c-1.4-1.7-2.9-2.9-6.2-5.1c-1.2-0.8-1.4-1-1.5-1.2c0,0-0.3,0.2-0.7,0.4c-2.8,1.9-6.1,3.1-9.6,3.7H96.9l-1.1,1.2-1.1,1.1v0.9l0.9-0.9c0.7-0.7,0.9-0.9,0.9-0.8s-0.4,0.6-0.9,1.1c-0.8,1-0.9,1-0.8,1.3c0,0.1,0.1,0.2,0.1,0.3c0,0,0.4-0.4,0.9-0.8c0.6-0.7,0.8-0.8,0.8-0.7c0,0.2-0.2,0.4-0.8,1l-0.8,0.8,0.1,0.3c0.1,0.2,0.1,0.3,0.2,0.3c0,0,0.4-0.3,0.8-0.7c0.6-0.6,0.7-0.7,0.7-0.6s-0.2,0.4-0.7,0.9l-0.7,0.7,0.1,0.3c0.1,0.1,0.2,0.2,0.2,0.2c0.1,0,0.4-0.3,0.8-0.7c0.6-0.6,0.7-0.7,0.8-0.6c0,0.1-0.2,0.3-0.7,0.9c-0.8,0.7-0.8,0.8-0.4,1.1c0.1,0.1,0.2,0,0.8-0.6c0.4-0.4,0.7-0.6,0.7-0.6c0.1,0-0.1,0.3-0.6,0.8l-0.7,0.8,0.3,0.1,0.2,0.2,0.7-0.7c0.5-0.5,0.7-0.6,0.8-0.6c0.1,0.1-0.1,0.3-0.6,0.8l-0.7,0.7,0.3,0.2,0.2,0.2,0.7-0.7c0.4-0.5,0.6-0.6,0.7-0.6c0.1,0.1,0,0.2-0.5,0.8l-0.7,0.7,0.3,0.2,0.2,0.1,0.7-0.6c0.5-0.6,0.7-0.7,0.8-0.6c0,0.1-0.1,0.2-0.6,0.7l-0.6,0.7,0.2,0.2c0.1,0,0.2,0.1,0.2,0.1c0.1,0,0.4-0.3,0.7-0.6c0.5-0.5,0.7-0.6,0.8-0.6s0,0.2-0.5,0.7c-0.3,0.3-0.6,0.7-0.6,0.7s0.1,0.1,0.2,0.2l0.2,0.2,0.7-0.7c0.9-0.9,1.1-0.8,0.3,0.1c-0.4,0.4-0.7,0.7-0.7,0.7s0.1,0.1,0.3,0.2l0.2,0.1,0.7-0.6c0.5-0.5,0.7-0.7,0.8-0.6c0.1,0,0,0.2-0.6,0.7c-0.3,0.4-0.6,0.7-0.6,0.7c0.1,0.1,0.2,0.1,0.3,0.2l0.3,0.1,0.6-0.7c0.4-0.5,0.6-0.6,0.7-0.5c0.1,0,0.1,0.1-0.5,0.7s-0.6,0.6-0.5,0.7c0.3,0.3,0.4,0.3,1.1-0.4c0.4-0.4,0.7-0.6,0.7-0.6c0.1,0.1-0.1,0.3-0.5,0.7c-0.3,0.4-0.6,0.7-0.6,0.7s0.1,0.1,0.3,0.2l0.2,0.1,0.6-0.6c0.5-0.5,0.7-0.6,0.8-0.6c0.1,0.1,0,0.2-0.5,0.7c-0.3,0.3-0.6,0.6-0.6,0.7c0,0,0.1,0.1,0.3,0.1l0.3,0.2,0.5-0.6c0.4-0.5,0.6-0.6,0.7-0.6c0.1,0.1,0.1,0.2-0.4,0.7l-0.6,0.6,0.2,0.2c0.1,0,0.2,0.1,0.3,0.1c0,0,0.3-0.2,0.6-0.6c0.5-0.4,0.6-0.5,0.7-0.5c0.1,0.1,0,0.2-0.5,0.7l-0.6,0.6,0.3,0.2,0.2,0.1,0.6-0.5c0.5-0.5,0.6-0.6,0.7-0.6c0.2,0.1,0.1,0.2-0.4,0.7c-0.3,0.3-0.6,0.6-0.6,0.6s0.2,0.1,0.3,0.2l0.2,0.2,0.6-0.6c0.8-0.7,0.9-0.6,0.2,0.2l-0.6,0.6,0.3,0.2,0.2,0.2,0.5-0.6c0.6-0.5,0.8-0.7,0.8-0.4c0,0-0.3,0.3-0.6,0.6l-0.5,0.6,0.2,0.2c0.1,0.1,0.2,0.2,0.3,0.2c0,0,0.3-0.3,0.5-0.6c0.5-0.5,0.6-0.6,0.7-0.5s0,0.2-0.5,0.7l-0.6,0.6,0.2,0.2,0.2,0.3,0.6-0.6c0.5-0.5,0.7-0.6,0.7-0.5c0.1,0,0,0.2-0.5,0.7l-0.6,0.6,0.2,0.2,0.2,0.2,0.6-0.6c0.5-0.5,0.6-0.6,0.7-0.5s0,0.2-0.5,0.7l-0.6,0.6,0.1,0.3c0.1,0.1,0.2,0.2,0.2,0.2c0.1,0.1,0.3-0.2,0.7-0.5c0.4-0.4,0.6-0.6,0.7-0.6c0,0.1-0.2,0.3-0.6,0.7l-0.6,0.7,0.2,0.3,0.2,0.2,0.6-0.6c0.5-0.5,0.7-0.6,0.7-0.6c0.1,0.1-0.1,0.3-0.5,0.8l-0.7,0.6,0.2,0.3c0.1,0.1,0.2,0.2,0.2,0.2c0.1,0,0.3-0.3,0.7-0.6c0.3-0.4,0.5-0.5,0.6-0.5c0,0.1-0.1,0.3-0.5,0.7c-0.3,0.4-0.6,0.7-0.6,0.7c0,0.1,0.1,0.2,0.1,0.3l0.2,0.2,0.6-0.6c0.3-0.3,0.6-0.6,0.7-0.6s-0.1,0.4-0.6,0.9l-0.6,0.6,0.2,0.2c0,0.1,0.1,0.3,0.2,0.3c0,0,0.3-0.3,0.6-0.6c0.5-0.5,0.6-0.6,0.7-0.5c0,0-0.1,0.2-0.6,0.7c-0.6,0.6-0.6,0.7-0.5,0.8s0.1,0.2,0.2,0.3c0,0.1,0.2-0.1,0.7-0.5c0.4-0.5,0.6-0.6,0.6-0.5c0.1,0.1,0,0.3-0.5,0.7l-0.6,0.7,0.1,0.2c0.1,0.1,0.2,0.3,0.3,0.3c0,0,0.3-0.3,0.6-0.6c0.4-0.5,0.5-0.6,0.6-0.5s-0.1,0.2-0.5,0.7l-0.6,0.6,0.1,0.3c0.1,0.1,0.2,0.2,0.2,0.2s0.3-0.2,0.6-0.5s0.6-0.5,0.6-0.5c0.2,0,0,0.3-0.5,0.8c-0.3,0.3-0.5,0.5-0.5,0.5c0,0.1,0.1,0.2,0.1,0.3l0.2,0.3,0.5-0.6c0.5-0.4,0.6-0.5,0.7-0.4c0,0,0,0.2-0.5,0.6l-0.6,0.6,0.2,0.3c0,0.1,0.1,0.3,0.2,0.3c0,0,0.2-0.3,0.5-0.6c0.3-0.2,0.5-0.5,0.5-0.5c0.2,0,0,0.4-0.4,0.8c-0.3,0.3-0.5,0.5-0.5,0.6c0,0,0.1,0.1,0.2,0.2l0.1,0.3,0.5-0.5c0.5-0.5,0.6-0.6,0.6-0.5c0,0.2-0.1,0.3-0.4,0.7c-0.5,0.5-0.6,0.5-0.5,0.8c0.1,0.1,0.2,0.2,0.2,0.2c0.1,0.1,0.3-0.1,0.6-0.4c0.4-0.4,0.5-0.4,0.5-0.3s-0.1,0.2-0.4,0.6l-0.5,0.5,0.1,0.2c0.1,0.2,0.1,0.3,0.1,0.3c0.1,0,0.3-0.2,0.6-0.4c0.4-0.4,0.5-0.5,0.5-0.4s-0.1,0.3-0.4,0.6c-0.5,0.5-0.5,0.5-0.4,0.8c0,0.1,0.1,0.2,0.2,0.2c0,0.1,0.2-0.1,0.5-0.4s0.4-0.4,0.5-0.3c0,0.1-0.1,0.3-0.4,0.6l-0.5,0.5,0.1,0.3,0.2,0.3,0.4-0.4c0.4-0.4,0.5-0.5,0.5-0.3c0,0.1-0.1,0.2-0.4,0.5l-0.4,0.5,0.1,0.2c0.1,0.2,0.2,0.3,0.2,0.3c0,0.1,0.2-0.1,0.4-0.3c0.3-0.4,0.4-0.4,0.5-0.3c0,0.1-0.1,0.3-0.4,0.6l-0.4,0.4,0.1,0.3,0.1,0.3,0.4-0.4c0.4-0.4,0.4-0.4,0.5-0.3c0,0.1-0.1,0.3-0.4,0.6l-0.4,0.4,0.1,0.3c0.1,0.1,0.1,0.3,0.2,0.3c0,0,0.2-0.2,0.4-0.4c0.3-0.3,0.4-0.3,0.4-0.2c0,0.2-0.2,0.4-0.4,0.6l-0.3,0.3,0.1,0.3,0.1,0.3,0.3-0.3c0.2-0.2,0.4-0.3,0.4-0.3c0.2,0,0,0.3-0.3,0.6l-0.3,0.3,0.1,0.3c0.1,0.2,0.2,0.3,0.2,0.3s0.1-0.1,0.3-0.2c0.3-0.3,0.3-0.3,0.3-0.1c0,0.1-0.1,0.3-0.3,0.4l-0.2,0.3,0.1,0.3,0.1,0.3,0.3-0.3,0.2-0.2v0.2c0,0.1-0.1,0.2-0.2,0.3l-0.1,0.2,0.1,0.3c0.2,0.3,0.2,0.3,0.3,0.2c0.2-0.1,0.2-0.1,0.2,0c0,0.2-0.1,0.3-0.1,0.3c-0.1,0.1,0.5,0.7,0.7,0.7c0.1,0,0.3-0.2,0.5-0.4zm43.1-14.1c0.9-0.8,1.1-1.1,1.3-1.1c0.2-0.1,0.1,0.1-0.8,1c-0.6,0.6-1,1.1-1,1.1s0.2,0,0.5,0c0.4,0,0.4,0,1.6-1.3c0.7-0.7,1.3-1.2,1.5-1.4c0.3-0.1,0.2,0-0.8,1.1c-0.7,0.7-1.2,1.2-1.1,1.2c0,0.1,0.4-0.1,0.7-0.3c0.7-0.3,0.8-0.4,1.8-1.4c0.9-1,1.1-1.2,1.3-1.8c0.5-1,0.7-1.9,0.7-3.1c0-1.3-0.1-2.1-0.7-3.2c-1.7-3.5-5.8-4.9-9.3-3.2c-1.2,0.6-2.4,1.8-3,3c-0.2,0.2-0.2,0.4-0.2,0.5c0,0,0.2-0.2,0.5-0.5s0.5-0.5,0.5-0.4s0,0.2,0,0.2c0,0.1-0.3,0.4-0.7,0.8c-0.7,0.7-0.7,0.7-0.8,1.2c0,0.2-0.1,0.4,0,0.5c0,0,0.2-0.2,0.5-0.5c0.3-0.4,0.6-0.6,0.6-0.6c0.2,0-0.1,0.4-0.7,1l-0.6,0.6v0.9l0.7-0.6c0.5-0.6,0.6-0.6,0.6-0.4c0,0.1-0.2,0.3-0.6,0.8c-0.6,0.5-0.6,0.6-0.6,0.8c0.1,0.6,0.1,0.6,0.7,0c0.3-0.4,0.6-0.6,0.7-0.6s-0.1,0.2-0.6,0.8l-0.6,0.7,0.1,0.3,0.1,0.3,0.6-0.6c0.5-0.5,0.7-0.6,0.7-0.5c0.1,0.1-0.1,0.2-0.6,0.7l-0.6,0.7,0.1,0.3c0.1,0.1,0.1,0.3,0.2,0.3c0,0,0.3-0.3,0.7-0.7c0.9-0.9,1-0.7,0.1,0.3l-0.7,0.7,0.2,0.3,0.1,0.2,0.8-0.7c0.6-0.6,0.7-0.8,0.8-0.7s-0.1,0.3-0.7,0.9l-0.7,0.7,0.2,0.3c0.1,0.1,0.2,0.2,0.2,0.2s0.4-0.4,0.8-0.8c0.6-0.6,0.8-0.8,0.9-0.7c0,0-0.1,0.2-0.7,0.9c-0.4,0.4-0.8,0.8-0.8,0.8c0,0.1,0.1,0.2,0.2,0.3l0.2,0.1,0.9-0.8c0.8-0.8,1-1,1-0.8c0,0.1-0.3,0.5-0.8,1l-0.9,0.8,0.3,0.2,0.3,0.2,0.9-1c0.7-0.7,0.9-0.9,1-0.8c0.2,0,0,0.2-0.8,1l-0.9,0.9,0.2,0.2c0.2,0.1,0.3,0.1,0.4,0.1c0,0,0.4-0.4,1-1c0.7-0.7,1-1,1.1-0.9c0.1,0-0.1,0.3-0.9,1c-0.9,1-0.9,1-0.8,1.1c0.4,0.2,0.5,0.2,1.5-0.9c0.7-0.7,1.1-1,1.2-1c0.1,0.1-0.1,0.3-0.9,1.1c-0.5,0.6-0.9,1-0.9,1.1c0,0,0.2,0,0.3,0.1h0.3l1-1c0.9-0.9,1.1-1.1,1.3-1.1s0,0.1-0.9,1.1c-0.7,0.7-1,1-0.9,1.1c0,0,0.2,0,0.4,0c0.3,0,0.3,0,1.3-1.1zm-0.1-1.8c0.1-0.4,0.1-1.3-0.1-1.7c-0.1-0.2-0.2-0.4-0.2-0.4c-0.1,0-0.3,0.3-0.5,0.5c-0.7,0.9-1.6,1.2-2.5,0.8c-1-0.5-1.3-1.2-1-2.9c0.1-0.8,0.8-4.5,0.9-4.5c0-0.1,4.3,1.4,4.9,1.7c1.1,0.6,1.5,1.3,1.2,2.5c-0.2,0.7-1,1.3-1.8,1.4c-0.7,0.1-0.8,0.2-0.4,0.7c0.3,0.4,0.8,0.7,1.2,0.8l0.4,0.1-0.6,0.3c-0.3,0.2-0.7,0.5-1,0.7l-0.6,0.3,0.1-0.3zM28,191.1c0.7-0.7,1-0.9,1.1-0.9c0.2,0,0.1,0.1-0.7,0.9C28,191.6,27.6,192,27.6,192s0.2,0,0.5,0c0.4-0.1,0.4-0.1,1.3-1c0.7-0.7,1-0.9,1.1-0.9c0.2,0,0.1,0.1-0.6,0.8c-0.5,0.5-0.9,0.9-0.8,0.9c0,0,0.8-0.2,1-0.4c0.1,0,0.6-0.5,1.1-1s1-0.9,1.1-1c0.3-0.2,0.3-0.2-0.1,0.3c-0.3,0.3-0.6,0.7-0.8,0.8c-0.1,0.2-0.3,0.3-0.3,0.3c0,0.2,0.7-0.4,1.2-0.9C35,187.1,35,182.6,32.2,179.8c-1.8-1.8-4.5-2.5-7-1.6c-0.8,0.2-1,0.4-1.6,1.1c-0.3,0.3-1,1.1-1.6,1.7c-0.9,0.9-1.1,1.1-1.2,1.5c-0.3,1-0.3,1,0.5,0.2C22,182,22,181.9,22,182.2c-0.1,0.2-0.4,0.5-0.8,1c-0.7,0.7-0.7,0.7-0.8,1.1c0,0.3,0,0.4,0.1,0.4c0,0,0.3-0.2,0.7-0.6c0.5-0.5,0.5-0.6,0.5-0.4c0,0.1-0.3,0.5-0.7,0.9c-0.5,0.5-0.6,0.7-0.6,0.9c0,0.5,0.1,0.5,0.7-0.1c0.5-0.5,0.6-0.6,0.7-0.4c0,0.1-0.2,0.3-0.6,0.7c-0.3,0.3-0.6,0.7-0.6,0.7c0,0.1,0,0.3,0.1,0.4l0.1,0.3,0.5-0.6c0.4-0.3,0.7-0.6,0.7-0.6c0.1,0,0,0.2-0.6,0.8l-0.6,0.7,0.1,0.3,0.2,0.3,0.6-0.6c0.5-0.5,0.6-0.6,0.7-0.6c0.1,0.1,0,0.3-0.5,0.8l-0.7,0.6,0.1,0.3c0.1,0.1,0.2,0.2,0.3,0.2c0,0,0.3-0.2,0.6-0.6c0.5-0.4,0.6-0.6,0.7-0.5c0,0.1-0.1,0.3-0.6,0.7c-0.3,0.4-0.6,0.7-0.6,0.8c0,0,0.1,0.1,0.2,0.2l0.2,0.2,0.7-0.7c0.5-0.5,0.7-0.7,0.8-0.6c0,0.1-0.1,0.3-0.6,0.8l-0.8,0.7,0.2,0.2c0.1,0.1,0.2,0.2,0.3,0.2c0,0,0.4-0.3,0.7-0.7c0.6-0.5,0.7-0.7,0.8-0.6c0.2,0,0.1,0.1-0.6,0.8l-0.7,0.7,0.2,0.3,0.3,0.2,0.8-0.9c0.5-0.5,0.8-0.7,0.9-0.7s-0.1,0.3-0.7,0.9c-0.8,0.9-0.8,0.8-0.4,1c0.1,0.1,0.3,0,1-0.7s0.9-0.9,1-0.8s-0.1,0.2-0.8,0.9l-0.8,0.9,0.3,0.1c0.1,0,0.3,0.1,0.3,0.1c0.1,0,0.5-0.4,0.9-0.9c0.7-0.7,0.9-0.9,1-0.8c0.1,0,0,0.1-0.7,0.9c-0.5,0.5-0.8,0.9-0.8,0.9s0.1,0.1,0.3,0.1l0.3,0.1,0.9-0.9c0.6-0.6,1-0.9,1.1-0.9c0,0.1-0.2,0.4-0.8,0.9c-0.4,0.5-0.8,0.9-0.8,0.9c0,0.1,0.1,0.1,0.3,0.1c0.1,0,0.3,0,0.3,0c0.1,0.1,0.5-0.4,1-0.9zm-2.6-2.4c-0.4-0.2-0.8-0.5-0.9-0.6C24.3,188,24.4,188,24.7,187.9c0.8-0.2,1.6-1,1.5-1.6c0-0.3-0.1-0.3-0.5-0.1c-1,0.4-2,0.1-2.5-0.7C23,185.2,22.9,185,22.9,184.6c0-0.5,0-0.6,0.2-1c0.7-1.3,2.3-1.4,3.4-0.1c0.1,0.2,0.3,0.3,0.3,0.3s0.1-0.3,0-0.6c0-0.9,0.2-1.4,0.7-1.9c0.3-0.3,0.5-0.4,0.8-0.5c1.2-0.3,2.3,0.6,2.3,1.9c0,0.8-0.5,1.5-1.4,2c-0.3,0.1-0.5,0.2-0.5,0.3c0,0,0.2,0,0.4,0.1c1.2,0.1,2,0.9,2,2c0,0.6-0.2,0.9-0.5,1.3c-0.5,0.5-1.2,0.7-1.9,0.5c-0.8-0.2-1.3-0.9-1.4-1.8c0-0.4-0.1-0.4-0.2-0.4c-0.6,0-1.1,1.3-0.8,2.1c0.1,0.3,0.1,0.4,0,0.4c0,0-0.4-0.2-0.9-0.5zm50-11.5c4.6-4.7,8.3-8.5,8.3-8.6c0,0-0.1-0.1-0.2-0.1l-0.3-0.2-8.6,8.9c-4.8,4.8-8.7,8.8-8.7,8.9c0,0-0.1,0.3-0.1,0.5l-0.1,0.5,0.7-0.7c0.4-0.4,4.5-4.5,9-9.2zm-1.6,0.4c4.2-4.4,8-8.3,8.4-8.7l0.8-0.7-0.3-0.1c-0.1-0.1-0.2-0.2-0.3-0.2c0,0-3.7,3.7-8.1,8.3c-7,7.1-8.1,8.2-8.1,8.5c-0.1,0.4-0.2,0.8-0.2,0.8s3.5-3.6,7.8-7.9zm0.5-1.8c4.3-4.4,7.8-8,7.8-8c0-0.1-0.1-0.2-0.2-0.3l-0.3-0.1-0.5,0.5C79.4,169.7,67.2,182.1,67,182.4c-0.2,0.1-0.3,0.4-0.4,0.8c-0.1,0.3-0.2,0.6-0.2,0.6c0.1,0,3.6-3.6,7.9-8zm0-1.3c3.8-3.9,7-7.2,7-7.3c0,0-0.1-0.1-0.2-0.2l-0.2-0.1-6.7,6.8c-6.5,6.6-6.6,6.8-6.8,7.3c-0.4,0.8-0.4,0.8-0.3,0.8s3.3-3.3,7.2-7.3zm-50.6,4.4c0-0.2-1.4,1.1-1.9,1.7c-0.1,0.2-0.2,0.4-0.2,0.4s0.4-0.4,1-1c0.6-0.5,1.1-1,1.1-1.1zm50.5-5.6c2.9-3,5.3-5.5,5.3-5.5s-0.5,0.3-1.2,0.8c-1.2,0.8-1.2,0.8-5,4.8c-2.6,2.5-4,4.1-4.2,4.4c-0.5,0.7-1,1.6-1,1.7s0.1-0.1,0.3-0.3s2.8-2.8,5.8-5.9zm-0.3-1c0.9-0.9,1.5-1.6,1.5-1.5c-0.6,0.3-3.3,3.1-3.1,3.1c0,0,0.8-0.7,1.6-1.6zm-33.8,0.8c1.8-0.4,4.6-1.4,10.6-4c4.8-2.1,6.7-2.8,8.4-3.4c0.7-0.2,1.4-0.4,1.6-0.5s1.1-1,4-3.9c2.1-2.2,4.2-4.3,4.7-4.8l0.9-1-0.1-0.3C70.1,155.1,70,155,70,155s-1.9,1.9-4.1,4.1c-4,4.2-5.7,5.8-5.5,5.6c0.1-0.1,0.2-0.3,0.2-0.4c0.1-0.2,2.1-2.3,4.5-4.7c2.4-2.5,4.5-4.6,4.6-4.7c0.1-0.2,0.1-0.2,0-0.5c-0.1-0.1-0.2-0.2-0.2-0.2s-1.9,2-4.3,4.4c-2.3,2.4-4.3,4.3-4.3,4.3s0-0.1,0-0.1c0-0.2,1.8-2.1,7.6-8l0.9-0.9-0.2-0.3c-0.1-0.2-0.2-0.2-0.3-0.1c-1.8,1.9-8.2,8.4-8.2,8.4c0-0.1-0.1-0.1-0.1-0.2c0,0,1.9-2,4.2-4.3l4.1-4.3-0.1-0.2c-0.1-0.2-0.2-0.3-0.2-0.3s-1.9,1.9-4.2,4.2c-2.8,2.9-4.2,4.2-4.2,4.2c-0.1,0-0.1,0,0-0.2c0.1-0.1,4.5-4.7,7.5-7.7l0.8-0.8-0.2-0.3c-0.1-0.1-0.1-0.2-0.2-0.2c0,0-1.7,1.7-3.7,3.8c-2.1,2.1-4,4.1-4.3,4.3c-0.4,0.4-0.5,0.6-0.6,0.5c-0.1,0,0.8-1,4.1-4.4c2.3-2.4,4.2-4.3,4.2-4.4c0,0-0.1,0-0.4,0H67l-4.1,4.2c-2.2,2.3-4.1,4.2-4.2,4.2s-0.1,0-0.1-0.1c0,0,1.8-1.9,4-4.2l4-4.1H65.8l-2.7,2.8c-5,5.1-5.3,5.3-5.4,5.3c-0.1-0.1,0.6-0.8,3.2-3.5c1.8-1.9,3.6-3.7,3.9-4l0.6-0.6H64.5l-3.9,4c-3.1,3.1-4,4.1-4.2,4.1c-0.1,0,0.4-0.6,2.5-2.7c4-4.1,5.2-5.3,5.1-5.4c0,0-0.2,0-0.4,0l-0.4,0.1-3.6,3.7c-2,2-3.7,3.8-3.9,4c-0.2,0.1-0.4,0.3-0.6,0.4c-0.2,0-0.1-0.1,0.8-1.1c5.5-5.5,6.7-6.8,6.8-6.9c0-0.1-0.6,0-0.9,0.1c-0.1,0-1.9,1.9-4.1,4.1c-2.1,2.2-4,4.1-4,4.1c-0.1,0-0.2,0-0.3,0s0.4-0.5,4.8-4.9c1.7-1.8,3-3.2,3-3.2s-0.3,0-0.6,0.1l-0.5,0.1-4,4.2c-3,3.1-4.2,4.2-4.4,4.3c-0.3,0.1-0.3,0.1,0.5-0.6c0.4-0.5,2.2-2.4,4-4.2c1.8-1.9,3.3-3.4,3.3-3.4c0-0.1-0.3,0-0.6,0.1l-0.5,0.1-4.2,4.3c-3.6,3.7-4.7,4.8-4.8,4.7c0,0,1.8-2,4.2-4.4C55.9,155,57.7,153,57.7,153c-0.1,0-0.3,0.1-0.7,0.2l-0.5,0.2-4.6,4.7c-3.4,3.5-4.7,4.7-5,4.9c-0.4,0.2-0.3,0.2,0.8-0.9c4.2-4.3,8.1-8.4,8.1-8.4s-0.3,0.1-0.7,0.3l-0.7,0.2-5.5,5.7c-3.7,3.7-5.9,6-6.5,6.5l-1,0.8,1.1-1.1c8.2-8.4,11.1-11.4,11.1-11.4s-0.4,0.2-0.9,0.4l-0.8,0.5-3.9,4c-2.2,2.2-5.3,5.3-6.9,7c-3,3-3,3.1-3.2,3.7c-0.2,0.3-0.3,0.6-0.3,0.7c-0.1,0.1,0.2-0.1,0.5-0.4l0.5-0.5-0.5,0.6c-0.7,0.9-0.7,1-0.7,1.5s0.1,0.8,0.5,0.9c0.3,0.2,1.4,0.2,2.2,0zm109.3,0c0.2-0.1,0.4-0.1,0.3,0.1c0,0.1,0.6,0.1,0.9-0.1c1.1-0.4,0.5-2.5-1.8-6.1c-1.4-2.1-2.7-3.7-4.7-5.7c-4.5-4.5-9.8-7.5-15.6-9c-2.2-0.6-3.3-0.7-6-0.7h-2.1l-0.3,0.7c-1.3,2.2-2.8,4.6-4.3,6.4c-0.2,0.3-0.4,0.5-0.4,0.6c0,0,0.2-0.2,0.4-0.4s0.4-0.4,0.4-0.3c0.1,0.1-0.6,0.9-3.6,4c-3.3,3.4-3.5,3.6-3.3,3.6c0.6,0.1,0.5,0.1,3.5-2.9c1.5-1.6,2.8-2.9,2.8-2.9s0,0.1,0,0.2c0,0.2-0.9,1.1-2.6,2.8c-1.4,1.5-2.5,2.6-2.5,2.7c0,0,0.2,0,0.4,0l0.5-0.1,2-2.1c1.1-1.1,2.1-2.1,2.1-2.1c0.2,0-0.2,0.5-1.8,2.1c-0.9,1.1-1.7,1.9-1.7,1.9c0,0.1,0.2,0,0.5,0l0.4-0.1,1.7-1.7c1.2-1.2,1.7-1.7,1.8-1.7s-0.2,0.4-1.4,1.6c-0.8,0.9-1.5,1.6-1.5,1.6s0.2,0,0.5,0c0.4-0.1,0.4-0.1,2-1.7c0.9-0.9,1.6-1.5,1.7-1.5s0,0.1-1.6,1.8c-0.6,0.6-1,1.1-1,1.1s0.2,0,0.5-0.1c0.4,0,0.5-0.1,1.8-1.4c1.1-1.1,1.4-1.4,1.5-1.4c0.2,0,0.1,0.2-1,1.3c-0.7,0.7-1.3,1.3-1.3,1.3c0.1,0,0.3,0,0.5,0l0.4-0.1,1.2-1.2c1-1,1.3-1.3,1.5-1.3c0.1,0,0,0.2-1,1.2c-0.6,0.6-1.1,1.1-1.1,1.2c0,0,0.3,0,0.5,0l0.4-0.1,1.1-1.1c0.8-0.9,1.1-1.1,1.2-1.1c0.2,0,0.1,0.1-0.6,0.8c-0.5,0.5-1,1-1.1,1.1l-0.2,0.3,0.5-0.1,0.5-0.1,1-0.9c1.3-1.4,1.6-1.4,0.4-0.1c-0.5,0.5-0.9,1-0.9,1s0.2,0,0.4,0c0.4,0,0.4-0.1,1.3-0.9c0.7-0.8,1.1-1,1.1-0.8c0,0-0.3,0.4-0.8,0.9l-0.8,0.8h0.8l0.8-0.8c0.6-0.6,0.8-0.8,0.9-0.8c0.2,0,0.2,0.1-0.5,0.8c-0.4,0.4-0.8,0.8-0.8,0.8c0.1,0,0.2,0.1,0.4,0.1h0.4l0.7-0.7c0.5-0.5,0.7-0.7,0.9-0.7c0.1,0,0,0.1-0.5,0.7c-0.4,0.3-0.7,0.7-0.7,0.7s0.2,0.1,0.4,0.1c0.3,0.1,0.3,0.1,1-0.6c0.6-0.6,0.8-0.8,0.8-0.6c0,0-0.2,0.3-0.5,0.7c-0.4,0.3-0.6,0.6-0.6,0.6s0.1,0.1,0.3,0.1c0.3,0,0.3,0,1-0.6c0.4-0.4,0.6-0.6,0.7-0.5c0.1,0,0,0.1-0.4,0.6l-0.6,0.6,0.3,0.1c0.1,0,0.3,0.1,0.3,0.1c0.1,0,0.4-0.3,0.7-0.6c0.4-0.5,0.5-0.6,0.6-0.5c0.2,0,0.1,0.1-0.4,0.6l-0.5,0.5,0.2,0.1c0.4,0.2,0.5,0.1,1.1-0.4c0.3-0.4,0.5-0.5,0.6-0.5c0,0-0.1,0.2-0.4,0.6l-0.5,0.6,0.3,0.1h0.3l0.5-0.5c0.4-0.4,0.6-0.5,0.7-0.4s0,0.2-0.4,0.6l-0.5,0.5h0.2c0.4,0.2,0.5,0.2,1-0.3c0.3-0.4,0.4-0.5,0.5-0.5c0.2,0.1,0.1,0.2-0.3,0.6l-0.5,0.5,0.2,0.1c0.2,0,0.3,0.1,0.4,0.1c0,0,0.3-0.2,0.5-0.4c0.3-0.3,0.5-0.5,0.6-0.5c0.1,0.1,0,0.3-0.3,0.6l-0.4,0.5,0.3,0.1H132l0.4-0.4c0.4-0.3,0.5-0.4,0.6-0.4c0.1,0.1,0,0.2-0.3,0.5l-0.4,0.5,0.2,0.1c0.2,0.1,0.3,0.1,0.4,0.1c0,0,0.2-0.2,0.4-0.4c0.3-0.3,0.4-0.4,0.5-0.3c0.1,0,0.1,0.1-0.2,0.4c-0.2,0.2-0.4,0.4-0.4,0.4s0.1,0.1,0.3,0.2l0.3,0.1,0.4-0.4c0.3-0.3,0.4-0.4,0.5-0.3c0,0-0.1,0.2-0.3,0.4l-0.3,0.4,0.2,0.1,0.3,0.2,0.4-0.4c0.3-0.3,0.4-0.4,0.5-0.3c0.1,0,0.1,0.1-0.2,0.4c-0.2,0.2-0.3,0.4-0.3,0.4c0.1,0.1,0.4,0.2,0.5,0.2s0.3-0.2,0.4-0.3c0.2-0.3,0.3-0.3,0.4-0.3c0.2,0,0.1,0.1-0.2,0.4l-0.3,0.3,0.2,0.1c0.4,0.2,0.4,0.2,0.8-0.1c0.2-0.2,0.3-0.3,0.4-0.3c0.1,0.1,0.1,0.2-0.2,0.4c-0.1,0.2-0.2,0.3-0.2,0.3c0,0.1,0.1,0.1,0.2,0.2c0.3,0.1,0.3,0.1,0.6-0.2c0.2-0.2,0.3-0.3,0.4-0.3c0.2,0.1,0.1,0.1-0.1,0.4c-0.2,0.1-0.3,0.3-0.3,0.3s0.1,0.1,0.3,0.2l0.3,0.1,0.3-0.3c0.2-0.2,0.3-0.3,0.4-0.3c0.1,0.1,0.1,0.1-0.2,0.4l-0.3,0.3,0.3,0.1c0.4,0.2,0.4,0.2,0.6-0.1c0.2-0.2,0.3-0.2,0.4-0.2s0.1,0.1-0.1,0.3l-0.2,0.3,0.2,0.1,0.3,0.1,0.3-0.2c0.1-0.2,0.3-0.2,0.4-0.2s0.1,0.1-0.1,0.3l-0.3,0.3,0.3,0.1c0.4,0.1,0.4,0.1,0.6-0.1c0.1-0.2,0.2-0.2,0.3-0.2c0.1,0.1,0.1,0.1-0.1,0.3c-0.1,0.1-0.1,0.2-0.1,0.2s0.1,0.1,0.2,0.2c0.3,0.1,0.3,0.1,0.5-0.1c0.2-0.1,0.3-0.2,0.4-0.2c0.1,0.1,0.1,0.1-0.1,0.3l-0.2,0.2,0.3,0.1c0.3,0.1,0.3,0.1,0.5,0c0.1-0.2,0.2-0.2,0.3-0.2c0.1,0.1,0.1,0.1,0,0.2c-0.2,0.2-0.2,0.3,0.1,0.4s0.4,0.1,0.5-0.1c0.2-0.1,0.3-0.1,0.3-0.1c0.1,0.1,0,0.1,0,0.2c-0.2,0.1-0.2,0.2,0.1,0.3c0.3,0.2,0.3,0.2,0.5,0c0.1-0.1,0.4-0.2,0.4-0.1s0,0.1-0.1,0.2c-0.2,0.1-0.2,0.2,0.1,0.3s0.3,0.1,0.5-0.1c0.1-0.1,0.2-0.1,0.3-0.1s0.1,0.1,0,0.2l-0.2,0.2,0.4,0.1c0.3,0.1,0.3,0.1,0.5-0.1c0.1-0.1,0.4-0.2,0.4-0.1s-0.1,0.1-0.2,0.2c-0.1,0.2-0.1,0.2,0.2,0.3s0.4,0.1,0.5-0.1c0.2-0.1,0.5-0.2,0.5-0.1s-0.1,0.2-0.2,0.2c-0.1,0.2-0.1,0.2,0.2,0.3s0.3,0.1,0.5-0.1c0.1-0.1,0.3-0.2,0.3-0.2c0.2,0.1,0.2,0.1,0.1,0.2c-0.2,0.2-0.2,0.3,0,0.3c0.4,0.1,0.5,0,0.6-0.1zM96.3,171c-0.1,0-0.3,0-0.5,0c-0.3,0.1-0.4,0.2-0.6,0.4c-0.3,0.3-0.5,0.8-0.5,1.2c0,0.1,0.3-0.1,0.9-0.7c0.7-0.7,0.8-0.9,0.7-0.9zM95,171.2c0-0.1,0-0.1,0-0.1c-0.1,0-0.1,0-0.1,0.1c0,0,0,0,0.1,0c0,0,0,0,0,0zm-1.9-0.6c0.2-0.2,0.2-0.3,0.1-0.3c-0.3-0.1-0.6-0.1-0.8,0.2c-0.2,0.1-0.3,0.3-0.3,0.3s0.1,0.1,0.3,0.1s0.3,0,0.3,0c0.1,0,0.2-0.1,0.4-0.3zm1.2,0.1c0.2-0.1,0.3-0.3,0.3-0.3c0-0.1-0.2-0.1-0.4-0.1c-0.4,0-0.5,0-0.7,0.3l-0.3,0.3h0.4c0.4,0,0.5,0,0.7-0.2zm1.4-0.1l0.3-0.4-0.5,0.1c-0.4,0-0.5,0.1-0.8,0.3l-0.3,0.3h0.5c0.4,0,0.4,0,0.8-0.3zm1.4-0.2c0.2-0.2,0.4-0.5,0.4-0.5s-0.3,0-0.5,0.1c-0.5,0.1-0.6,0.2-0.9,0.5l-0.4,0.4h0.5c0.4,0,0.4,0,0.9-0.5zM92,170.5c0.2-0.2,0.3-0.3,0.2-0.4c0,0-0.2,0-0.4,0C91.5,170,91.5,170,91.2,170.3l-0.3,0.4h0.3c0.4,0.1,0.5,0.1,0.8-0.2zm5.8,0.1c0.3,0,0.5-0.1,1-0.7c0.4-0.4,0.7-0.7,0.6-0.7c0,0-0.3,0.1-0.6,0.2c-0.6,0.2-0.7,0.3-1.1,0.8c-0.5,0.5-0.5,0.6,0.1,0.4zM91,170.3c0.2-0.3,0.3-0.4,0.2-0.4S91,169.8,90.8,169.8c-0.2-0.1-0.2-0.1-0.5,0.3c-0.2,0.1-0.3,0.3-0.3,0.3c0,0.1,0.3,0.2,0.6,0.2c0,0,0.2-0.1,0.4-0.3zm-1.1-0.2c0.1-0.2,0.3-0.4,0.3-0.4c0-0.1-0.1-0.1-0.2-0.2c-0.3-0.1-0.3-0.1-0.7,0.3C89.1,170,89,170.1,89,170.2c0,0,0.3,0.2,0.5,0.2c0,0,0.2-0.1,0.4-0.3zm9.5,0.2c0.3-0.1,0.5-0.3,1.3-1.1c0.6-0.5,1-0.9,1-1c0,0-0.4,0.1-0.8,0.3c-0.7,0.3-0.8,0.4-1.4,1.1c-0.4,0.5-0.7,0.8-0.7,0.8c0.1,0,0.3-0.1,0.6-0.1zM89,169.7c0.2-0.2,0.3-0.4,0.3-0.4S89.2,169.2,89,169.2l-0.3-0.1-0.3,0.3C88,169.9,88,170,88.2,170c0.3,0.1,0.4,0.1,0.8-0.3zm12.1,0.1c0.4-0.2,0.5-0.3,1.6-1.3c1.1-1.1,2.3-2.4,2.1-2.2c-0.1,0-0.5,0.3-0.9,0.5c-0.4,0.3-0.9,0.6-1,0.7c-0.3,0.1-2.5,2.4-2.4,2.4c0,0,0.3,0,0.6-0.1zm-13-0.4c0.2-0.2,0.3-0.4,0.3-0.4c0-0.1-0.1-0.2-0.3-0.2l-0.2-0.1-0.5,0.4c-0.2,0.2-0.4,0.4-0.4,0.5c0,0,0.3,0.2,0.5,0.2c0.1,0,0.3-0.2,0.6-0.4zM87.2,169c0.2-0.3,0.4-0.5,0.4-0.5c-0.1,0-0.2-0.1-0.3-0.1l-0.2-0.2-0.5,0.5c-0.3,0.3-0.5,0.5-0.5,0.6c0.1,0,0.4,0.2,0.5,0.2s0.3-0.2,0.6-0.5zm16.1-0.1c0.5-0.2,0.7-0.4,7.8-7.7c4-4.1,7.3-7.4,7.3-7.4c0.1,0,0.1,0,0.1,0c-0.1-0.1,0-0.2,0.1-0.3s1.2-1.9,1.1-2c0,0-7.7,7.8-8.1,8.3c-0.6,0.8-2.5,2.7-3.2,3.4c-2.1,1.9-6.2,6.1-5.9,6c0.1,0,0.5-0.2,0.8-0.3zm-17-0.3c0.2-0.2,0.4-0.5,0.4-0.5S86.5,168,86.4,167.9c-0.2-0.1-0.2-0.1-0.7,0.4c-0.2,0.3-0.4,0.5-0.4,0.6c0,0,0.3,0.2,0.4,0.2s0.3-0.2,0.6-0.5zm-0.8-0.4c0.5-0.5,0.5-0.5,0.1-0.7c-0.2-0.1-0.2-0.1-0.7,0.4c-0.3,0.2-0.5,0.5-0.5,0.5c0,0.1,0.3,0.3,0.5,0.3c0,0,0.3-0.2,0.6-0.5zm9.2-0.5l0.9-0.9H94.7l-0.8,0.9c-0.9,0.9-0.9,0.9-0.7,0.9c0.4,0.1,0.5,0.1,1.5-0.9zm1.4-0.1c0.5-0.6,1-1.1,1-1.1s-0.2,0-0.5,0c-0.4,0.1-0.5,0.2-1.4,1.1c-0.6,0.5-1,1-1,1c0,0.1,0.2,0.1,0.4,0.1H95l1.1-1.1zm0.1,0.9c0.3,0,0.5-0.2,1.7-1.5c0.7-0.8,1.3-1.4,1.2-1.4c-1.2,0.6-1.3,0.6-2.4,1.8c-0.7,0.6-1.2,1.1-1.2,1.2c0,0,0.1,0,0.2,0s0.4-0.1,0.5-0.1zM43.5,163.8c2.5-2.6,5.2-5.4,6-6.1c0.7-0.8,1.3-1.4,1.3-1.4c-0.1-0.1-1.7,1-2.1,1.3c-0.2,0.2-2.2,2.2-4.4,4.5c-4.1,4.1-4.3,4.4-5.2,5.9c-0.3,0.5-0.4,0.5-0.3,0.5c0,0,2.1-2.1,4.7-4.7zm49.9,3.9c0.5-0.4,0.9-0.8,0.9-0.9c0,0-0.2,0-0.4,0H93.4l-0.7,0.8C92.3,168,92,168.4,92,168.4c0,0.1,0.2,0.1,0.5,0.1c0.1,0,0.4-0.2,0.9-0.8zm-8.8,0l0.5-0.5-0.2-0.1c-0.1-0.1-0.2-0.2-0.2-0.2c-0.1,0-1.2,1.1-1.1,1.2c0.1,0,0.2,0,0.2,0.1c0.1,0.1,0.2,0.1,0.3,0.1c0,0,0.3-0.3,0.5-0.6zm7.7-0.1c0.5-0.5,0.7-0.8,0.7-0.8c0-0.1-0.2-0.1-0.4-0.1s-0.3,0-0.9,0.7c-0.4,0.3-0.7,0.7-0.7,0.7c0,0.1,0.3,0.2,0.5,0.2c0.1,0,0.5-0.3,0.8-0.7zm5.5,0.5c0.4-0.2,0.5-0.3,2.3-2.1c1.1-1.1,1.9-1.9,1.9-1.9c-0.1,0-0.5,0.2-1,0.5c-0.7,0.4-1,0.7-2.3,1.9c-0.8,0.8-1.5,1.5-1.5,1.6c-0.1,0.2,0,0.2,0.6,0zm8.5-0.9c1.5-1,3.1-2.4,4.9-4.2c1.1-1,2.6-2.7,3-3.2c0-0.1-1.2,1.1-2.8,2.7c-1.5,1.6-3.1,3-3.4,3.3l-0.5,0.4,0.4-0.4c0.3-0.3,6.9-7.1,7.5-7.8c0.2-0.1,0.2-0.2,0.2-0.1c-0.1,0.2,0,0,0.5-0.5c0.4-0.6,1.7-2.5,2.1-3.2c0.3-0.4,0.2-0.4-0.1,0.1c-0.2,0.2-3,3.1-6.3,6.5c-3.2,3.3-6.2,6.4-6.5,6.7l-0.7,0.7,0.5-0.3c0.3-0.1,0.8-0.5,1.2-0.7zm-15,0.1c0.3-0.3,0.6-0.6,0.6-0.7c0.1,0-0.1-0.1-0.2-0.1l-0.3-0.1-0.7,0.7c-0.4,0.3-0.7,0.7-0.7,0.7c0,0.1,0.3,0.2,0.5,0.2c0.1,0,0.4-0.3,0.8-0.7zm-7.5,0c0.3-0.3,0.5-0.5,0.5-0.6c0,0-0.1-0.1-0.2-0.2l-0.3-0.1-0.5,0.5c-0.3,0.3-0.5,0.6-0.5,0.6c0,0.1,0.4,0.3,0.5,0.4c0,0,0.2-0.3,0.5-0.6zm6.5-0.2c0.4-0.4,0.7-0.7,0.7-0.7c0-0.1-0.2-0.1-0.3-0.2l-0.3-0.1-0.6,0.6c-0.4,0.4-0.7,0.7-0.7,0.8c0,0,0.4,0.2,0.5,0.2s0.4-0.3,0.7-0.6zm9.5,0.2c0.6-0.2,0.7-0.3,3.3-3.1c2-2,2.9-2.9,3.2-3.1c0.6-0.3,0.5-0.3-3.6,3.9c-0.9,0.9-1.6,1.6-1.5,1.6s1-0.5,1.5-0.8c0.2-0.1,1.6-1.5,3.3-3.2c1.8-1.9,3.2-3.2,3.4-3.4c0.2-0.1,0.4-0.2,0.4-0.2c0,0.1-1.3,1.3-2.8,2.9c-1.5,1.5-2.7,2.8-2.7,2.8c0.1,0,1.6-1.1,2.6-2c2.8-2.5,5.8-5.9,7.5-8.7c1.9-3,3.7-7.3,6-14.2c4.2-12.5,5.9-22,5-27.2c-0.1-0.4-0.4-1.5-0.7-2.5c-0.4-1-0.9-2.6-1.2-3.7c-1-3.8-1.7-5.6-2.9-7.3C118.4,95.7,114.8,94,109.8,93.8c-6-0.2-10,2.1-12.6,7.6c-1.4,2.7-2.1,5.3-2.6,9.6c-0.3,1.7-0.3,2-0.4,2c0-0.1-0.1-0.6-0.2-1.3c-0.6-4.9-1.3-7.8-2.8-10.6C88.7,96.2,85.3,94,80,93.8c-4.3-0.2-8.1,1-10.5,3.3c-1.1,1.1-1.9,2.2-2.7,4c-0.6,1.2-1.1,2.5-1.8,5.2c-0.3,1.1-0.8,2.8-1.1,3.8c-1,2.7-1.2,4.1-1,6.9c0.3,6.3,2.2,14.2,5.8,24.4c2.4,7,4.1,10.8,6.4,14c0.8,1.2,2.3,3,2.5,3.1c0.1,0,0.1,0,0.1,0.1c-0.1,0.1,0,0.2,0.1,0.3c0.2,0.2,0.3,0.2,0.4,0.1c0,0,0.1-0.1,0.2,0c0.1,0,0.1,0.1,0,0.2s-0.1,0.1,0,0.3c0.2,0.3,0.3,0.3,0.5,0.1c0.1-0.2,0.2-0.2,0.3-0.2c0.1,0.1,0,0.2-0.1,0.4l-0.3,0.2,0.3,0.2,0.2,0.3,0.3-0.3c0.2-0.2,0.3-0.3,0.4-0.3c0.1,0.1,0.1,0.1-0.2,0.4l-0.3,0.3,0.2,0.3,0.2,0.2,0.4-0.4c0.2-0.2,0.3-0.3,0.4-0.3c0.2,0.1,0.1,0.1-0.2,0.5l-0.4,0.4,0.2,0.2,0.3,0.2,0.4-0.4c0.3-0.3,0.5-0.4,0.5-0.4c0.1,0.1,0,0.2-0.2,0.4c-0.6,0.6-0.6,0.6-0.3,0.8l0.2,0.2,0.5-0.5c0.3-0.3,0.5-0.4,0.6-0.4c0.1,0.1,0,0.1-0.4,0.6l-0.5,0.5,0.2,0.2c0.1,0.1,0.2,0.1,0.3,0.1c0,0,0.3-0.2,0.5-0.5c0.4-0.4,0.5-0.5,0.6-0.4c0.2,0,0.1,0.1-0.4,0.6c-0.3,0.3-0.5,0.6-0.5,0.6s0.1,0.1,0.2,0.2l0.3,0.2,0.6-0.6c0.4-0.4,0.6-0.6,0.7-0.5c0,0-0.1,0.2-0.5,0.6c-0.6,0.6-0.6,0.7-0.5,0.8c0.3,0.2,0.4,0.2,1-0.4c0.5-0.5,0.7-0.6,0.7-0.6c0.1,0.1,0,0.2-0.5,0.8l-0.6,0.6,0.2,0.2c0.1,0.1,0.2,0.1,0.3,0.1s1.3-1.2,1.2-1.3c0-0.1,0-0.1,0-0.1s0.8,0.3,1.8,0.8c2,0.9,3.1,1.3,4.2,1.6c0.7,0.1,0.9,0.2,3.1,0.2l2.3-0.1,0.9-0.2c0.5-0.1,1.3-0.4,1.8-0.6c1.2-0.4,3.5-1.5,3.6-1.6s0.2-0.2,0.4-0.2c0.3-0.2,0.1,0-2.6,2.8c-1,0.9-1.7,1.7-1.7,1.8s0.2,0,0.8-0.3zM84.6,158.8c-2.3-2.2-3.5-4.4-4.4-7.7c-0.2-1-0.9-4.5-0.9-4.9c0-0.5,0.6-0.9,2.5-1.7c0.6-0.2,1.3-0.5,1.6-0.6c1-0.5,2-1.5,3-2.7c0.3-0.4,0.6-0.7,0.6-0.7s-0.3,0.5-0.6,1c-0.5,1-0.5,1-1.9,2.4c-0.8,0.9-1.5,1.5-1.6,1.6c-0.2,0-0.3,0-0.3,0s0.2-0.2,0.5-0.5c0.4-0.5,0.5-0.5,0-0.3c-0.1,0.1-0.5,0.3-0.7,0.4c-0.3,0.1-0.6,0.4-1.4,1.1c-0.8,0.9-0.9,1-0.9,1.2c0.1,0.5,0.1,0.5,0.5,0.2c0.3-0.3,0.3-0.3,0.3-0.1c0,0.1-0.1,0.3-0.3,0.5c-0.3,0.2-0.3,0.3-0.2,0.6c0,0.2,0,0.3,0,0.4c0.1,0,0.2-0.1,0.3-0.3C81,148.5,81,148.5,81,148.6s-0.1,0.3-0.2,0.5c-0.2,0.2-0.3,0.3-0.2,0.6v0.4l0.3-0.3c0.3-0.2,0.3-0.2,0.3-0.1s-0.1,0.3-0.3,0.5s-0.2,0.2-0.1,0.5c0.1,0.4,0.1,0.4,0.3,0.2s0.2-0.2,0.3,0c0,0-0.1,0.2-0.2,0.3c-0.2,0.2-0.2,0.3-0.1,0.5c0,0.4,0.1,0.4,0.2,0.2c0.1,0,0.2-0.1,0.2-0.1c0.1,0,0.1,0.3-0.1,0.4c-0.1,0.2-0.1,0.2-0.1,0.5c0.2,0.4,0.2,0.4,0.3,0.3s0.1-0.1,0.1,0.1c0,0.1,0,0.2-0.1,0.2c0,0.1,0.1,0.5,0.2,0.7c0.1,0.1,0.1,0.2,0.1,0.3c0,0.2,0.7,1.5,1.3,2.3c0.5,0.8,1.1,1.6,1.8,2.4c0.2,0.3,0.4,0.5,0.4,0.5S85,159.2,84.6,158.8zM80.8,146.1c0.3-0.4,0.6-0.7,0.6-0.7s-0.2,0-0.4,0c-0.4,0.1-0.5,0.2-0.8,0.4c-0.3,0.3-0.3,0.5-0.2,0.8c0,0.1,0.1,0.2,0.1,0.2s0.3-0.3,0.7-0.7zm23,12.5c1.4-1.6,2.4-3.2,2.3-3.6c0-0.1,0-0.2,0.2-0.5c0.3-0.2,0.8-1.5,0.7-1.5c0,0-0.2,0.1-0.3,0.3c-0.3,0.2-0.3,0.2-0.3,0.1s0.2-0.4,0.4-0.7c0.4-0.4,0.5-0.5,0.6-1c0.1-0.3,0.2-0.6,0.1-0.6c0,0-0.2,0.2-0.5,0.5c-0.4,0.4-0.4,0.5-0.4,0.3c0.1-0.2,0.3-0.5,0.6-0.8c0.5-0.5,0.6-0.7,0.6-1c0.1-0.3,0.1-0.5,0.1-0.5c0-0.1-0.2,0.1-0.5,0.4c-0.5,0.5-0.6,0.5-0.5,0.3c0-0.1,0.3-0.4,0.6-0.8c0.5-0.5,0.6-0.6,0.6-1c0.1-0.3,0.1-0.5,0.1-0.6c0,0-0.2,0.2-0.5,0.5c-0.5,0.5-0.5,0.5-0.5,0.3c0-0.1,0.1-0.3,0.6-0.8s0.6-0.6,0.7-1.1c0-0.2,0-0.5,0-0.5s-0.3,0.2-0.6,0.6c-0.5,0.5-0.6,0.6-0.6,0.4s1.2-1.4,1.2-1.2c0,0,0,0.1,0,0.1c0.1,0,0.1-0.1,0.1-0.1c0-0.2-0.1-0.5-0.3-0.5c-0.2-0.1-0.3-0.1-0.7,0.4c-0.4,0.3-0.5,0.4-0.6,0.3s0-0.2,0.3-0.4c0.2-0.2,0.3-0.4,0.3-0.4s-0.1-0.1-0.3-0.1c-0.4-0.1-0.4,0-0.6,0.2s-0.3,0.3-0.4,0.3c-0.2,0-0.2-0.1,0.1-0.3c0.2-0.3,0.2-0.3-0.2-0.5c-0.2,0-0.3,0-0.5,0.2c-0.4,0.4-0.6,0.2-0.2-0.2l0.2-0.2-0.3-0.1c-0.3-0.2-0.3-0.2-0.5,0c-0.1,0.2-0.3,0.2-0.3,0.2c-0.2,0-0.1-0.1,0-0.3c0.1-0.1,0.2-0.2,0.2-0.2c0-0.1-0.1-0.2-0.2-0.2l-0.2-0.2-0.2,0.2c-0.2,0.2-0.2,0.2-0.3,0.1c-0.1,0-0.1-0.1,0.1-0.3l0.2-0.1-0.2-0.2c-0.2-0.3-0.3-0.3-0.5-0.1s-0.2,0.2-0.2,0.1c-0.1-0.1,0-0.2,0-0.3c0.2-0.2,0.2-0.2,0-0.4s-0.2-0.2-0.4-0.1c-0.1,0.1-0.1,0.2-0.2,0.1s-0.1-0.1,0-0.2c0.2-0.2,0.2-0.2,0-0.5c-0.2-0.2-0.2-0.2-0.3-0.1c-0.2,0.2-0.3,0-0.2-0.2s0.1-0.3-0.3-0.8c-0.2-0.4-0.4-0.7-0.4-0.8c0,0,0.2,0.2,0.5,0.6c0.6,0.7,1.5,1.7,2.1,2.1c0.6,0.5,1.2,0.8,2.5,1.3c2.1,0.8,2.6,1.2,2.6,1.8c0,0.3-0.6,3.1-0.9,4.5c-0.5,2.4-1.4,4.4-2.7,6.1c-0.4,0.6-2.3,2.5-2.4,2.5c0,0,0.3-0.3,0.6-0.8zm-10.3,0.3C92,158.6,91,158,89.7,156.7c-0.7-0.8-0.8-0.9,0-0.2c1.6,1.3,3.6,2.1,5.1,1.9c1.2-0.2,2.4-0.7,3.6-1.6c0.4-0.3,0.8-0.6,0.9-0.7c0.4-0.3-0.5,0.7-1.2,1.2c-1.2,1.1-2.4,1.6-3.7,1.7c-0.4,0-0.8,0-0.9-0.1zm-0.6-2.3c-1.2-0.2-1.8-0.5-2.7-1.3c-0.3-0.2-1.9-1.6-3.5-3.1c-2.4-2-3-2.7-2.9-2.7c0.1-0.1,0.1-0.3-0.1-0.4c-0.2-0.2-0.3-0.2-0.3-0.1c-0.2,0.1-0.3,0-0.3-0.2c0.1-0.1-0.2-0.4-0.5-0.4c0,0-0.1-0.1-0.1-0.2c-0.1-0.1,0-0.1,0.5,0.2c1.8,1.2,3.5,2,4.6,2.1c0.7,0,2-0.2,3.5-0.8c1-0.4,1.2-0.4,2.2,0.5c0.8,0.8,1.1,0.8,2,0c1-0.9,1.1-0.9,2.1-0.5c1.5,0.6,2.7,0.8,3.5,0.8c0.8-0.1,2.3-0.7,3.2-1.3c0.3-0.2,0.6-0.3,0.7-0.4c0,0,0.4-0.1,0.7-0.3c0.8-0.6,0.5-0.3-0.7,0.6c-0.7,0.5-1.3,1-1.9,1.7c-0.5,0.5-1.3,1.2-1.8,1.6c-1.2,1.1-1.3,1.1-1,0.8c0.2-0.2,0.3-0.3,0.3-0.3c-0.1,0-0.6,0.4-1.1,0.8c-0.6,0.5-1.3,1-1.5,1.2c-1,0.7-1.3,1.1-0.5,0.7c0.6-0.3,1.1-0.7,3.8-3s3.7-3,3.7-3c0,0.1-6.1,5.4-6.7,5.9c-1.1,0.9-2.3,1.3-3.9,1.2c-0.4,0-1,0-1.3-0.1zm1.9-0.5C95,156,95,156,94.3,156c-0.6,0-0.9,0.1-0.6,0.2c0.4,0.1,0.9,0.1,1.1-0.1zm-1.3,0c0.1-0.2,0.1-0.2-0.3-0.2c-0.2,0-0.3,0-0.4,0c-0.1,0.2-0.1,0.2,0.3,0.3c0.3,0,0.4,0,0.4-0.1zm2.2,0c0.3-0.1,0.8-0.3,0.7-0.4c0,0-1.1,0.2-1.2,0.3s-0.1,0.2,0,0.2s0.3-0.1,0.5-0.1zm-3.2-0.2c0-0.1-0.1-0.2-0.3-0.2c-0.2-0.1-0.3-0.1-0.4,0s-0.1,0.1,0.1,0.2c0.3,0.1,0.5,0.1,0.6,0zm-0.9-0.4c0,0-0.1-0.1-0.3-0.2c-0.4-0.2-0.6,0-0.2,0.3c0.2,0.1,0.4,0.1,0.5-0.1zm-0.8-0.4c0-0.1-0.3-0.4-0.4-0.4s-0.2,0-0.2,0.1c-0.1,0.1,0,0.1,0.1,0.2c0.3,0.2,0.4,0.2,0.5,0.1zM90,154.6c0.2-0.2,0.1-0.2-0.1-0.4c-0.3-0.2-0.3-0.2-0.4,0c-0.1,0.1-0.1,0.1,0.1,0.3c0.3,0.2,0.3,0.2,0.4,0.1zM94.3,154c0.3-0.2,0.7-0.6,0.9-0.9l0.4-0.4-0.5,0.1H94.7l-0.9,0.8c-0.5,0.5-0.8,0.9-0.8,0.9c0.1,0.1,0.6,0.1,0.7,0.1s0.4-0.3,0.6-0.6zm1.5-0.2c0.5-0.5,1-1,1-1.1c0.1-0.1,0.1-0.1-0.3-0.1c-0.5,0.1-0.5,0.1-1.4,0.9c-1.1,1.2-1.1,1.2-0.6,1.2h0.4l0.9-0.9zm0.3,0.6c0.3,0,0.4-0.1,1.4-1c0.5-0.6,0.9-1,0.9-1c0-0.1-0.2-0.1-0.5,0c-0.5,0.1-0.6,0.1-1.7,1.4c-0.4,0.4-0.7,0.7-0.6,0.7c0,0,0.2,0,0.5-0.1zm-2.6-0.8l0.7-0.8H93.5l-0.8,0.7c-0.4,0.4-0.7,0.8-0.7,0.8s0,0.1,0.1,0.1c0.5,0.1,0.6,0,1.4-0.8zm-1.2-0.1l0.8-0.7-0.3-0.1c-0.5-0.1-0.5-0.1-1.5,1l-0.3,0.3,0.3,0.1c0.1,0,0.3,0.1,0.3,0.1s0.3-0.3,0.7-0.7zm-3,0.5c0.2-0.1,0.1-0.2-0.1-0.3c-0.2-0.2-0.3-0.2-0.4-0.1s-0.1,0.1,0.1,0.3c0.3,0.3,0.3,0.3,0.4,0.1zm8.8-0.4c0.6-0.3,0.9-0.6,1.4-1.1c0.4-0.3,0.7-0.6,0.6-0.6c0,0-0.3,0-0.6,0.1c-0.6,0.2-0.6,0.2-1.4,1.1c-0.5,0.5-0.9,1-0.8,1c0,0,0.4-0.2,0.8-0.5zm-6.8-0.4c0.4-0.3,0.6-0.5,0.6-0.6c0,0-0.2,0-0.4,0c-0.3-0.1-0.3-0.1-0.8,0.4l-0.5,0.5,0.2,0.2c0.2,0,0.3,0.1,0.3,0.1c0.1,0,0.3-0.2,0.6-0.6zm-2.7,0.2c0.1-0.1,0.1-0.1-0.1-0.3c-0.2-0.1-0.3-0.1-0.4,0c-0.1,0-0.1,0.1,0.1,0.2c0.3,0.2,0.3,0.2,0.4,0.1zm1.8-0.5c0.4-0.4,0.4-0.4,0.2-0.5c-0.4-0.1-0.5,0-0.9,0.3c-0.2,0.2-0.3,0.4-0.3,0.4c0.1,0,0.5,0.3,0.6,0.2c0,0,0.2-0.2,0.4-0.4zm-2.6-0.3c-0.2-0.1-0.3-0.2-0.4-0.1c-0.1,0-0.1,0,0.2,0.3c0.1,0.1,0.2,0.2,0.3,0.1s0-0.1-0.1-0.3zm1.7,0c0.1-0.2,0.2-0.3,0.2-0.3c0-0.1-0.1-0.1-0.3-0.2c-0.3,0-0.3,0-0.6,0.2l-0.2,0.3,0.2,0.2c0.2,0,0.3,0.1,0.3,0.1s0.2-0.1,0.4-0.3zm11.3-0.4c0.6-0.4,0.9-0.6,1.3-1s0.6-0.6,0.6-0.6c-0.1-0.1-1.6,0.8-1.9,1s-0.9,1-0.9,1s0.4-0.2,0.9-0.4zm-12.3,0.1c0.3-0.3,0.3-0.3-0.1-0.5c-0.2-0.1-0.2-0.1-0.4,0.1s-0.2,0.3,0,0.4c0.3,0.2,0.3,0.2,0.5,0zm-1.2,0c0,0-0.1-0.2-0.3-0.3c-0.1-0.1-0.2-0.2-0.3-0.1c0,0.1,0,0.1,0.2,0.3s0.4,0.2,0.4,0.1zm0.3-0.8c-0.3-0.2-0.3-0.2-0.5,0s-0.2,0.3,0.1,0.4c0.2,0.1,0.3,0.1,0.5-0.1l0.2-0.2-0.3-0.1zm-0.8,0l0.2-0.3-0.2-0.1c-0.2-0.1-0.3-0.2-0.3-0.2c-0.1,0-0.2,0.1-0.3,0.3l-0.2,0.3,0.2,0.1c0.2,0.1,0.3,0.2,0.3,0.2s0.1-0.1,0.3-0.3zM86,151c0.2-0.2,0.2-0.3-0.1-0.4c-0.2-0.2-0.2-0.2-0.4,0l-0.2,0.2,0.2,0.2c0.2,0.2,0.3,0.2,0.5,0zm-0.6-0.7c0,0-0.1-0.1-0.2-0.2c-0.3-0.1-0.3-0.1-0.4,0l-0.2,0.2,0.2,0.2,0.3,0.2,0.1-0.2c0.1-0.1,0.2-0.2,0.2-0.2zm-1-0.7c-0.2-0.2-0.3-0.2-0.4,0c-0.1,0.1,0,0.2,0.1,0.3l0.3,0.2,0.1-0.1,0.2-0.2-0.3-0.2zm10.4,0.5c0-0.3,1.1-1.2,1.2-1.1s-0.1,0.3-0.5,0.7c-0.3,0.3-0.6,0.5-0.6,0.5c-0.1,0-0.1-0.1-0.1-0.1zm-0.9-0.3c-0.1-0.2-0.1-0.7,0-1.5c0.1-0.3,0.2-1.1,0.2-1.8c0.1-0.6,0.1-1.2,0.2-1.1c0,0,0,0.5,0.1,1.1c0,0.5,0.1,1.4,0.2,1.9c0.1,0.9,0.1,1,0,1.3c-0.1,0.2-0.1,0.3-0.3,0.3c-0.1,0-0.3-0.1-0.4-0.2zm1.1-1c0-0.1,0.1-0.3,0.3-0.6c0.4-0.3,0.4-0.3,0.5-0.2c0,0.1-0.1,0.3-0.4,0.6C95,149,95,149,95,148.8zm-0.2-0.9c0-0.2,0.6-0.8,0.7-0.6c0,0.1-0.5,0.7-0.6,0.7s-0.1,0-0.1-0.1zm-19-0.6c0.3-0.4,0.6-1.1,0.5-1.2c0-0.1-0.2,0-0.3,0.1c-0.2,0.2-0.2,0.2-0.2,0.1S75.9,146,76,145.9c0.2-0.3,0.3-0.4,0.2-0.7l-0.1-0.3-0.4,0.4c-0.2,0.2-0.3,0.3-0.3,0.1c-0.1,0,0-0.2,0.2-0.4l0.3-0.3-0.1-0.2c-0.1-0.2-0.2-0.3-0.2-0.3c-0.1,0-0.2,0.1-0.4,0.3c-0.4,0.4-0.5,0.2-0.1-0.2c0.3-0.4,0.3-0.5,0.1-0.7l-0.1-0.2-0.3,0.3c-0.3,0.3-0.4,0.3-0.5,0.2c0,0,0-0.1,0.3-0.4l0.4-0.4-0.2-0.3c-0.1-0.1-0.2-0.2-0.2-0.2s-0.2,0.1-0.4,0.3c-0.2,0.3-0.3,0.4-0.4,0.3c0-0.1,0-0.2,0.3-0.5l0.4-0.4-0.2-0.2-0.2-0.3-0.4,0.4c-0.3,0.3-0.4,0.4-0.4,0.3c-0.1-0.1,0-0.3,0.3-0.5c0.3-0.4,0.3-0.4,0.3-0.6c-0.2-0.3-0.3-0.3-0.7,0.1c-0.3,0.3-0.4,0.3-0.4,0.2c-0.1-0.1,0-0.2,0.2-0.4s0.4-0.4,0.4-0.5c0,0-0.1-0.1-0.2-0.2l-0.2-0.2-0.4,0.3c-0.2,0.3-0.3,0.3-0.4,0.2c0,0,0-0.2,0.3-0.4l0.3-0.4-0.2-0.2-0.1-0.2-0.4,0.3c-0.2,0.2-0.3,0.3-0.3,0.2C71.7,140.1,71.7,140,72,139.8l0.2-0.3-0.1-0.2C72,139.1,71.9,139,71.8,139c0,0-0.1,0.1-0.2,0.2c-0.2,0.3-0.4,0.3-0.4,0.1c0,0,0.1-0.1,0.2-0.3l0.2-0.2-0.1-0.2-0.2-0.3-0.2,0.2c-0.2,0.2-0.3,0.2-0.3,0.1s0-0.2,0.1-0.3l0.2-0.2-0.2-0.2c-0.2-0.3-0.2-0.3-0.4-0.2c-0.1,0.1-0.1,0.2-0.1,0.1c-0.1-0.1,0-0.2,0-0.3c0.1-0.1,0.1-0.1-0.1-0.3C70.2,137.1,70.1,137,70.1,137c-0.1,0-0.2-0.1-0.2-0.3c0-0.1-0.1-0.3-0.2-0.5c-0.3-0.5-0.6-1.2-0.5-1.8c0-0.9,0.1-1,0.1-0.2c0.1,1.6,0.7,2.3,3.8,5.1c2.7,2.4,3.5,3.2,3.9,4.4c0.4,1.1,0.1,2.1-0.8,3.3c-0.5,0.7-0.7,0.9-0.4,0.3zm36.6-0.1c-0.2-0.3-0.4-0.6-0.5-0.6c-0.1-0.1-0.4-0.9-0.5-1.3c-0.2-0.8,0-1.8,0.6-2.7c0.5-0.7,1.3-1.5,3.2-3.2c3.3-2.8,4-3.8,4-5.3c0-0.3,0-0.5,0-0.5c0.1,0.1,0.2,0.9,0.1,1.3c-0.1,0.5-0.5,1.4-0.9,2c-0.2,0.3-0.5,0.7-0.6,0.9c-0.2,0.3-0.7,1-1.5,1.8c-0.7,0.8-1.5,1.6-1.8,2c-0.6,0.8-1.1,1.7-1.1,1.8c0,0,0.6-0.6,1.3-1.3c0.8-0.7,1.3-1.3,1.3-1.2c-0.3,0.5-0.9,1.1-2,2.3c-1.4,1.4-1.7,1.9-1.8,2.5l-0.1,0.3,0.4-0.4,0.4-0.4-0.2,0.5c-0.1,0.2-0.3,0.4-0.3,0.5c-0.1,0-0.2,0.1-0.2,0.2s0.4,0.8,0.6,1.1c0.3,0.4,0.1,0.2-0.4-0.3zM94.6,146.8c0-0.2,0.6-0.8,0.6-0.6c0.1,0.1-0.4,0.8-0.5,0.8c0,0,0-0.1-0.1-0.2zm-0.1-0.9c0-0.2,0.1-0.4,0.2-0.4s0.1,0.2,0,0.3c-0.2,0.2-0.2,0.2-0.2,0.1zm-0.8-3c-0.1-0.1-0.6-0.4-0.9-0.7c-1.1-0.9-1.9-1.2-2.9-1.3c-0.6,0-0.6,0-0.2-0.5c1.3-1.1,2.6-0.6,3.6,1.4c0.4,0.9,0.6,1.2,0.9,1.2s0.5-0.3,1-1.1c0.9-1.7,1.9-2.4,2.9-1.9c0.4,0.2,1,0.7,1,0.8s-0.3,0.1-0.7,0.2c-0.7,0-0.8,0-1.4,0.3c-0.3,0.2-0.9,0.6-1.3,1c-0.5,0.3-0.9,0.6-1,0.7c-0.3,0.1-0.7,0-1-0.1zm8-1.4c0-0.1,0-0.2,0.1-0.2c0,0,0.1,0.3,0,0.3c0,0,0,0-0.1-0.1zM78.2,139.3c-2-0.3-3.5-2.1-3.5-4.3c0-1.9,1-3.4,2.8-4.1c0.4-0.2,0.7-0.3,0.8-0.5c0.6-0.8,0.4-1.9-0.7-3.6c-1.3-1.8-2.7-3.4-3.9-4.2c-0.5-0.3-1.5-0.9-2.2-1.3c-2.5-1.4-3.4-2.1-4.6-3.6c-0.5-0.6-0.8-0.9-1-0.9c-0.1,0-0.3,0.2-0.5,0.3c-0.4,0.4-0.8,1.3-1.1,2.4c-0.1,0.4-0.2,0.8-0.2,0.8c0,0.1,0-0.3,0-0.7c0.1-2.6,1.6-5.2,3.7-6.7c1-0.6,1.7-1,3.6-1.6c0.9-0.3,1.8-0.7,2-0.8c1.4-0.7,2.8-2,3.6-3.4c0.2-0.5,0.8-2,0.8-2.2c0-0.1-0.1,0-0.3,0.1c-0.2,0.2-0.3,0.2-0.3,0.2c-0.1-0.1-0.1-0.2,0.3-0.5c0.4-0.4,0.4-0.5,0.5-0.9c0-0.2,0-0.4,0-0.5c-0.1,0-0.4,0.4-0.9,0.8c-0.5,0.6-0.8,0.8-0.9,0.8s0-0.2,0.7-0.9c0.8-0.8,0.8-0.9,0.3-0.9c-0.2,0-0.3,0-1.1,0.8c-0.5,0.5-0.8,0.7-0.9,0.7s0.1-0.2,0.6-0.8c0.4-0.4,0.7-0.8,0.7-0.8s-0.1-0.1-0.3-0.1H75.9l-0.8,0.8c-0.7,0.6-0.9,0.8-1,0.8c-0.1-0.1,0-0.2,0.6-0.9c0.4-0.4,0.8-0.7,0.8-0.8c0,0-0.2,0-0.4,0H74.7l-0.8,0.8c-0.6,0.6-0.7,0.7-0.9,0.7c-0.1,0,0-0.2,0.6-0.8c0.4-0.4,0.7-0.7,0.7-0.7c0-0.1-0.2-0.1-0.4-0.1H73.5l-0.7,0.7c-0.5,0.5-0.8,0.8-0.9,0.8s0-0.2,0.5-0.7c0.7-0.8,0.8-0.9,0.2-0.9c-0.2,0-0.3,0.1-1,0.8c-0.5,0.5-0.9,0.8-0.9,0.8c-0.2-0.1,0-0.2,0.5-0.8l0.7-0.7H71l-0.7,0.7c-0.5,0.5-0.7,0.7-0.8,0.7c-0.2,0-0.2-0.1,0.4-0.7l0.7-0.6H69.7L69,103.5c-0.5,0.5-0.7,0.7-0.9,0.7c-0.1,0-0.1-0.1,0.5-0.6c0.3-0.4,0.5-0.7,0.5-0.7c-0.1,0-0.3,0.1-0.6,0.2c-0.5,0.1-0.5,0.1-1,0.6c-0.4,0.5-0.6,0.6-0.7,0.6l-0.3,0.1,0.4-0.4c0.2-0.3,0.4-0.5,0.4-0.5c-0.1-0.1-0.9,0.5-1.3,1l-0.5,0.5,0.2-0.4c0.9-1.7,2.9-2.4,7-2.5c2,0,3.5,0.1,5.2,0.4l0.2,0.1v-0.9c0-0.4,0.1-1.6,0.1-2.5c0.2-3.2,0.3-3,0.5,0.8c0,1.4,0.1,2.7,0.1,2.7c0.1,0,0.5,0.2,1.1,0.3c1.2,0.4,2.8,1.1,4.2,1.7c3.6,1.8,5.6,3.6,7.2,6.4c0.7,1.2,1.8,3.4,1.5,2.9c-0.1-0.1-0.1-0.1-0.4,0.1c-0.1,0.1-0.2,0.1-0.3,0.1s-0.1-0.1,0.1-0.3l0.3-0.3-0.1-0.2c-0.1-0.2-0.2-0.3-0.3-0.3c0,0-0.2,0.2-0.4,0.4c-0.1,0.2-0.4,0.4-0.4,0.4c-0.1,0-0.2,0-0.2-0.1c0,0,0.2-0.2,0.4-0.5c0.5-0.4,0.5-0.5,0.3-0.8c-0.1-0.2-0.2-0.2-0.8,0.4c-0.4,0.5-0.6,0.7-0.7,0.6c-0.1,0,0-0.2,0.5-0.7c0.6-0.7,0.7-0.7,0.6-0.9c-0.1-0.1-0.2-0.2-0.2-0.2c0-0.1-0.3,0.1-0.8,0.7c-0.6,0.6-0.8,0.7-0.9,0.7c-0.2-0.1,0-0.2,0.6-0.9l0.9-0.8-0.2-0.3c-0.1-0.1-0.2-0.2-0.2-0.2c-0.1,0-0.5,0.4-1,0.9c-0.6,0.6-0.9,0.9-1,0.9c0-0.1,0.2-0.4,0.8-1.1c0.5-0.5,0.9-0.9,0.9-1c0,0,0-0.2-0.1-0.3l-0.2-0.1-1,1c-0.8,0.8-1.1,1-1.1,0.9c-0.1,0,0.1-0.3,0.9-1.1l1-1-0.2-0.3c-0.1-0.1-0.2-0.2-0.2-0.2s-0.5,0.5-1.1,1.1c-0.9,0.9-1.1,1.1-1.2,1c-0.1,0,0.1-0.3,1-1.1c0.6-0.7,1.1-1.2,1.1-1.2c0-0.1-0.1-0.2-0.2-0.3l-0.2-0.2-1.2,1.2c-0.7,0.8-1.1,1.1-1.2,1.1c0-0.1,0.3-0.5,1.1-1.3c0.6-0.6,1.1-1.2,1.1-1.2s-0.1-0.1-0.3-0.2l-0.2-0.2-1.1,1.2c-1.1,1.1-1.4,1.3-1.4,1.1c0-0.1,0.5-0.6,1.2-1.2c0.6-0.7,1.1-1.2,1.1-1.2c0-0.1-0.1-0.2-0.2-0.3l-0.3-0.2-1.1,1.2C85.4,109.7,85.1,110,85,110s0.1-0.3,1-1.2c0.6-0.7,1.1-1.3,1.1-1.3c0-0.1,0-0.2-0.2-0.2l-0.2-0.2-1.2,1.2c-0.9,1-1.2,1.2-1.3,1.1c0,0,0.2-0.3,1.1-1.2l1.2-1.2-0.2-0.2C86.1,106.7,86,106.6,86,106.6c-0.1,0-0.6,0.6-1.2,1.2c-0.9,1-1.2,1.2-1.2,1.1c-0.1-0.1,0.1-0.3,1-1.3l1.1-1.1-0.2-0.2c-0.1-0.1-0.2-0.1-0.3-0.1c0,0-0.6,0.5-1.2,1.1c-0.7,0.7-1.1,1.1-1.2,1.1c0-0.1,0.3-0.5,1-1.3l1.1-1.1-0.2-0.2-0.3-0.1-1.1,1.1c-0.9,0.9-1.1,1.1-1.2,1s0.1-0.3,1-1.2c0.6-0.5,1-1,1-1.1c0,0-0.2-0.1-0.3-0.1l-0.3-0.2-1,1.1c-0.8,0.9-1.1,1.1-1.2,1c-0.1,0,0.1-0.2,0.7-0.9c0.5-0.4,0.9-0.9,1.1-1l0.2-0.3-0.3-0.1-0.3-0.2-1,1.1c-0.8,0.7-1.1,1-1.1,0.9c-0.1,0,0.2-0.4,0.8-1.1l1-1-0.3-0.1c-0.1-0.1-0.2-0.1-0.3-0.1c0,0-0.4,0.4-0.9,1c-0.8,0.7-1,0.9-1.1,0.9c-0.2-0.1,0-0.2,0.8-1c0.5-0.6,0.9-1,0.8-1.1c0,0-0.1-0.1-0.3-0.1c-0.2-0.1-0.2-0.1-1,0.8c-0.5,0.4-0.9,0.9-0.9,0.9c0,0.2,0.5,1.3,0.8,1.8c0.4,0.6,1,1.6,1.5,2.2c0.6,0.6,1.3,1.2,3.2,2.5c3.4,2.3,4.2,3.1,5.1,4.9c0.6,1.3,0.8,2.4,0.6,3.1c-0.3,0.7-1.5,1.6-3.5,2.6c-2.3,1.1-4.5,2.4-5.6,3.2c-1.3,1-1.9,1.9-2,2.8c-0.1,1,0.2,1.5,1.3,2c2.8,1.4,3.4,5,1.2,7.1c-1,1-2.2,1.5-3.6,1.2zM89.6,120.6c0.6-0.3,0.7-0.7,0.4-1.2S89.5,118.8,88.5,118c-0.9-0.7-1.1-0.9-2.1-2.4c-0.5-0.8-1.4-1.7-2-2.2c-2.5-1.8-7.2-2.5-11.1-1.6c-2,0.4-4.2,1.4-6,2.7c-1.4,1.1-1.6,1.3-0.7,1.3c0.3,0,0.6,0.1,0.8,0.1c0.1,0.1,0.7,0.7,1.4,1.3c1.3,1.4,2,1.9,2.6,2.2c0.6,0.2,1,0.1,2.3-0.4c3.3-1.3,6.1-1.4,10.8-0.1c2,0.5,2.5,0.7,3.1,1.3c0.3,0.2,0.6,0.5,0.7,0.5c0.3,0.2,1,0.1,1.3-0.1zm-1.3-0.5c-0.1,0-0.5-0.3-0.8-0.5c-0.9-0.7-1.8-1-3.9-1.5c-4-1-7-0.9-10.3,0.4c-0.5,0.2-1,0.3-1.1,0.4c-0.3,0-0.9-0.1-1.3-0.5c-0.5-0.3-2.5-2.3-2.7-2.6c-0.3-0.6,0.2-0.3,1.6,1.1c0.7,0.6,1.4,1.2,1.5,1.2c0.5,0.3,0.9,0.2,2-0.2c0.5-0.2,0.9-0.3,0.9-0.3s0.1,0,0.2-0.1l0.2-0.1-0.2-0.3c-0.8-1.2-1.1-2.7-0.7-4.2c0.1-0.3,0.2-0.6,0.2-0.6c0.1-0.1,1.7-0.3,2.7-0.4c0.6,0,1.2,0,1.9,0.1c2.1,0.2,3,0.5,4.1,1l0.7,0.3-0.1,1c0,1.2-0.2,1.7-0.6,2.5c-0.3,0.4-0.3,0.4-0.1,0.4c1.5,0.4,3.1,0.8,3.9,1.2c0.3,0.1,0.9,0.4,1.3,0.8c0.5,0.3,1,0.6,1.2,0.7l0.2,0.1-0.1,0.1c-0.3,0.2-0.3,0.2-0.7,0zm-6.6-3.5c0.5-0.5,0.8-1.3,0.8-2.2v-0.6l-0.4-0.1c-0.1-0.1-0.3-0.1-0.3-0.1c-0.1,0-0.1,0.2-0.1,0.5c0,0.9-0.3,1.9-0.8,2.3l-0.2,0.2,0.4,0.1c0.2,0.1,0.4,0.1,0.4,0.1s0.1-0.1,0.2-0.2zM80.6,104c0,0-0.2-0.1-0.3-0.1l-0.3-0.1-0.5,0.5c-0.5,0.4-0.5,0.5-0.4,0.8c0,0.1,0,0.3,0.1,0.3c0,0.1,1.4-1.3,1.4-1.4zm-1-0.3c0,0-0.1-0.1-0.3-0.1c-0.4-0.1-0.5-0.1-0.4,0.5l0.1,0.3,0.3-0.3c0.2-0.2,0.3-0.4,0.3-0.4zm29.2,35.6c-1.1-0.2-2.4-1.1-3-2.3c-0.3-0.7-0.4-1.2-0.4-2c0-1.8,1-3.3,2.6-4c1-0.5,1.3-1,1.2-1.9c-0.1-1.8-1.9-3.2-7.6-6.1C98.9,121.6,98,120.8,98,119.7c0-0.8,0.5-2.3,1.3-3.5c0.8-1.1,1.9-2,4.8-4.1c0.8-0.5,1.6-1.1,1.9-1.3c1.2-1.1,2.6-3,3.1-4.4c0.1-0.3,0.1-0.5,0.1-0.5c-0.1,0-0.2,0.2-0.3,0.3s-0.4,0.3-0.6,0.4l-0.3,0.2,0.2-0.2c0.1-0.1,0.4-0.5,0.7-0.8c0.4-0.5,0.5-0.6,0.6-1c0-0.2,0-0.4,0-0.4c0-0.1-3.5,3.4-4,4c-0.2,0.2-0.8,0.7-1.6,1.3c-0.1,0.1,4.5-4.7,5.3-5.4c0.3-0.3,0.4-0.5,0.4-0.7c0-0.1,0-0.1-0.1-0.1s-0.2,0.1-0.4,0.1c-0.3,0.1-0.8,0.7-3.9,3.8c-4,4.1-5,5.1-5.4,5.3c-0.3,0.2-0.6,0.4,4.7-4.9c2-2.1,3.6-3.8,3.6-3.8s-0.3,0-0.6,0.1l-0.6,0.3-4.5,4.6c-4,4.1-5,5-5.1,4.9c0,0,2-2.1,4.4-4.6c2.5-2.5,4.4-4.5,4.4-4.6c0,0-0.3,0.2-0.7,0.3l-0.8,0.4-4.3,4.5c-3.9,4-4.7,4.7-4.8,4.6s0-0.3,0.1-0.3c0.2,0,8.1-8.2,8.1-8.2c-0.1-0.1-0.8,0.4-1.6,0.9c-0.3,0.2-1.3,1.2-2.6,2.5c-2,2.1-2.3,2.3-3,3.4c-0.4,0.7-0.8,1.2-0.8,1.3c-0.2,0.1,0.7-1.6,1.1-2.4c1.8-3.2,3.8-5.1,7.6-7c1.5-0.7,2.9-1.3,4.3-1.7l1-0.3v-0.4c0-0.2,0.1-1.4,0.1-2.6c0.1-1.3,0.2-2.4,0.2-2.5c0-0.3,0.1-0.3,0.1-0.1c0,0.1,0.1,1.4,0.2,2.8s0.1,2.6,0.1,2.6s0.4,0,0.9-0.1c1.4-0.2,2.7-0.3,4.5-0.3c3.1,0.1,5.2,0.6,6.2,1.5c0.4,0.3,0.8,0.8,0.9,1.2c0,0.1,0,0.1-0.3-0.2c-0.3-0.4-0.4-0.4-0.5-0.4c-0.1,0.1-0.2,0.1-0.3,0.1h-0.2l0.2-0.2,0.2-0.1-0.2-0.2c-0.3-0.2-0.4-0.2-0.7,0.1c-0.1,0.2-0.3,0.3-0.4,0.3s-0.1-0.1,0.1-0.3s0.3-0.4,0.3-0.4c0-0.1-0.3-0.3-0.5-0.3c0,0-0.3,0.3-0.5,0.5c-0.4,0.4-0.8,0.6-0.8,0.4c0,0,0.2-0.2,0.5-0.5c0.2-0.2,0.4-0.4,0.4-0.5c-0.1,0-0.2,0-0.4-0.1c-0.2,0-0.2,0-0.8,0.6c-0.5,0.4-0.7,0.6-0.8,0.6c-0.2,0-0.1-0.1,0.4-0.6c0.3-0.4,0.6-0.7,0.6-0.7s-0.2,0-0.4-0.1h-0.4l-0.6,0.7c-0.5,0.5-0.7,0.7-0.8,0.7c-0.2,0-0.2-0.1,0.4-0.7c0.4-0.4,0.7-0.7,0.7-0.7c-0.1-0.1-0.3-0.1-0.5-0.1c-0.3,0-0.3,0-1.1,0.8c-1.1,1-1.4,1.1-0.4,0l0.8-0.8h-0.4l-0.4-0.1-0.9,1c-0.6,0.6-1,0.9-1.1,0.9c-0.1-0.1,0.1-0.2,0.7-0.9c0.5-0.5,0.8-0.9,0.8-0.9s-0.1,0-0.4,0h-0.4l-1,1.1c-0.7,0.6-1.1,1-1.3,1c-0.2,0.1-0.1-0.1,0.8-0.9c0.6-0.6,1-1.1,1-1.1c0-0.1-0.2-0.1-0.4-0.1l-0.4,0.1-1.3,1.3-1.3,1.3,0.1,0.4c0.6,1.9,2.3,3.8,4.1,4.8c0.2,0.1,1.1,0.4,2,0.7c2.6,0.9,3.5,1.4,4.7,2.6c1.3,1.3,2.2,3,2.5,4.7c0.1,0.6,0.2,1.8,0.1,1.8c0-0.1-0.1-0.5-0.2-0.9c-0.4-1.8-1.2-2.9-1.8-2.6c-0.1,0-0.5,0.4-0.8,0.8c-1.3,1.6-1.9,2.1-4.6,3.6c-1.9,1.1-2.2,1.3-3,1.9c-1.3,1.1-3.5,3.9-3.9,5.2c-0.3,0.6-0.3,1.4,0,1.8c0.2,0.4,0.2,0.4,1.2,0.9c2.3,1,3.2,3.7,2.1,5.9c-0.4,0.7-1.3,1.6-1.9,1.9c-0.9,0.4-1.7,0.6-2.7,0.4zm-8.7-18.6c0.1,0,0.4-0.2,0.7-0.4c0.7-0.7,1.1-0.9,3.2-1.5c4.7-1.2,7.5-1.1,10.8,0.2c0.6,0.3,1.2,0.5,1.4,0.5c0.9,0.1,1.8-0.5,3.6-2.3c0.7-0.8,1.3-1.3,1.5-1.3c0.1-0.1,0.4-0.1,0.6-0.1c0.4,0,0.5,0,0.5-0.2c0-0.1,0.1-0.1-0.9-0.8c-3-2.3-6.2-3.4-9.7-3.4c-2.4,0-4.5,0.4-6.3,1.2c-1.6,0.7-2.6,1.6-3.8,3.6c-0.6,0.9-0.8,1.2-1.7,1.8c-1.9,1.4-2.2,2.2-0.9,2.7c0.4,0.1,0.7,0.2,1,0zm-0.5-0.5c-0.2-0.1-0.2-0.3,0-0.3c0,0,0.5-0.3,0.9-0.6c0.5-0.3,1.1-0.7,1.4-0.8c0.8-0.4,2.4-0.9,4.1-1.3c0.1,0,0.1,0-0.1-0.5c-0.5-0.8-0.6-1.3-0.7-2.4v-1l0.5-0.3c1-0.5,2.2-0.8,4.3-1c1-0.1,1.3-0.1,2.3,0c0.7,0,1.5,0.1,1.7,0.1l0.6,0.1,0.2,0.6c0.2,0.8,0.2,2.1,0,2.8c-0.2,0.6-0.6,1.4-0.8,1.7l-0.2,0.1,0.2,0.1c0.2,0.1,0.3,0.1,0.3,0.1s0.4,0.1,0.9,0.3c1.6,0.6,1.8,0.6,3.5-1.1c1.1-1,1.6-1.4,1.7-1.3s-0.4,0.8-1.5,1.8c-1.2,1.2-1.9,1.6-2.4,1.6c-0.1,0-0.7-0.2-1.3-0.4c-2.2-0.9-4.2-1.2-6.4-1.1c-1.8,0.2-4.1,0.6-5.8,1.2c-0.9,0.3-1.4,0.5-2,1c-1,0.7-1.1,0.8-1.4,0.6zm13.9-4c0.4-0.8,0.5-1.7,0.3-2.6C113.7,113.1,113.6,113,113,113h-0.2l0.1,0.4c0.2,0.5,0.2,1,0.1,1.5c-0.1,0.6-0.4,1.4-0.7,1.6c-0.2,0.3-0.2,0.4,0.2,0.4c0.5,0,0.7-0.1,1-0.7zm-0.6-13.3c0,0-0.2,0-0.4,0c-0.4,0-0.5,0-1.2,0.8c-0.6,0.6-0.7,0.8-0.6,0.9c0.1,0.6,0,0.6,1.2-0.6c0.6-0.5,1-1,1-1.1zm-1.8,0.7c0.2-0.3,0.4-0.5,0.4-0.5c0-0.1-1,0.1-1,0.2c0,0,0.1,0.7,0.1,0.7s0.3-0.2,0.5-0.4zM88,138.5c0.4-0.7,1.2-1.6,1.7-1.9c0.4-0.2,0.6-0.4,1.3-1.3l0.9-1.1v-0.4c0-0.2,0-0.4,0-0.4s-0.4,0.5-0.9,1.1s-0.9,1.1-1,1.1c0,0,0-0.1,0-0.2s0.5-0.7,1-1.3c0.8-1.1,0.9-1.2,0.9-1.5v-0.3l-0.6,0.6c-0.8,0.9-0.7,0.5,0.1-0.4c0.4-0.6,0.6-0.8,0.6-0.9c0-0.2-0.1-0.3-0.1-0.3s-0.2,0.1-0.3,0.3l-0.3,0.3v-0.2c0.1-0.2,0.2-0.4,0.4-0.5l0.2-0.3,0.1-2.5c0.1-2.1,0.2-3.5,0.3-3c0,0.6,0.1,6.1,0.1,8.9c0.1,3.3,0,3.6-0.1,3.8l-0.1,0.2-0.3-0.3c-0.1-0.2-0.3-0.5-0.5-0.6c-0.8-0.9-1.9-0.5-3.1,0.9c-0.6,0.8-0.6,0.8-0.3,0.2zm4.1-1.2C92,137,92,137,91.9,137.1s-0.1,0.2,0,0.3c0.1,0.3,0.2,0.2,0.2-0.1zm-0.2-0.6c0.1-0.1,0.2-0.2,0.1-0.5l-0.1-0.4-0.3,0.4c-0.3,0.4-0.3,0.4-0.2,0.6c0.2,0.2,0.3,0.2,0.5,0v-0.1zM91.5,136c0.4-0.5,0.5-0.6,0.5-0.9c0-0.2-0.1-0.4-0.1-0.4c-0.1,0-1.4,1.6-1.4,1.7s0.4,0.1,0.5,0.1c0,0,0.2-0.2,0.5-0.5zm9,2.7c-0.3-0.5-1.3-1.4-1.7-1.6c-0.7-0.4-1.5-0.1-2,0.6c-0.1,0.2-0.3,0.4-0.3,0.4c-0.2,0.1-0.2,0.1-0.3,0s-0.1-0.6-0.1-4.9c0-5.3,0.1-7.9,0.2-7.7c0.2,0.3,0.3,8,0.2,10.8l-0.1,1.4,0.2-0.3c0.3-0.4,0.5-0.6,0.8-0.8c0.4-0.2,1-0.2,1.4,0c0.5,0.3,1.2,1,1.6,1.7s0.5,1,0.1,0.4zM83.1,166.8l0.6-0.6-0.3-0.2c-0.1-0.1-0.2-0.1-0.2-0.1s-0.3,0.2-0.6,0.5l-0.6,0.6,0.2,0.2c0.1,0.1,0.3,0.2,0.3,0.2s0.3-0.3,0.6-0.6zm6.4-0.1l0.6-0.7-0.3-0.1-0.3-0.2-0.7,0.7-0.6,0.7,0.2,0.1c0.1,0.1,0.3,0.1,0.3,0.1c0.1,0,0.4-0.3,0.8-0.6zm-0.9-0.4c0.3-0.3,0.6-0.7,0.6-0.7S89.1,165.5,89,165.4l-0.3-0.1-0.7,0.7-0.7,0.7,0.3,0.1c0.1,0.1,0.3,0.1,0.3,0.1s0.3-0.3,0.7-0.6zm-6.3,0c0.3-0.3,0.6-0.6,0.6-0.6c0-0.1-0.3-0.4-0.4-0.4s-0.3,0.3-0.7,0.6l-0.5,0.6,0.2,0.2c0.1,0.1,0.2,0.1,0.2,0.1s0.3-0.2,0.6-0.5zm6.1-1.2c0,0-0.2-0.1-0.3-0.2l-0.3-0.1-0.6,0.7c-0.3,0.4-0.6,0.7-0.6,0.7c0,0.1,0.1,0.1,0.2,0.2l0.3,0.1,0.6-0.6c0.4-0.4,0.7-0.7,0.7-0.8zm-6.8,0.7c0.3-0.4,0.6-0.6,0.6-0.7c0,0-0.1-0.1-0.2-0.2l-0.3-0.2-0.6,0.6-0.6,0.6,0.2,0.2c0.2,0.1,0.3,0.2,0.3,0.2s0.3-0.2,0.6-0.5zm-1.9,0.4c0.2-0.1,0.2-0.1,0-0.3l-0.2-0.2-0.2,0.2c-0.1,0.1-0.2,0.2-0.2,0.3c0,0,0.4,0,0.6,0zM79,165.9c0.2-0.3,0.2-0.3,0.1-0.5c-0.3-0.2-0.3-0.2-0.7,0.2c-0.3,0.3-0.5,0.5-0.5,0.5s0.2,0.1,0.4,0.1c0.3,0,0.4-0.1,0.7-0.3zm29.9,0.1c0.1-0.1,0-0.2-0.2,0c0,0.1-0.1,0.2,0,0.2c0,0,0.1-0.1,0.2-0.2zM78.1,165.5l0.5-0.5-0.2-0.2c-0.1-0.1-0.3-0.2-0.3-0.2c-0.1,0-1.3,1.3-1.2,1.3c0,0,0.3,0.1,0.6,0.2c0,0,0.3-0.3,0.6-0.6zm8.8-0.1c0.4-0.3,0.7-0.6,0.7-0.7c0,0-0.1-0.1-0.3-0.2l-0.2-0.1-0.7,0.7-0.7,0.6,0.3,0.2c0.1,0.1,0.2,0.2,0.3,0.2c0,0,0.3-0.3,0.6-0.7zm-9.7-0.2c0.4-0.4,0.7-0.8,0.7-0.8s-0.1-0.1-0.2-0.3l-0.2-0.1-0.9,0.8c-0.4,0.5-0.8,0.9-0.8,0.9c0.1,0.1,0.3,0.1,0.6,0.1c0.1,0,0.3-0.2,0.8-0.6zm3.7-0.1l0.6-0.6-0.2-0.2-0.2-0.2-0.6,0.7-0.7,0.6,0.3,0.2c0.1,0.1,0.2,0.2,0.2,0.2c0.1,0,0.3-0.3,0.6-0.7zm-4.5-0.4l0.9-0.9-0.2-0.2c-0.1-0.1-0.2-0.2-0.3-0.2c0,0-2,1.9-2,2.1c0,0,0,0,0.1,0.1c0.5,0.1,0.6,0,1.5-0.9zm9.7,0.3c0.4-0.4,0.7-0.7,0.7-0.8c0,0-0.1-0.1-0.2-0.2l-0.3-0.1-0.7,0.7-0.6,0.7,0.2,0.1c0.1,0.1,0.3,0.2,0.3,0.2s0.3-0.3,0.6-0.6zm-9.7-2.1l-0.2-0.2-0.6,0.5c-0.3,0.4-0.8,0.9-1.2,1.4l-0.7,0.7,0.3,0.1h0.3l1.2-1.1,1.2-1.1-0.3-0.3zm-1.8,1c0.7-0.7,1.3-1.3,1.3-1.4c0,0,0-0.2-0.1-0.3l-0.2-0.1-1.5,1.4c-0.9,1-1.4,1.5-1.4,1.6c0.1,0,0.3,0.1,0.6,0.1c0,0,0.6-0.6,1.3-1.3zm5.7,0.7l0.6-0.6-0.3-0.3-0.2-0.2-0.6,0.6-0.6,0.7,0.1,0.2c0.1,0.1,0.2,0.2,0.3,0.2c0,0,0.3-0.3,0.7-0.6zm5.1-0.2l0.7-0.6-0.3-0.2c-0.1-0.1-0.2-0.2-0.2-0.2c-0.1,0-1.3,1.3-1.3,1.3c0,0.1,0.3,0.4,0.4,0.4c0,0,0.4-0.3,0.7-0.7zm-23.1,0.4c0.2,0,1.5-1.4,4.4-4.3c2.3-2.3,4.1-4.2,4.1-4.3c0,0,0-0.1-0.1-0.2l-0.2-0.3-4.5,4.6c-2.4,2.5-4.5,4.6-4.5,4.6c0,0.1,0.5,0.1,0.8-0.1zm11.6-1.4l1.5-1.5-0.2-0.2C75.1,161.5,75,161.5,75,161.5c-0.1,0-3.4,3.3-3.4,3.4c0,0,0.1,0,0.2,0c0.5,0.1,0.5,0.1,2.1-1.5zM73,163l1.8-1.8-0.2-0.2c-0.1-0.1-0.2-0.2-0.2-0.2c-0.1,0-3.8,3.8-3.9,3.9c0,0,0.1,0.1,0.3,0.1c0.1,0,0.3,0,0.3,0c0.1,0,0.9-0.8,1.9-1.8zm-9.2,1.6c0.2-0.1,1.4-1.3,3.9-3.8c2-2.1,3.7-3.8,3.7-3.8s-0.1-0.2-0.2-0.3L71,156.5,70.5,157c-2.9,3-7.4,7.6-7.4,7.7c0,0,0.2,0,0.7-0.1zm7.4-1c0.6-0.6,1.5-1.5,2-2.1l1-1-0.2-0.2c-0.1-0.1-0.2-0.2-0.2-0.2c-0.1,0-4.3,4.4-4.3,4.4c0,0.1,0.1,0.1,0.2,0.1c0.1,0.1,0.3,0.1,0.3,0.1c0.1,0,0.6-0.5,1.2-1.1zm9-0.3c0,0-0.1-0.1-0.2-0.2l-0.2-0.2-0.6,0.6c-0.4,0.3-0.6,0.7-0.6,0.7c0,0.1,0,0.2,0.2,0.3l0.2,0.1,0.6-0.6c0.3-0.3,0.6-0.6,0.6-0.7zm-8.9-1.1c1.2-1.2,2.2-2.3,2.2-2.4c0,0,0-0.2-0.1-0.3l-0.2-0.1-2.5,2.5c-1.3,1.3-2.4,2.5-2.4,2.5c0,0.1,0.2,0.1,0.5,0.1c0.2,0,0.5-0.2,2.5-2.3zm-3.2-0.5c1.5-1.6,3-3.1,3.3-3.4l0.5-0.6-0.2-0.2-0.1-0.3-3.3,3.3c-1.7,1.8-3.3,3.5-3.5,3.6l-0.3,0.4h0.8l2.8-2.8zm2.3,0.1c1.4-1.4,2.6-2.6,2.6-2.7c0,0-0.1-0.1-0.2-0.2l-0.2-0.2-1.7,1.7c-4,4.1-3.9,4-3.7,4c0.6,0.1,0.5,0.2,3.2-2.6zm-0.8-0.4l2.9-2.9-0.2-0.3C72.2,158.1,72.1,158,72.1,158c-0.1,0-3.8,3.7-5.5,5.6l-0.8,0.8h0.9l2.9-3zM46.3,159.6c0.2-0.4-2.6,2.3-3.8,3.7c-0.4,0.4-0.7,0.8-0.7,0.9s4.4-4.4,4.5-4.6zm33.1,2.9c-0.1-0.1-0.2-0.2-0.3-0.2c0,0-0.3,0.3-0.6,0.7l-0.6,0.6,0.2,0.2,0.2,0.2,0.6-0.7,0.7-0.6-0.2-0.2zm-0.6-0.6c-0.1-0.1-0.2-0.2-0.3-0.2c0,0-0.3,0.3-0.7,0.6l-0.6,0.6,0.2,0.2,0.3,0.3,0.6-0.7,0.7-0.6-0.2-0.2zM77.7,162l0.6-0.6-0.2-0.2-0.2-0.2-0.7,0.6-0.6,0.7,0.2,0.2c0.1,0.1,0.2,0.2,0.2,0.2c0.1,0,0.4-0.3,0.7-0.7zm-0.6-0.6l0.6-0.6-0.2-0.3-0.2-0.2-0.4,0.4c-0.3,0.2-0.5,0.5-0.7,0.7l-0.2,0.3,0.2,0.2c0.1,0.1,0.2,0.2,0.2,0.2s0.3-0.3,0.7-0.7zm-0.2-1l0.2-0.3-0.2-0.3-0.2-0.2-0.7,0.7-0.6,0.7,0.2,0.2,0.2,0.3,0.4-0.5c0.2-0.2,0.5-0.5,0.7-0.6zm-1-0.3l0.6-0.7-0.2-0.2-0.2-0.3-0.6,0.7-0.7,0.7,0.2,0.2c0,0.2,0.1,0.3,0.2,0.3c0,0,0.3-0.3,0.7-0.7zm-0.6-0.7c0.3-0.3,0.6-0.6,0.6-0.7c0,0,0-0.1-0.1-0.3l-0.2-0.2-0.7,0.7c-0.4,0.4-0.7,0.7-0.7,0.7c0,0.1,0.3,0.5,0.4,0.5c0,0,0.3-0.3,0.7-0.7zM75.4,158c0,0-0.1-0.2-0.2-0.3l-0.2-0.2-0.7,0.7c-0.3,0.4-0.6,0.7-0.6,0.7c0,0.1,0,0.2,0.1,0.3l0.2,0.2,0.7-0.7C75,158.4,75.4,158,75.4,158zm-1.2,0c0.3-0.4,0.6-0.7,0.6-0.7c0-0.2-0.2-0.5-0.3-0.5c0,0-0.4,0.3-0.8,0.7l-0.6,0.7,0.1,0.2c0.1,0.2,0.2,0.3,0.2,0.3c0.1,0,0.4-0.3,0.8-0.7zm-0.6-0.7l0.7-0.8-0.1-0.2C74.1,156.2,74,156.1,74,156.1s-0.4,0.3-0.8,0.7l-0.7,0.7,0.2,0.2c0.1,0.2,0.2,0.3,0.2,0.3s0.4-0.3,0.7-0.7zm0.2-1.5c0-0.1,0-0.2-0.1-0.3l-0.2-0.3-0.5,0.5c-0.3,0.3-0.7,0.7-0.8,0.8l-0.2,0.3,0.2,0.3,0.1,0.2,0.8-0.8c0.4-0.4,0.7-0.7,0.7-0.7zm43.3-2l3.1-3.2,0.4-0.8c0.2-0.4,0.3-0.8,0.3-0.8s-1.2,1.2-2.8,2.8c-2.5,2.6-2.8,2.9-3.3,3.7c-0.3,0.4-0.6,0.9-0.7,1.1c-0.3,0.3-0.4,0.5-0.3,0.5c0.1-0.1,1.5-1.5,3.3-3.3zm-44.5,2C73,155.4,73.3,155,73.3,155c0-0.1,0-0.2-0.1-0.3l-0.2-0.3-0.8,0.8-0.8,0.8,0.2,0.3c0.1,0.1,0.2,0.2,0.3,0.2c0,0,0.3-0.3,0.7-0.7zM72.1,155l0.8-0.8-0.2-0.3c0-0.1-0.1-0.2-0.2-0.2c0,0-1.5,1.5-1.5,1.6s0.2,0.4,0.3,0.4c0,0,0.4-0.3,0.8-0.7zm-0.5-0.8c0.5-0.4,0.8-0.8,0.8-0.9c0,0-0.1-0.1-0.1-0.3l-0.2-0.2-0.8,0.8-0.9,0.9,0.2,0.2c0.1,0.2,0.2,0.3,0.2,0.3c0.1,0,0.4-0.4,0.8-0.8zm-0.4-0.8l0.8-0.9-0.1-0.2C71.8,152.2,71.7,152,71.7,152s-0.4,0.4-0.9,0.9l-0.8,0.8,0.1,0.3c0.1,0.1,0.2,0.2,0.2,0.2s0.4-0.4,0.9-0.8zm50.4-5.9c0.2-0.4,0.3-0.7,0.3-0.7c-0.1-0.1-1.2,1.1-2.5,2.5c-2.5,2.5-2.5,2.5-2.9,3.3c-0.3,0.4-0.5,0.8-0.5,0.9c0,0,1.2-1.2,2.7-2.6l2.6-2.7,0.3-0.7zm-50.9,5.1c0.5-0.5,0.8-0.9,0.8-0.9c0-0.1,0-0.2-0.1-0.4l-0.1-0.2-0.9,0.9-0.9,0.9,0.1,0.3c0.1,0.1,0.2,0.2,0.2,0.2c0.1,0,0.5-0.3,0.9-0.8zm-0.4-0.9l0.9-0.9-0.1-0.3c-0.1-0.1-0.2-0.2-0.2-0.2c-0.1,0-0.5,0.4-1,0.9l-0.8,0.9,0.1,0.3c0,0.1,0.1,0.2,0.2,0.2c0,0,0.4-0.4,0.9-0.9zM70.8,150c0-0.1-0.1-0.2-0.2-0.4l-0.1-0.3-0.9,1c-0.6,0.5-1,1-1,1s0.1,0.1,0.2,0.3l0.1,0.2,0.9-0.9c0.6-0.5,1-0.9,1-0.9zm-1.3,0l0.9-1-0.1-0.2c-0.1-0.1-0.1-0.3-0.1-0.3c-0.1,0-0.5,0.4-1,0.9l-1,1,0.1,0.3c0.1,0.2,0.2,0.3,0.2,0.3c0-0.1,0.5-0.5,1-1zm52.9-4.6c0.1-0.3,0.2-0.7,0.2-0.7s-1,1-2.3,2.3l-2.3,2.4-0.4,0.7c-0.1,0.4-0.3,0.7-0.3,0.8c0,0,1.1-1.1,2.5-2.4l2.4-2.5,0.2-0.6zM70,148.1c0-0.1-0.1-0.4-0.2-0.5s-2,1.9-2,2c0,0,0.1,0.2,0.2,0.3l0.1,0.2,0.9-0.9c0.6-0.5,1-1,1-1.1zm-1.2,0l0.9-0.9-0.1-0.3c-0.1-0.1-0.2-0.2-0.2-0.2s-0.5,0.4-1,1l-1,1,0.1,0.3c0.2,0.2,0.2,0.3,0.3,0.2c0-0.1,0.5-0.5,1-1.1zm54.4-4.9c0.1-0.4,0.2-0.7,0.2-0.8c0,0-0.1,0-0.1,0.1s-1,1.1-2.2,2.4c-2.2,2.3-2.2,2.3-2.5,2.9c-0.2,0.4-0.3,0.7-0.3,0.7c0,0.1,1.1-0.9,2.3-2.2l2.4-2.4,0.2-0.7zm-54.9,4.2l1-1-0.1-0.4c0-0.1-0.1-0.3-0.1-0.3s-0.5,0.5-1.1,1l-1,1,0.1,0.3c0.1,0.2,0.2,0.3,0.2,0.3s0.5-0.4,1-0.9zm-0.2-1.1l0.9-0.9-0.1-0.3c0-0.2-0.1-0.3-0.2-0.3s-2,2-2,2.1c0,0,0,0.2,0.1,0.3c0.1,0.3,0.1,0.3,0.3,0.2c0-0.1,0.5-0.6,1-1.1zm0.5-1.9c0-0.1,0-0.2-0.1-0.4l-0.1-0.2-1,1.1c-0.6,0.5-1.1,1-1.1,1.1c0,0,0,0.1,0.1,0.3l0.1,0.3,1.1-1c0.5-0.6,1-1.1,1-1.2zm52.7-0.1c1.1-1.1,2.1-2.1,2.1-2.1c0.1,0.1,0.6-1.4,1.2-3.6c0.7-2.6,0.9-3.2,0.8-3.2c0,0-0.9,0.9-1.9,1.9c-2,2.1-2,2-2.3,3.2c0,0,0.8-0.8,1.9-1.9c1.5-1.5,1.9-1.9,1.9-1.7c0,0.1-0.7,0.8-2,2.2c-2,2-2,2.1-2.2,2.6c-0.1,0.3-0.2,0.6-0.2,0.7s0.9-0.8,2-1.9c1.6-1.7,2-2,1.9-1.8s-0.7,0.9-2.2,2.4l-2,2.1-0.2,0.6c-0.1,0.3-0.2,0.6-0.2,0.6s1-0.9,2.1-2c1.6-1.6,2-2.1,1.9-1.9c0,0.2-0.7,1-2.2,2.5c-2,2.1-2.1,2.2-2.3,2.7c-0.1,0.3-0.2,0.6-0.3,0.7c0,0.1,0,0.1,0,0.1c0.1,0,1.1-1,2.2-2.2zm-54,0.3l1-1.1-0.1-0.3c0-0.2-0.1-0.3-0.1-0.3c-0.1,0-0.5,0.5-1.1,1.1l-1,1,0.1,0.4c0,0.1,0.1,0.2,0.1,0.2s0.5-0.5,1.1-1zm0.6-2.3c0-0.2-0.1-0.4-0.1-0.4c-0.1,0-0.6,0.5-1.1,1.1c-1.1,1.1-1.1,1.1-1,1.3c0,0.1,0.1,0.3,0.1,0.3c0,0.1,0.4-0.2,1.1-0.9l1.1-1.1-0.1-0.3zm-1.2,0.3l1-1-0.1-0.3C67.5,141.1,67.4,141,67.4,141s-0.5,0.5-1.1,1.1c-1,1-1,1.1-0.9,1.3c0,0.1,0.1,0.3,0.1,0.3c0,0.1,0.1,0.1,0.2,0c0-0.1,0.5-0.6,1-1.1zm-0.4-0.8c1-1.1,1-1.1,1-1.4c-0.1-0.1-0.1-0.3-0.1-0.3c-0.1,0-0.6,0.4-1.2,1l-1,1.1,0.1,0.3c0,0.2,0.1,0.3,0.1,0.3s0.5-0.5,1.1-1zm0.6-2.3c0-0.6-0.1-0.5-1.2,0.6c-0.6,0.6-1,1.1-1,1.2c0,0,0,0.2,0.1,0.3l0.1,0.3,1-1.1c0.9-0.9,1-1.1,1-1.3zm-1.2,0.3c0.6-0.6,1-1,1-1.1s-0.1-0.3-0.1-0.4l-0.1-0.2-1.1,1.1-1,1,0.1,0.3c0,0.2,0.1,0.4,0.1,0.4s0.5-0.5,1.1-1.1zm0.6-2.2c0-0.6-0.1-0.5-1.2,0.6c-1,1.1-1,1.1-0.9,1.3c0,0.1,0,0.3,0.1,0.4c0,0,0.4-0.4,1-1c0.9-1,1-1.1,1-1.3zm-0.3-1c0-0.2,0-0.3-0.1-0.4c0-0.1-2.1,2-2.1,2.1s0.1,0.3,0.1,0.4l0.1,0.3,1-1.1c1.1-1,1.1-1,1-1.3zm59.5-1.5c-0.2,0.7,0.1-0.2,0.4-1.3c1.4-5.7,2.4-11.2,2.8-15.9c0.3-3.3,0.4-4.2,0.4-9s-0.1-6-0.4-8.6c-0.6-4.7-2.4-9.2-5-12.7c-2.4-3.2-5.8-5-11.5-6.2c-1.7-0.3-5.2-0.8-6.9-0.9c-0.9-0.1-2.7-0.2-3.9-0.3c-4-0.3-5.6-0.3-8.3-0.3C91.7,79.9,90,80,89.4,80c-0.7,0.1-2.7,0.2-4.5,0.4c-7,0.4-11.7,1.4-15.1,3.1c-1.6,0.8-2.5,1.4-3.7,2.6c-2,2-3.8,5-5,8.6c-0.9,2.5-1.3,4.8-1.6,8.8c-0.1,1.7-0.1,9.2,0,11.2c0.3,4.7,0.9,8.7,1.8,13.4c0.7,3.1,0.8,3.8,0.9,3.7c0.2-0.2,0.3,0.1,0.1,0.3c-0.1,0.1-0.1,0.2,0,0.4c0.1,0.4,0.1,0.4,0.3,0.2c0.1-0.1,0.2-0.1,0.2,0c0.1,0.1,0.1,0.1-0.1,0.3s-0.2,0.3-0.1,0.5c0,0.2,0,0.4,0.1,0.4c0,0,0.1-0.2,0.3-0.3c0.2-0.2,0.2-0.2,0.3-0.1c0.1,0,0,0.1-0.2,0.4c-0.4,0.3-0.4,0.3-0.3,0.8l0.1,0.3,0.4-0.5c0.4-0.3,0.5-0.4,0.5-0.3c0.1,0.1,0,0.3-0.4,0.6l-0.4,0.5,0.1,0.3,0.1,0.3,0.5-0.5c0.5-0.5,0.7-0.6,0.8-0.6c0.1,0.1,0,0.2-0.6,0.8s-0.6,0.6-0.6,0.9c0.1,0.2,0.1,0.4,0.1,0.4s0.4-0.3,0.9-0.8s0.9-0.8,0.9-0.7c0.1,0-0.2,0.4-0.8,1l-0.9,0.9,0.1,0.3c0.1,0.2,0.1,0.3,0.1,0.3c0.1,0,0.5-0.5,1.1-1c0.9-0.9,1-1.1,0.9-1.2c0-0.2-0.2-0.9-0.4-1.6c-1.9-6.4-3.1-11.9-3.6-17.2c-0.2-2.5-0.3-3.8-0.3-6.7c0-7.3,0.5-10.4,2.2-13.9c1.1-2.3,2.5-4.4,4.2-6.1c2.9-2.9,6.4-4.4,13-5.4c4.3-0.7,8.1-1,13.4-1s9.2,0.3,13.5,1c5.8,0.9,9.3,2.2,11.9,4.5c3,2.4,5.7,6.7,6.6,10.5c0.6,2.3,0.8,4.5,0.9,9.2c0.1,7.6-0.9,14.7-3.6,24c-0.3,1.2-0.7,2.6-0.8,3c-0.2,0.4-0.3,0.7-0.3,0.7c0.1,0,0.8-0.8,1.8-1.7c1.5-1.5,2-1.9,1.6-1.3c-0.1,0.1-0.9,1-1.9,1.9l-1.7,1.8-0.2,0.5c0,0.3-0.1,0.6-0.1,0.6c0,0.1,0.8-0.7,1.8-1.8c1.5-1.4,1.8-1.8,1.8-1.6zm-0.4-2c0.2-0.4,0.6-0.9,0.9-1.2l0.3-0.3-0.1,0.2c0,0.2-0.2,0.5-0.6,0.8c-0.3,0.3-0.6,0.5-0.5,0.5zm-62.8-22c0.1-0.3,0.4-1.4,0.7-2.6c1.7-6.5,2.9-9.2,5.4-11.6c2.3-2.2,4.9-3.5,8.1-3.9c1.1-0.2,3.8-0.3,5.1-0.2c3.9,0.4,6.5,1.4,9.2,3.4c0.9,0.7,2.1,2,2.8,2.9c0.3,0.4,0.6,0.8,0.6,0.8c0.1,0,0.4-0.3,0.6-0.7c1.3-1.8,3.5-3.7,5.5-4.6c2.5-1.3,5.6-1.9,9.3-1.8c1.7,0,2.7,0.2,4,0.5c4,1,7.4,3.8,9.3,7.5c0.9,1.8,1.6,3.9,2.7,8.2c0.6,2.3,0.8,2.7,0.9,2.7c0.1,0.1,0.2-0.5,0.1-1.7c-0.4-5.8-2-10.5-4.8-14.5C118.2,90.2,114,87.6,106.3,85.9c-4.6-1-9.1-1.4-14.8-1.2c-4,0.2-6.9,0.6-10.7,1.6c-6.5,1.6-10.2,4-13.5,8.4c-2.6,3.4-4.2,7.3-5,11.8c-0.2,1.6-0.4,3.3-0.4,4.3c0,1.2,0.1,1.3,0.4,0.3zM94.1,92.8c0.1-0.1,1-1,2-2C97,89.8,97.8,89,97.8,89C97.7,88.9,97.6,88.9,97.4,88.9l-0.3-0.1-2,2.1C93.8,92.2,93,93,92.9,93s-0.2,0-0.2-0.1c0,0,0.9-0.9,2-2s2-2,2-2.1c0,0-0.2,0-0.4-0.1H96l-2.1,2.2C92.3,92.5,91.7,93,91.6,93c-0.2,0,0.2-0.4,1.9-2.1l2.1-2.2H94.8l-2.1,2.1c-1.6,1.6-2.2,2.1-2.3,2.1s0.3-0.5,1.9-2.1c1.1-1.1,2-2.1,2.1-2.1c0-0.1-0.2-0.1-0.5-0.1c-0.4,0.1-0.4,0.1-0.8,0.5c-1.3,1.4-3.7,3.7-3.8,3.7s1-1.2,2.7-3c0.6-0.6,1-1,1-1.1c0,0-0.2,0-0.4,0H92.2l-2,2c-1,1.1-1.9,2-2,2c0,0-0.1-0.1-0.1-0.1c0-0.1,0.7-0.8,1.6-1.6c0.8-0.9,1.6-1.7,1.7-1.9l0.3-0.3-0.5,0.1H90.8L89,90.7c-1.4,1.4-1.8,1.8-1.9,1.8s0.2-0.4,1.5-1.7c0.9-0.9,1.6-1.7,1.6-1.7c-0.1,0-0.3,0-0.5,0.1l-0.5,0.1-1.5,1.5c-1,1-1.6,1.5-1.7,1.5S86.2,92,87.2,90.9c0.7-0.8,1.3-1.4,1.4-1.4c0-0.1-0.2-0.1-0.5,0c-0.5,0.1-0.5,0.1-1.8,1.4C85.5,91.7,85,92.1,85,92.1C84.9,92,85.2,91.7,86,90.9c0.5-0.6,1-1.1,1-1.2c0,0-0.2,0-0.4,0.1c-0.4,0-0.5,0.1-1.5,1c-0.8,0.9-1.2,1.2-1.2,1c0,0,0.4-0.5,0.8-1L85.6,90H85.1l-0.5,0.1-0.7,0.7c-0.6,0.7-0.8,0.8-0.9,0.8c-0.1-0.1,0-0.2,0.5-0.7c0.3-0.4,0.6-0.7,0.6-0.7s-0.2,0-0.5,0c-0.4,0.1-0.5,0.1-0.9,0.6c-0.6,0.6-1,0.6-0.4,0l0.5-0.4H82.3c-0.5,0-0.6,0.1-0.8,0.3c-0.1,0.1-0.2,0.2-0.3,0.1c-0.1,0-0.1,0,0-0.2c0.1-0.1,0-0.1-0.8,0c-0.7,0-0.9,0-0.8-0.1c0.1,0,1.3-0.3,2.6-0.7c3-0.7,4.1-1.1,5.7-1.9c0.7-0.3,1.4-0.6,1.7-0.7c1.2-0.4,2.8-0.6,5.3-0.5c2.7,0.1,3.5,0.2,5.6,1.2c1.7,0.8,2.8,1.2,5.8,1.9c1.3,0.4,2.5,0.7,2.6,0.7c0.2,0.1-1.2,0.1-1.8,0c-0.2-0.1-0.3,0-0.8,0.4c-0.2,0.3-0.5,0.5-0.5,0.5c-0.1,0-0.2,0-0.2,0c-0.1,0.1,0-0.2,0.3-0.4c0.3-0.3,0.5-0.6,0.5-0.6s-0.2,0-0.4-0.1h-0.4l-0.7,0.8C104.3,91.7,104,92,103.7,92c0,0,0.3-0.4,0.8-0.9c0.9-0.8,0.9-0.8,0.3-0.9c-0.3,0-0.3,0-1.3,1c-0.6,0.6-1,1-1.2,1.1c-0.2,0,0-0.2,0.8-1c0.5-0.6,1-1.1,1-1.1c0-0.1-0.1-0.1-0.3-0.1l-0.3-0.1-1.3,1.3c-0.8,0.8-1.3,1.2-1.4,1.2s0.2-0.4,1.1-1.3C102.6,90.5,103,90,103,90c-0.1-0.1-0.2-0.1-0.4-0.1s-0.3,0-1.7,1.4c-1.1,1.1-1.5,1.5-1.6,1.5c-0.1-0.1,0.2-0.4,1.3-1.5c0.8-0.8,1.4-1.5,1.3-1.5c0,0-0.2,0-0.3-0.1h-0.3l-1.6,1.6c-1.3,1.3-1.6,1.6-1.8,1.6s0-0.2,1.4-1.6c1.7-1.7,1.7-1.7,1.2-1.8c-0.3,0-0.3,0-2,1.7C97.2,92.6,96.8,93,96.6,93s-0.1-0.1,0.9-1.2c2-1.9,2.4-2.3,2.3-2.4c0,0-0.2-0.1-0.3-0.1l-0.3-0.1-1.8,1.9C96,92.5,95.5,93,95.4,93c-0.2,0,0.2-0.5,1.6-1.9c1-1,1.8-1.9,1.8-1.9S98.7,89.1,98.5,89.1L98.2,89,96.7,90.5c-0.8,0.9-1.7,1.8-2,2.1c-0.2,0.2-0.5,0.5-0.6,0.5s-0.1,0,0-0.3zM8.1,91.2c0.7-0.8,1-1,1.1-1c0.2,0,0.1,0.1-0.7,1c-0.5,0.5-1,0.9-1,1c0,0,0.2,0,0.5,0H8.4l1-1.1c0.7-0.7,1.1-1,1.3-1.1c0.2,0,0.1,0.1-0.8,0.9C9.4,91.5,9,91.9,9,92c0.1,0,0.3-0.1,0.6-0.2c0.6-0.2,0.7-0.3,1.8-1.4c0.6-0.7,1.2-1.3,1.3-1.5c0.7-1.2,0.8-3.1,0.3-4.5C12.6,83.5,12.3,83,11.5,82.2C10.9,81.6,10.7,81.4,10.1,81.1C9.1,80.6,8.5,80.5,7.3,80.5c-0.7,0.1-1,0.1-1.5,0.3C4.4,81.2,3.1,82.3,2.4,83.7c-0.4,0.8-0.3,0.8,0.5,0C3.3,83.3,3.6,83.1,3.6,83.2c0,0-0.1,0.1-0.1,0.2c0,0-0.3,0.4-0.8,0.9C1.9,85.1,1.9,85.1,1.9,85.5c-0.1,0.3,0,0.5,0,0.5C2,86,2.3,85.7,2.6,85.3C3.1,84.7,3.2,84.7,3.2,84.9c0,0.1-0.3,0.5-0.7,0.9c-0.6,0.6-0.7,0.7-0.7,1c0,0.2,0.1,0.4,0.1,0.4S2.2,86.9,2.6,86.6C3.1,86.1,3.2,86,3.2,86.1c0.1,0.1-0.1,0.3-0.6,0.8C2,87.6,2,87.6,2,87.9c0.1,0.2,0.1,0.3,0.1,0.4c0.1,0,0.4-0.3,0.7-0.7C3.2,87.3,3.5,87,3.5,87s0,0,0,0.1S3.3,87.5,2.9,87.9C2.4,88.5,2.3,88.6,2.3,88.8c0.2,0.4,0.2,0.4,0.9-0.3C3.6,88.1,3.9,87.8,3.9,87.8c0.2,0,0,0.4-0.6,1l-0.6,0.6,0.1,0.3c0.1,0.1,0.2,0.2,0.3,0.2c0,0,0.3-0.3,0.7-0.7C4.3,88.7,4.5,88.5,4.6,88.6c0.1,0,0,0.1-0.4,0.6C3.8,89.5,3.5,89.9,3.4,90l-0.2,0.2,0.2,0.2,0.2,0.2,0.8-0.8C5.1,89.2,5.3,89.1,5.3,89.1c0.1,0.1,0,0.3-0.7,0.9L3.8,90.8,4,91c0.2,0.1,0.3,0.1,0.3,0.1c0.1,0,0.5-0.3,0.9-0.8C5.8,89.7,6,89.5,6.1,89.6c0.1,0,0,0.1-0.7,0.9l-0.8,0.8,0.2,0.2c0.1,0,0.2,0.1,0.3,0.1s0.5-0.4,1-0.9C6.6,90.1,7,89.9,7.1,89.9c0,0-0.2,0.3-0.8,0.9c-0.5,0.5-0.8,1-0.8,1s0.1,0.1,0.2,0.1L6,92,7,91.1C7.8,90.3,8.2,90,8.2,90.2c0,0-0.4,0.5-0.9,1C6.7,91.8,6.4,92.1,6.5,92.1c0.2,0.1,0.5,0.1,0.6,0.1c0.1-0.1,0.5-0.5,1-1zm3.1-3.6C11.1,86.8,11,86.4,10.7,85.8C9.8,84,8.2,82.8,6.4,82.5c-0.2,0-0.3,0-0.3-0.1c0,0,0.3-0.3,0.6-0.6S7.3,81.2,7.4,81.1c0-0.2,0.1-0.2,0.3-0.2c1.2,0,2.6,0.7,3.6,1.8c0.7,0.8,1.2,1.7,1.4,2.8c0.2,0.9,0.2,1-0.1,1.2c-0.2,0-0.5,0.3-0.7,0.7C11.6,87.7,11.4,88,11.3,88c0,0-0.1-0.2-0.1-0.4zm0.9-1.5c0.5-0.6-0.5-2.6-1.9-3.6C9.6,82,8.6,81.4,8.2,81.4c-0.3,0-0.7,0.3-0.6,0.5c0,0.1,0.3,0.3,0.6,0.4c1.4,0.7,2.4,1.7,3.1,3.1c0.4,0.9,0.5,1,0.8,0.7zm171.6,5.3c0.4-0.5,0.9-0.9,1-0.9s0.2,0,0.2,0s-0.4,0.4-0.8,0.8s-0.7,0.8-0.7,0.8s0.1,0,0.2,0c0.7-0.1,0.9-0.3,1.7-1.2c0.5-0.5,1-0.9,1.2-1c0.3-0.1,0.3-0.1-0.3,0.5c-1.2,1.2-1.2,1.3-0.4,0.7c2-1.4,2.9-4,2.2-6.4c-0.6-2.1-2.3-3.7-4.4-4.1c-0.8-0.2-2.1-0.1-2.9,0.2c-0.3,0.1-0.6,0.2-0.7,0.3s-0.2,0.1-0.2,0.1c0-0.1-0.9,0.5-1.3,1c-0.4,0.4-1,1.2-1,1.4c0,0,0.5-0.5,1.1-1.1s1-0.9,0.8-0.8c-0.1,0.2-0.4,0.6-0.5,0.8c-0.2,0.2-0.6,0.7-1.1,1.1c-0.7,0.7-0.7,0.8-0.8,1.3c-0.1,0.2-0.2,0.5-0.2,0.5c0,0.1,0.3-0.1,0.6-0.4C178,84.5,178,84.4,178,84.6c-0.1,0.2-0.3,0.5-0.7,0.8c-0.5,0.6-0.5,0.6-0.5,1c0,0.2,0,0.4,0,0.4c0.1,0,0.3-0.2,0.6-0.5c0.4-0.4,0.5-0.5,0.5-0.4s-0.2,0.5-0.5,0.8c-0.5,0.5-0.6,0.6-0.5,0.8c0,0.2,0.1,0.3,0.1,0.4c0,0,0.3-0.2,0.5-0.5C178,87,178.1,86.9,178.1,87s-0.1,0.3-0.5,0.7l-0.5,0.6,0.1,0.3c0,0.1,0.1,0.2,0.2,0.2c0,0,0.2-0.2,0.5-0.5c0.5-0.4,0.6-0.5,0.6-0.3c0,0-0.2,0.3-0.5,0.6l-0.5,0.6,0.1,0.2,0.2,0.3,0.6-0.6c0.4-0.4,0.5-0.5,0.6-0.4c0.1,0,0,0.2-0.4,0.6C178.3,89.6,178,89.9,178,90c0,0,0.1,0.1,0.2,0.2l0.2,0.2,0.6-0.6c0.5-0.5,0.6-0.6,0.7-0.5c0,0,0,0.1-0.1,0.2s-0.4,0.4-0.6,0.7l-0.4,0.4,0.2,0.2,0.2,0.2,0.7-0.7c0.5-0.5,0.7-0.6,0.8-0.6c0.1,0.1,0,0.2-0.5,0.8l-0.7,0.7,0.2,0.1c0.1,0.1,0.2,0.2,0.3,0.2c0,0,0.4-0.4,0.7-0.7c0.4-0.4,0.7-0.7,0.8-0.7s0.2,0,0.2,0c0,0.1-0.3,0.4-0.7,0.8s-0.7,0.7-0.7,0.7c0,0.1,0.2,0.1,0.3,0.2l0.3,0.1,0.7-0.8c1.1-1,1.3-1,0.4,0.1C181.4,91.6,181,92,181,92s0.2,0.1,0.3,0.1l0.3,0.1,0.9-0.9c0.6-0.6,0.8-0.8,0.9-0.7c0.2,0,0,0.1-0.6,0.8c-0.4,0.4-0.7,0.7-0.7,0.8c0,0,0.2,0,0.4,0c0.3,0,0.3,0,1.2-0.8zm2.5-3.5c0-0.1-0.1-0.4-0.1-0.8c-0.3-1.7-1.5-3.2-3.3-4.1c-0.4-0.2-0.8-0.3-1.5-0.4C181.1,82.5,181,82.5,181,82.5c0-0.1,0.3-0.4,0.7-0.8S182.4,81,182.4,81c-0.1-0.1,0-0.1,0.2-0.1c0.7,0,1.2,0.1,2,0.5c0.6,0.3,0.8,0.5,1.4,1.1s0.8,0.9,1.1,1.4c0.4,0.8,0.7,1.8,0.7,2.3c0,0.3,0,0.3-0.2,0.4s-0.9,0.8-1.1,1.1c-0.1,0.3-0.2,0.3-0.3,0.2zm0.7-1.7c0.1-0.1,0.3-0.4,0.3-0.6c0-0.6-0.8-1.9-1.5-2.7c-0.8-0.8-2-1.5-2.6-1.5c-0.3,0-0.7,0.3-0.6,0.5c0,0.1,0.4,0.3,0.8,0.5c1.4,0.7,2.5,1.9,3,3.1c0.3,0.7,0.4,0.8,0.6,0.7zM73.6,80.9c1.7-0.3,2.3-0.4,4.5-0.7C79,80.1,79.9,79.9,80,79.9c0.5-0.2,1.3-0.2,4.6-0.5c1.9-0.1,4-0.2,4.7-0.3C90.1,79,92.1,79,94.2,79c2.2,0,4.2,0,4.9,0.1s2.8,0.2,4.7,0.3c3.4,0.3,4.2,0.3,4.6,0.5c0.2,0,1.1,0.2,2,0.3c2.1,0.3,2.8,0.4,4.4,0.7c2.3,0.5,3.9,0.5,5.3-0.1c1.8-0.6,3-1.5,6.8-5c4.9-4.3,6.8-5.7,10.2-7.5c4.8-2.6,12.1-4.6,18.9-5c1.2-0.1,4.3-0.1,5.3,0c4.3,0.4,8.2,1.8,11.8,4.4c3,2.1,5.1,4.5,6.3,7.4c0.3,0.6,0.5,0.8,0.4,0.4c-0.1-0.8-0.5-2-0.7-2.6C177.5,69.2,173,65,167.9,62.5c-3.6-1.8-7-2.6-12.2-3.2c-2.1-0.2-6.5-0.1-8.9,0.1C141.1,60,134.6,61.5,127.2,64c-1.3,0.4-2.6,0.8-2.7,0.8c-0.3,0-0.4-0.2-0.8-1C123.6,63.4,123.4,63,123.3,63c0-0.1-0.2-0.2-0.4-0.3c-0.5-0.1-1.3-0.5-1.6-0.7c-0.4-0.3-1.4-0.1-1.7,0.3c-0.1,0-0.2,0.1-0.3,0.2c-0.1,0-0.1,0,0-0.2c0.3-0.6,0.1-1.2-0.7-2c-0.7-0.7-1-0.8-1.7-0.6c-0.5,0.2-1,0.5-2,1.5l-0.8,0.8,0.7-0.9c1.2-1.7,1.6-2.5,1.5-3.2c0-0.2-0.1-0.4-0.3-0.5c-0.3-0.3-0.4-0.3-0.9-0.1s-1,0.5-2.5,1.7c-0.6,0.5-1.4,1.2-1.7,1.4l-0.7,0.5,0.8-0.8c0.7-0.7,0.8-0.8,1-1.4c0.1-0.4,0.2-0.7,0.2-0.7s-0.9,0.9-2.1,2.1c-1.2,1.3-2.1,2.2-2.3,2.2c-0.1,0-0.2,0.1-0.2,0c0,0,0.8-0.8,1.7-1.8c3.2-3.2,3.1-3,3.1-3.5c0-0.2,0-0.4-0.1-0.4c0,0-1.4,1.4-3,3.1c-2.6,2.6-3.2,3.2-3.3,3.1s1.4-1.5,3.2-3.3c3-3.1,3.2-3.3,3.2-3.6c0-0.7,0.1-0.8-3.8,3.2c-2.9,3-3.8,3.8-3.9,3.8c-0.2,0,0.3-0.5,2.4-2.6c1.4-1.4,3.1-3.2,3.9-4l1.3-1.3-0.1-0.3C112.1,54.5,112,54.4,112,54.4s-1.9,1.9-4.2,4.3C104.6,62,103.5,63,103.4,63c-0.2,0-0.1-0.1,0.7-0.9c5.9-6.1,7.8-8,7.8-8.2c0,0,0-0.2-0.1-0.3l-0.1-0.2-4.7,4.8c-2.6,2.7-4.8,4.9-4.8,4.9c-0.1,0-0.2,0.1-0.3,0c-0.1,0,4.5-4.7,8.9-9.2l0.9-0.8-0.2-0.3c-0.1-0.2-0.1-0.3-0.2-0.3c0,0.1-2.3,2.4-5.1,5.4c-3.5,3.6-5.2,5.3-5.3,5.3s-0.1-0.1-0.1-0.1s2.3-2.5,5.2-5.5l5.3-5.4-0.1-0.2C111.1,51.8,111,51.7,111,51.7c0-0.1-2.5,2.4-5.4,5.4c-4.2,4.3-5.4,5.5-5.5,5.4c-0.1,0,0.2-0.4,1.3-1.5c6.9-7.1,9.4-9.6,9.4-9.7c0,0,0-0.2-0.1-0.3l-0.2-0.3-2,2.1c-1.1,1.1-3.5,3.6-5.4,5.5c-1.8,1.9-3.3,3.5-3.4,3.5c-0.3,0,0.5-0.9,5.3-5.8c3-3,5.4-5.5,5.4-5.5c0-0.1-0.1-0.2-0.2-0.4l-0.1-0.2-5.1,5.2c-2.8,2.9-5.1,5.3-5.1,5.3c-0.2-0.2,0.5-1,4.1-4.6c2.2-2.2,4.4-4.5,5-5.1l1-1-0.2-0.3c0-0.2-0.1-0.3-0.2-0.3c0,0.1-2.2,2.3-4.8,4.9c-2.6,2.7-4.8,4.9-4.8,4.9s0-0.1,0.1-0.2c0-0.2,1.4-1.6,4.7-5l4.7-4.9-0.1-0.2c-0.1-0.2-0.2-0.3-0.2-0.3s-1.3,1.3-2.8,2.8c-5.8,6-6.3,6.5-6.3,6.3c0-0.1,1.2-1.4,4.5-4.8l4.5-4.6-0.2-0.2c0-0.1-0.1-0.2-0.2-0.2c0,0-2,1.9-4.4,4.4c-3.4,3.5-4.3,4.4-4.3,4.2c0-0.1,0.3-0.5,1.3-1.5C102,54,103.9,52,105.6,50.3c3.1-3.2,3.1-3.1,2.8-3.5c-0.1-0.1-0.5,0.2-3.8,3.6c-4.7,4.9-4.6,4.7-4.6,4.5c0-0.1,1-1.2,3.5-3.7c1.9-2,3.8-3.9,4.1-4.2l0.5-0.6-0.1-0.2c-0.1-0.2-0.2-0.3-0.2-0.3S106,47.7,104,49.8c-2.1,2.1-3.8,3.9-3.8,3.8c-0.2-0.1,0.5-0.8,3.7-4.1c2-2.1,3.7-3.8,3.7-3.9s-0.1-0.2-0.1-0.3l-0.2-0.2-0.6,0.6c-0.3,0.3-1.6,1.6-2.9,2.9c-1.8,1.9-2.3,2.5-2.5,2.9c-0.3,0.5-1,1.6-1.1,1.6s-0.1-0.2,0.3-1.7c1.2-4.9,1-7.1-1-13.8c-1.1-3.7-1.6-5.9-2-8.8s-0.2-4.4,0.6-6c0.7-1.3,1.3-2,4.4-5.1c3.6-3.6,4-4.2,4.8-6.6c0.2-0.6,0.4-1.3,0.6-1.6c0.2-0.5,0.9-1.5,1.3-2l0.3-0.3-0.2,0.3c-0.2,0.6-0.4,1.2-0.3,1.6c0,0.4,0.5,1,1,1.4c0.9,0.7,2,1.3,4.8,2.5c1.3,0.5,2.4,1,3.1,1.5c2.6,1.8,4,4.4,6.1,11.2c2.2,7.1,3.1,11,3.5,16.3c0.2,1.8,0.3,2.1,0.3,0.5C127.5,34.2,127.2,31,126.6,27.7C125.5,21.9,123.4,16.1,121,12.2C119,9.1,115.7,5.5,113.1,3.6C109.7,1.3,107.2,1.1,103.3,3.1c-1.5,0.8-2.1,1.2-4.5,2.7L96.9,7.1,95.4,8.7c-0.9,0.8-2.1,1.9-2.7,2.5l-1.2,1,0.9-0.8c0.4-0.5,1.2-1.3,1.8-2C94.8,8.8,95.3,8.3,95.3,8.3c-0.1,0-0.8,0.6-2.2,1.6c-0.8,0.6-2,1.9-7.5,7.5c-4.7,4.7-6.7,6.9-7,7.3c-0.5,0.7-1,1.6-1,1.7c0.1,0,0.5-0.5,4.4-4.4c1.1-1.2,2-2.1,2-2c-0.8,1-1.5,1.9-4.1,4.4L77,27.5,76.6,28.3c-0.3,0.4-0.4,0.8-0.4,0.8c0,0.1,1-1,2.3-2.3c2-2,2.3-2.3,2.1-1.9c-0.2,0.3-1.2,1.3-2.6,2.8c-2.2,2.3-2.3,2.4-2.6,3c-0.2,0.4-0.3,0.7-0.3,0.8c0,0,0.9-0.9,2.1-2.1c1.7-1.7,2.1-2.1,2-1.8c-0.2,0.3-0.9,1.1-2.3,2.6L74.7,32.4,74.5,33c-0.2,0.4-0.3,0.7-0.2,0.7c0,0,0.9-0.9,1.9-2c1.1-1.1,2-2,2-2c0.1,0.1-0.4,0.7-2.1,2.6l-2.1,2-0.2,0.6c-0.1,0.4-0.2,0.6-0.1,0.7c0,0,0.9-0.9,2-2c1.6-1.6,1.9-2,1.8-1.7c-0.1,0.2-0.7,0.9-2.1,2.3l-2,2-0.1,0.6c-0.2,0.5-0.1,0.7,0,0.4c0.1,0,1-0.9,2-2c1.3-1.3,1.8-1.8,1.8-1.6C77,33.9,76.8,34,74.5,36.4L72.9,38,72.8,38.5c0,0.2,0,0.5,0,0.5s0.9-0.8,1.9-1.9c1.1-1.1,2-2,2-1.9s-0.3,0.5-2.1,2.4l-2,2-0.1,0.5c0,0.2,0,0.4,0,0.5c0,0,0.9-0.9,2-2c1.5-1.5,1.9-1.9,1.9-1.7c0,0.1-0.5,0.7-1.9,2.1c-1.1,1.1-2,2.1-2.1,2.2s-0.2,0.9-0.1,0.9c0,0,0.9-0.9,2-2c1.5-1.5,1.9-1.9,1.9-1.7c0,0.1-0.6,0.7-2,2.2l-2,2v0.5l-0.1,0.4,2-1.9C75.6,40,76,39.7,76,39.8c-0.1,0.2-0.6,0.8-1.8,2c-0.9,1-1.8,1.8-1.9,2C72.1,44,72.1,44,72.1,44.4c0,0.2,0,0.4,0,0.4C72.2,44.8,73,44,74,42.9c1.5-1.5,1.8-1.8,1.8-1.6c0.1,0.1-0.3,0.5-1.8,2.1c-1.9,1.9-1.9,1.9-1.9,2.2c0,0.2,0,0.4,0,0.4C72.2,46,73,45.2,74,44.2c1.4-1.4,1.8-1.7,1.8-1.6s-0.5,0.7-1.8,2c-1.9,2-1.9,2-1.8,2.5c0.1,0.2,0.2,0,1.8-1.6c1.3-1.4,1.7-1.7,1.7-1.5c0,0.1-0.4,0.5-1.7,1.9c-1.7,1.7-1.7,1.7-1.6,2c0,0.2,0,0.4,0,0.4c0,0.1,0.8-0.7,1.7-1.6c1.3-1.3,1.6-1.6,1.6-1.4c0,0.1-0.4,0.5-1.6,1.8c-1.6,1.6-1.7,1.6-1.6,1.9c0,0.1,0.1,0.3,0.1,0.3c0,0.1,0.5-0.3,1.6-1.4c1.1-1.2,1.5-1.5,1.5-1.4S75.4,47,74.2,48.2l-1.5,1.6,0.1,0.3c0,0.1,0.1,0.3,0.1,0.3S73.6,49.8,74.3,49c1.2-1.2,1.4-1.4,1.5-1.3c0,0.2-0.3,0.5-1.4,1.6L73,50.7,73.1,51c0,0.1,0.1,0.3,0.1,0.3c0.1,0,0.7-0.5,1.4-1.2c1-1,1.3-1.3,1.3-1.2s-0.4,0.6-1.3,1.5c-0.7,0.7-1.2,1.3-1.2,1.3c0,0.1,0,0.2,0.1,0.4l0.1,0.2,1.2-1.2c0.9-1,1.1-1.1,1.1-1c0,0.2-0.2,0.5-1,1.3c-0.6,0.6-1.1,1.1-1.1,1.2c0,0,0,0.2,0.1,0.3l0.1,0.3,1.1-1.1c0.7-0.7,1-1,1-0.8c0,0.1-0.4,0.5-1,1.1l-0.9,1,0.1,0.3,0.2,0.3,0.9-0.9c0.7-0.8,0.8-0.9,0.8-0.7c0,0.1-0.2,0.4-0.8,1c-0.4,0.4-0.8,0.8-0.8,0.8s0.1,0.2,0.2,0.3l0.1,0.3,0.7-0.7c0.4-0.4,0.8-0.7,0.8-0.7c0.2,0,0,0.3-0.6,0.9l-0.7,0.7,0.1,0.3c0.1,0.1,0.2,0.2,0.2,0.2c0.1,0,0.3-0.3,0.7-0.6c0.5-0.6,0.6-0.6,0.6-0.5c0,0.2-0.2,0.4-0.5,0.8c-0.6,0.6-0.6,0.6-0.4,1c0.1,0.1,0.2,0.1,0.6-0.4c0.4-0.4,0.5-0.4,0.6-0.3c0,0.1-0.1,0.3-0.4,0.6l-0.5,0.5,0.2,0.2,0.1,0.3,0.4-0.4c0.4-0.4,0.4-0.4,0.5-0.3c0,0.1-0.1,0.2-0.3,0.5c-0.4,0.4-0.4,0.5-0.1,0.8c0.1,0.1,0.2,0.1,0.4-0.2c0.1-0.1,0.2-0.2,0.3-0.2s0,0.3-0.2,0.5l-0.3,0.3,0.2,0.2,0.2,0.2,0.2-0.2C77.9,58.2,78,58.1,78,58.2c0.1,0.1,0,0.2-0.1,0.3c-0.2,0.3-0.2,0.4,0.1,0.7c0.1,0,0.1,0,0.2-0.1c0.3-0.2,0.3-0.1,0.2,0.2c-0.1,0.2-0.1,0.2,0,0.4c0.2,0.2,0.2,0.2,0.3,0.2c0.1-0.1,0.2-0.1,0.2,0c0,0,0,0.1,0,0.2c-0.1,0.1-0.1,0.2,0.1,0.3c0.1,0.1,0.3,0.2,0.3,0.2c0.1-0.1,0.1,0,0.1,0.2c0,0.1,1.7,1.9,2.5,2.6c0.5,0.4,0.5,0.4-0.3-0.1S79.8,62.1,77.9,60.6C76.6,59.6,76,59.2,76,59.2c-0.1,0.1-0.2,0.1-0.3,0.1c-0.2,0-0.2,0,0-0.2C75.8,59,75.8,59,75.6,58.8l-0.2-0.2-0.7,0.6c-0.3,0.3-0.7,0.8-1,1l-0.3,0.4,0.1,0.2c0.1,0.2,0.2,0.3,0.3,0.3c0,0,0.1,0.1,0.1,0.2c0.1,0.1,0.2,0.3,0.4,0.5l0.2,0.3-0.4-0.3C73.9,61.6,73.7,61.4,73.6,61.4c0,0-0.1-0.1-0.1-0.1c0-0.1,0-0.2-0.2-0.3L73.2,60.8,72.9,61c-0.1,0.1-0.2,0.2-0.3,0.2s-0.1,0,0.1-0.2c0.3-0.3,0.3-0.4,0-0.6l-0.2-0.2-1.7,1.7c-1.3,1.4-1.6,1.7-1.7,1.6c-0.1,0,0.3-0.4,1.6-1.8L72.3,60,72.1,59.9C72,59.8,71.8,59.8,71.8,59.8S71.2,60.3,70.5,61l-1.2,1.2,0.1,0.3c0,0.2,0,0.2-0.1,0.1c-0.2-0.2-0.2-0.2-0.5,0.1s-0.5,0.4-0.5,0.2c0,0,0.1-0.1,0.3-0.3c0.3-0.3,0.3-0.4,0-0.6L68.4,61.9,68,62.2c-0.2,0.3-0.3,0.4-0.4,0.3c-0.2,0-0.1-0.1,0.1-0.3c0.1-0.1,0.2-0.3,0.2-0.3s-0.1,0-0.3,0c-0.3,0-0.5,0-0.6,0.2c-0.2,0.1-0.3,0.1-0.4,0.1s-0.1-0.1,0-0.2s0.1-0.1-0.1,0c-0.3,0-1,0.4-1.2,0.7s-0.6,1.1-0.5,1.1c0,0.1,0.2-0.1,0.4-0.3c0.3-0.4,0.3-0.4,0.3-0.2c0,0.3-3.6,4-3.8,3.9c0-0.1,0.2-0.3,1-1.2c0.6-0.6,1.1-1.1,1.1-1.2c0,0-0.1-0.1-0.3-0.1l-0.3-0.1-1.1,1.1c-0.8,0.9-1,1.1-1.1,1c-0.1,0,0.1-0.3,0.9-1.1c0.5-0.6,1-1,1-1.1c0,0-0.1-0.1-0.3-0.1l-0.3-0.1-1,1c-0.7,0.7-1.1,1-1.2,1S60,66.2,60.5,65.8c0.3-0.3,0.7-0.8,1-1.1L62,64.2,61.7,64.1,61.4,64,60.3,65c-0.8,0.8-1,1-1.1,0.9c-0.1,0,0.1-0.2,0.8-1c0.6-0.5,1-1,0.9-1c0-0.1-0.1-0.1-0.3-0.2c-0.3,0-0.3,0-1.2,1c-0.8,0.8-1,0.9-1.1,0.9c-0.1-0.1,0-0.2,0.8-1c0.5-0.5,0.9-1,0.9-1S59.9,63.5,59.7,63.5l-0.3-0.1-0.9,0.9c-0.5,0.5-1,0.9-1,0.9c-0.2,0-0.2-0.1,0-0.2c0,0,0.4-0.5,0.9-0.9l0.7-0.9H58.8L58.5,63.1,57.6,64c-0.8,0.7-1.2,1-1.2,0.8c0,0,0.4-0.4,0.9-0.9C57.7,63.4,58.1,63,58.1,63S58,62.9,57.8,62.9l-0.3-0.1-0.9,0.9c-0.7,0.7-0.9,0.9-1,0.8s0-0.2,0.7-0.9c0.5-0.4,0.8-0.8,0.8-0.9c0,0-0.1-0.1-0.3-0.1l-0.3-0.1-0.8,0.8c-0.6,0.6-0.9,0.9-1,0.8c0,0,0-0.1,0.4-0.5c0.3-0.3,0.7-0.7,0.8-0.9L56.2,62.4,55.9,62.3,55.6,62.2,54.8,63c-0.7,0.7-1.1,0.9-1.1,0.7c0,0,0.4-0.4,0.8-0.8s0.7-0.7,0.7-0.7c0-0.1-0.1-0.1-0.3-0.2l-0.3-0.1-0.8,0.8c-0.6,0.6-0.8,0.8-0.9,0.7c-0.1,0,0-0.1,0.6-0.7c0.5-0.5,0.7-0.8,0.6-0.8c0-0.1-0.1-0.1-0.3-0.2c-0.3,0-0.3,0-0.9,0.7C52.3,63,52,63.2,52,63c0,0,0.2-0.3,0.6-0.7c0.3-0.3,0.6-0.6,0.6-0.7c0,0-0.1-0.1-0.3-0.1l-0.3-0.1-0.7,0.7c-0.6,0.6-0.7,0.7-0.8,0.6s0-0.2,0.5-0.7c0.3-0.3,0.6-0.6,0.6-0.7c-0.1,0-0.2,0-0.3-0.1c-0.3,0-0.3,0-0.9,0.6c-0.5,0.5-0.9,0.7-0.9,0.5c0,0,0.2-0.3,0.5-0.6s0.6-0.5,0.6-0.6C51.2,61.1,51,61,50.9,61L50.5,60.9,50,61.5c-0.4,0.4-0.6,0.6-0.7,0.6C49.2,62,49.2,61.9,49.7,61.5c0.2-0.3,0.5-0.6,0.5-0.6S50,60.8,49.9,60.8L49.5,60.7,49,61.2c-0.4,0.4-0.6,0.6-0.7,0.5c0-0.1,0-0.2,0.4-0.6l0.5-0.5H48.9l-0.4-0.1-0.4,0.4c-0.4,0.4-0.8,0.6-0.8,0.4c0,0,0.2-0.2,0.4-0.4s0.4-0.5,0.4-0.5s-0.2,0-0.4-0.1c-0.3,0-0.4,0-0.7,0.4c-0.2,0.2-0.4,0.4-0.4,0.4c-0.3,0-0.2-0.1,0.1-0.5c0.2-0.2,0.4-0.3,0.4-0.4c-0.1,0-0.2,0-0.4-0.1c-0.3,0-0.3,0-0.7,0.3c-0.5,0.5-0.7,0.5-0.3,0L46,60H45.7C45.3,59.9,45.3,59.9,45,60.2c-0.2,0.2-0.4,0.3-0.5,0.3c-0.1-0.1-0.1-0.1,0.2-0.3C45,59.9,44.9,59.8,44.5,59.8c-0.2,0-0.4,0-0.5,0.2c-0.2,0.2-0.3,0.2-0.4,0.2s-0.1-0.1,0.1-0.3l0.2-0.2H43.7C43.3,59.6,43,59.6,42.9,59.8c-0.1,0.1-0.2,0.1-0.3,0.1s-0.1,0,0-0.1c0.2-0.2,0.1-0.3-0.3-0.3c-0.2,0-0.4,0-0.4,0.1c-0.1,0-0.2,0.1-0.3,0.1s-0.1,0-0.1-0.2C41.6,59.4,41.6,59.4,41,59.4c-0.4,0-0.6,0-0.6,0c0.1-0.1,0-0.1-0.2-0.1c-0.1,0-1,0-1.8-0.1c-2.5-0.1-5.8,0.1-8.3,0.5c-5.7,0.8-10.2,2.7-14.3,5.8c-3.4,2.6-5.6,5.3-6.6,8C9,74,8.7,75.4,8.7,75.6c0,0.1,0.3-0.3,0.6-0.9c1.1-2.5,2.9-4.6,5.4-6.5c3.9-2.9,7.9-4.5,12.5-4.9c1-0.1,4.1-0.1,5.3,0c3.8,0.2,8.1,1,11.7,2.1c3.3,1,5.9,2.1,8.5,3.6c2.7,1.6,4.6,3,9,7c4.1,3.6,5.6,4.6,7.7,5.1c0.9,0.3,2.6,0.2,4.2-0.2zm5.7-2.4c0.2-0.2,0.3-0.2,0.4-0.2s0.1,0.1-0.1,0.3c-0.1,0.1-0.3,0.2-0.4,0.2c-0.2,0-0.2,0,0.1-0.3zm1,0.2c0.1-0.1,0.2-0.1,0.3-0.1c0.2,0,0.2,0,0.1,0.1c0,0.1-0.2,0.1-0.3,0.1s-0.2,0-0.1-0.1zM78.2,78.3C78.6,78,78.8,77.9,78.8,78s-0.1,0.2-0.3,0.4S78.2,78.7,78,78.7s-0.2,0,0.2-0.4zm-1-0.2c0.4-0.5,0.6-0.6,0.7-0.5s-0.8,1-1,1c-0.1,0,0-0.1,0.3-0.5zm-1.4,0.3c-0.1-0.1,0-0.2,0.4-0.6s0.7-0.6,0.7-0.6c0.2,0,0.1,0.2-0.4,0.7c-0.4,0.3-0.6,0.5-0.7,0.5zm-1-0.3c0-0.2,1.2-1.4,1.3-1.3c0.1,0,0,0.2-0.4,0.7c-0.6,0.6-0.8,0.7-0.9,0.6zM105,77.8c0.1-0.2,0.4-0.3,0.5-0.3l0.2-0.1-0.3,0.3C105.2,77.9,105,78,104.9,78c-0.2,0-0.2,0,0.1-0.2zm1.4-0.2c0.2-0.2,0.4-0.4,0.5-0.4c0,0,0.1,0,0.2-0.1c0.1,0,0,0.2-0.3,0.5c-0.6,0.6-0.9,0.6-0.4,0zm-2.7,0.2c0,0,0.2-0.1,0.3-0.1s0.2,0.1,0.1,0.1C104,77.9,103.9,78,103.8,78c-0.2,0-0.2-0.1-0.1-0.2zm4.2-0.4c0.5-0.5,0.9-0.8,1-0.7c0,0-0.3,0.3-0.6,0.6c-0.4,0.5-0.7,0.7-0.8,0.7s-0.1-0.1,0.4-0.6zM74.5,77c0.4-0.4,0.7-0.7,0.8-0.7c0,0,0.1,0.1,0.1,0.1c0,0.1-1.4,1.4-1.5,1.4S74,77.6,74.5,77zm35.1,0c0.6-0.7,1.1-1,1.1-0.9c0.1,0-0.3,0.3-0.7,0.8c-0.6,0.6-0.9,0.8-1,0.8c-0.2,0-0.1-0.1,0.6-0.7zM73,77.4c-0.1,0,0-0.2,0.7-0.8c0.6-0.6,0.8-0.8,0.8-0.7c0.1,0,0,0.2-0.6,0.8S73.1,77.5,73,77.4zm38.4-1c0.5-0.5,1.1-1.1,1.3-1.2s0.1,0-0.7,0.9c-1.1,1.2-1,1.1-1.4,1.2c-0.2,0.1-0.1,0,0.8-0.9zM72,77.1c0-0.2,1.6-1.8,1.7-1.7c0.1,0-0.1,0.3-0.6,0.9c-0.8,0.8-1,0.9-1.1,0.8zm41.6-1.7c0.8-0.8,1.6-1.5,1.8-1.7c0.4-0.3,0.3-0.1-1,1.3c-1.2,1.1-1.6,1.6-1.9,1.7c-0.2,0.1-0.1-0.1,1.1-1.3zM71.2,76.7c0-0.1,0.4-0.5,0.8-1c0.7-0.8,0.9-0.9,1-0.8c0.1,0,0,0.2-0.8,0.9c-0.5,0.5-0.9,0.9-0.9,0.9s-0.1,0-0.1,0zM70.4,76.2c-0.1,0,0.3-0.5,0.8-1c0.8-0.7,1-0.9,1.1-0.8c0.1,0-0.1,0.2-0.8,1c-0.9,0.8-1,0.9-1.1,0.8zM69.6,75.8c-0.1,0,0.1-0.3,0.9-1.1c0.5-0.5,1-0.9,1-0.9c0.2,0,0,0.2-0.8,1.1c-0.8,0.8-1,1-1.1,0.9zm46.9-2.1c1.1-1.1,2.2-2.2,2.5-2.4s0.5-0.3,0.4-0.2s-1,1.1-2.1,2.2c-1.3,1.3-2.2,2.1-2.4,2.2c-0.3,0.2,0-0.1,1.6-1.8zM86.7,75.3C83.4,75.1,80.4,74,77.9,72.1C76.1,70.7,74.3,68.8,72.2,66.3c-0.5-0.6-0.9-1-0.9-1c-0.1,0-0.1-0.1-0.1-0.2C71.1,65,71.1,64.9,71,64.8C70.9,64.6,70.8,64.6,70.7,64.6c-0.1,0.2-0.3,0-0.2-0.2c0.1-0.1,0.1-0.3-0.2-0.5C70.2,63.8,70.2,63.9,70,64c-0.1,0.2-0.2,0.2-0.2,0.1s0-0.2,0.1-0.4c0.2-0.1,0.2-0.2,0.1-0.3c-0.1,0-0.1-0.1,0-0.1c0,0,0.1,0.1,0.1,0.1c0,0.1,0.2,0,0.4-0.2s0.3-0.3,0.3-0.1c0,0-0.1,0.2-0.2,0.3l-0.2,0.3,0.2,0.2c0.2,0.2,0.3,0.2,0.3,0.1c0.2-0.1,0.3-0.1,0.2,0.2c0,0.2,0,0.3,0.2,0.4c0.1,0.1,0.2,0.2,0.2,0.1c0,0,0,0,0.1,0.1c0,0,0.1,0.1,0,0.1c0,0.1,4.2,4.4,5.2,5.1c1.8,1.5,3,2.2,4.6,2.8c2.5,1,5,1.2,9.7,0.8c0.8-0.1,2.2-0.1,3.1-0.1s2.4,0,3.2,0.1c3.3,0.3,5.6,0.2,7.2-0.1c4-0.7,6.6-2.5,11.6-7.8c1-1.1,2-2.1,2.2-2.2l0.2-0.2-0.3,0.4c-0.1,0.2-0.5,0.7-0.8,1c-2.4,3.2-4.9,5.8-7,7.4c-3.3,2.5-7.4,3.6-12.5,3.2c-2.6-0.1-4.4-0.1-6.6,0s-3.4,0.1-4.7,0zm-17.8,0C68.8,75.2,69,74.9,69.8,74.1s1-1,1.1-0.9S70.8,73.5,70,74.3c-0.7,0.7-1.1,1-1.1,1zM68.1,74.7c-0.1-0.1,2-2.2,2.1-2.1S70,73,69.3,73.8c-0.6,0.5-1,1-1.1,1c0,0-0.1,0-0.1-0.1zM67.4,74.2c0-0.1,0.4-0.6,1-1.2c0.9-0.9,1.1-1.1,1.2-1c0.1,0-0.1,0.3-1,1.1c-0.6,0.6-1.1,1.1-1.1,1.1c0,0.1-0.1,0-0.1,0zM66.8,73.5c-0.1-0.2,2-2.3,2.2-2.1c0,0-0.2,0.3-1,1.2c-1,0.9-1.2,1.1-1.2,0.9zm51.7-0.6c0.1-0.1,0.7-0.7,1.3-1.3c1-1,1.1-1.1,0.7-0.5c-0.6,0.6-2.2,2.2-2,1.8zm-52.3,0c0-0.1,0.2-0.4,1-1.2c0.6-0.6,1.1-1.1,1.1-1.1c0.2,0,0.1,0.3-1,1.3c-0.8,0.9-1.1,1.1-1.1,1zM65.6,72.2c0-0.1,0.3-0.5,1.3-1.5c0.7-0.7,0.9-0.8,1-0.8c0,0.1-0.2,0.4-1.1,1.3c-0.7,0.6-1.1,1-1.2,1zM65.1,71.5c-0.1-0.1,0.1-0.4,1-1.3c0.7-0.7,1.2-1.1,1.2-1c0.1,0-0.2,0.4-0.8,1c-1.2,1.3-1.3,1.4-1.4,1.3zM90,71.1c-0.1,0-0.6,0-1-0.1C85.6,70.7,81.7,69.1,78.8,66.9c-1-0.8-3.5-3.2-3.2-3.2c0,0,0.4,0.3,0.9,0.7c1.1,0.9,2.4,1.9,3.3,2.4c2,1.3,5,2.3,7.7,2.7c1.6,0.2,2.7,0.3,6.7,0.3c5,0,6.2-0.1,8.4-0.6c2.3-0.5,4.6-1.4,6.4-2.5c0.8-0.5,2.1-1.5,3.1-2.4c0.4-0.3,0.7-0.6,0.8-0.6c0.2,0-1.8,2.1-2.9,3c-2.6,2.1-6.3,3.7-10,4.3c-0.9,0.1-1.3,0.1-5.3,0.1c-2.4,0.1-4.5,0-4.7,0zM64.6,70.7c-0.1-0.1,0.3-0.5,1-1.2c0.6-0.7,1.1-1.2,1.2-1.2c0.2,0,0,0.4-1,1.4c-0.8,0.8-1.2,1.1-1.2,1zM64.1,69.9C64,69.8,64.3,69.5,65.2,68.6c0.8-0.8,1.2-1.1,1.2-1s-0.3,0.5-1.1,1.3c-1,1-1.2,1.1-1.2,1zM63.6,69.2c0-0.1,0.4-0.7,1.1-1.4c1-1.1,1.2-1.2,1.3-1.1S65.9,67,64.9,68c-0.7,0.7-1.2,1.2-1.2,1.2c-0.1,0-0.1,0-0.1,0zM63.1,68.4C63,68.3,63.2,68,64.3,66.9c1-1,1.4-1.3,1.4-1.1c0,0.1-0.4,0.6-1.3,1.4c-1,1.1-1.2,1.3-1.3,1.2zM62.4,67.7c0-0.1,0.7-0.8,1.5-1.6c1.2-1.3,1.5-1.6,1.6-1.5c0,0.2-0.3,0.5-1.4,1.7c-0.8,0.8-1.5,1.5-1.6,1.5c0,0-0.1,0-0.1-0.1zM91.3,67.4C88.8,67.2,87.8,66.9,86,66C84.8,65.4,83.6,64.8,83.8,64.8c0,0,0.9,0.3,2,0.7c1,0.4,2.2,0.8,2.7,0.9c1.2,0.3,3.1,0.5,5,0.5c2.5,0.1,4.3-0.1,6.8-0.7c3.1-0.8,5.5-1.8,7.7-3.3c1.2-0.7,1.2-0.7,1-0.5c-0.3,0.3-1.5,1.3-2.2,1.8c-2.1,1.3-5.7,2.6-9.3,3.2c-1.1,0.1-4.8,0.2-6.2,0zm31.9-0.1c0-0.1,0.1-0.2,0.2-0.3c0.2-0.1,0.2-0.1,0.1,0c0,0.1-0.1,0.2-0.2,0.3c-0.2,0.1-0.2,0.1-0.1,0zM93.5,58.6c0-0.3-0.1-0.4-0.1-0.4c-0.1,0-0.2,0.1-0.4,0.3c-0.3,0.3-0.4,0.4-0.5,0.3c-0.2,0-0.1-0.1,0.3-0.5l0.5-0.5-0.1-0.3c0-0.2-0.1-0.3-0.1-0.3c-0.1,0-0.4,0.2-0.7,0.6c-0.9,0.9-1,0.7-0.1-0.3L93,56.8,92.9,56.5,92.8,56.1,91.9,57C91.5,57.5,91,57.8,91,57.8c-0.2,0-0.1-0.2,0.8-1c0.5-0.5,0.9-0.9,0.9-1c0,0-0.1-0.2-0.2-0.3l-0.1-0.3-1,1.1c-0.8,0.8-1.1,1-1.1,0.9c-0.1,0,0-0.2,0.6-0.8c1.5-1.5,1.4-1.4,1.3-1.7C92.1,54.5,92.1,54.4,92.1,54.4c-0.1,0-0.6,0.5-1.3,1.1c-0.9,0.9-1.2,1.2-1.2,1.1c-0.1,0,0.2-0.3,1.1-1.3l1.2-1.2-0.1-0.3c0-0.2-0.1-0.4-0.1-0.4c-0.1,0-0.7,0.6-1.4,1.4c-1,1.1-1.3,1.3-1.4,1.2c0-0.1,0.1-0.3,1-1.1c1.7-1.8,1.6-1.7,1.5-2c0-0.2-0.1-0.3-0.1-0.3S90.6,53.2,89.8,54c-0.9,1-1.4,1.4-1.5,1.4c-0.1-0.1,0.1-0.3,1.8-2l1-1.1V52C91,51.8,90.9,51.7,90.9,51.7s-0.7,0.7-1.6,1.6c-1.3,1.3-1.5,1.5-1.6,1.4c-0.1,0,0.1-0.3,1.2-1.4c2-2.1,1.9-1.9,1.8-2.3c0-0.1-0.1-0.2-0.1-0.2c-0.1,0-0.8,0.7-1.8,1.7c-1.3,1.3-1.7,1.7-1.8,1.6c0-0.1,0.4-0.5,1.7-1.9l1.8-1.8-0.1-0.3c0-0.2-0.1-0.4-0.1-0.4s-0.9,0.9-1.9,2c-1.5,1.5-1.9,1.8-1.9,1.7c-0.1-0.1,0.3-0.5,1.8-2.1l2-1.9V49c0-0.2-0.1-0.4-0.1-0.4s-1,1-2.2,2.1c-1.6,1.7-2.1,2.1-2.1,2.1c-0.1-0.1-0.2-0.1,3-3.4l1.4-1.3V47.6l0.1-0.5-2.5,2.5c-2,2-2.5,2.5-2.6,2.4c0-0.1,0.6-0.7,2.6-2.8L90.5,46.6,90.6,46c0.1-0.3,0.2-0.5,0.2-0.6c-0.1,0-1,1-2.2,2.2c-1.2,1.3-2.6,2.6-3,3c-0.6,0.7-0.7,0.8-0.8,0.7s0.2-0.4,1-1.2c2.8-2.8,5-5.2,5.1-5.3c0.1-0.2,0.3-1,0.2-1s-1.6,1.5-3.4,3.4c-2.1,2.2-3.3,3.3-3.3,3.2c-0.1-0.1,0.2-0.4,3.7-4l3-3V43C91.1,42.8,91,42.7,91,42.7c-0.1,0-1.6,1.5-3.5,3.5C84.8,49,84.1,49.6,84,49.5c0-0.1,0.6-0.7,2.3-2.5c1.3-1.3,2.8-2.9,3.5-3.5L90.9,42.3,90.8,42C90.7,41.8,90.6,41.7,90.6,41.7c0,0.1-1.6,1.6-3.4,3.4c-2.1,2.2-3.3,3.4-3.4,3.3S84,48.1,87.5,44.5l3-3.1-0.2-0.2-0.1-0.3-1,1c-0.5,0.5-2,2-3.2,3.2c-1.8,1.8-2.2,2.3-2.2,2.1s0.7-0.9,2.4-2.7c1.3-1.3,2.7-2.7,3.1-3.1L90,40.6,89.8,40.4c0-0.2-0.1-0.3-0.1-0.3c-0.1,0-1.4,1.3-2.9,2.9C84.5,45.4,84,45.9,84,45.7c-0.1-0.1,0.2-0.4,1.4-1.6c0.8-0.8,2-2.1,2.8-2.8l1.3-1.4-0.1-0.3C89.3,39.5,89.2,39.3,89.2,39.3s-0.4,0.4-0.9,0.9c-3.1,3.2-4.2,4.3-4.2,4.1c0-0.1,0.6-0.8,2.1-2.3c3.2-3.3,2.9-2.9,2.8-3.2C88.9,38.6,88.8,38.5,88.8,38.5s-1.1,1.1-2.4,2.4C84.6,42.8,84,43.3,84,43.1c0-0.1,0.6-0.7,2.3-2.5l2.4-2.5-0.1-0.3c0-0.2-0.1-0.3-0.1-0.3s-1.1,1-2.3,2.3s-2.3,2.3-2.3,2.3c-0.3,0,0.1-0.4,1.8-2.1c1-1.1,2-2.2,2.3-2.4l0.5-0.5-0.1-0.4V36.3l-2.3,2.3c-1.2,1.3-2.3,2.3-2.3,2.3c-0.1-0.1,0.4-0.7,2.4-2.7l2.3-2.4V35.4c0.1-0.3,0.1-0.5,0.1-0.5s-1,0.9-2.2,2.1c-1.7,1.7-2.1,2.1-2,1.9s0.8-1,2.3-2.5L88.8,34.2,89,33.6c0.1-0.3,0.2-0.6,0.2-0.7c0,0-0.8,0.8-1.7,1.7c-1.5,1.5-1.7,1.7-1.4,1.3c0.2-0.3,1-1.3,1.9-2.1c0.8-0.9,1.6-1.8,1.7-1.9c0.2-0.4,0.2-0.3,0,0.4c-0.5,1.1-0.6,1.8-0.6,2.7c-0.1,1.8,0.4,2.9,2.4,5.1c1,1.1,1.3,1.5,1.4,2c0.3,0.8,0.2,1.2-0.5,3.3c-0.7,2-0.8,2.9-0.8,4.1s0.1,2,1,4.6c0.4,1.1,0.7,2.4,0.8,2.7c0.1,0.6,0.3,2.1,0.2,2.2c0,0,0-0.2-0.1-0.4zm33,2.3c0.7-0.7,1-1,1.2-1s0.1,0.1-0.7,0.9c-1.1,1-1.1,1.1-0.3,0.9c0.5-0.2,0.5-0.2,1.4-1.2c0.9-0.9,1.3-1.3,1.5-1.3c0.1,0-0.2,0.3-0.5,0.6c-0.9,1-1.2,1.3-1.1,1.3c0.2,0,1.1-0.8,1.5-1.3c2-2.4,1.8-5.8-0.4-8c-0.9-0.9-1.8-1.4-3.1-1.6c-0.9-0.1-1.7,0-2.6,0.2c-0.6,0.2-1,0.6-1.6,1.4c-0.2,0.3-0.7,0.9-1.2,1.4c-0.8,0.9-1,1.1-1.1,1.7v0.4l0.7-0.8c0.7-0.6,0.8-0.7,0.7-0.5c0,0.2-0.3,0.5-0.8,1l-0.7,0.7v0.4c0,0.3,0,0.4,0.1,0.4c0,0,0.3-0.3,0.7-0.6c0.5-0.6,0.7-0.7,0.7-0.5c0,0.1-0.3,0.4-0.7,0.8c-0.7,0.7-0.7,0.8-0.7,1.1c0.1,0.1,0.1,0.3,0.2,0.3c0,0,0.3-0.3,0.6-0.6c0.6-0.6,0.7-0.7,0.8-0.6c0,0.1-0.1,0.3-0.7,0.9l-0.7,0.7,0.1,0.2c0.1,0.2,0.2,0.3,0.2,0.3c0,0.1,0.3-0.2,0.7-0.6c0.5-0.5,0.7-0.7,0.7-0.6c0.1,0.1-0.1,0.4-0.6,0.9l-0.7,0.7,0.2,0.2c0,0.1,0.1,0.2,0.1,0.3c0.1,0,0.4-0.3,0.8-0.7c0.5-0.6,0.7-0.7,0.8-0.6c0,0-0.1,0.2-0.7,0.8l-0.7,0.7,0.2,0.2c0.1,0.2,0.2,0.3,0.2,0.3s0.4-0.4,0.8-0.8c1-1,1.2-0.8,0.2,0.2l-0.8,0.8,0.3,0.2,0.2,0.2,0.8-0.8c0.6-0.7,0.9-0.8,1-0.8c0.1,0.1,0,0.2-0.7,0.9c-0.5,0.5-0.8,0.9-0.8,0.9c0,0.1,0.1,0.1,0.3,0.2l0.2,0.1,0.8-0.9c0.7-0.7,0.9-0.9,1-0.8c0.1,0,0,0.2-0.7,0.9c-0.9,0.9-1,1-0.4,1.1c0.2,0,0.3,0,1.1-0.8c0.7-0.8,1.1-1.1,1-0.9c0,0.1-0.4,0.5-0.8,1c-0.8,0.9-0.9,0.9-0.6,0.9c0.1,0.1,0.2,0.1,0.3,0.1s0.5-0.3,1.1-0.9c0.7-0.8,1-1,1.1-0.9c0.1,0,0,0.2-0.8,0.9c-0.8,0.9-0.9,0.9-0.7,1c0.5,0.1,0.7,0,1.6-1zm2-3.3c0-0.7-0.1-1.1-0.2-1.5C128,54.9,127.5,54,126.6,53.2c-0.5-0.5-0.8-0.7-1.4-1c-0.4-0.1-0.7-0.3-0.7-0.4c0.1,0,0.1,0,0.2,0c0.2,0,1.3-0.7,1.5-0.8c0.1-0.2,0.2-0.2,0.2-0.2c0.2,0,1.4,0.6,1.8,0.9c1.4,1.1,2.2,2.9,2.2,4.6c0,1,0,1.2-0.3,1.3c-0.3,0-0.5,0.2-1,0.5c-0.1,0.1-0.3,0.2-0.5,0.3l-0.2,0.1,0.1-0.9zm1.3-0.7c0.2-0.2,0.2-0.8,0-1.6c-0.4-1.4-1.3-2.8-2.4-3.6c-0.4-0.2-1.1-0.1-1.1,0.2c0,0.1,0.3,0.3,0.5,0.5c0.7,0.5,1.3,1.3,1.6,1.9s0.7,1.8,0.7,2.1c0,0.1,0.1,0.3,0.1,0.5c0.1,0.2,0.1,0.3,0.3,0.3c0.1,0,0.2-0.1,0.3-0.3zM71.2,59.6c-0.4,0-0.8,0.3-1.3,0.8c-0.3,0.4-0.7,1.1-0.7,1.3c0,0.1,0.4-0.1,1.1-0.9l1.2-1.1-0.3-0.1zm49.2,1.7c0,0-0.2-0.2-0.4-0.5c-1.5-1.5-2-4-1.5-6.2c0.3-1.3,1.3-2.7,2.3-3.5c0.7-0.5,1.7-1,2.5-1.2c0.7-0.2,1.8-0.3,2.5-0.1c0.7,0.1,0.8,0.1,0.9-0.6c0.1-0.3,0.1-0.6,0-1.3c-0.1-1-0.8-5.8-1.2-8.2c-1.3-7.2-3.4-13.8-5.7-17.5c-1.7-2.8-3.2-4.1-6.1-5.2c-0.4-0.2-1.2-0.5-1.8-0.8c-1-0.4-1.5-0.5-1.9-0.3c-0.1,0-0.6,0.5-1,1s-1.8,1.9-2.9,3.1c-2.3,2.2-2.7,2.7-3.1,3.8c-0.7,1.5-0.6,3.7,0.1,7.1c0.9,4.4,2.6,9.3,4.8,13.7c1.4,2.7,4.6,8.3,6.5,11.1l0.5,0.7,0.6,0.3c0.8,0.3,1.2,0.6,1.5,1.2c0.2,0.4,1.6,1.9,2.8,3.1c0.4,0.3,0.6,0.5,0.6,0.3zM75.1,58.4c0,0-0.1-0.1-0.3-0.2l-0.2-0.2-0.9,1-0.8,0.9,0.1,0.2,0.2,0.3,0.9-1c0.6-0.5,1-0.9,1-1zM74.3,57.9c0,0-0.1-0.1-0.2-0.2l-0.3-0.1-0.6,0.7c-0.4,0.3-0.7,0.7-0.7,0.8c0,0,0,0.2,0.1,0.3l0.1,0.2,0.8-0.8C74,58.4,74.3,58,74.3,57.9zM73,58.1c0.6-0.7,0.6-0.7,0.2-0.8c-0.2-0.1-0.3,0-0.6,0.3c-0.5,0.4-0.5,0.5-0.4,0.8c0,0.1,0.1,0.3,0.1,0.3S72.6,58.4,73,58.1zm48.4-6c0.6-0.7,1.2-1.3,1.1-1.3s-0.9,0.6-1.3,1c-0.5,0.4-1.3,1.6-1.1,1.6c0-0.1,0.6-0.6,1.3-1.3zM106.6,45.4l0.6-0.6-0.2-0.3-0.1-0.2-2.3,2.2-2.2,2.3-0.3,0.7c-0.1,0.3-0.2,0.6-0.2,0.7c0,0,3.2-3.2,4.7-4.8zm-1.9,0.7l2-2.1-0.1-0.2c-0.1-0.2-0.2-0.3-0.2-0.3s-0.9,0.8-1.8,1.8c-1.7,1.8-1.8,1.8-1.9,2.3c-0.1,0.4-0.1,0.6-0.1,0.6s1-0.9,2.1-2.1zm0.9-2.2l0.7-0.7-0.2-0.3-0.1-0.3-1.5,1.5c-0.8,0.8-1.5,1.5-1.5,1.6s0,0.3-0.1,0.5v0.4l1-0.9c0.5-0.6,1.3-1.3,1.7-1.8zm-1.1-0.1c0.7-0.8,1.3-1.4,1.3-1.5c0,0-0.1-0.2-0.2-0.3l-0.1-0.2-1.2,1.3-1.2,1.2v0.4c0,0.3,0,0.4,0,0.4c0.1,0,0.7-0.6,1.4-1.3zm0.3-1.7l0.6-0.6-0.2-0.2-0.2-0.3-0.9,1-1,1v0.9l0.6-0.6c0.3-0.3,0.8-0.9,1.1-1.2zm0-1.6c-0.2-0.4-0.2-0.4-1.2,0.7l-0.7,0.7,0.1,0.4v0.4l1-1,0.9-1-0.1-0.2zm-1.3,0.4c1-1,1-1,0.8-1.2c-0.1-0.2-0.1-0.3-0.2-0.3c0,0-0.3,0.3-0.7,0.7l-0.6,0.7v0.3c0,0.2,0.1,0.4,0.1,0.4s0.3-0.3,0.6-0.6zm0.4-2c-0.1-0.2-0.2-0.3-0.2-0.3c-0.1,0-0.6,0.5-0.9,0.9c-0.2,0.2-0.2,0.3-0.2,0.6l0.1,0.3,0.6-0.6,0.7-0.7-0.1-0.2zm-0.4-0.5c0-0.1-0.1-0.6-0.3-0.6c0,0-0.2,0.2-0.4,0.4c-0.4,0.4-0.4,0.4-0.4,0.7c0,0.2,0.1,0.4,0.1,0.4c0,0.1,0.8-0.7,1-0.9zm-0.4-0.9c0-0.1-0.1-0.2-0.2-0.3l-0.2-0.3-0.3,0.3c-0.1,0.2-0.2,0.4-0.2,0.5s0,0.2,0.1,0.4v0.2l0.4-0.4c0.2-0.2,0.4-0.4,0.4-0.4zm-0.6-1c-0.3-0.3-0.4-0.3-0.4,0.1c-0.1,0.6,0,0.7,0.3,0.4l0.2-0.3-0.1-0.2zM87.2,15.4c1.6-1.6,2.8-2.9,2.8-3c0,0-0.2,0.2-0.5,0.4C87.4,14.6,84.9,17,83,19c-1,1.2-2.8,3.4-2.8,3.5c0,0,0.9-0.9,2.1-2.1c1.1-1.2,3.3-3.4,4.9-5z"
    transform="matrix(1,0,0,1,20,48)" fill="#000" stroke="none" stroke-width="1" fill-rule="evenodd" />
</svg>